<svg width="30" height="30" viewBox="0 0 30 30" fill="none" xmlns="http://www.w3.org/2000/svg">
<g clip-path="url(#clip0_1418_3797)">
<path fill-rule="evenodd" clip-rule="evenodd" d="M8.06357 0.670867C8.31168 1.01706 8.41223 1.44758 8.34312 1.86785C8.27401 2.28813 8.0409 2.66378 7.695 2.9123C6.30932 3.90781 5.18032 5.21867 4.40122 6.73662C3.62212 8.25457 3.21528 9.93608 3.21429 11.6423C3.21429 12.0685 3.04496 12.4773 2.74356 12.7787C2.44217 13.0801 2.03338 13.2494 1.60714 13.2494C1.1809 13.2494 0.772119 13.0801 0.470721 12.7787C0.169323 12.4773 0 12.0685 0 11.6423C0.000775055 9.42561 0.528978 7.24093 1.54097 5.26873C2.55296 3.29654 4.0197 1.59344 5.82 0.300153C5.99149 0.176966 6.18557 0.088779 6.39116 0.0406315C6.59674 -0.00751601 6.8098 -0.0146803 7.01816 0.0195482C7.22651 0.0537766 7.42608 0.128727 7.60546 0.240116C7.78484 0.351504 7.94051 0.499291 8.06357 0.670867ZM8.18143 5.50301C9.53001 4.15442 11.2482 3.23601 13.1187 2.86393C14.9893 2.49185 16.9282 2.68281 18.6902 3.41266C20.4522 4.14252 21.9582 5.37848 23.0178 6.96425C24.0773 8.55003 24.6429 10.4144 24.6429 12.3216V19.8216C24.6429 20.3899 24.8686 20.9349 25.2705 21.3368C25.6723 21.7387 26.2174 21.9644 26.7857 21.9644C27.0699 21.9644 27.3424 22.0773 27.5433 22.2783C27.7443 22.4792 27.8571 22.7517 27.8571 23.0359C27.8571 23.32 27.7443 23.5926 27.5433 23.7935C27.3424 23.9944 27.0699 24.1073 26.7857 24.1073H3.21429C2.93012 24.1073 2.6576 23.9944 2.45667 23.7935C2.25574 23.5926 2.14286 23.32 2.14286 23.0359C2.14286 22.7517 2.25574 22.4792 2.45667 22.2783C2.6576 22.0773 2.93012 21.9644 3.21429 21.9644C3.78261 21.9644 4.32765 21.7387 4.72951 21.3368C5.13138 20.9349 5.35714 20.3899 5.35714 19.8216V12.3216C5.35713 11.0553 5.60654 9.80134 6.09113 8.6314C6.57573 7.46147 7.28601 6.39844 8.18143 5.50301ZM11.25 28.393C11.25 27.9668 11.4193 27.558 11.7207 27.2566C12.0221 26.9552 12.4309 26.7859 12.8571 26.7859H17.1429C17.5691 26.7859 17.9779 26.9552 18.2793 27.2566C18.5807 27.558 18.75 27.9668 18.75 28.393C18.75 28.8193 18.5807 29.228 18.2793 29.5294C17.9779 29.8308 17.5691 30.0002 17.1429 30.0002H12.8571C12.4309 30.0002 12.0221 29.8308 11.7207 29.5294C11.4193 29.228 11.25 28.8193 11.25 28.393ZM24.18 0.300153C24.0083 0.177039 23.8141 0.0889402 23.6084 0.0408875C23.4027 -0.00716515 23.1896 -0.0142309 22.9811 0.0200936C22.7727 0.0544181 22.5731 0.129461 22.3936 0.240937C22.2142 0.352413 22.0585 0.498139 21.9354 0.669796C21.8122 0.841452 21.7241 1.03568 21.6761 1.24138C21.628 1.44708 21.621 1.66024 21.6553 1.86867C21.6896 2.07711 21.7647 2.27674 21.8761 2.45617C21.9876 2.63561 22.1333 2.79132 22.305 2.91444C23.6901 3.90953 24.8187 5.21971 25.5978 6.73686C26.3769 8.25401 26.784 9.93466 26.7857 11.6402C26.7857 12.0664 26.955 12.4752 27.2564 12.7766C27.5578 13.078 27.9666 13.2473 28.3929 13.2473C28.8191 13.2473 29.2279 13.078 29.5293 12.7766C29.8307 12.4752 30 12.0664 30 11.6402C29.9989 9.42383 29.4705 7.23958 28.4585 5.26778C27.4466 3.29599 25.98 1.59323 24.18 0.300153Z" fill="#17AC91"/>
</g>
<defs>
<clipPath id="clip0_1418_3797">
<rect width="30" height="30" fill="white"/>
</clipPath>
</defs>
</svg>
