<svg width="20" height="20" viewBox="0 0 20 20" fill="none" xmlns="http://www.w3.org/2000/svg">
<g clip-path="url(#clip0_1417_3699)">
<path fill-rule="evenodd" clip-rule="evenodd" d="M2.45449 2.27713C2.41741 2.27695 2.38066 2.28409 2.34635 2.29815C2.31204 2.3122 2.28085 2.3329 2.25456 2.35906C2.22828 2.38521 2.20742 2.4163 2.19319 2.45053C2.17896 2.48477 2.17163 2.52148 2.17163 2.55856V14.7314H14.9131V11.3528C14.9131 11.0687 15.0259 10.7962 15.2269 10.5952C15.4278 10.3943 15.7003 10.2814 15.9845 10.2814C16.2686 10.2814 16.5412 10.3943 16.7421 10.5952C16.943 10.7962 17.0559 11.0687 17.0559 11.3528V17.4414C17.0559 18.78 15.9702 19.8657 14.6316 19.8657H2.45163C1.11306 19.8657 0.0273438 18.78 0.0273438 17.4414V2.55856C0.0281009 1.91534 0.284151 1.29872 0.739247 0.844161C1.19434 0.389601 1.81126 0.134277 2.45449 0.134277H11.2488C11.5329 0.134277 11.8055 0.24716 12.0064 0.448092C12.2073 0.649023 12.3202 0.921545 12.3202 1.20571C12.3202 1.48987 12.2073 1.76239 12.0064 1.96332C11.8055 2.16425 11.5329 2.27713 11.2488 2.27713H2.45449ZM5.1602 4.29571C5.04295 4.29571 4.92685 4.3188 4.81852 4.36367C4.71019 4.40854 4.61176 4.47431 4.52886 4.55722C4.44595 4.64013 4.38018 4.73855 4.33531 4.84688C4.29044 4.95521 4.26734 5.07131 4.26734 5.18856C4.26734 5.30581 4.29044 5.42192 4.33531 5.53024C4.38018 5.63857 4.44595 5.737 4.52886 5.81991C4.61176 5.90282 4.71019 5.96859 4.81852 6.01346C4.92685 6.05833 5.04295 6.08142 5.1602 6.08142H7.86591C8.10272 6.08142 8.32982 5.98735 8.49726 5.81991C8.6647 5.65247 8.75877 5.42536 8.75877 5.18856C8.75877 4.95176 8.6647 4.72466 8.49726 4.55722C8.32982 4.38977 8.10272 4.29571 7.86591 4.29571H5.1602ZM4.26734 9.28571C4.26734 8.79285 4.66734 8.39285 5.1602 8.39285H6.51306C6.74986 8.39285 6.97696 8.48692 7.1444 8.65436C7.31185 8.8218 7.40591 9.04891 7.40591 9.28571C7.40591 9.52251 7.31185 9.74961 7.1444 9.91705C6.97696 10.0845 6.74986 10.1786 6.51306 10.1786H5.1602C4.9234 10.1786 4.6963 10.0845 4.52886 9.91705C4.36141 9.74961 4.26734 9.52251 4.26734 9.28571ZM13.3131 10.7628C13.4572 10.7367 13.5899 10.6669 13.6931 10.5628L19.5488 4.67999C19.6827 4.54719 19.7889 4.38919 19.8615 4.2151C19.934 4.04102 19.9713 3.85429 19.9713 3.66571C19.9713 3.47712 19.934 3.2904 19.8615 3.11631C19.7889 2.94223 19.6827 2.78422 19.5488 2.65142L18.0345 1.13713C17.9017 1.00324 17.7437 0.896959 17.5696 0.824433C17.3955 0.751906 17.2088 0.714566 17.0202 0.714566C16.8316 0.714566 16.6449 0.751906 16.4708 0.824433C16.2967 0.896959 16.1387 1.00324 16.0059 1.13713L10.1259 6.98856C10.02 7.09439 9.95006 7.23082 9.92591 7.37856L9.41163 10.4957C9.39306 10.6087 9.40192 10.7244 9.43744 10.8332C9.47297 10.9421 9.53413 11.0407 9.61577 11.121C9.69741 11.2012 9.79714 11.2607 9.90655 11.2943C10.016 11.3279 10.1319 11.3348 10.2445 11.3143L13.3131 10.7628Z" fill="#17AC91"/>
</g>
<defs>
<clipPath id="clip0_1417_3699">
<rect width="20" height="20" fill="white"/>
</clipPath>
</defs>
</svg>
