<svg width="16" height="16" viewBox="0 0 16 16" fill="none" xmlns="http://www.w3.org/2000/svg">
<path d="M6.6 10.092L4.104 7.596C4.01067 7.50267 3.896 7.45267 3.76 7.446C3.624 7.43933 3.50267 7.48933 3.396 7.596C3.28933 7.70267 3.236 7.82067 3.236 7.95C3.236 8.07933 3.28933 8.19733 3.396 8.304L6.035 10.942C6.19633 11.104 6.38467 11.185 6.6 11.185C6.81533 11.185 7.00367 11.104 7.165 10.942L12.642 5.465C12.7353 5.37167 12.7853 5.257 12.792 5.121C12.7987 4.985 12.7487 4.864 12.642 4.758C12.5353 4.65133 12.4173 4.598 12.288 4.598C12.1587 4.598 12.041 4.65133 11.935 4.758L6.6 10.092ZM1.615 16C1.155 16 0.771 15.846 0.463 15.538C0.154333 15.2293 0 14.845 0 14.385V1.615C0 1.155 0.154333 0.771 0.463 0.463C0.771 0.154333 1.155 0 1.615 0H14.385C14.845 0 15.229 0.154333 15.537 0.463C15.8457 0.771 16 1.155 16 1.615V14.385C16 14.845 15.846 15.229 15.538 15.537C15.2293 15.8457 14.845 16 14.385 16H1.615Z" fill="#FF9548"/>
</svg>
