<svg width="25" height="25" viewBox="0 0 25 25" fill="none" xmlns="http://www.w3.org/2000/svg">
<g clip-path="url(#clip0_691_270)">
<path fill-rule="evenodd" clip-rule="evenodd" d="M3.04818 0.523244C2.7114 0.197962 2.26032 0.0179716 1.79211 0.0220402C1.3239 0.0261088 0.876023 0.21391 0.544937 0.544996C0.213851 0.876082 0.0260498 1.32396 0.0219812 1.79217C0.0179126 2.26038 0.197903 2.71145 0.523185 3.04824L9.97497 12.5L0.523185 21.9518C0.352631 22.1165 0.216591 22.3136 0.123004 22.5315C0.0294163 22.7493 -0.0198448 22.9836 -0.0219052 23.2207C-0.0239656 23.4578 0.021216 23.693 0.111003 23.9124C0.200791 24.1319 0.333385 24.3313 0.501051 24.499C0.668716 24.6666 0.868095 24.7992 1.08755 24.889C1.30701 24.9788 1.54215 25.024 1.77926 25.0219C2.01636 25.0198 2.25069 24.9706 2.46855 24.877C2.68641 24.7834 2.88346 24.6474 3.04818 24.4768L12.5 15.025L21.9518 24.4768C22.2885 24.8021 22.7396 24.9821 23.2078 24.978C23.676 24.974 24.1239 24.7861 24.455 24.4551C24.7861 24.124 24.9739 23.6761 24.978 23.2079C24.982 22.7397 24.802 22.2886 24.4768 21.9518L15.025 12.5L24.4768 3.04824C24.802 2.71145 24.982 2.26038 24.978 1.79217C24.9739 1.32396 24.7861 0.876082 24.455 0.544996C24.1239 0.21391 23.676 0.0261088 23.2078 0.0220402C22.7396 0.0179716 22.2885 0.197962 21.9518 0.523244L12.5 9.97503L3.04818 0.523244Z" fill="#B9B7BE"/>
</g>
<defs>
<clipPath id="clip0_691_270">
<rect width="25" height="25" fill="white"/>
</clipPath>
</defs>
</svg>
