<svg width="177" height="177" viewBox="0 0 177 177" fill="none" xmlns="http://www.w3.org/2000/svg">
<circle cx="88.5002" cy="88.5085" r="87.57" fill="#F1F1F1"/>
<path d="M142.937 58.1701C140.429 55.2661 137.275 52.1927 135.289 50.7182C131.506 47.9085 126.96 45.847 120.92 44.2034C118.358 43.506 119.226 43.324 123.42 43.6798C130.064 44.2434 136.468 46.7678 139.241 49.9151C141.198 52.1373 143.42 55.6953 144.593 58.4822C145.339 60.2569 145.33 60.2149 144.973 60.2149C144.824 60.2149 143.908 59.2947 142.937 58.1701Z" fill="#FFFFFA"/>
<path d="M61.4531 142.165C60.7771 142.133 58.7772 141.975 57.0091 141.814C48.2859 141.019 42.1125 139.226 37.3481 136.103C35.7478 135.055 32.0032 131.491 31.2163 130.267C28.9016 126.669 28.0565 121.106 29.2507 117.328C30.3886 113.729 32.7869 110.483 36.1515 107.987C39.2748 105.671 41.3767 103.543 44.073 99.9679C48.3127 94.347 52.0966 86.0728 54.4747 77.2232C56.7845 68.6277 59.6682 62.6746 63.8888 57.7888C67.9617 53.0739 73.2231 49.8926 80.1747 47.9418C82.4384 47.3064 82.6586 47.2796 85.375 47.308C97.5995 47.4355 107.441 51.2467 115.607 59.0155C120.135 63.3242 124.163 69.6125 125.176 73.9553C127.082 82.128 127.111 91.4424 125.255 100.368C123.458 109.021 119.729 117.079 114.577 123.443C112.782 125.661 108.778 129.581 106.734 131.122C101.106 135.365 94.9731 138.209 87.4813 140.051C84.9969 140.662 77.8151 141.778 74.3124 142.098C72.3579 142.276 64.6064 142.317 61.4531 142.165Z" fill="#FFFFFA"/>
<path d="M103.787 49.4205C103.724 49.3197 103.758 48.9198 103.864 48.5319C103.969 48.144 104.237 46.9006 104.459 45.7688C105.612 39.9083 107.985 34.0994 111.15 29.4009C112.645 27.179 116.186 23.5262 117.888 22.4489C120.636 20.7099 123.346 21.2638 127.166 24.3458C131.312 27.6912 132.033 28.6454 131.455 30.0144C131.289 30.4057 130.79 30.963 130.256 31.3518C129.086 32.2055 125.615 33.8825 123.663 34.5383C117.622 36.5667 111.86 40.8502 106.1 47.5927C104.466 49.5063 104.047 49.8367 103.787 49.4205Z" fill="#FFFFFA"/>
<path d="M146.414 69.8639C146.39 69.01 145.839 66.6037 145.52 65.9662C144.883 64.6916 142.465 62.7034 140.637 61.9495C139.216 61.3636 137.009 60.9943 132.725 60.6261C130.816 60.4621 128.495 60.2027 127.566 60.0499C120.255 58.8463 115.315 55.0754 111.778 47.9993L110.903 46.2485L112.106 44.9496C113.441 43.5074 114.958 42.3025 117.323 40.808C119.479 39.4458 123.036 37.6576 124.778 37.0607C126.434 36.4931 126.998 36.5133 130.766 37.2754C139.92 39.127 146.248 44.1682 148.54 51.4354C149.323 53.919 149.498 55.1122 149.497 57.9453C149.495 61.754 148.748 65.2718 147.187 68.8229C146.639 70.0688 146.428 70.3539 146.414 69.8639ZM145.295 60.623C145.295 60.5688 145.006 59.7918 144.651 58.8962C143.492 55.9605 141.293 52.2127 139.357 49.8719C137.252 47.3272 132.545 44.9241 127.601 43.8703C124.859 43.2859 119.781 42.8963 119.781 43.2703C119.781 43.3602 120.435 43.6235 121.234 43.8552C127.209 45.5865 131.706 47.7581 135.448 50.7177C137.413 52.271 140.533 55.5085 143.013 58.5675C143.974 59.7522 144.881 60.7215 145.028 60.7215C145.175 60.7215 145.295 60.6772 145.295 60.623Z" fill="#FFFFFA"/>
</svg>
