<svg width="21" height="21" viewBox="0 0 21 21" fill="none" xmlns="http://www.w3.org/2000/svg">
<g clip-path="url(#clip0_1418_3783)">
<path fill-rule="evenodd" clip-rule="evenodd" d="M8.73314 3.37582C9.03923 3.06987 9.4195 2.84861 9.83675 2.73371C10.254 2.6188 10.6939 2.61418 11.1135 2.7203C11.5331 2.82642 11.9179 3.03963 12.2304 3.33909C12.5428 3.63855 12.7722 4.01399 12.896 4.42868H8.10456C8.22344 4.03099 8.43946 3.66915 8.73314 3.37582ZM5.91314 4.42868C6.08413 3.33488 6.64034 2.33819 7.48145 1.61836C8.32256 0.898521 9.3932 0.50293 10.5003 0.50293C11.6074 0.50293 12.678 0.898521 13.5191 1.61836C14.3602 2.33819 14.9164 3.33488 15.0874 4.42868H19.0717C19.3559 4.42868 19.6284 4.54156 19.8293 4.74249C20.0303 4.94343 20.1431 5.21595 20.1431 5.50011C20.1431 5.78427 20.0303 6.05679 19.8293 6.25772C19.6284 6.45865 19.3559 6.57154 19.0717 6.57154H17.6431V18.3573C17.6431 18.9256 17.4174 19.4706 17.0155 19.8725C16.6136 20.2743 16.0686 20.5001 15.5003 20.5001H5.50028C4.93196 20.5001 4.38691 20.2743 3.98505 19.8725C3.58319 19.4706 3.35742 18.9256 3.35742 18.3573V6.57154H1.92885C1.78815 6.57154 1.64882 6.54382 1.51883 6.48998C1.38884 6.43613 1.27073 6.35721 1.17124 6.25772C1.07174 6.15823 0.992824 6.04012 0.93898 5.91013C0.885135 5.78013 0.857422 5.64081 0.857422 5.50011C0.857422 5.35941 0.885135 5.22008 0.93898 5.09009C0.992824 4.9601 1.07174 4.84199 1.17124 4.74249C1.27073 4.643 1.38884 4.56408 1.51883 4.51024C1.64882 4.45639 1.78815 4.42868 1.92885 4.42868H5.91314ZM7.64314 8.89439C8.13599 8.89439 8.53599 9.29439 8.53599 9.78725V15.5044C8.53599 15.7412 8.44192 15.9683 8.27448 16.1357C8.10704 16.3032 7.87994 16.3973 7.64314 16.3973C7.40634 16.3973 7.17923 16.3032 7.01179 16.1357C6.84435 15.9683 6.75028 15.7412 6.75028 15.5044V9.78725C6.75028 9.29439 7.15028 8.89439 7.64314 8.89439ZM14.2503 9.78725C14.2503 9.55045 14.1562 9.32335 13.9888 9.15591C13.8213 8.98846 13.5942 8.89439 13.3574 8.89439C13.1206 8.89439 12.8935 8.98846 12.7261 9.15591C12.5586 9.32335 12.4646 9.55045 12.4646 9.78725V15.5044C12.4646 15.7412 12.5586 15.9683 12.7261 16.1357C12.8935 16.3032 13.1206 16.3973 13.3574 16.3973C13.5942 16.3973 13.8213 16.3032 13.9888 16.1357C14.1562 15.9683 14.2503 15.7412 14.2503 15.5044V9.78725Z" fill="#F36161"/>
</g>
<defs>
<clipPath id="clip0_1418_3783">
<rect width="20" height="20" fill="white" transform="translate(0.5 0.5)"/>
</clipPath>
</defs>
</svg>
