<svg width="10" height="10" viewBox="0 0 10 10" fill="none" xmlns="http://www.w3.org/2000/svg">
<g clip-path="url(#clip0_224_70)">
<path fill-rule="evenodd" clip-rule="evenodd" d="M0.0144053 8.08869C0.0141964 8.29984 0.0677866 8.50756 0.17012 8.69226C0.266663 8.88167 0.412932 9.04123 0.593248 9.15385C0.773563 9.26647 0.981127 9.32789 1.19369 9.33154H8.82012C9.03268 9.32789 9.24025 9.26647 9.42056 9.15385C9.60088 9.04123 9.74715 8.88167 9.84369 8.69226C9.94814 8.50421 10.002 8.29228 10 8.07718C9.99799 7.86208 9.9402 7.65118 9.83226 7.46511L6.01941 1.30083C5.92354 1.1106 5.77672 0.950735 5.59532 0.839062C5.41392 0.727387 5.20506 0.668294 4.99204 0.668368C4.77902 0.668442 4.57021 0.727681 4.38889 0.839481C4.20756 0.951281 4.06085 1.11125 3.96512 1.30154L0.180834 7.46583C0.0715367 7.65519 0.0141291 7.87004 0.0144053 8.08869Z" fill="#004741"/>
</g>
<defs>
<clipPath id="clip0_224_70">
<rect width="10" height="10" fill="white" transform="matrix(0 -1 1 0 0 10)"/>
</clipPath>
</defs>
</svg>
