<svg width="21" height="21" viewBox="0 0 21 21" fill="none" xmlns="http://www.w3.org/2000/svg">
<g clip-path="url(#clip0_1418_3751)">
<path fill-rule="evenodd" clip-rule="evenodd" d="M4.5791 1.43448C4.85052 0.194477 6.61767 0.185906 6.90052 1.42448L6.91481 1.48733L6.94338 1.61019C7.11592 2.34428 7.50038 3.01147 8.04899 3.52884C8.5976 4.04621 9.28617 4.39095 10.0291 4.52019C11.322 4.74448 11.322 6.60162 10.0291 6.82591C9.28197 6.95586 8.58991 7.30373 8.03989 7.8258C7.48986 8.34787 7.10639 9.02085 6.93767 9.76019L6.90052 9.92162C6.61767 11.1602 4.85195 11.1516 4.5791 9.91162L4.55052 9.77305C4.38806 9.03124 4.00834 8.35462 3.45979 7.82947C2.91124 7.30433 2.21871 6.95446 1.47052 6.82448C0.179096 6.59876 0.179096 4.74733 1.47052 4.52162C2.21587 4.39196 2.90598 4.04407 3.45349 3.52198C4.00101 2.9999 4.3813 2.3271 4.54624 1.58876L4.5691 1.48733L4.5791 1.43448ZM15.6934 5.66591C16.0892 5.4997 16.5257 5.45619 16.9465 5.54101C17.3673 5.62583 17.7529 5.83507 18.0534 6.14162L18.0562 6.14305L19.8648 7.96733C20.0648 8.16644 20.2235 8.40308 20.3318 8.66368C20.44 8.92428 20.4958 9.20371 20.4958 9.48591C20.4958 9.76811 20.44 10.0475 20.3318 10.3081C20.2235 10.5687 20.0648 10.8054 19.8648 11.0045L19.862 11.0073L11.0091 19.9173C10.8899 20.0375 10.732 20.1114 10.5634 20.1259L6.27767 20.4973C6.17393 20.5063 6.06949 20.4924 5.97167 20.4567C5.87385 20.421 5.78502 20.3644 5.71139 20.2908C5.63777 20.2171 5.58113 20.1283 5.54544 20.0305C5.50976 19.9327 5.49589 19.8282 5.50481 19.7245L5.87624 15.4388C5.89077 15.2702 5.96469 15.1122 6.08481 14.9931L14.9948 6.14019C15.1935 5.93749 15.4319 5.77627 15.6934 5.66591Z" fill="#E87E31"/>
</g>
<defs>
<clipPath id="clip0_1418_3751">
<rect width="20" height="20" fill="white" transform="translate(0.5 0.5)"/>
</clipPath>
</defs>
</svg>
