<svg width="15" height="15" viewBox="0 0 15 15" fill="none" xmlns="http://www.w3.org/2000/svg">
<g clip-path="url(#clip0_1498_3459)">
<path fill-rule="evenodd" clip-rule="evenodd" d="M0.386719 7.23535C0.386719 5.37884 1.12422 3.59836 2.43697 2.2856C3.74973 0.972849 5.5302 0.235352 7.38672 0.235352C9.24323 0.235352 11.0237 0.972849 12.3365 2.2856C13.6492 3.59836 14.3867 5.37884 14.3867 7.23535C14.3867 9.09187 13.6492 10.8723 12.3365 12.1851C11.0237 13.4979 9.24323 14.2354 7.38672 14.2354C5.5302 14.2354 3.74973 13.4979 2.43697 12.1851C1.12422 10.8723 0.386719 9.09187 0.386719 7.23535ZM11.2617 4.73535C11.3943 4.6359 11.482 4.48783 11.5054 4.32374C11.5289 4.15965 11.4862 3.99296 11.3867 3.86035C11.2873 3.72774 11.1392 3.64008 10.9751 3.61663C10.811 3.59319 10.6443 3.6359 10.5117 3.73535L8.51172 5.23535C8.42647 5.29924 8.35897 5.38385 8.31563 5.48115C8.27228 5.57846 8.25452 5.68523 8.26404 5.79133C8.27355 5.89743 8.31003 5.99934 8.37001 6.08737C8.42998 6.17541 8.51147 6.24666 8.60672 6.29435L10.6067 7.29435C10.755 7.36861 10.9267 7.38094 11.084 7.32861C11.2413 7.27629 11.3715 7.16361 11.4457 7.01535C11.52 6.8671 11.5323 6.69541 11.48 6.53807C11.4277 6.38073 11.315 6.25061 11.1667 6.17635L10.0707 5.62835L11.2617 4.73535ZM3.38672 3.86035C3.48617 3.72774 3.63424 3.64008 3.79833 3.61663C3.96242 3.59319 4.12911 3.6359 4.26172 3.73535L6.26172 5.23535C6.34696 5.29924 6.41446 5.38385 6.45781 5.48115C6.50116 5.57846 6.51892 5.68523 6.5094 5.79133C6.49988 5.89743 6.46341 5.99934 6.40343 6.08737C6.34345 6.17541 6.26197 6.24666 6.16672 6.29435L4.16672 7.29435C4.01846 7.36861 3.84678 7.38094 3.68944 7.32861C3.53209 7.27629 3.40198 7.16361 3.32772 7.01535C3.25346 6.8671 3.24113 6.69541 3.29346 6.53807C3.34578 6.38073 3.45846 6.25061 3.60672 6.17635L4.70272 5.62835L3.51172 4.73535C3.37911 4.6359 3.29144 4.48783 3.268 4.32374C3.24456 4.15965 3.28726 3.99296 3.38672 3.86035ZM5.42372 10.5544C5.33613 10.6905 5.19911 10.7874 5.04152 10.8245C4.88394 10.8617 4.71808 10.8363 4.57888 10.7536C4.43968 10.6709 4.338 10.5374 4.29526 10.3812C4.25251 10.2251 4.27204 10.0584 4.34972 9.91635L4.35172 9.91235L4.35572 9.90635L4.36972 9.88235C4.44858 9.75171 4.5306 9.623 4.61572 9.49635C4.77772 9.25035 5.00772 8.91935 5.27172 8.58635C5.53372 8.25635 5.84472 7.90435 6.17172 7.62835C6.47372 7.37535 6.90172 7.08835 7.38672 7.08835C7.87072 7.08835 8.29972 7.37535 8.60172 7.62835C8.92872 7.90435 9.23972 8.25535 9.50172 8.58635C9.82787 9.00004 10.1291 9.43281 10.4037 9.88235L10.4177 9.90635L10.4217 9.91235L10.4237 9.91435V9.91535C10.5086 10.0578 10.5334 10.2281 10.4927 10.3888C10.452 10.5495 10.3491 10.6875 10.2067 10.7724C10.0643 10.8572 9.894 10.882 9.73328 10.8413C9.57256 10.8006 9.43459 10.6978 9.34972 10.5554L9.34672 10.5504L9.33572 10.5314C9.26468 10.4146 9.19134 10.2992 9.11572 10.1854C8.96572 9.95835 8.75772 9.65935 8.52172 9.36235C8.28372 9.06235 8.03172 8.78335 7.79672 8.58535C7.70574 8.50578 7.60612 8.43668 7.49972 8.37935C7.46468 8.35931 7.42646 8.34544 7.38672 8.33835C7.34698 8.34544 7.30876 8.35931 7.27372 8.37935C7.19372 8.41935 7.09372 8.48735 6.97672 8.58535C6.71072 8.82053 6.46794 9.08073 6.25172 9.36235C5.95745 9.73589 5.68564 10.1266 5.43772 10.5324L5.42672 10.5504L5.42372 10.5544Z" fill="#B9B7BE"/>
</g>
<defs>
<clipPath id="clip0_1498_3459">
<rect width="14" height="14" fill="white" transform="translate(0.386719 0.235352)"/>
</clipPath>
</defs>
</svg>
