<svg width="15" height="15" viewBox="0 0 15 15" fill="none" xmlns="http://www.w3.org/2000/svg">
<g clip-path="url(#clip0_1498_1271)">
<path fill-rule="evenodd" clip-rule="evenodd" d="M7.38672 0.918457C5.5302 0.918457 3.74973 1.65595 2.43697 2.96871C1.12422 4.28146 0.386719 6.06194 0.386719 7.91846C0.386719 9.77497 1.12422 11.5554 2.43697 12.8682C3.74973 14.181 5.5302 14.9185 7.38672 14.9185C9.24323 14.9185 11.0237 14.181 12.3365 12.8682C13.6492 11.5554 14.3867 9.77497 14.3867 7.91846C14.3867 6.06194 13.6492 4.28146 12.3365 2.96871C11.0237 1.65595 9.24323 0.918457 7.38672 0.918457ZM3.72972 9.14146C3.72972 9.07515 3.75606 9.01157 3.80294 8.96468C3.84983 8.9178 3.91341 8.89146 3.97972 8.89146H10.7617C10.828 8.89146 10.8916 8.9178 10.9385 8.96468C10.9854 9.01157 11.0117 9.07515 11.0117 9.14146C11.0117 9.69346 10.7417 10.4785 10.1597 11.1245C9.56972 11.7805 8.65572 12.2975 7.36972 12.2975C6.08572 12.2975 5.17172 11.7805 4.58072 11.1245C3.99972 10.4785 3.73072 9.69446 3.73072 9.14146H3.72972ZM4.96872 6.89446C4.697 6.89419 4.43652 6.786 4.24458 6.59368C4.14954 6.49845 4.07419 6.38544 4.02282 6.26109C3.97146 6.13674 3.94509 6.0035 3.94522 5.86896C3.94535 5.73442 3.97198 5.60122 4.02359 5.47697C4.07519 5.35273 4.15077 5.23986 4.246 5.14482C4.43831 4.95288 4.699 4.84519 4.97072 4.84546H4.97372C5.24543 4.84585 5.50586 4.95417 5.69771 5.14659C5.88956 5.339 5.99712 5.59974 5.99672 5.87146C5.99632 6.14317 5.888 6.4036 5.69559 6.59545C5.50318 6.7873 5.24243 6.89485 4.97072 6.89446H4.96872ZM9.79972 6.89446C9.528 6.89406 9.26758 6.78574 9.07573 6.59333C8.88388 6.40091 8.77632 6.14017 8.77672 5.86846C8.77712 5.59674 8.88544 5.33632 9.07785 5.14447C9.27026 4.95262 9.531 4.84506 9.80272 4.84546H9.80472C10.0764 4.84572 10.3369 4.95391 10.5289 5.14623C10.7208 5.33855 10.8285 5.59924 10.8282 5.87096C10.828 6.14267 10.7198 6.40315 10.5274 6.5951C10.3351 6.78704 10.0744 6.89472 9.80272 6.89446H9.79972Z" fill="#B9B7BE"/>
</g>
<defs>
<clipPath id="clip0_1498_1271">
<rect width="14" height="14" fill="white" transform="translate(0.386719 0.918457)"/>
</clipPath>
</defs>
</svg>
