<svg width="15" height="15" viewBox="0 0 15 15" fill="none" xmlns="http://www.w3.org/2000/svg">
<g clip-path="url(#clip0_1498_3440)">
<path fill-rule="evenodd" clip-rule="evenodd" d="M14.3867 7.47314C14.3867 5.61663 13.6492 3.83615 12.3365 2.5234C11.0237 1.21064 9.24323 0.473145 7.38672 0.473145C5.5302 0.473145 3.74973 1.21064 2.43697 2.5234C1.12422 3.83615 0.386719 5.61663 0.386719 7.47314C0.386719 9.32966 1.12422 11.1101 2.43697 12.4229C3.74973 13.7356 5.5302 14.4731 7.38672 14.4731C9.24323 14.4731 11.0237 13.7356 12.3365 12.4229C13.6492 11.1101 14.3867 9.32966 14.3867 7.47314ZM10.8267 5.42514C10.8267 5.99014 10.3697 6.44814 9.80472 6.44914H9.80272C9.53653 6.44123 9.28387 6.33002 9.09824 6.13906C8.91261 5.94811 8.80859 5.69241 8.8082 5.4261C8.80781 5.15979 8.91108 4.90378 9.09615 4.71229C9.28122 4.52079 9.53355 4.40884 9.79972 4.40014H9.80272C10.3677 4.40014 10.8267 4.85914 10.8267 5.42514ZM5.99572 5.42514C5.99572 5.99014 5.53872 6.44814 4.97372 6.44914H4.97072C4.70453 6.44109 4.45193 6.32976 4.2664 6.13871C4.08087 5.94767 3.97698 5.69192 3.97672 5.42561C3.97646 5.15931 4.07985 4.90335 4.26501 4.71195C4.45017 4.52055 4.70255 4.40872 4.96872 4.40014H4.97072C5.53672 4.40014 5.99572 4.85914 5.99572 5.42514ZM9.83872 9.17314C10.0045 9.17314 10.1635 9.23899 10.2807 9.3562C10.3979 9.47341 10.4637 9.63238 10.4637 9.79814C10.4637 9.9639 10.3979 10.1229 10.2807 10.2401C10.1635 10.3573 10.0045 10.4231 9.83872 10.4231H4.93472C4.76896 10.4231 4.60999 10.3573 4.49278 10.2401C4.37557 10.1229 4.30972 9.9639 4.30972 9.79814C4.30972 9.63238 4.37557 9.47341 4.49278 9.3562C4.60999 9.23899 4.76896 9.17314 4.93472 9.17314H9.83872Z" fill="#B9B7BE"/>
</g>
<defs>
<clipPath id="clip0_1498_3440">
<rect width="14" height="14" fill="white" transform="translate(0.386719 0.473145)"/>
</clipPath>
</defs>
</svg>
