<svg width="756" height="595" viewBox="0 0 756 595" fill="none" xmlns="http://www.w3.org/2000/svg">
<path fill-rule="evenodd" clip-rule="evenodd" d="M382.601 14.0366C701.269 28.8212 869.233 344.53 669.947 451.358C626.191 474.824 565.1 415.723 459.741 460.229C362.029 501.493 286.667 634.062 152.183 583.775C64.3681 550.927 49.7765 429.863 41.0897 373.284C-16.1411 0.313448 26.1007 -2.5108 382.601 14.0366Z" fill="#DCFFF4"/>
<path d="M468.175 74.981C464.073 70.3156 458.914 65.378 455.665 63.0091C449.477 58.4952 442.041 55.1834 432.161 52.5429C427.97 51.4225 429.39 51.1301 436.25 51.7016C447.118 52.6072 457.594 56.6626 462.13 61.7189C465.331 65.289 468.966 71.005 470.884 75.4823C472.104 78.3334 472.09 78.266 471.506 78.266C471.263 78.266 469.764 76.7877 468.175 74.981Z" fill="#E87E31"/>
<path d="M334.21 204.5C333.102 204.451 329.821 204.206 326.92 203.956C312.61 202.724 302.483 199.945 294.667 195.107C292.042 193.482 285.899 187.959 284.609 186.064C280.811 180.488 279.425 171.867 281.384 166.014C283.251 160.437 287.185 155.407 292.704 151.54C297.828 147.95 301.276 144.652 305.699 139.113C312.654 130.403 318.862 117.582 322.763 103.869C326.552 90.5496 331.282 81.3249 338.206 73.7541C344.888 66.448 353.519 61.5185 364.922 58.4956C368.636 57.5111 368.997 57.4695 373.453 57.5134C393.507 57.7111 409.651 63.6167 423.047 75.655C430.476 82.3316 437.083 92.0756 438.745 98.8051C441.871 111.469 441.918 125.902 438.875 139.733C435.926 153.141 429.81 165.627 421.357 175.489C418.413 178.925 411.844 185.001 408.491 187.389C399.259 193.963 389.198 198.37 376.908 201.224C372.833 202.171 361.051 203.9 355.305 204.396C352.099 204.673 339.383 204.735 334.21 204.5Z" fill="#06E19F"/>
<path d="M403.859 61.6277C403.756 61.4704 403.811 60.8461 403.985 60.2406C404.157 59.635 404.596 57.694 404.96 55.9274C406.849 46.7791 410.738 37.7113 415.924 30.3769C418.374 26.9084 424.176 21.2063 426.965 19.5246C431.468 16.81 435.908 17.6748 442.167 22.4858C448.961 27.708 450.143 29.1975 449.195 31.3346C448.925 31.9454 448.106 32.8153 447.232 33.4222C445.313 34.7549 439.627 37.3726 436.428 38.3963C426.53 41.5627 417.088 48.2493 407.649 58.7745C404.971 61.7616 404.285 62.2774 403.859 61.6277Z" fill="#036C66"/>
<path d="M473.798 92.2094C473.759 90.9071 472.848 87.2372 472.321 86.2649C471.266 84.321 467.269 81.2887 464.246 80.139C461.895 79.2455 458.246 78.6823 451.163 78.1207C448.006 77.8705 444.168 77.4748 442.632 77.2418C430.542 75.4062 422.373 69.6552 416.526 58.8633L415.078 56.1931L417.067 54.2121C419.275 52.0125 421.784 50.175 425.693 47.8957C429.259 45.8181 435.141 43.0909 438.022 42.1806C440.76 41.3149 441.693 41.3457 447.923 42.5081C463.06 45.3319 473.523 53.0203 477.313 64.1038C478.609 67.8915 478.898 69.7112 478.897 74.0321C478.893 79.8408 477.658 85.2059 475.077 90.6217C474.171 92.5218 473.821 92.9567 473.798 92.2094ZM471.947 78.1159C471.947 78.0333 471.469 76.8482 470.884 75.4824C468.966 71.0051 465.331 65.2892 462.13 61.7192C458.649 57.8383 450.865 54.1731 442.689 52.566C438.155 51.6748 429.758 51.0806 429.758 51.6509C429.758 51.7881 430.84 52.1896 432.161 52.543C442.041 55.1835 449.477 58.4955 455.665 63.0092C458.914 65.3781 464.073 70.3156 468.175 74.981C469.764 76.7878 471.263 78.2661 471.506 78.2661C471.75 78.2661 471.947 78.1985 471.947 78.1159Z" fill="#FF9548"/>
<path d="M196.215 269.302L201.693 207.347H217.076L230.621 242.567L244.166 207.347H259.549L265.027 269.302H250.582L247.805 233.217L234.973 268.588H226.269L213.437 233.217L210.698 269.302H196.215Z" fill="#036C66"/>
<path d="M292.466 270.504C288.939 270.504 285.738 269.628 282.861 267.876C279.985 266.099 277.696 263.67 275.995 260.591C274.294 257.486 273.443 253.957 273.443 250.002C273.443 246.172 274.256 242.731 275.882 239.675C277.508 236.596 279.747 234.157 282.598 232.354C285.45 230.552 288.739 229.651 292.466 229.651C294.892 229.651 297.194 230.065 299.37 230.889C301.571 231.715 303.435 232.88 304.96 234.382V230.852H318.655V269.302H304.96V265.322C303.159 267.024 301.208 268.313 299.107 269.189C297.031 270.066 294.817 270.504 292.466 270.504ZM296.593 258.9C298.294 258.9 299.795 258.525 301.096 257.774C302.396 256.999 303.409 255.948 304.135 254.62C304.86 253.294 305.223 251.779 305.223 250.077C305.223 248.376 304.848 246.861 304.097 245.533C303.372 244.207 302.359 243.168 301.058 242.417C299.758 241.641 298.269 241.253 296.593 241.253C294.942 241.253 293.454 241.641 292.128 242.417C290.828 243.168 289.79 244.207 289.014 245.533C288.264 246.861 287.889 248.376 287.889 250.077C287.889 251.755 288.264 253.268 289.014 254.62C289.765 255.948 290.79 256.999 292.091 257.774C293.417 258.525 294.917 258.9 296.593 258.9ZM331.261 269.302V230.852H344.956V234.758C346.607 233.18 348.545 231.94 350.771 231.039C352.998 230.114 355.336 229.651 357.788 229.651C360.739 229.651 363.353 230.301 365.629 231.603C367.906 232.906 369.694 234.708 370.995 237.01C372.32 239.289 372.983 241.905 372.983 244.857V269.302H359.288V247.786C359.288 245.484 358.651 243.669 357.375 242.342C356.099 240.991 354.373 240.315 352.197 240.315C350.721 240.315 349.446 240.615 348.37 241.216C347.295 241.817 346.457 242.656 345.856 243.731C345.256 244.782 344.956 245.997 344.956 247.374V269.302H331.261ZM403.926 289.954C398.624 289.954 394.171 289.004 390.569 287.101C386.993 285.223 384.416 282.445 382.84 278.765L393.946 273.321C394.922 274.772 396.311 275.937 398.112 276.812C399.938 277.688 401.851 278.127 403.851 278.127C405.753 278.127 407.404 277.739 408.804 276.962C410.23 276.186 411.331 275.134 412.106 273.808C412.882 272.482 413.27 270.98 413.27 269.302V265.322C411.544 266.974 409.593 268.251 407.417 269.152C405.266 270.053 403.002 270.504 400.625 270.504C397.173 270.504 394.021 269.641 391.17 267.912C388.318 266.185 386.03 263.782 384.304 260.703C382.604 257.624 381.753 254.083 381.753 250.077C381.753 246.198 382.578 242.718 384.229 239.639C385.906 236.56 388.181 234.131 391.058 232.354C393.959 230.552 397.261 229.651 400.963 229.651C403.39 229.651 405.665 230.065 407.792 230.889C409.942 231.715 411.769 232.88 413.27 234.382V230.852H426.964V270.354C426.964 273.958 426.151 277.237 424.526 280.192C422.924 283.17 420.424 285.536 417.022 287.289C413.619 289.066 409.254 289.954 403.926 289.954ZM404.827 258.9C406.529 258.9 408.03 258.525 409.329 257.774C410.656 256.999 411.694 255.948 412.444 254.62C413.195 253.294 413.57 251.805 413.57 250.153C413.57 248.425 413.182 246.898 412.406 245.572C411.655 244.245 410.63 243.194 409.329 242.417C408.03 241.641 406.553 241.253 404.902 241.253C403.227 241.253 401.739 241.641 400.438 242.417C399.137 243.194 398.099 244.256 397.323 245.608C396.572 246.936 396.197 248.462 396.197 250.189C396.197 251.841 396.561 253.332 397.286 254.658C398.037 255.961 399.062 256.999 400.363 257.774C401.664 258.525 403.152 258.9 404.827 258.9ZM458.676 270.504C454.349 270.504 450.447 269.641 446.97 267.912C443.494 266.161 440.742 263.758 438.716 260.703C436.689 257.624 435.677 254.083 435.677 250.077C435.677 246.072 436.689 242.542 438.716 239.489C440.742 236.41 443.494 234.007 446.97 232.279C450.447 230.526 454.349 229.651 458.676 229.651C463.005 229.651 466.907 230.526 470.382 232.279C473.86 234.007 476.611 236.41 478.637 239.489C480.663 242.542 481.677 246.072 481.677 250.077C481.677 254.083 480.663 257.624 478.637 260.703C476.611 263.758 473.86 266.161 470.382 267.912C466.907 269.641 463.005 270.504 458.676 270.504ZM458.676 258.864C460.278 258.864 461.729 258.488 463.028 257.737C464.355 256.986 465.406 255.961 466.18 254.658C466.956 253.332 467.344 251.805 467.344 250.077C467.344 248.35 466.956 246.823 466.18 245.496C465.406 244.17 464.355 243.143 463.028 242.417C461.729 241.666 460.278 241.291 458.676 241.291C457.076 241.291 455.612 241.666 454.287 242.417C452.986 243.143 451.948 244.17 451.172 245.496C450.398 246.823 450.01 248.35 450.01 250.077C450.01 251.805 450.398 253.332 451.172 254.658C451.948 255.961 452.986 256.986 454.287 257.737C455.612 258.488 457.076 258.864 458.676 258.864ZM510.194 270.504C505.867 270.504 501.965 269.641 498.487 267.912C495.01 266.161 492.259 263.758 490.233 260.703C488.207 257.624 487.193 254.083 487.193 250.077C487.193 246.072 488.207 242.542 490.233 239.489C492.259 236.41 495.01 234.007 498.487 232.279C501.965 230.526 505.867 229.651 510.194 229.651C514.52 229.651 518.422 230.526 521.9 232.279C525.377 234.007 528.128 236.41 530.154 239.489C532.18 242.542 533.192 246.072 533.192 250.077C533.192 254.083 532.18 257.624 530.154 260.703C528.128 263.758 525.377 266.161 521.9 267.912C518.422 269.641 514.52 270.504 510.194 270.504ZM510.194 258.864C511.795 258.864 513.245 258.488 514.546 257.737C515.871 256.986 516.922 255.961 517.698 254.658C518.474 253.332 518.86 251.805 518.86 250.077C518.86 248.35 518.474 246.823 517.698 245.496C516.922 244.17 515.871 243.143 514.546 242.417C513.245 241.666 511.795 241.291 510.194 241.291C508.592 241.291 507.13 241.666 505.803 242.417C504.503 243.143 503.466 244.17 502.69 245.496C501.914 246.823 501.526 248.35 501.526 250.077C501.526 251.805 501.914 253.332 502.69 254.658C503.466 255.961 504.503 256.986 505.803 257.737C507.13 258.488 508.592 258.864 510.194 258.864Z" fill="#25B290"/>
<path d="M69.1612 19.6299C67.0603 18.8772 64.5779 18.2227 63.1426 18.0427C60.4077 17.6997 57.4845 17.9509 53.905 18.8362C52.386 19.212 52.7849 18.8738 55.0533 17.8627C58.6473 16.261 62.6599 15.7158 64.9648 16.5162C66.5925 17.0811 68.7266 18.2446 70.1044 19.3171C70.9815 20.0003 70.9653 19.9816 70.7806 20.083C70.7036 20.1252 69.9749 19.9213 69.1612 19.6299Z" fill="#B5FBE5"/>
<path d="M48.8613 83.2156C48.5021 83.3927 47.4223 83.8856 46.4622 84.3114C41.7249 86.411 38.0469 87.3035 34.7482 87.1537C33.6402 87.1034 30.7539 86.4503 30.0219 86.0842C27.8685 85.0075 25.9578 82.5646 25.578 80.4025C25.2162 78.3426 25.6017 76.0939 26.6873 73.9323C27.6951 71.9256 28.2228 70.3008 28.6761 67.8089C29.3888 63.8906 29.1629 58.8223 28.0553 53.8765C26.9794 49.0728 26.9006 45.3803 27.798 41.8221C28.664 38.3883 30.5525 35.356 33.6437 32.436C34.6503 31.4851 34.7575 31.4095 36.1747 30.6498C42.5523 27.2312 48.6679 26.2679 54.9611 27.6908C58.4513 28.4799 62.2054 30.3665 63.8802 32.173C67.0319 35.5726 69.5112 40.0575 70.9108 44.891C72.2676 49.5765 72.4647 54.5249 71.4754 59.0611C71.1306 60.642 70.0898 63.6733 69.4369 64.9986C67.6395 68.6469 65.2094 71.7649 61.8089 74.7858C60.6812 75.7879 57.2496 78.3707 55.5167 79.5224C54.5496 80.1649 50.5377 82.3909 48.8613 83.2156Z" fill="#B5FBE5"/>
<path d="M46.4427 26.6597C46.3829 26.6287 46.2942 26.4242 46.2455 26.2053C46.1968 25.9864 46.0046 25.3045 45.8185 24.69C44.8546 21.508 44.5417 18.0016 44.9368 14.8098C45.1236 13.3005 45.9949 10.5097 46.5949 9.49835C47.5635 7.86591 49.1241 7.36057 51.9388 7.76791C54.9941 8.21007 55.6254 8.46792 55.689 9.29987C55.7073 9.53762 55.5957 9.95169 55.4214 10.2935C55.0388 11.0439 53.6769 12.8528 52.8338 13.7306C50.2258 16.4457 48.3643 20.179 47.1609 25.1084C46.8194 26.5074 46.6896 26.7878 46.4427 26.6597Z" fill="#B5FBE5"/>
<path d="M73.844 23.983C73.6093 23.584 72.6944 22.5987 72.3618 22.3872C71.6967 21.9644 69.9162 21.7123 68.7649 21.878C67.8702 22.0068 66.6212 22.4637 64.2886 23.5158C63.249 23.9847 61.969 24.5265 61.4443 24.72C57.3125 26.2427 53.7499 25.8666 50.0594 23.518L49.1462 22.937L49.4356 21.9755C49.757 20.9078 50.2356 19.9007 51.0807 18.5134C51.8512 17.2488 53.2427 15.3803 53.997 14.5977C54.7143 13.8534 55.0142 13.7013 57.1803 12.9841C62.4428 11.2415 67.0609 11.8236 70.1518 14.6193C71.2082 15.5747 71.6105 16.0914 72.3483 17.4376C73.3397 19.2476 73.8663 21.1327 73.9767 23.2668C74.0153 24.0156 73.9792 24.2116 73.844 23.983ZM70.8514 19.9136C70.8373 19.8879 70.484 19.6015 70.0656 19.2775C68.6948 18.2152 66.5702 17.0645 64.949 16.5072C63.187 15.9011 60.1024 16.1081 57.246 17.0238C55.6618 17.5317 52.9083 18.8014 53.0057 18.9791C53.0292 19.0218 53.4395 18.9594 53.9174 18.8404C57.4881 17.9516 60.4029 17.6947 63.1285 18.0286C64.5589 18.2039 67.032 18.848 69.1245 19.5906C69.9349 19.8782 70.6609 20.079 70.7378 20.0368C70.8147 19.9946 70.8655 19.9393 70.8514 19.9136Z" fill="#B5FBE5"/>
<path d="M732.227 423.221C731.166 421.253 729.754 419.103 728.805 418.007C726.996 415.92 724.649 414.15 721.389 412.412C720.005 411.675 720.529 411.69 722.897 412.456C726.648 413.669 730.003 415.95 731.185 418.09C732.02 419.601 732.831 421.897 733.139 423.619C733.336 424.716 733.336 424.691 733.131 424.643C733.045 424.623 732.638 423.983 732.227 423.221Z" fill="#B5FBE5"/>
<path d="M674.514 457.013C674.128 456.905 672.993 456.549 671.992 456.223C667.056 454.615 663.717 452.817 661.359 450.497C660.567 449.717 658.853 447.297 658.553 446.534C657.669 444.29 657.881 441.189 659.046 439.324C660.156 437.546 661.949 436.129 664.206 435.245C666.301 434.424 667.783 433.567 669.789 432.013C672.945 429.57 676.171 425.642 678.657 421.214C681.073 416.914 683.487 414.109 686.539 412.058C689.484 410.079 692.922 409.084 697.181 408.978C698.568 408.944 698.699 408.959 700.264 409.342C707.306 411.066 712.509 414.443 716.246 419.718C718.319 422.644 719.853 426.564 719.891 429.032C719.963 433.676 718.807 438.679 716.613 443.219C714.486 447.619 711.319 451.439 707.544 454.157C706.228 455.104 703.423 456.666 702.048 457.217C698.266 458.732 694.366 459.428 689.809 459.402C688.298 459.394 684.01 459.02 681.948 458.718C680.797 458.549 676.316 457.522 674.514 457.013Z" fill="#B5FBE5"/>
<path d="M710.588 413.245C710.564 413.182 710.635 412.97 710.745 412.774C710.856 412.578 711.169 411.942 711.442 411.359C712.855 408.342 714.97 405.519 717.402 403.405C718.552 402.406 721.07 400.909 722.195 400.557C724.01 399.989 725.511 400.658 727.336 402.847C729.317 405.222 729.615 405.837 729.105 406.5C728.959 406.689 728.599 406.923 728.24 407.061C727.453 407.364 725.226 407.8 724.01 407.89C720.248 408.166 716.36 409.702 712.162 412.57C710.971 413.384 710.686 413.506 710.588 413.245Z" fill="#B5FBE5"/>
<path d="M732.802 429.601C732.894 429.147 732.872 427.8 732.766 427.419C732.553 426.659 731.395 425.279 730.426 424.631C729.673 424.128 728.436 423.632 725.993 422.854C724.904 422.507 723.588 422.054 723.067 421.846C718.968 420.214 716.565 417.548 715.387 413.326L715.096 412.281L715.955 411.759C716.91 411.178 717.941 410.748 719.5 410.28C720.921 409.854 723.21 409.393 724.296 409.315C725.329 409.241 725.654 409.328 727.749 410.244C732.838 412.47 735.89 415.997 736.321 420.15C736.468 421.57 736.422 422.224 736.07 423.722C735.597 425.734 734.727 427.492 733.38 429.156C732.907 429.74 732.749 429.862 732.802 429.601ZM733.297 424.564C733.303 424.536 733.232 424.086 733.137 423.564C732.827 421.854 732.014 419.574 731.179 418.073C730.272 416.441 727.834 414.53 725.093 413.299C723.572 412.617 720.669 411.719 720.623 411.917C720.612 411.964 720.959 412.192 721.395 412.424C724.652 414.153 726.996 415.913 728.803 417.988C729.752 419.076 731.164 421.212 732.226 423.167C732.637 423.924 733.044 424.56 733.129 424.58C733.215 424.6 733.29 424.593 733.297 424.564Z" fill="#B5FBE5"/>
<path d="M66.6289 461.74C64.3974 461.758 61.8415 462 60.4322 462.325C57.7467 462.947 55.0895 464.19 52.0348 466.256C50.7386 467.132 50.9964 466.677 52.777 464.946C55.5982 462.203 59.1767 460.308 61.6162 460.264C63.3389 460.233 65.7433 460.589 67.4064 461.121C68.4654 461.46 68.4437 461.448 68.3053 461.607C68.2475 461.673 67.4932 461.733 66.6289 461.74Z" fill="#B5FBE5"/>
<path d="M69.501 528.426C69.2249 528.716 68.3813 529.551 67.627 530.281C63.9043 533.886 60.7596 535.992 57.6116 536.989C56.5542 537.324 53.6198 537.706 52.8064 537.615C50.4138 537.347 47.7779 535.713 46.6758 533.814C45.6258 532.005 45.2123 529.762 45.4859 527.358C45.7399 525.127 45.6749 523.42 45.2411 520.925C44.5589 517.001 42.5991 512.321 39.8539 508.061C37.1876 503.923 35.8403 500.484 35.4556 496.835C35.0844 493.313 35.8114 489.815 37.7061 486.008C38.323 484.769 38.3975 484.661 39.4658 483.459C44.2734 478.051 49.6817 475.038 56.0795 474.203C59.6278 473.74 63.8022 474.217 65.9973 475.335C70.1279 477.439 74.0018 480.794 76.9823 484.848C79.8716 488.779 81.7629 493.355 82.3986 497.955C82.6201 499.557 82.6885 502.762 82.5326 504.231C82.1035 508.275 80.8977 512.04 78.7475 516.048C78.0346 517.378 75.7041 520.985 74.4746 522.664C73.7884 523.6 70.7902 527.073 69.501 528.426Z" fill="#B5FBE5"/>
<path d="M47.7281 476.173C47.6613 476.164 47.5075 476.003 47.3863 475.814C47.2651 475.626 46.8496 475.052 46.463 474.539C44.4609 471.885 42.9581 468.701 42.2283 465.569C41.8832 464.088 41.7386 461.168 41.9531 460.012C42.2993 458.145 43.5899 457.133 46.3725 456.545C49.3929 455.906 50.0743 455.93 50.421 456.689C50.52 456.906 50.5581 457.333 50.5124 457.714C50.412 458.551 49.7575 460.718 49.2688 461.833C47.7569 465.281 47.2971 469.427 47.8674 474.469C48.0292 475.9 48.0041 476.208 47.7281 476.173Z" fill="#B5FBE5"/>
<path d="M72.5257 464.211C72.1678 463.918 70.9692 463.308 70.5841 463.225C69.814 463.057 68.0558 463.434 67.0322 463.987C66.2368 464.416 65.222 465.276 63.3952 467.068C62.5811 467.866 61.5665 468.817 61.1406 469.179C57.7874 472.033 54.3137 472.909 50.0396 471.977L48.982 471.746L48.9221 470.744C48.8557 469.631 48.9576 468.521 49.2725 466.927C49.5596 465.474 50.2215 463.24 50.6596 462.246C51.0763 461.3 51.3054 461.054 53.0913 459.633C57.4301 456.183 61.9656 455.137 65.831 456.695C67.152 457.228 67.7078 457.574 68.8646 458.583C70.4193 459.94 71.5637 461.528 72.4033 463.493C72.6977 464.183 72.7314 464.379 72.5257 464.211ZM68.3134 461.424C68.2912 461.404 67.8608 461.257 67.3564 461.097C65.7034 460.573 63.3123 460.225 61.5983 460.261C59.7354 460.3 56.9114 461.558 54.546 463.403C53.234 464.426 51.0873 466.567 51.24 466.7C51.2768 466.732 51.6404 466.532 52.048 466.256C55.0932 464.19 57.7406 462.944 60.4141 462.317C61.8172 461.989 64.3608 461.74 66.581 461.716C67.4409 461.706 68.1916 461.644 68.2492 461.578C68.3068 461.512 68.3355 461.443 68.3134 461.424Z" fill="#B5FBE5"/>
<path d="M599.66 24.7219C598.294 22.9572 596.554 21.07 595.441 20.1461C593.32 18.3857 590.72 17.0248 587.227 15.8455C585.744 15.345 586.262 15.2745 588.719 15.6426C592.61 16.2259 596.286 17.925 597.798 19.8397C598.866 21.1916 600.039 23.3204 600.624 24.9657C600.995 26.0135 600.992 25.989 600.782 25.9751C600.694 25.9693 600.189 25.4053 599.66 24.7219Z" fill="#B5FBE5"/>
<path d="M548.341 67.4013C547.943 67.3573 546.767 67.192 545.729 67.0344C540.606 66.2557 537.025 65.0294 534.325 63.1285C533.418 62.4901 531.337 60.3868 530.917 59.6844C529.681 57.6183 529.384 54.5311 530.227 52.5042C531.03 50.5731 532.565 48.885 534.643 47.6468C536.572 46.4974 537.891 45.4116 539.614 43.5549C542.323 40.6354 544.859 36.2415 546.586 31.4765C548.263 26.8484 550.183 23.6934 552.854 21.1767C555.431 18.748 558.654 17.2079 562.831 16.4094C564.191 16.1494 564.322 16.1433 565.925 16.2653C573.141 16.8146 578.814 19.2926 583.354 23.8776C585.871 26.4205 588.021 30.0304 588.461 32.4542C589.289 37.0155 588.966 42.1299 587.545 46.9572C586.168 51.6369 583.672 55.9142 580.398 59.2058C579.257 60.353 576.749 62.3484 575.485 63.1143C572.008 65.2227 568.282 66.5437 563.79 67.2608C562.3 67.4989 558.018 67.8299 555.938 67.8685C554.777 67.8898 550.198 67.608 548.341 67.4013Z" fill="#B5FBE5"/>
<path d="M576.728 18.4259C576.694 18.3675 576.729 18.1474 576.806 17.9367C576.882 17.7259 577.087 17.0478 577.261 16.4296C578.16 13.2288 579.783 10.1047 581.833 7.62673C582.803 6.45491 585.038 4.57104 586.088 4.04137C587.783 3.18635 589.37 3.59992 591.524 5.45755C593.862 7.47396 594.255 8.03092 593.861 8.76646C593.748 8.97667 593.432 9.26571 593.101 9.46005C592.375 9.88681 590.254 10.679 589.071 10.9653C585.411 11.851 581.834 13.9967 578.168 17.5046C577.127 18.5001 576.867 18.6667 576.728 18.4259Z" fill="#B5FBE5"/>
<path d="M601.266 30.9106C601.283 30.4481 601.041 29.1253 600.875 28.7681C600.542 28.0538 599.176 26.8835 598.117 26.4038C597.293 26.031 595.994 25.7443 593.462 25.3762C592.334 25.2122 590.963 24.9804 590.417 24.8612C586.115 23.922 583.314 21.6884 581.466 17.7232L581.009 16.7421L581.77 16.0873C582.616 15.3602 583.561 14.7687 585.02 14.0539C586.349 13.4024 588.528 12.576 589.585 12.322C590.59 12.0805 590.924 12.1137 593.136 12.6744C598.51 14.0365 602.089 17.0116 603.191 21.0311C603.567 22.4048 603.628 23.0568 603.526 24.5885C603.388 26.6476 602.818 28.52 601.763 30.3783C601.393 31.0303 601.257 31.1761 601.266 30.9106ZM600.932 25.8704C600.934 25.8411 600.79 25.4096 600.612 24.9114C600.028 23.2785 598.856 21.1655 597.789 19.8235C596.63 18.3648 593.919 16.8798 591.018 16.115C589.409 15.6909 586.405 15.2799 586.392 15.4821C586.389 15.5307 586.768 15.6989 587.235 15.8557C590.723 17.0274 593.318 18.3789 595.436 20.1267C596.548 21.0439 598.286 22.9174 599.65 24.6691C600.179 25.3475 600.683 25.9073 600.77 25.9131C600.858 25.9189 600.93 25.8997 600.932 25.8704Z" fill="#B5FBE5"/>
</svg>
