<svg width="23" height="22" viewBox="0 0 23 22" fill="none" xmlns="http://www.w3.org/2000/svg">
<path fill-rule="evenodd" clip-rule="evenodd" d="M11.5002 21.7387C14.3645 21.7387 17.1116 20.6008 19.1369 18.5754C21.1623 16.55 22.3002 13.803 22.3002 10.9387C22.3002 8.07433 21.1623 5.32731 19.1369 3.30192C17.1116 1.27653 14.3645 0.138672 11.5002 0.138672C8.63586 0.138672 5.88883 1.27653 3.86344 3.30192C1.83805 5.32731 0.700195 8.07433 0.700195 10.9387C0.700195 13.803 1.83805 16.55 3.86344 18.5754C5.88883 20.6008 8.63586 21.7387 11.5002 21.7387ZM9.18591 14.603C8.93017 14.603 8.6849 14.7046 8.50406 14.8854C8.32322 15.0662 8.22162 15.3115 8.22162 15.5672C8.22162 15.823 8.32322 16.0683 8.50406 16.2491C8.6849 16.4299 8.93017 16.5315 9.18591 16.5315H13.8145C14.0702 16.5315 14.3155 16.4299 14.4963 16.2491C14.6772 16.0683 14.7788 15.823 14.7788 15.5672C14.7788 15.3115 14.6772 15.0662 14.4963 14.8854C14.3155 14.7046 14.0702 14.603 13.8145 14.603H12.4645V10.1672C12.4645 9.9115 12.3629 9.66623 12.182 9.48539C12.0012 9.30455 11.7559 9.20296 11.5002 9.20296H9.95734C9.70159 9.20296 9.45632 9.30455 9.27549 9.48539C9.09465 9.66623 8.99305 9.9115 8.99305 10.1672C8.99305 10.423 9.09465 10.6683 9.27549 10.8491C9.45632 11.0299 9.70159 11.1315 9.95734 11.1315H10.5359V14.603H9.18591ZM13.0431 6.3101C13.0431 6.71929 12.8805 7.11172 12.5912 7.40106C12.3018 7.69041 11.9094 7.85296 11.5002 7.85296C11.091 7.85296 10.6986 7.69041 10.4092 7.40106C10.1199 7.11172 9.95734 6.71929 9.95734 6.3101C9.95734 5.90091 10.1199 5.50848 10.4092 5.21914C10.6986 4.92979 11.091 4.76724 11.5002 4.76724C11.9094 4.76724 12.3018 4.92979 12.5912 5.21914C12.8805 5.50848 13.0431 5.90091 13.0431 6.3101Z" fill="#FF9548"/>
</svg>
