<svg width="30" height="30" viewBox="0 0 30 30" fill="none" xmlns="http://www.w3.org/2000/svg">
<g clip-path="url(#clip0_1418_3627)">
<path d="M20.2974 22.4999V26.7856C20.2974 27.3539 20.0786 27.8989 19.6892 28.3008C19.2997 28.7027 18.7715 28.9284 18.2208 28.9284H3.68409C3.13332 28.9284 2.60511 28.7027 2.21566 28.3008C1.82621 27.8989 1.60742 27.3539 1.60742 26.7856V3.21415C1.60742 2.64583 1.82621 2.10078 2.21566 1.69892C2.60511 1.29705 3.13332 1.07129 3.68409 1.07129H18.2208C18.7715 1.07129 19.2997 1.29705 19.6892 1.69892C20.0786 2.10078 20.2974 2.64583 20.2974 3.21415V7.49986M14.0674 14.9999H28.6041M28.6041 14.9999L24.4508 10.7141M28.6041 14.9999L24.4508 19.2856" stroke="#FFFFFA" stroke-linecap="round" stroke-linejoin="round"/>
</g>
<defs>
<clipPath id="clip0_1418_3627">
<rect width="29.0734" height="30" fill="white" transform="translate(0.568359)"/>
</clipPath>
</defs>
</svg>
