<?xml version="1.0" encoding="UTF-8" standalone="no"?>
<!-- Created with Inkscape (http://www.inkscape.org/) -->

<svg
   version="1.1"
   id="svg1"
   width="691"
   height="669"
   viewBox="0 0 691 669"
   sodipodi:docname="logo_vetorizada.svg"
   inkscape:export-filename="logo_vetorizada.svg"
   inkscape:export-xdpi="96"
   inkscape:export-ydpi="96"
   inkscape:version="1.3.2 (091e20e, 2023-11-25, custom)"
   xml:space="preserve"
   xmlns:inkscape="http://www.inkscape.org/namespaces/inkscape"
   xmlns:sodipodi="http://sodipodi.sourceforge.net/DTD/sodipodi-0.dtd"
   xmlns="http://www.w3.org/2000/svg"
   xmlns:svg="http://www.w3.org/2000/svg"><defs
     id="defs1" /><sodipodi:namedview
     id="namedview1"
     pagecolor="#ffffff"
     bordercolor="#000000"
     borderopacity="0.25"
     inkscape:showpageshadow="2"
     inkscape:pageopacity="0.0"
     inkscape:pagecheckerboard="0"
     inkscape:deskcolor="#d1d1d1"
     inkscape:zoom="0.97309417"
     inkscape:cx="338.09677"
     inkscape:cy="328.3341"
     inkscape:window-width="1600"
     inkscape:window-height="837"
     inkscape:window-x="-8"
     inkscape:window-y="-8"
     inkscape:window-maximized="1"
     inkscape:current-layer="g1" /><g
     inkscape:groupmode="layer"
     inkscape:label="Image"
     id="g1"><path
       style="display:inline;fill:#e87e31;fill-opacity:1"
       d="m 640.05918,210.8606 c -13.2229,-15.97664 -29.8533,-32.88589 -40.3222,-40.99834 -19.9481,-15.45792 -43.9238,-26.80001 -75.7658,-35.84223 -13.5127,-3.83723 -8.9349,-4.83803 13.1776,-2.88089 35.033,3.10069 68.8065,16.98928 83.421,34.30497 10.3189,12.22605 22.0396,31.80064 28.2223,47.13352 3.9371,9.76373 3.8886,9.53297 2.0036,9.53297 -0.784,0 -5.6154,-5.0625 -10.7365,-11.25 z"
       id="path5" /><path
       style="display:inline;fill:#06e19f;fill-opacity:1"
       d="m 208.2212,654.41213 c -3.575,-0.17222 -14.15,-1.01277 -23.5,-1.8679 -46.12876,-4.21883 -78.7734,-13.73359 -103.967924,-30.30296 -8.46251,-5.56543 -28.26413,-24.47777 -32.42534,-30.96912 -12.24029,-19.09447 -16.70942,-48.61679 -10.39407,-68.66155 6.01714,-19.09828 18.69922,-36.32529 36.49134,-49.56889 16.51646,-12.29407 27.631754,-23.58608 41.889494,-42.5555 22.41932,-29.82813 42.42896,-73.73563 55.00441,-120.6971 12.21426,-45.61264 27.46318,-77.20285 49.78181,-103.12975 21.53803,-25.0201 49.36015,-41.90145 86.12024,-52.25434 11.9708,-3.37135 13.1352,-3.51377 27.5,-3.36337 64.645,0.67684 116.68662,20.9013 159.86632,62.12738 23.9479,22.86449 45.2466,56.23319 50.6026,79.27922 10.0791,43.3686 10.2277,92.7962 0.4213,140.16235 -9.5063,45.91686 -29.2249,88.67608 -56.4666,122.44636 -9.4939,11.76916 -30.671,32.57533 -41.4801,40.7534 -29.75552,22.51294 -62.18812,37.60652 -101.80482,47.37829 -13.1383,3.24065 -51.11575,9.16384 -69.63866,10.86127 -10.33519,0.9471 -51.32542,1.16544 -68,0.36221 z"
       id="path4" /><path
       style="display:inline;fill:#036c66;fill-opacity:1"
       d="m 432.73396,165.13117 c -0.333,-0.53869 -0.1506,-2.67619 0.4052,-4.75 0.5559,-2.07381 1.9723,-8.72057 3.14762,-14.77057 6.0863,-31.32948 18.6272,-62.382714 35.3368,-87.500001 7.9019,-11.877898 26.6061,-31.405255 35.5976,-37.164302 14.5143,-9.296332 28.8237,-6.334946 49,10.140765 21.9009,17.883914 25.7145,22.984593 22.6565,30.303349 -0.8739,2.091608 -3.5108,5.070914 -6.3274,7.149225 -6.185,4.563745 -24.5149,13.528432 -34.8291,17.034018 -31.904,10.843587 -62.3442,33.742746 -92.7688,69.786946 -8.6343,10.22909 -10.84332,11.99556 -12.21842,9.77057 z"
       id="path3" /><path
       id="path2"
       style="display:inline;fill:#ff9548;fill-opacity:1"
       d="M 554.59961 96.490234 C 550.2334 96.336828 547.27302 97.05093 542.85742 98.533203 C 533.57053 101.65071 514.60938 110.99007 503.12109 118.10547 C 490.51881 125.91089 482.42999 132.20328 475.3125 139.73633 L 468.90234 146.51953 L 473.56641 155.66406 C 492.41489 192.62173 518.74774 212.31722 557.7207 218.60352 C 562.6707 219.40194 575.04571 220.75614 585.2207 221.61328 C 608.05048 223.53646 619.81904 225.46549 627.39453 228.52539 C 637.14242 232.46274 650.02568 242.84684 653.42188 249.50391 C 655.12077 252.83394 658.06105 265.40139 658.18555 269.86133 C 658.25695 272.42004 659.38529 270.93061 662.30469 264.42383 C 670.62608 245.87712 674.61009 227.50363 674.62109 207.61133 C 674.62949 192.81418 673.69337 186.58243 669.51758 173.61133 C 657.29829 135.65498 623.57045 109.32476 574.7793 99.654297 C 564.73786 97.664076 558.96582 96.643641 554.59961 96.490234 z M 520.67969 130.20117 C 528.97813 130.09258 546.94569 131.81037 557.9082 134.09961 C 584.26088 139.60272 609.35362 152.15348 620.57031 165.44336 C 630.8892 177.6694 642.61027 197.24526 648.79297 212.57812 C 650.67897 217.25533 652.2207 221.31274 652.2207 221.5957 C 652.2207 221.87866 651.57902 222.11133 650.79492 222.11133 C 650.01092 222.11133 645.17969 217.04882 640.05859 210.86133 C 626.83571 194.8847 610.20522 177.97377 599.73633 169.86133 C 579.78825 154.40342 555.81267 143.06174 523.9707 134.01953 C 519.70821 132.8091 516.2207 131.43472 516.2207 130.96484 C 516.2207 130.4765 517.91354 130.23737 520.67969 130.20117 z " /></g></svg>
