<svg width="14" height="14" viewBox="0 0 14 14" fill="none" xmlns="http://www.w3.org/2000/svg">
<path fill-rule="evenodd" clip-rule="evenodd" d="M2.00003 6C2.00003 4.93913 2.42146 3.92172 3.17161 3.17157C3.92175 2.42143 4.93917 2 6.00003 2C7.0609 2 8.07832 2.42143 8.82846 3.17157C9.57861 3.92172 10 4.93913 10 6C10 7.06087 9.57861 8.07828 8.82846 8.82843C8.07832 9.57857 7.0609 10 6.00003 10C4.93917 10 3.92175 9.57857 3.17161 8.82843C2.42146 8.07828 2.00003 7.06087 2.00003 6ZM6.00003 1.13461e-07C5.05574 -0.00012039 4.12475 0.222642 3.28278 0.650171C2.4408 1.0777 1.71163 1.69792 1.15456 2.4604C0.597487 3.22287 0.228246 4.10606 0.0768669 5.03815C-0.0745122 5.97023 -0.00375491 6.92488 0.283384 7.82446C0.570523 8.72404 1.06594 9.54315 1.72933 10.2152C2.39272 10.8872 3.20537 11.3931 4.10117 11.6919C4.99697 11.9906 5.95063 12.0737 6.88459 11.9343C7.81855 11.795 8.70643 11.4372 9.47603 10.89L12.293 13.707C12.4816 13.8892 12.7342 13.99 12.9964 13.9877C13.2586 13.9854 13.5094 13.8802 13.6949 13.6948C13.8803 13.5094 13.9854 13.2586 13.9877 12.9964C13.99 12.7342 13.8892 12.4816 13.707 12.293L10.891 9.477C11.5293 8.57936 11.9082 7.52335 11.9862 6.42468C12.0641 5.326 11.8381 4.22707 11.333 3.2483C10.8279 2.26953 10.0631 1.44869 9.12239 0.875723C8.18171 0.30276 7.10147 -0.000214051 6.00003 1.13461e-07Z" fill="white"/>
</svg>
