<svg width="54" height="50" viewBox="0 0 54 50" fill="none" xmlns="http://www.w3.org/2000/svg">
<path d="M50.7476 15.1874C49.6393 13.9364 48.245 12.6125 47.3674 11.9773C45.6951 10.7669 43.6852 9.87888 41.0159 9.17086C39.8832 8.87043 40.2669 8.79204 42.1206 8.94528C45.0575 9.1881 47.8886 10.2755 49.1138 11.6313C49.979 12.5886 50.9613 14.1213 51.4796 15.3218C51.8095 16.0863 51.8055 16.0683 51.6478 16.0683C51.582 16.0683 51.1769 15.6719 50.7476 15.1874Z" fill="#E87E31"/>
<path d="M14.5143 49.627C14.2147 49.6139 13.3281 49.5486 12.5443 49.4824C8.67741 49.1546 5.94081 48.4158 3.8288 47.1292C3.11939 46.6971 1.45944 45.2285 1.11061 44.7245C0.0845132 43.2418 -0.29013 40.9495 0.23928 39.393C0.743691 37.9101 1.80682 36.5724 3.29832 35.5441C4.68288 34.5895 5.61464 33.7127 6.80989 32.2397C8.68928 29.9236 10.3666 26.5143 11.4208 22.8678C12.4448 19.326 13.7231 16.8731 15.594 14.8599C17.3995 12.9171 19.7319 11.6063 22.8134 10.8024C23.8169 10.5407 23.9145 10.5296 25.1187 10.5413C30.5378 10.5938 34.9004 12.1642 38.5202 15.3654C40.5277 17.1407 42.3131 19.7318 42.7622 21.5213C43.607 24.8888 43.6195 28.7268 42.7975 32.4047C42.0006 35.97 40.3475 39.2902 38.0639 41.9124C37.268 42.8263 35.4928 44.4419 34.5866 45.0769C32.0923 46.825 29.3735 47.997 26.0525 48.7557C24.9511 49.0075 21.7674 49.4673 20.2147 49.5993C19.3483 49.6728 15.9121 49.6894 14.5143 49.627Z" fill="#06E19F"/>
<path d="M33.2982 11.6198C33.2701 11.5779 33.2855 11.4116 33.3324 11.2504C33.3793 11.0891 33.4987 10.5721 33.5978 10.1016C34.1111 7.66502 35.1687 5.24991 36.5779 3.29645C37.2442 2.37267 38.8216 0.853967 39.5799 0.406069C40.8039 -0.316936 42.0106 -0.0866194 43.7121 1.19475C45.559 2.58564 45.8806 2.98233 45.6228 3.55154C45.5491 3.71421 45.3267 3.94592 45.0892 4.10755C44.5676 4.46249 43.0218 5.15971 42.152 5.43236C39.4615 6.27569 36.8944 8.05661 34.3286 10.8599C33.6005 11.6555 33.4142 11.7928 33.2982 11.6198Z" fill="#036C66"/>
<path d="M52.2549 19.7325C52.2446 19.386 51.9987 18.4095 51.8565 18.1508C51.5721 17.6336 50.4938 16.8268 49.6781 16.5209C49.0442 16.2831 48.0595 16.1332 46.1489 15.9838C45.2974 15.9172 44.2617 15.812 43.8475 15.75C40.586 15.2615 38.3822 13.7313 36.8048 10.8598L36.4146 10.1493L36.9509 9.62223C37.5465 9.03695 38.2236 8.54803 39.2782 7.94155C40.2396 7.38873 41.8264 6.66309 42.6036 6.42087C43.3427 6.19054 43.5944 6.19872 45.2751 6.50801C49.3583 7.25938 52.1809 9.3051 53.2034 12.2542C53.553 13.262 53.631 13.7462 53.6305 14.8959C53.6295 16.4415 53.2962 17.8691 52.6001 19.3101C52.3557 19.8157 52.2613 19.9314 52.2549 19.7325ZM51.7558 15.9826C51.7558 15.9606 51.6269 15.6452 51.4689 15.2818C50.9515 14.0905 49.9709 12.5696 49.1071 11.6197C48.1684 10.5871 46.0685 9.61185 43.8631 9.18423C42.6399 8.94708 40.3745 8.78898 40.3745 8.94075C40.3745 8.97725 40.6664 9.08408 41.0231 9.17809C43.6878 9.88068 45.6943 10.7619 47.3637 11.963C48.2398 12.5933 49.6317 13.9071 50.7382 15.1484C51.1667 15.6292 51.5711 16.0225 51.6368 16.0225C51.7024 16.0225 51.7558 16.0045 51.7558 15.9826Z" fill="#FF9548"/>
</svg>
