<svg width="30" height="30" viewBox="0 0 30 30" fill="none" xmlns="http://www.w3.org/2000/svg">
<g clip-path="url(#clip0_1418_3620)">
<path fill-rule="evenodd" clip-rule="evenodd" d="M24.611 0.812462C24.5653 0.62824 24.4715 0.459465 24.3391 0.323405C24.2068 0.187345 24.0407 0.0888832 23.8578 0.0380938C23.6749 -0.0126957 23.4818 -0.01399 23.2982 0.0343433C23.1147 0.0826766 22.9473 0.178903 22.8131 0.313176L18.5274 4.59889C18.3967 4.72987 18.3022 4.89246 18.253 5.07084C18.2038 5.24921 18.2016 5.43729 18.2467 5.61675L19.0181 8.71103C19.008 8.72089 18.998 8.7309 18.9881 8.74103L13.8646 13.8646C13.5807 14.1693 13.4261 14.5722 13.4335 14.9886C13.4408 15.4049 13.6095 15.8022 13.9039 16.0966C14.1984 16.3911 14.5956 16.5598 15.012 16.5671C15.4284 16.5745 15.8313 16.4199 16.136 16.136L21.2638 11.0146C21.274 11.004 21.284 10.9933 21.2938 10.9825L24.386 11.756C24.5654 11.8011 24.7535 11.799 24.9319 11.7498C25.1103 11.7006 25.2729 11.606 25.4038 11.4753L29.6895 7.1896C29.8244 7.0555 29.9211 6.88793 29.9698 6.7041C30.0184 6.52027 30.0173 6.3268 29.9664 6.14355C29.9156 5.96031 29.8169 5.79389 29.6805 5.66139C29.5441 5.52889 29.3749 5.43509 29.1903 5.3896L25.5281 4.47675L24.611 0.812462ZM15.6796 1.62675C15.709 2.05183 15.5684 2.4712 15.2888 2.79266C15.0091 3.11413 14.6132 3.31137 14.1881 3.34103C11.9493 3.49619 9.802 4.29081 8.00149 5.63049C6.20098 6.97017 4.8229 8.79857 4.03101 10.8985C3.23913 12.9983 3.06671 15.2814 3.53427 17.4764C4.00182 19.6714 5.08968 21.686 6.66858 23.2809C8.24748 24.8758 10.2511 25.9839 12.4412 26.4735C14.6314 26.9631 16.9161 26.8137 19.0238 26.043C21.1316 25.2723 22.9738 23.9127 24.3315 22.1257C25.6892 20.3388 26.5054 18.1996 26.6831 15.9625C26.7169 15.5374 26.9182 15.1431 27.2427 14.8664C27.5672 14.5897 27.9884 14.4533 28.4135 14.4871C28.8386 14.5209 29.2328 14.7222 29.5095 15.0467C29.7862 15.3712 29.9227 15.7924 29.8888 16.2175C29.6621 19.0679 28.6218 21.7934 26.8916 24.07C25.1615 26.3467 22.8142 28.0788 20.1285 29.0607C17.4429 30.0425 14.5319 30.2328 11.7413 29.6088C8.95073 28.9849 6.39791 27.5731 4.38613 25.541C2.37436 23.5089 0.988195 20.942 0.392332 18.1453C-0.20353 15.3486 0.0159548 12.4397 1.02471 9.76402C2.03346 7.08839 3.78909 4.75857 6.08299 3.05136C8.3769 1.34415 11.1127 0.33131 13.9653 0.133176C14.3903 0.103736 14.8097 0.244306 15.1312 0.523981C15.4526 0.803656 15.6499 1.20169 15.6796 1.62675ZM14.2396 8.69603C14.3166 8.89259 14.3541 9.10239 14.35 9.31345C14.3459 9.52452 14.3003 9.7327 14.2157 9.92612C14.1311 10.1195 14.0093 10.2944 13.8571 10.4407C13.7049 10.587 13.5254 10.702 13.3288 10.7789C12.6261 11.0546 12.0031 11.501 11.5162 12.0779C11.0293 12.6548 10.6938 13.3439 10.5401 14.083C10.3864 14.822 10.4192 15.5878 10.6358 16.311C10.8523 17.0341 11.2456 17.692 11.7801 18.225C12.3147 18.758 12.9737 19.1494 13.6975 19.3638C14.4213 19.5782 15.1871 19.6089 15.9258 19.453C16.6644 19.2971 17.3525 18.9596 17.928 18.471C18.5034 17.9825 18.9481 17.3582 19.2217 16.6546C19.2982 16.4579 19.4128 16.2782 19.5588 16.1258C19.7048 15.9733 19.8793 15.8511 20.0725 15.7662C20.2658 15.6812 20.4738 15.6351 20.6848 15.6306C20.8959 15.626 21.1057 15.6631 21.3024 15.7396C21.4991 15.8161 21.6788 15.9307 21.8312 16.0767C21.9837 16.2227 22.1059 16.3972 22.1908 16.5905C22.2758 16.7837 22.3219 16.9917 22.3264 17.2027C22.331 17.4138 22.294 17.6236 22.2174 17.8203C21.7501 19.0218 20.9906 20.0878 20.0078 20.9221C19.025 21.7563 17.8497 22.3325 16.5883 22.5984C15.3269 22.8644 14.0191 22.8118 12.7831 22.4453C11.5471 22.0789 10.4219 21.4102 9.50927 20.4997C8.59663 19.5892 7.9253 18.4656 7.55597 17.2305C7.18664 15.9954 7.13096 14.6877 7.39396 13.4256C7.65696 12.1636 8.23035 10.987 9.06228 10.0022C9.89422 9.01741 10.9585 8.25549 12.1588 7.78532C12.5556 7.63047 12.9975 7.6394 13.3876 7.81016C13.7778 7.98092 14.0842 8.29953 14.2396 8.69603Z" fill="#FFFFFA"/>
</g>
<defs>
<clipPath id="clip0_1418_3620">
<rect width="30" height="30" fill="white"/>
</clipPath>
</defs>
</svg>
