<svg width="145" height="130" viewBox="0 0 145 130" fill="none" xmlns="http://www.w3.org/2000/svg">
<g opacity="0.3">
<path d="M75.1636 102.369C75.1343 102.37 75.1053 102.363 75.0795 102.35L64.4336 96.4564C64.4076 96.4427 64.3859 96.4226 64.3708 96.3981C64.3556 96.3737 64.3477 96.3458 64.3477 96.3174C64.3477 96.2889 64.3556 96.261 64.3708 96.2366C64.3859 96.2121 64.4076 96.192 64.4336 96.1784L77.7417 88.8141C77.7664 88.799 77.7951 88.791 77.8243 88.791C77.8536 88.791 77.8823 88.799 77.907 88.8141L88.5529 94.705C88.5789 94.7186 88.6006 94.7387 88.6157 94.7632C88.6308 94.7876 88.6388 94.8155 88.6388 94.844C88.6388 94.8724 88.6308 94.9003 88.6157 94.9247C88.6006 94.9492 88.5789 94.9693 88.5529 94.983L75.2448 102.35C75.2199 102.363 75.1919 102.37 75.1636 102.369ZM64.8425 96.3201L75.1636 102.03L88.144 94.8467L77.8258 89.1366L64.8425 96.3201Z" fill="#25B290"/>
</g>
<path d="M75.1624 100.741L75.1595 61.0144L67.1758 56.5942V96.3204L75.1624 100.741Z" fill="#25B290"/>
<path opacity="0.2" d="M75.1624 100.741L75.1595 61.0144L67.1758 56.5942V96.3204L75.1624 100.741Z" fill="black"/>
<path d="M75.1631 100.74L85.809 94.8468L85.8119 55.1206L75.1602 61.0142L75.1631 100.74Z" fill="#25B290"/>
<path d="M85.8112 55.1209L77.8246 50.7007L67.1758 56.5943L75.1595 61.0145L85.8112 55.1209Z" fill="#25B290"/>
<path opacity="0.25" d="M85.8112 55.1209L77.8246 50.7007L67.1758 56.5943L75.1595 61.0145L85.8112 55.1209Z" fill="white"/>
<path opacity="0.3" d="M85.8113 55.1318L75.0552 60.8169L71.5752 58.946L67.1875 56.6052L71.4911 59.0655L75.0233 61.0866C74.9392 62.2347 74.916 96.0701 74.9334 97.2266C74.9408 98.404 75.0192 99.5801 75.1683 100.749C75.3164 99.58 75.3939 98.404 75.4003 97.2266C75.4177 96.1146 75.4003 62.3181 75.3162 61.2061L85.8113 55.1318Z" fill="white"/>
<g opacity="0.3">
<path d="M55.1999 113.417C55.1715 113.418 55.1435 113.411 55.1187 113.398L44.4699 107.504C44.445 107.49 44.4243 107.471 44.4101 107.447C44.3958 107.423 44.3884 107.396 44.3887 107.368C44.389 107.341 44.3966 107.314 44.4108 107.29C44.425 107.266 44.4454 107.246 44.4699 107.232L57.7809 99.8675C57.8056 99.8539 57.8336 99.8467 57.8621 99.8467C57.8906 99.8467 57.9186 99.8539 57.9433 99.8675L68.5921 105.761C68.6198 105.773 68.6434 105.793 68.6599 105.818C68.6764 105.842 68.6851 105.871 68.6851 105.9C68.6851 105.929 68.6764 105.958 68.6599 105.983C68.6434 106.007 68.6198 106.027 68.5921 106.039L55.284 113.406C55.2576 113.417 55.2284 113.421 55.1999 113.417ZM44.8817 107.368L55.1999 113.081L68.1803 105.897L57.8621 100.184L44.8817 107.368Z" fill="#25B290"/>
</g>
<path d="M55.1995 111.788V87.7581L47.2129 83.3379L47.2158 107.368L55.1995 111.788Z" fill="#25B290"/>
<path opacity="0.1" d="M55.1995 111.788V87.7581L47.2129 83.3379L47.2158 107.368L55.1995 111.788Z" fill="white"/>
<path d="M55.1992 111.788L65.8451 105.897L65.848 81.8643L55.1992 87.7579V111.788Z" fill="#25B290"/>
<path opacity="0.3" d="M55.1992 111.788L65.8451 105.897L65.848 81.8643L55.1992 87.7579V111.788Z" fill="white"/>
<path d="M65.8483 81.864L57.8617 77.4438L47.2129 83.3374L55.1995 87.7576L65.8483 81.864Z" fill="#25B290"/>
<path opacity="0.55" d="M65.8483 81.864L57.8617 77.4438L47.2129 83.3374L55.1995 87.7576L65.8483 81.864Z" fill="white"/>
<path opacity="0.3" d="M55.3388 87.9358L65.8484 81.856L55.0923 87.5411C53.9323 86.91 52.7723 86.2928 51.6123 85.6701L47.2246 83.3294L51.534 85.8008C52.7114 86.4763 53.8888 87.1546 55.072 87.8218C55.0343 89.0117 54.9966 94.7718 54.985 95.9533C54.9734 97.1348 54.9647 103.268 54.985 104.485C55.0053 105.703 55.014 106.918 55.0546 108.133C55.0952 109.347 55.1387 110.565 55.2199 111.78C55.3011 110.565 55.3533 109.347 55.3852 108.133C55.4171 106.918 55.4461 105.7 55.4548 104.485C55.4635 103.27 55.4548 97.1682 55.4548 95.9533C55.4142 94.808 55.3765 89.0979 55.3388 87.9358Z" fill="white"/>
<g opacity="0.3">
<path d="M35.2417 124.468C35.2132 124.467 35.1853 124.459 35.1605 124.445L24.5117 118.554C24.4857 118.541 24.464 118.521 24.4489 118.496C24.4338 118.472 24.4258 118.444 24.4258 118.415C24.4258 118.387 24.4338 118.359 24.4489 118.335C24.464 118.31 24.4857 118.29 24.5117 118.276L37.8198 110.909C37.845 110.896 37.8735 110.889 37.9025 110.889C37.9314 110.889 37.9599 110.896 37.9851 110.909L48.631 116.803C48.657 116.817 48.6787 116.837 48.6939 116.861C48.709 116.886 48.7169 116.914 48.7169 116.942C48.7169 116.971 48.709 116.998 48.6939 117.023C48.6787 117.047 48.657 117.067 48.631 117.081L35.3229 124.445C35.2982 124.459 35.2703 124.467 35.2417 124.468ZM24.9177 118.418L35.2417 124.128L48.2221 116.945L37.8981 111.232L24.9177 118.418Z" fill="#25B290"/>
</g>
<path d="M35.2366 122.836V111.699L27.25 107.279L27.2529 118.418L35.2366 122.836Z" fill="#25B290"/>
<path opacity="0.45" d="M35.2366 122.836V111.699L27.25 107.279L27.2529 118.418L35.2366 122.836Z" fill="black"/>
<path d="M35.2363 122.836L45.8851 116.945V105.806L35.2363 111.699V122.836Z" fill="#25B290"/>
<path opacity="0.3" d="M35.2363 122.836L45.8851 116.945V105.806L35.2363 111.699V122.836Z" fill="black"/>
<path d="M45.8854 105.806L37.9017 101.388L27.25 107.279L35.2366 111.699L45.8854 105.806Z" fill="#25B290"/>
<path opacity="0.15" d="M45.8854 105.806L37.9017 101.388L27.25 107.279L35.2366 111.699L45.8854 105.806Z" fill="black"/>
<path opacity="0.3" d="M45.8854 105.806L35.1322 111.491L31.6377 109.62L27.25 107.279L31.5594 109.75L35.0887 111.772C35.0075 112.469 34.9872 119.967 35.0017 120.668C35.0109 121.396 35.0896 122.122 35.2366 122.836C35.385 122.122 35.4637 121.396 35.4715 120.668C35.4715 120.003 35.4715 112.542 35.3932 111.877L45.8854 105.806Z" fill="white"/>
<g opacity="0.3">
<path d="M95.1236 91.322C95.095 91.3211 95.0671 91.3135 95.0424 91.2998L84.3965 85.409C84.3705 85.3953 84.3488 85.3752 84.3336 85.3508C84.3185 85.3263 84.3105 85.2984 84.3105 85.27C84.3105 85.2415 84.3185 85.2136 84.3336 85.1892C84.3488 85.1647 84.3705 85.1446 84.3965 85.131L97.7046 77.764C97.7298 77.7503 97.7583 77.7432 97.7872 77.7432C97.8162 77.7432 97.8447 77.7503 97.8699 77.764L108.516 83.6576C108.542 83.6712 108.564 83.6913 108.579 83.7158C108.594 83.7402 108.602 83.7681 108.602 83.7966C108.602 83.825 108.594 83.8529 108.579 83.8774C108.564 83.9018 108.542 83.9219 108.516 83.9356L95.2077 91.2998C95.1821 91.3139 95.1531 91.3216 95.1236 91.322ZM84.8054 85.2728L95.1236 90.994L108.107 83.8105L97.7858 78.1004L84.8054 85.2728Z" fill="#25B290"/>
</g>
<path d="M95.1233 89.6898V32.1521L87.1367 27.7319L87.1396 85.2724L95.1233 89.6898Z" fill="#25B290"/>
<path opacity="0.3" d="M95.1233 89.6898V32.1521L87.1367 27.7319L87.1396 85.2724L95.1233 89.6898Z" fill="white"/>
<path d="M95.123 89.6902L105.772 83.7994V26.2617L95.123 32.1525V89.6902Z" fill="#25B290"/>
<path opacity="0.55" d="M95.123 89.6902L105.772 83.7994V26.2617L95.123 32.1525V89.6902Z" fill="white"/>
<path d="M105.772 26.2615L97.7884 21.8413L87.1367 27.7321L95.1233 32.1523L105.772 26.2615Z" fill="#25B290"/>
<path opacity="0.75" d="M105.772 26.2615L97.7884 21.8413L87.1367 27.7321L95.1233 32.1523L105.772 26.2615Z" fill="white"/>
<path opacity="0.3" d="M95.2723 32.3357L105.779 26.2559L95.0171 31.9465C93.8571 31.3155 92.6971 30.6955 91.5371 30.0756L87.1523 27.732L91.4617 30.2035C92.6391 30.8818 93.8165 31.5601 94.9997 32.2245C94.962 33.5756 94.9243 34.9267 94.9127 36.2778C94.9011 37.6288 94.8953 80.0683 94.9127 81.4416C94.9301 82.815 94.9417 84.1911 94.9823 85.5672C95.0229 86.9433 95.0664 88.3166 95.1476 89.6927C95.2288 88.3166 95.281 86.9405 95.3129 85.5672C95.3448 84.1938 95.3767 82.8177 95.3825 81.4416C95.3883 80.0655 95.3825 37.6511 95.3825 36.2778C95.339 34.9656 95.3013 33.6534 95.2723 32.3357Z" fill="white"/>
<path d="M89.4523 8.26353C90.7834 7.52405 92.622 7.62969 94.6578 8.75559C98.7178 11.0046 102.015 16.4784 102.015 20.9876C102.015 23.2449 101.186 24.8295 99.8459 25.5607C99.495 25.7525 98.0856 26.567 97.7347 26.7616C96.4036 27.5011 94.565 27.3955 92.5321 26.2696C88.4721 24.0206 85.1719 18.5495 85.1719 14.0376C85.1719 11.7913 85.9955 10.2095 87.3266 9.47282" fill="#E87E31"/>
<path opacity="0.65" d="M102.014 20.9766C102.014 23.2339 101.185 24.8185 99.8451 25.5497C99.4942 25.7415 98.0848 26.556 97.7339 26.7506C96.4028 27.4901 94.5642 27.3845 92.5312 26.2613L102.014 20.9766Z" fill="black"/>
<path opacity="0.55" d="M100.941 16.1421C101.616 17.6737 101.98 19.3144 102.014 20.9765L92.5311 26.2585C91.0466 25.4001 89.7472 24.2771 88.7031 22.9503L100.941 16.1421Z" fill="black"/>
<path opacity="0.4" d="M88.7041 22.9503C86.5871 20.3482 85.1719 16.9844 85.1719 14.0376C85.1719 11.7913 85.9955 10.2095 87.3266 9.47282L89.4523 8.26353C90.7834 7.52405 92.622 7.62969 94.6578 8.75559C97.32 10.229 99.6487 13.084 100.942 16.142L88.7041 22.9503Z" fill="black"/>
<path d="M92.5321 9.96474C96.5921 12.2165 99.8923 17.6876 99.8923 22.1967C99.8923 26.7059 96.595 28.5212 92.5321 26.2694C88.4692 24.0176 85.169 18.5494 85.1719 14.0374C85.1748 9.5255 88.4721 7.71572 92.5321 9.96474Z" fill="#E87E31"/>
<path d="M92.5315 11.9996C95.5823 13.6871 98.0415 17.7932 98.0415 21.1736C98.0415 24.5541 95.5678 25.9163 92.5315 24.2316C89.4952 22.547 87.0215 18.4409 87.0215 15.0576C87.0215 11.6744 89.472 10.3122 92.5315 11.9996Z" fill="#FAFAFA"/>
<path d="M92.5319 13.8542C94.6576 15.0302 96.3802 17.8908 96.3802 20.2482C96.3802 22.6057 94.6576 23.5537 92.5319 22.3777C90.4062 21.2018 88.6836 18.3412 88.6836 15.9837C88.6836 13.6263 90.4062 12.6783 92.5319 13.8542Z" fill="#E87E31"/>
<path d="M92.5329 15.7555C93.1532 16.1426 93.6693 16.6646 94.0392 17.2791C94.4091 17.8936 94.6223 18.5832 94.6615 19.2917C94.6615 20.5927 93.7103 21.1209 92.5329 20.4704C91.9129 20.083 91.3971 19.5609 91.0272 18.9465C90.6573 18.332 90.4439 17.6426 90.4043 16.9342C90.4043 15.6304 91.3584 15.0994 92.5329 15.7555Z" fill="#FAFAFA"/>
<path d="M92.5318 17.118C92.7934 17.2817 93.0111 17.5022 93.1673 17.7615C93.3235 18.0209 93.4138 18.3119 93.4308 18.6109C93.4308 19.1669 93.0277 19.381 92.5318 19.1057C92.2703 18.9426 92.0526 18.7227 91.8964 18.4638C91.7401 18.2049 91.6499 17.9143 91.6328 17.6157C91.6328 17.0652 92.0359 16.8428 92.5318 17.118Z" fill="#FF9548"/>
<path d="M78.1625 26.1528C78.1625 26.1528 77.9914 28.2212 77.0025 28.7744C76.0136 29.3276 75.4626 27.6624 76.1093 27.2926L78.1625 26.1528Z" fill="#036C66"/>
<path d="M78.1623 26.1526C78.1623 26.1526 76.2077 25.2602 75.2101 25.8107C74.2125 26.3611 75.4537 27.651 76.1004 27.2924L78.1623 26.1526Z" fill="#036C66"/>
<path d="M89.9734 19.8448L74.6179 28.3461L74.4004 27.9791L90.0053 19.3389L89.9734 19.8448Z" fill="#37474F"/>
<path d="M74.8847 27.5678C74.9962 27.6278 75.0866 27.7183 75.1442 27.8277C75.2019 27.9371 75.2243 28.0605 75.2084 28.1822C75.1926 28.3039 75.1394 28.4182 75.0555 28.5108C74.9716 28.6033 74.8609 28.6698 74.7374 28.7018C74.6139 28.7337 74.4833 28.7297 74.3623 28.6902C74.2412 28.6507 74.1351 28.5776 74.0576 28.4801C73.98 28.3826 73.9346 28.2651 73.9269 28.1428C73.9193 28.0204 73.9499 27.8986 74.0147 27.7929C74.1002 27.6537 74.2391 27.5522 74.4018 27.5101C74.5644 27.468 74.7378 27.4887 74.8847 27.5678Z" fill="#263238"/>
<path d="M89.5885 19.8255C89.0607 20.4927 90.0177 21.6492 90.0177 21.6492L92.5117 18.2075L89.5885 19.8255Z" fill="#E87E31"/>
<path d="M89.5885 19.8255C89.0607 20.4927 90.0177 21.6492 90.0177 21.6492L92.5117 18.2075L89.5885 19.8255Z" fill="#25B290"/>
<path d="M88.1543 18.5438C88.1543 18.5438 88.7343 19.9171 89.5869 19.8142L92.5101 18.1963L88.1543 18.5438Z" fill="#25B290"/>
<path d="M52.9654 43.9424H53.0263H53.1597C53.2306 43.9401 53.3013 43.9336 53.3714 43.9229L53.557 43.8951L53.6382 43.8757L53.7542 43.8479C54.7935 43.5399 55.7238 42.9627 56.4425 42.1799C58.5624 40.0337 59.5716 36.7867 58.6929 34.9269C58.558 34.6027 58.3367 34.3182 58.0513 34.1016C57.7658 33.885 57.4261 33.744 57.066 33.6925C57.039 33.691 57.0119 33.691 56.9848 33.6925H56.9094H56.8195C56.3131 33.6831 55.8112 33.7849 55.3521 33.99C55.3695 34.1624 55.3782 34.3477 55.3782 34.546C55.3782 37.0869 53.5193 40.1755 51.2225 41.446C51.0543 41.5377 50.889 41.6211 50.7324 41.6906C50.7697 42.0499 50.8677 42.4011 51.0224 42.7303C51.1839 43.0947 51.4549 43.4046 51.801 43.6205C52.1471 43.8364 52.5525 43.9485 52.9654 43.9424Z" fill="#263238"/>
<path d="M55.9598 46.2497C55.8844 46.1412 55.6872 46.1468 55.5161 46.2497C55.345 46.3525 55.0985 46.5138 54.8926 46.6277L57.0705 47.8398C57.0493 47.8297 57.0312 47.8143 57.0183 47.7953L55.9598 46.2497Z" fill="#263238"/>
<path d="M49.8513 50.5422L50.5038 47.701C50.517 47.6274 50.503 47.5516 50.4644 47.4867C50.4258 47.4218 50.3649 47.3718 50.2921 47.3452C49.9642 47.2252 49.6587 47.0553 49.3873 46.842C49.313 46.8024 49.2268 46.7883 49.143 46.8019C49.0592 46.8156 48.9827 46.8562 48.9262 46.9171L46.8121 48.7713C46.7495 48.8303 46.6675 48.8666 46.5801 48.8742L49.9383 50.7368C49.9039 50.7176 49.877 50.6883 49.8613 50.6532C49.8456 50.6182 49.8421 50.5793 49.8513 50.5422Z" fill="#263238"/>
<path d="M62.2108 35.9971L63.9856 36.0944C64.0308 36.0963 64.0751 36.1066 64.1161 36.1249C63.9943 36.0582 62.9561 35.4828 61.9527 34.9268C61.9527 35.1853 61.9382 35.4522 61.9121 35.7218C61.9125 35.7588 61.9205 35.7954 61.9358 35.8293C61.9511 35.8633 61.9733 35.894 62.0011 35.9196C62.029 35.9452 62.0618 35.9653 62.0978 35.9786C62.1338 35.9919 62.1722 35.9982 62.2108 35.9971Z" fill="#263238"/>
<path d="M46.5059 48.8573C46.5283 48.8684 46.5531 48.8741 46.5784 48.874L46.5175 48.8379C46.5149 48.845 46.511 48.8516 46.5059 48.8573Z" fill="#263238"/>
<path d="M46.4385 48.791L45.4989 46.7922C45.4769 46.7099 45.4765 46.6236 45.4977 46.5412C45.519 46.4587 45.5612 46.3826 45.6207 46.3196L47.5985 44.0177C47.7217 43.8775 47.7903 43.7006 47.7928 43.5173C47.7406 42.9717 47.7406 42.4227 47.7928 41.8771C47.7928 41.8034 47.7622 41.7327 47.7078 41.6805C47.6534 41.6284 47.5797 41.5991 47.5028 41.5991L45.728 41.5046C45.5482 41.5046 45.438 41.3656 45.4873 41.2266L46.4646 38.0713C46.5046 37.9846 46.5649 37.9079 46.6408 37.8471C46.7168 37.7864 46.8063 37.7432 46.9025 37.721L48.8484 37.2707C49.0538 37.2179 49.2303 37.0915 49.3414 36.9176C49.6523 36.3187 50.0009 35.7384 50.3854 35.1801C50.4867 35.0357 50.5281 34.8602 50.5014 34.688L49.8692 32.6336C49.858 32.5465 49.8679 32.458 49.898 32.3751C49.9282 32.2922 49.9778 32.217 50.0432 32.1555L52.3168 29.8564C52.4531 29.7202 52.6068 29.6979 52.6996 29.8064L53.7552 31.3576C53.8306 31.466 54.0249 31.4577 54.1989 31.3576C54.6058 31.0882 55.0344 30.8502 55.4807 30.6459C55.6754 30.5587 55.8345 30.4121 55.9331 30.2289L57.0496 27.3322C57.0912 27.2485 57.1548 27.1766 57.2341 27.1235C57.3134 27.0704 57.4057 27.0379 57.502 27.0291L59.5697 26.8318C59.6374 26.8243 59.7059 26.8359 59.7669 26.8651C59.8032 26.8838 59.8319 26.9138 59.8482 26.9502C59.8646 26.9865 59.8676 27.0271 59.8568 27.0653L59.2043 29.9009C59.1911 29.9745 59.205 30.0503 59.2436 30.1152C59.2822 30.1801 59.3431 30.2301 59.416 30.2567C59.7437 30.3782 60.0491 30.549 60.3208 30.7627C60.3951 30.8022 60.4812 30.8164 60.565 30.8027C60.6489 30.7891 60.7253 30.7485 60.7819 30.6876L62.8989 28.8361C62.9335 28.7965 62.979 28.7669 63.0302 28.7507C63.0815 28.7345 63.1364 28.7323 63.1889 28.7444L59.0216 26.4287C58.9973 26.417 58.9704 26.4113 58.9433 26.412C57.7427 25.7476 55.6373 24.58 55.588 24.5494C55.5248 24.5175 55.4529 24.5049 55.3821 24.5132L53.3144 24.7078C53.2186 24.7183 53.1271 24.7516 53.0481 24.8045C52.9692 24.8574 52.9052 24.9283 52.862 25.0109L51.7484 27.8882C51.6502 28.0722 51.4911 28.2199 51.296 28.3079C51.0785 28.4052 50.8581 28.5164 50.6377 28.6388L48.4685 27.435C48.3815 27.3794 48.2452 27.4156 48.1321 27.5295L45.8614 29.8342C45.7961 29.8958 45.7462 29.9709 45.7156 30.0537C45.6849 30.1366 45.6743 30.225 45.6845 30.3123L46.3167 32.364C46.3453 32.537 46.3038 32.7141 46.2007 32.8588C45.816 33.418 45.4674 33.9992 45.1567 34.5991C45.0453 34.7722 44.8688 34.8976 44.6637 34.9494L42.7206 35.3969C42.6238 35.4193 42.5336 35.4627 42.4571 35.524C42.3807 35.5852 42.32 35.6626 42.2799 35.75L41.3026 38.9053C41.288 38.9458 41.2872 38.9896 41.3002 39.0306C41.3132 39.0715 41.3394 39.1074 41.3751 39.1333C41.4186 39.1666 43.5762 40.3592 43.5762 40.3592C43.5762 40.6372 43.5762 40.9152 43.6139 41.1932C43.6108 41.376 43.5434 41.5523 43.4225 41.6936L41.4389 44.0122C41.3799 44.0754 41.3382 44.1517 41.3175 44.2341C41.2967 44.3166 41.2976 44.4027 41.32 44.4848L42.2625 46.4808C42.2754 46.5068 42.2954 46.5289 42.3205 46.5447L46.4965 48.8605C46.4702 48.8435 46.45 48.8192 46.4385 48.791Z" fill="#263238"/>
<path d="M55.5938 24.5519C55.533 24.5163 55.4614 24.5016 55.3908 24.5102L53.3202 24.7104C53.1907 24.7255 53.0697 24.7801 52.9751 24.8661L57.1598 27.179C57.2525 27.0945 57.3718 27.0417 57.4991 27.0289L59.5697 26.8315C59.6349 26.8234 59.7012 26.833 59.7611 26.8593L55.5938 24.5519ZM48.4656 27.4403C48.3815 27.3875 48.2452 27.4209 48.1321 27.5349L45.8585 29.8339C45.7832 29.9133 45.7285 30.0085 45.699 30.1119L49.8808 32.411C49.9146 32.3168 49.969 32.2305 50.0403 32.158L52.311 29.8589C52.3464 29.8121 52.3961 29.777 52.4533 29.7586C52.5105 29.7402 52.5722 29.7393 52.63 29.7561L48.4656 27.4403ZM46.4559 38.0683C46.4727 38.0187 46.5003 37.9732 46.5371 37.9348L42.3495 35.6247C42.3192 35.6613 42.2956 35.7027 42.2799 35.747L41.3026 38.9051C41.288 38.9455 41.2872 38.9894 41.3002 39.0303C41.3132 39.0713 41.3394 39.1072 41.3751 39.133L41.4128 39.158L43.5646 40.3507H43.5791L45.5772 41.4627C45.5342 41.4394 45.501 41.4026 45.483 41.3585C45.4651 41.3145 45.4635 41.2658 45.4786 41.2208L46.4559 38.0683ZM46.4385 48.7907L45.4989 46.7919C45.4696 46.7147 45.4696 46.6301 45.4989 46.5528L41.3142 44.2371C41.2874 44.3128 41.2874 44.3949 41.3142 44.4706L42.2537 46.4639C42.2677 46.4908 42.2887 46.5137 42.3147 46.5306C42.5061 46.6362 46.221 48.6962 46.4704 48.838C46.4569 48.8242 46.4461 48.8082 46.4385 48.7907Z" fill="#37474F"/>
<path d="M64.1246 36.1308C64.0836 36.1125 64.0393 36.1021 63.9941 36.1002L62.2193 36.0029C62.1424 36.0029 62.0687 35.9736 62.0143 35.9215C61.9599 35.8693 61.9293 35.7986 61.9293 35.7249C61.9554 35.4469 61.9699 35.1884 61.9699 34.9298C61.9732 34.6514 61.9606 34.373 61.9322 34.0958C61.9374 33.9122 62.0057 33.7353 62.1265 33.5926L64.1072 31.2936C64.166 31.2302 64.2078 31.1541 64.229 31.0717C64.2503 30.9894 64.2503 30.9033 64.229 30.821L63.2865 28.8277C63.2756 28.8006 63.255 28.778 63.2285 28.7638C63.1761 28.7517 63.1211 28.7539 63.0699 28.7701C63.0187 28.7863 62.9732 28.8159 62.9385 28.8555L60.8215 30.707C60.765 30.7679 60.6885 30.8085 60.6047 30.8221C60.5209 30.8358 60.4348 30.8216 60.3604 30.7821C60.0888 30.5684 59.7834 30.3976 59.4556 30.2761C59.3828 30.2495 59.3219 30.1995 59.2833 30.1345C59.2447 30.0696 59.2308 29.9939 59.2439 29.9203L59.8558 27.0541C59.8666 27.0159 59.8636 26.9753 59.8473 26.939C59.831 26.9026 59.8023 26.8726 59.7659 26.8539C59.705 26.8247 59.6365 26.8131 59.5687 26.8206L57.501 27.0179C57.4035 27.0277 57.3104 27.0619 57.231 27.117C57.1516 27.1722 57.0887 27.2463 57.0486 27.3321L55.9263 30.2149C55.8278 30.3981 55.6687 30.5448 55.4739 30.6319C55.0277 30.8362 54.5991 31.0742 54.1921 31.3436C54.0181 31.4548 53.8238 31.4632 53.7484 31.3436L52.6928 29.7924C52.6145 29.684 52.4463 29.7062 52.31 29.8424L50.0306 32.1526C49.9653 32.2142 49.9157 32.2893 49.8855 32.3722C49.8553 32.4552 49.8455 32.5436 49.8566 32.6308L50.4888 34.6852C50.5155 34.8573 50.4742 35.0328 50.3728 35.1772C49.9884 35.7356 49.6398 36.3158 49.3288 36.9147C49.2178 37.0887 49.0413 37.2151 48.8358 37.2678L46.8899 37.7182C46.7938 37.7404 46.7043 37.7835 46.6283 37.8443C46.5524 37.905 46.4921 37.9817 46.452 38.0684L45.4805 41.2321C45.4312 41.3794 45.5414 41.5101 45.7212 41.5101L47.496 41.6046C47.5729 41.6046 47.6467 41.6339 47.7011 41.686C47.7555 41.7382 47.786 41.8089 47.786 41.8826C47.7339 42.4282 47.7339 42.9772 47.786 43.5228C47.7836 43.7061 47.7149 43.883 47.5917 44.0232L45.6139 46.3251C45.5545 46.3881 45.5123 46.4642 45.491 46.5467C45.4698 46.6291 45.4701 46.7154 45.4921 46.7976L46.4317 48.7909C46.4447 48.8161 46.4648 48.8373 46.4897 48.8521C46.5121 48.8631 46.537 48.8689 46.5622 48.8687C46.6496 48.8612 46.7316 48.8248 46.7942 48.7659L48.9083 46.9116C48.9649 46.8508 49.0413 46.8102 49.1251 46.7965C49.209 46.7829 49.2951 46.797 49.3694 46.8366C49.6455 47.0544 49.9571 47.2272 50.2916 47.3481C50.3645 47.3747 50.4254 47.4247 50.464 47.4896C50.5026 47.5545 50.5165 47.6303 50.5033 47.7039L49.8508 50.5451C49.8417 50.5822 49.8452 50.6211 49.8609 50.6561C49.8765 50.6912 49.9035 50.7205 49.9378 50.7397C49.9972 50.7706 50.0653 50.7823 50.1321 50.7731L52.1998 50.5757C52.2953 50.5654 52.3866 50.5327 52.4655 50.4803C52.5445 50.4278 52.6087 50.3575 52.6522 50.2754L53.7774 47.3926C53.874 47.2073 54.0336 47.0592 54.2298 46.9728C54.4444 46.8727 54.6648 46.7615 54.8852 46.6392C55.1056 46.5169 55.2999 46.3973 55.5087 46.2611C55.7175 46.1249 55.877 46.1416 55.9524 46.2611L57.0109 47.8123C57.0239 47.8314 57.0419 47.8467 57.0631 47.8568C57.1472 47.9096 57.2806 47.8735 57.3908 47.7623L59.6644 45.4605C59.7293 45.3992 59.7787 45.3245 59.8089 45.2421C59.8391 45.1597 59.8492 45.0718 59.8384 44.9851L59.2062 42.9334C59.1802 42.7604 59.2215 42.5843 59.3222 42.4386C59.7067 41.8793 60.0553 41.2982 60.3662 40.6983C60.4783 40.5247 60.6559 40.3992 60.8621 40.3481L62.8022 39.8977C62.8996 39.8773 62.9904 39.8349 63.0671 39.7739C63.1438 39.713 63.2041 39.6353 63.243 39.5474L64.2406 36.381C64.2561 36.3329 64.2528 36.2811 64.2315 36.2351C64.2102 36.1891 64.1722 36.1521 64.1246 36.1308ZM53.7542 43.8425L53.6382 43.8703L53.557 43.8898L53.3714 43.9176C53.3014 43.9282 53.2306 43.9347 53.1597 43.937H53.0263H52.9654C52.5462 43.9406 52.1357 43.8225 51.7879 43.5983C51.4401 43.374 51.1712 43.054 51.0166 42.6805C50.8619 42.3512 50.764 42.0001 50.7266 41.6407C50.7017 41.4499 50.6901 41.2576 50.6918 41.0653C50.6918 39.2666 51.6691 37.0371 53.2583 35.4274C53.718 34.9519 54.2463 34.5419 54.8272 34.2098C54.9948 34.1147 55.1682 34.0293 55.3463 33.954C55.8054 33.7489 56.3073 33.6472 56.8137 33.6566H56.9036H56.979C57.0061 33.6551 57.0332 33.6551 57.0602 33.6566C57.4203 33.708 57.76 33.8491 58.0455 34.0657C58.3309 34.2822 58.5522 34.5668 58.6871 34.8909C59.5571 36.7507 58.5566 39.9978 56.4367 42.1439C55.7237 42.9371 54.7951 43.5251 53.7542 43.8425Z" fill="#455A64"/>
<path d="M56.9655 35.8361L55.8751 35.23C55.3908 34.952 54.7151 35.0049 53.9901 35.4135C52.5053 36.2336 51.3047 38.2297 51.3047 39.8615C51.3047 40.6788 51.5947 41.2515 52.0877 41.5295L53.0824 42.0855L53.3202 41.7047C53.589 41.6481 53.8479 41.5544 54.0887 41.4267C55.5735 40.5927 56.7741 38.6077 56.7741 36.9787C56.7733 36.7566 56.745 36.5355 56.69 36.3198L56.9655 35.8361Z" fill="#25B290"/>
<path opacity="0.1" d="M51.291 39.8697C51.291 40.687 51.581 41.2597 52.074 41.5377L53.0687 42.0937L53.3065 41.7129C53.5757 41.6573 53.8347 41.5636 54.075 41.4349C54.9266 40.9235 55.6173 40.2 56.0731 39.3415L52.1813 37.187C51.6401 37.9891 51.3327 38.9153 51.291 39.8697Z" fill="black"/>
<path opacity="0.4" d="M56.9649 35.8361L55.8745 35.23C55.3902 34.952 54.7145 35.0049 53.9866 35.4135C53.2518 35.8508 52.638 36.4516 52.1973 37.1649L56.0891 39.3194C56.5142 38.5966 56.75 37.7858 56.7764 36.9564C56.777 36.7343 56.7488 36.513 56.6923 36.2976L56.9649 35.8361Z" fill="white"/>
<path d="M55.0135 35.9806C53.5287 36.8146 52.3281 38.7996 52.3281 40.4286C52.3281 42.0577 53.5287 42.736 55.0135 41.9159C56.4983 41.0958 57.696 39.097 57.6989 37.4679C57.7018 35.8389 56.4954 35.1605 55.0135 35.9806Z" fill="#25B290"/>
<path d="M56.341 36.7117C56.2497 36.6713 56.1455 36.6668 56.0507 36.699C55.9559 36.7312 55.878 36.7976 55.8335 36.8841L54.4502 39.9421L54.0906 39.6335C54.014 39.5692 53.9156 39.5337 53.8137 39.5337C53.7118 39.5337 53.6134 39.5692 53.5367 39.6335C53.5022 39.6658 53.4752 39.7047 53.4575 39.7478C53.4398 39.7908 53.4318 39.8369 53.4339 39.8831C53.4361 39.9293 53.4485 39.9746 53.4702 40.0159C53.4919 40.0572 53.5225 40.0936 53.5599 40.1228L54.3429 40.7955C54.4185 40.8614 54.5163 40.899 54.6184 40.9012C54.6445 40.9039 54.6707 40.9039 54.6967 40.9012C54.7562 40.894 54.8127 40.8723 54.8609 40.8382C54.9091 40.8042 54.9475 40.7589 54.9722 40.7066L56.5614 37.1843C56.5813 37.1396 56.5913 37.0914 56.5909 37.0428C56.5904 36.9943 56.5795 36.9463 56.5588 36.9019C56.5381 36.8575 56.5081 36.8178 56.4706 36.785C56.4332 36.7523 56.389 36.7273 56.341 36.7117Z" fill="white"/>
<path d="M16.8618 86.9345C17.0761 86.9995 17.2862 87.0766 17.4911 87.1653C17.6107 87.2174 17.7446 87.2318 17.8733 87.2063C18.002 87.1808 18.119 87.1168 18.2074 87.0235C18.3727 86.7761 18.1784 86.4675 17.9899 86.2229C16.9749 84.9635 15.9338 83.593 15.8265 82.0056C16.2003 82.236 16.5059 82.5548 16.7139 82.9313C16.88 83.222 17.099 83.4819 17.3606 83.6986C17.4927 83.8062 17.6516 83.8791 17.8218 83.9103C17.9921 83.9415 18.1679 83.9299 18.3321 83.8765C18.3744 83.863 18.4104 83.8354 18.4336 83.7987C18.4548 83.7488 18.4548 83.6929 18.4336 83.643C18.0508 82.6561 17.5288 81.697 17.0822 80.7435C16.9356 80.4045 16.761 80.0773 16.5602 79.7649C16.1107 79.1005 15.2291 78.3749 15.0493 77.591C15 77.3713 14.8927 76.8682 14.8927 76.8682C14.8927 76.8682 13.9038 76.9238 13.4891 76.9988C12.8455 77.1207 12.2154 77.3004 11.607 77.5354C11.4156 77.6132 11.1401 77.6382 11.0879 77.869C11.0696 77.9972 11.0835 78.1278 11.1285 78.2498C11.4185 79.2701 11.6824 80.2931 11.8796 81.3328C12.1696 82.8452 12.3639 84.2518 13.3296 85.5028C13.6279 85.9229 14.0717 86.2282 14.5824 86.3646C14.7809 86.3898 14.9755 86.4373 15.1624 86.5064C15.2911 86.5835 15.4142 86.6689 15.5307 86.7622C15.7344 86.8926 15.976 86.9578 16.2209 86.9484C16.4026 86.9249 16.5856 86.911 16.769 86.9067L16.8618 86.9345Z" fill="#FFA8A7"/>
<path d="M13.35 55.7822C11.6274 56.1714 10.6704 57.4836 10.1107 59.9828C9.55101 62.482 8.81731 66.3768 8.49251 67.8585C8.07781 69.7406 8.31561 69.8907 8.75641 71.6672C9.19721 73.4436 11.0532 78.6672 11.0532 78.6672C11.0532 78.6672 14.1968 78.6199 15.1422 77.6469C15.1422 77.519 13.263 69.1707 13.263 69.1707L14.8783 61.8871L13.35 55.7822Z" fill="#37474F"/>
<path d="M11.2773 112.205C11.7123 111.332 11.8573 109.722 11.8312 106.795L16.332 108.26C16.332 108.26 15.3779 112.533 15.3141 113.481C15.1488 115.913 11.2773 112.205 11.2773 112.205Z" fill="#FFA8A7"/>
<path d="M10.1319 113.651C10.0797 113.556 9.93181 113.35 9.94631 113.3C10.0698 112.942 10.2935 112.623 10.593 112.377C10.8475 112.116 11.0747 111.831 11.2716 111.527C11.3876 111.371 11.463 111.19 11.6399 111.121C11.9473 111.001 12.9507 111.176 13.5568 111.482C14.5486 111.983 14.8502 112.594 14.7951 113.236C14.7516 113.734 14.6472 114.048 14.8937 113.979C15.1402 113.909 15.3171 113.484 15.3171 113.481C15.3144 113.643 15.3241 113.804 15.3461 113.965C15.3151 114.377 15.3248 114.791 15.3751 115.202C15.5027 116.036 15.813 116.934 16.5351 117.479C17.1151 117.915 17.8807 118.06 18.5448 118.371C18.7234 118.447 18.8805 118.562 19.003 118.707C19.0983 118.858 19.1458 119.032 19.1396 119.207C19.1335 119.383 19.0739 119.553 18.9682 119.697C18.7723 119.98 18.4939 120.201 18.1678 120.334C17.7686 120.409 17.3592 120.423 16.9556 120.373C16.1104 120.347 15.2713 120.226 14.4558 120.011C13.9391 119.896 13.4525 119.68 13.0261 119.377C12.6057 119.028 12.281 118.585 12.0807 118.088C11.8661 117.598 11.7182 117.084 11.5355 116.584C11.2754 115.903 10.9693 115.239 10.6191 114.596C10.4412 114.301 10.2814 113.997 10.1406 113.684C10.1388 113.673 10.1359 113.662 10.1319 113.651Z" fill="#455A64"/>
<path d="M11.2858 117.754C11.3242 117.982 11.3834 118.206 11.4627 118.424C11.582 118.787 11.8099 119.109 12.1181 119.35C12.3322 119.509 12.5602 119.65 12.7996 119.772C13.4725 120.085 14.1898 120.3 14.9282 120.412C15.4874 120.504 16.0544 120.547 16.6218 120.54C15.9217 120.327 15.277 119.973 14.731 119.503C14.4475 119.271 14.2055 118.997 14.0147 118.691C13.9683 118.616 13.9248 118.541 13.8842 118.463C13.5043 117.746 13.3564 116.945 13.1186 116.181C13.0076 115.801 12.8529 115.435 12.6575 115.088C12.4368 114.754 12.1672 114.453 11.8571 114.193C10.6101 113.034 9.70824 113.503 9.69954 113.509C9.54004 113.587 9.58064 114.065 9.67344 114.268C9.82471 114.588 10.0135 114.892 10.236 115.171C10.381 115.366 10.526 115.569 10.6478 115.772C10.8614 116.068 11.023 116.396 11.1263 116.742C11.1786 116.984 11.2164 117.229 11.2394 117.476C11.2539 117.562 11.2684 117.659 11.2858 117.754Z" fill="black"/>
<path d="M19.1213 119.366C19.0838 119.477 19.0269 119.58 18.9531 119.672C18.7056 119.906 18.3904 120.064 18.0483 120.125C17.3288 120.247 16.5889 120.193 15.8965 119.969C15.2013 119.743 14.6011 119.307 14.1855 118.727C13.9533 118.372 13.7764 117.986 13.6606 117.581C13.5388 117.244 13.4419 116.898 13.3706 116.547C13.2933 115.832 13.0559 115.14 12.6746 114.521C12.0192 113.556 10.9752 113.086 10.1661 113.156C9.96746 113.21 9.79954 113.338 9.69922 113.511C9.69922 113.511 10.5112 113.256 11.7727 114.259C12.2377 114.639 12.5806 115.137 12.7616 115.697C13.1415 116.809 13.1908 117.971 13.8636 118.985C14.1426 119.43 14.5296 119.803 14.9917 120.072C15.9572 120.559 17.0782 120.68 18.1324 120.411C18.5297 120.325 19.1329 119.986 19.13 119.792C19.1358 119.697 19.1358 119.458 19.1213 119.366Z" fill="#263238"/>
<path d="M13.0235 74.8696C12.6842 76.9574 12.0723 78.6365 12.4435 83.8546C12.6117 86.1509 12.9829 95.9226 12.9829 95.9226C12.3542 98.0051 11.9824 100.151 11.8751 102.317C11.7359 105.931 11.6953 109.461 11.6953 109.461C12.16 109.962 12.7469 110.344 13.4034 110.573C14.2005 110.857 15.0598 110.941 15.9003 110.818C15.9003 110.818 17.7737 105.469 18.9018 102.2C19.8414 99.481 20.23 98.5274 20.665 94.7327C21.2015 90.0762 22.0773 83.5321 22.0773 83.5321L24.7801 74.8696H13.0235Z" fill="#37474F"/>
<path d="M18.9849 85.8006C20.4639 87.0516 20.78 88.0913 20.8612 88.8419C20.9424 89.5925 20.4784 96.2478 20.4784 96.2756C20.5451 95.8197 20.6118 95.3082 20.6785 94.7244C21.215 90.0707 22.0879 83.5321 22.0908 83.5238L24.7791 74.8696H16.2676L16.9868 79.8403C16.7693 81.9642 17.5059 84.5496 18.9849 85.8006Z" fill="#263238"/>
<path d="M28.5515 110.476C28.4442 110.926 28.3166 111.265 28.7516 111.805C29.1866 112.344 30.1204 112.639 31.0513 112.605C31.7185 112.576 32.3546 112.326 32.8522 111.899C33.3916 111.499 33.7686 111.151 33.9687 110.987C34.1688 110.823 34.9721 110.609 35.7319 110.462C36.4917 110.315 38.0722 109.989 38.8552 108.891C39.3126 108.299 39.5411 107.573 39.5019 106.837L28.5515 110.476Z" fill="#263238"/>
<path d="M34.437 106.142C32.7985 106.681 30.3103 107.012 28.8255 107.388C28.3818 107.785 28.4775 109.589 28.4717 110.804C29.0517 112.055 30.8584 112.375 32.0619 111.874C32.6883 111.546 33.103 111.079 33.7178 110.718C34.2094 110.457 34.7439 110.278 35.2983 110.19C35.9401 110.046 36.5708 109.86 37.1862 109.634C38.7957 108.928 39.5961 107.613 39.5062 106.548C39.3786 105.205 38.0852 104.938 34.437 106.142Z" fill="#455A64"/>
<path d="M28.7754 106.142C28.7754 106.192 28.8624 108.221 28.8624 108.221C28.8624 108.221 28.9958 108.724 30.4545 108.902C31.9132 109.08 33.1196 108.493 33.398 108.121C33.398 108.121 33.4386 107.407 33.5227 106.709L28.7754 106.142Z" fill="#FFA8A7"/>
<path d="M16.2676 78.6476C16.4271 81.0496 17.4914 84.1576 21.1077 86.5011C22.7549 87.7243 23.9526 88.9559 25.3185 90.2514C27.0092 91.8554 28.5549 93.4233 28.5549 93.4233C28.5549 93.4233 27.8067 95.2693 27.9749 98.5302C28.1431 101.791 28.7434 106.956 28.7434 106.956C29.5261 107.495 30.483 107.749 31.4433 107.674C33.0267 107.526 33.598 106.956 33.598 106.956C33.598 106.956 35.3032 94.9746 35.5149 92.9869C35.7266 90.9992 35.8919 89.7204 34.584 87.3574C33.2123 84.8526 28.6535 75.7036 28.4737 74.8696H16.2676V78.6476Z" fill="#37474F"/>
<path d="M16.4643 55.3262C17.0124 54.8814 17.3169 53.483 17.0443 52.7241C16.7717 51.9651 15.6523 50.1554 15.5015 47.9758C15.3507 45.7963 18.4015 42.4464 21.0521 42.7105C23.7027 42.9746 25.0947 44.3785 25.8052 46.2634C26.2402 47.4143 25.8052 47.6534 25.9618 48.3039C26.2924 49.6077 26.7796 50.6168 26.1474 53.1105C25.9154 54.0223 25.1092 54.3754 24.3523 54.5505C23.7895 54.6551 23.213 54.6739 22.6442 54.6061C22.6126 55.1701 22.6126 55.7352 22.6442 56.2992C22.6504 56.493 22.7321 56.6776 22.8733 56.8166C23.0145 56.9555 23.2049 57.0387 23.4069 57.0498C23.4069 57.0498 15.9162 55.771 16.4643 55.3262Z" fill="#FFA8A7"/>
<path d="M24.1787 51.7566C24.1509 51.8567 24.1026 51.9504 24.0366 52.0324C23.9705 52.1143 23.8881 52.1828 23.794 52.2338C23.7 52.2848 23.5963 52.3174 23.4891 52.3295C23.3818 52.3416 23.273 52.3331 23.1692 52.3044C23.0654 52.2757 22.9686 52.2275 22.8845 52.1625C22.8004 52.0975 22.7307 52.0171 22.6794 51.926C22.6281 51.8348 22.5963 51.7348 22.5858 51.6317C22.5754 51.5286 22.5865 51.4246 22.6185 51.3257L24.1787 51.7566Z" fill="#B16668"/>
<path d="M23.5711 52.2987C23.4934 52.1049 23.3608 51.9358 23.188 51.8105C23.0153 51.6852 22.8094 51.6088 22.5938 51.5898C22.6032 51.7497 22.664 51.9029 22.7678 52.0283C22.8717 52.1538 23.0135 52.2453 23.1738 52.2904C23.3033 52.3255 23.44 52.3284 23.5711 52.2987Z" fill="#F28F8F"/>
<path d="M22.4834 48.7847C22.5059 48.8615 22.5042 48.943 22.4787 49.0189C22.4531 49.0948 22.4048 49.1618 22.3397 49.2116C22.2746 49.2613 22.1957 49.2916 22.1128 49.2985C22.0299 49.3055 21.9467 49.2889 21.8736 49.2508C21.8004 49.2127 21.7407 49.1548 21.7017 49.0844C21.6627 49.0139 21.6462 48.9339 21.6544 48.8545C21.6625 48.7751 21.6949 48.6998 21.7474 48.6379C21.8 48.5761 21.8704 48.5304 21.9498 48.5067C22.0039 48.4913 22.0606 48.4863 22.1167 48.492C22.1728 48.4977 22.2272 48.5139 22.2767 48.5397C22.3263 48.5655 22.3701 48.6004 22.4055 48.6425C22.441 48.6845 22.4675 48.7328 22.4834 48.7847Z" fill="#263238"/>
<path d="M22.4586 47.2752L21.4958 47.6255C21.4492 47.4989 21.4554 47.3598 21.5132 47.2375C21.5711 47.1152 21.676 47.0192 21.8061 46.9694C21.8698 46.9468 21.9376 46.9368 22.0055 46.9401C22.0733 46.9433 22.1397 46.9597 22.2007 46.9883C22.2617 47.0169 22.316 47.0571 22.3604 47.1064C22.4047 47.1557 22.4381 47.2131 22.4586 47.2752Z" fill="#263238"/>
<path d="M25.7255 47.6256L24.7598 47.2642C24.7811 47.2025 24.8153 47.1457 24.8603 47.0972C24.9052 47.0486 24.9601 47.0093 25.0214 46.9818C25.0827 46.9542 25.1493 46.9389 25.217 46.9368C25.2847 46.9347 25.3521 46.9458 25.4152 46.9695C25.5448 47.0198 25.6493 47.116 25.7071 47.2381C25.7648 47.3602 25.7714 47.4989 25.7255 47.6256Z" fill="#263238"/>
<path d="M25.4021 48.5928C25.4028 48.6423 25.3934 48.6915 25.3742 48.7375C25.3551 48.7835 25.3266 48.8254 25.2905 48.8608C25.2544 48.8962 25.2113 48.9244 25.1638 48.9438C25.1162 48.9632 25.0651 48.9733 25.0135 48.9737C24.9128 48.9655 24.8191 48.9213 24.7508 48.85C24.6824 48.7787 24.6445 48.6855 24.6445 48.5886C24.6445 48.4918 24.6824 48.3985 24.7508 48.3272C24.8191 48.2559 24.9128 48.2118 25.0135 48.2036C25.0658 48.2043 25.1174 48.215 25.1653 48.235C25.2133 48.255 25.2566 48.284 25.2928 48.3202C25.3289 48.3564 25.3572 48.3992 25.376 48.446C25.3947 48.4928 25.4036 48.5427 25.4021 48.5928Z" fill="#263238"/>
<path d="M25.801 50.4057L24.2959 51.0507L23.8203 48.2206C24.38 48.0288 25.0934 49.3298 25.801 50.4057Z" fill="#F28F8F"/>
<path d="M22.6461 54.606C22.6461 54.606 21.2193 54.4003 20.8162 54.1779C19.72 53.5802 19.3198 53.1159 19.0762 52.457C19.1478 52.9051 19.332 53.3298 19.6129 53.6944C19.8938 54.0591 20.263 54.3528 20.6886 54.5504C21.3084 54.7997 21.9538 54.9861 22.6142 55.1064L22.6461 54.606Z" fill="#F28F8F"/>
<path d="M18.7122 51.2396C18.7296 51.6427 18.6513 52.3349 18.2163 52.6296C17.7813 52.9242 17.5319 53.0799 17.123 52.9743C16.9867 52.6073 16.5575 51.6677 16.1428 50.867C15.7281 50.0664 13.8779 47.0584 15.6469 45.9131C15.2583 44.6899 15.8731 43.4583 16.9925 42.705C17.935 42.0683 20.1419 42.035 21.6325 42.2629C25.1589 42.7967 25.7186 41.8654 26.2174 42.1017C26.7162 42.338 26.3682 43.5056 25.968 43.8475C26.519 43.7363 26.925 44.0116 26.6437 44.6649C26.3624 45.3182 25.6084 45.7769 24.3498 45.9576C22.8441 46.1971 21.299 46.0493 19.8722 45.5294C20.0897 45.9998 20.2512 46.4922 20.3536 46.9973C20.3892 47.2227 20.372 47.453 20.3033 47.6712C20.2345 47.8895 20.116 48.0904 19.9563 48.2594C19.6866 48.504 20.0723 49.1546 20.0143 49.4298C19.9563 49.705 19.6112 50.2415 19.0863 49.199C18.5614 48.1565 17.4304 48.1315 16.9693 48.643C16.5082 49.1546 16.5285 49.705 16.9693 50.6391C17.3173 51.3869 18.1989 51.6844 18.7122 51.2396Z" fill="#263238"/>
<path d="M14.133 55.9292C16.3225 55.4927 19.904 56.0321 23.152 57.5416C24.6832 58.2533 25.82 58.6536 26.8002 59.1762C27.7804 59.6989 28.2502 61.6254 28.343 63.1044C28.6127 66.8796 28.3865 68.9062 28.343 71.3499C28.2763 74.9917 28.5547 75.9758 28.5547 75.9758C28.5547 75.9758 23.7755 79.359 16.5313 77.2601C13.0165 76.2399 13.1528 74.5441 13.1383 73.3459C13.1238 72.1477 13.2659 67.9805 12.4452 64.5722C11.6245 61.1639 11.4766 56.4602 14.133 55.9292Z" fill="#F0F0F0"/>
<path d="M24.0428 57.7058C22.8451 56.6688 23.2076 56.6132 22.4275 56.0016C21.4618 55.2371 17.2249 54.2891 16.8827 54.6116C16.5213 54.9728 16.0987 55.2727 15.6328 55.4984C15.6328 55.4984 15.8358 56.1239 18.3936 56.7161C20.8325 57.2915 21.7953 57.2109 24.0428 57.7058Z" fill="#F0F0F0"/>
<path d="M16.2941 55.1123C17.6252 55.3264 20.3744 56.1687 21.6388 56.5023C22.9032 56.8359 24.6316 57.9312 24.6316 57.9312C24.6316 57.9312 27.0589 58.9431 27.3576 59.2628C27.6563 59.5825 28.2653 61.0476 28.5176 64.2335C28.6597 66.0877 28.448 70.1799 28.8453 73.4325C29.0472 74.9239 29.4629 76.3814 30.0807 77.7637C30.0807 77.7637 29.3818 79.3511 28.709 79.4595L27.0618 77.0743L27.9927 79.9043C27.9927 79.9043 24.9912 82.2729 17.979 80.8412C14.1597 80.06 12.469 77.7165 12.469 77.7165C12.469 77.7165 13.049 70.0353 12.8866 68.726C12.7242 67.4166 11.5352 61.9038 11.6686 59.7382C11.802 57.5726 12.1703 55.9824 13.5652 55.7823C14.4993 55.6634 15.4154 55.4385 16.2941 55.1123Z" fill="#455A64"/>
<path d="M15.9922 55.9961C16.3373 56.1268 16.694 56.2268 17.0507 56.3241C17.4074 56.4214 17.7612 56.5243 18.1179 56.616C18.8342 56.8023 19.5476 56.9886 20.2639 57.1581C20.9802 57.3277 21.7139 57.4639 22.436 57.5835L24.6313 57.9282C23.8889 57.8948 23.1494 57.8253 22.4128 57.7364C21.6724 57.6538 20.9382 57.5266 20.2146 57.3555C19.4925 57.1776 18.7646 56.9858 18.0715 56.7634C17.3585 56.5601 16.6633 56.3035 15.9922 55.9961Z" fill="#37474F"/>
<path d="M17.373 60.4136C17.663 61.8481 17.9182 63.2964 18.0777 64.7532C18.2459 66.2133 18.2953 67.6837 18.2256 69.1511L17.9675 73.538L17.8225 75.7286L17.6543 77.9276L17.7181 75.7314L17.808 73.538L18.0168 69.1511C18.0927 67.6931 18.0598 66.2317 17.9182 64.7782C17.8573 64.0498 17.7761 63.3215 17.6804 62.5959C17.5847 61.8703 17.4803 61.1419 17.373 60.4136Z" fill="#37474F"/>
<path d="M42.3418 62.7961C43.6758 62.4514 44.5574 62.2651 45.3578 61.9899C45.8803 61.7969 46.3784 61.5479 46.8426 61.2477C47.266 61.003 48.107 60.1357 48.8233 60.0439C49.3539 59.9865 49.8873 59.9558 50.4212 59.9522C50.4212 59.9522 52.6745 59.0209 53.3212 58.7623C53.9679 58.5038 54.4464 58.5455 54.5247 58.7429C54.6755 59.1071 54.3507 59.3767 53.8258 59.6603C53.3009 59.9438 51.9466 60.6917 51.9466 60.6917C51.9466 60.6917 52.2018 61.3088 52.022 61.698C51.8422 62.0872 52.1206 62.4709 51.9089 62.8962C51.6972 63.3215 51.9263 63.5356 51.6827 64.0082C51.4391 64.4808 51.268 64.6504 49.8934 64.8839C48.5188 65.1174 48.6435 64.9034 47.382 65.3231C46.1205 65.7429 43.1799 66.7771 43.1799 66.7771L42.3418 62.7961Z" fill="#FFA8A7"/>
<path d="M26.6086 58.8179C27.9745 59.4406 29.0098 59.9744 30.889 61.0141C32.7682 62.0538 36.3236 63.9442 36.3236 63.9442L44.5741 61.9982C44.5741 61.9982 45.6413 62.5542 46.1169 63.3604C46.6031 64.1836 46.7333 65.1567 46.4794 66.0709C46.4794 66.0709 39.763 68.7536 38.1767 69.254C37.1385 69.5876 36.5643 69.9573 33.8847 69.0455C30.8484 68.0113 26.9885 66.499 26.9885 66.499C26.9885 66.499 25.2485 64.4446 25.0165 62.329C24.7845 60.2134 26.6086 58.8179 26.6086 58.8179Z" fill="#37474F"/>
</svg>
