<svg width="716" height="1465" viewBox="0 0 716 1465" fill="none" xmlns="http://www.w3.org/2000/svg">
<g clip-path="url(#clip0_1326_4453)">
<path d="M685.12 1461.11C675.92 1464.07 414.44 1460.71 404.6 1454.23C400.6 1451.87 399.08 1413.71 398.32 1367.59C398.32 1367.11 398.32 1366.63 398.32 1366.15C398.32 1356.63 398.04 1346.83 398 1336.91C398 1335.55 398 1334.19 398 1332.91L410.6 1197.11L585.52 1198.87L568.28 1333.23L568.08 1338.55L567 1366.55V1369.43C567 1369.43 666.48 1415.51 676.6 1423.75C686.72 1431.99 694.28 1458.27 685.12 1461.11Z" fill="#AD6359"/>
<path d="M685.12 1461.11C675.92 1464.07 414.44 1460.71 404.6 1454.23C400.6 1451.87 399.08 1413.71 398.32 1367.59C398.32 1367.11 398.32 1366.63 398.32 1366.15C398.32 1356.63 398.04 1346.83 398 1336.91C398 1335.55 398 1334.19 398 1332.91L568.36 1333.39L568.16 1338.71L567.08 1366.71V1369.59C567.08 1369.59 666.56 1415.67 676.68 1423.91C686.8 1432.15 694.28 1458.27 685.12 1461.11Z" fill="#EBEBEB"/>
<path d="M685.119 1461.11C680.399 1462.63 609.359 1462.47 539.919 1461.11C525.959 1460.83 511.919 1460.51 498.839 1460.15C449.319 1458.79 408.399 1456.75 404.599 1454.27C400.799 1451.79 399.119 1414.83 398.359 1369.55C398.359 1368.91 398.359 1368.27 398.359 1367.63C398.359 1366.99 398.359 1366.63 398.359 1366.15H398.559L567.079 1366.47V1369.35C567.079 1369.35 666.599 1415.39 676.679 1423.63C686.759 1431.87 694.279 1458.27 685.119 1461.11Z" fill="#A6A6A6"/>
<path d="M682.281 1451.03C638.281 1449.39 460.321 1447.03 416.641 1448.59C416.281 1448.59 416.281 1448.83 416.641 1448.87C460.281 1451.43 638.201 1452.51 682.281 1451.75C683.201 1451.75 683.201 1451.07 682.281 1451.03Z" fill="#263238"/>
<path d="M585.8 1367.27C568.48 1363.79 547.24 1366.19 533.8 1378.35C533.28 1378.83 533.8 1379.55 534.56 1379.39C551.2 1374.28 568.336 1370.94 585.68 1369.43C585.966 1369.45 586.247 1369.35 586.461 1369.16C586.675 1368.97 586.804 1368.7 586.82 1368.41C586.836 1368.13 586.737 1367.85 586.546 1367.63C586.354 1367.42 586.086 1367.29 585.8 1367.27Z" fill="#263238"/>
<path d="M598.199 1374.95C580.919 1371.51 559.639 1373.87 546.199 1386.07C545.679 1386.55 546.199 1387.27 546.919 1387.11C563.58 1381.96 580.744 1378.61 598.119 1377.11C598.358 1377.06 598.573 1376.92 598.729 1376.73C598.886 1376.54 598.975 1376.31 598.984 1376.06C598.994 1375.82 598.922 1375.58 598.78 1375.37C598.638 1375.17 598.434 1375.03 598.199 1374.95Z" fill="#263238"/>
<path d="M610.64 1382.67C593.32 1379.19 572.08 1381.59 558.64 1393.79C558.12 1394.27 558.64 1394.99 559.36 1394.83C575.991 1389.68 593.131 1386.34 610.48 1384.87C610.742 1384.85 610.986 1384.73 611.17 1384.54C611.353 1384.35 611.464 1384.1 611.483 1383.84C611.502 1383.58 611.428 1383.32 611.274 1383.1C611.12 1382.89 610.896 1382.74 610.64 1382.67Z" fill="#263238"/>
<path d="M539.759 1461.11C525.799 1460.83 511.759 1460.51 498.679 1460.15C449.159 1458.79 408.239 1456.75 404.439 1454.27C400.639 1451.79 398.959 1414.83 398.199 1369.55C398.199 1368.91 398.199 1368.27 398.199 1367.63C398.199 1366.99 398.199 1366.63 398.199 1366.15H398.399C421.559 1382.39 502.919 1436.55 539.759 1461.11Z" fill="#263238"/>
<path d="M578.481 1367.11H390.161C390.161 1367.11 428.081 927.113 426.601 919.593C424.721 909.753 413.601 865.233 398.801 807.073C394.161 788.873 389.161 769.353 383.961 749.113C369.921 694.393 354.441 634.593 340.961 582.553C320.721 504.593 304.961 444.033 304.961 444.033H464.561C464.561 444.033 483.161 502.993 506.601 579.713C544.801 704.393 595.841 875.993 600.881 917.713C609.001 985.113 578.481 1367.11 578.481 1367.11Z" fill="#37474F"/>
<path d="M570.159 1334.99C541.399 1334.39 549.639 1334.15 520.879 1333.87C506.799 1333.87 414.319 1332.91 401.159 1335.11C400.879 1335.11 400.879 1335.63 401.159 1335.71C414.319 1337.87 506.799 1337.07 520.879 1336.91C549.639 1336.67 541.399 1336.43 570.159 1335.83C570.679 1335.79 570.679 1334.99 570.159 1334.99Z" fill="#263238"/>
<path d="M462.038 892.712C455.878 865.472 446.638 838.792 438.598 812.072C422.278 757.779 405.865 703.526 389.358 649.312C381.118 622.192 372.838 595.073 364.518 567.953C360.278 554.273 356.078 540.593 351.798 526.953C347.518 513.313 342.838 500.313 339.078 486.953C337.518 481.473 336.678 484.473 338.638 491.433C342.638 505.513 346.638 519.433 350.638 533.553C358.638 561.313 366.798 589.046 375.118 616.753C391.438 671.953 407.905 727.086 424.518 782.153L449.478 865.113C453.717 878.224 457.15 891.582 459.758 905.113C461.976 919.293 462.54 933.682 461.438 947.993C459.638 976.833 456.278 1005.59 453.638 1034.35C450.998 1063.11 448.278 1091.95 445.638 1120.75C440.305 1178.09 435.038 1235.42 429.838 1292.75C429.198 1299.99 428.558 1307.27 427.998 1314.55C427.998 1316.99 431.478 1316.79 431.758 1314.55C437.958 1257.87 442.718 1200.99 448.038 1144.19C453.358 1087.39 458.638 1031.23 464.038 974.712C465.358 960.552 466.838 946.352 466.878 932.072C466.747 918.812 465.124 905.609 462.038 892.712Z" fill="#263238"/>
<path d="M446.402 444.032C435.322 529.752 414.202 690.472 398.802 807.072C362.802 665.792 304.922 444.032 304.922 444.032H446.402Z" fill="#263238"/>
<path d="M485.601 1463.71C476.441 1466.71 214.961 1464.27 205.081 1457.87C201.081 1455.47 199.401 1417.35 198.481 1371.23C198.481 1370.75 198.481 1370.27 198.481 1369.79C198.481 1360.27 198.121 1350.51 198.081 1340.59C198.081 1339.19 198.081 1337.83 198.081 1336.59C197.481 1270.03 202.081 1200.95 202.081 1200.95L373.001 1202.07L368.241 1336.47V1341.79L367.281 1369.59V1372.47C367.281 1372.47 466.961 1418.15 477.081 1426.39C487.201 1434.63 494.761 1460.79 485.601 1463.71Z" fill="#AD6359"/>
<path d="M485.598 1463.71C476.438 1466.71 214.958 1464.27 205.078 1457.87C201.078 1455.47 199.398 1417.35 198.478 1371.23C198.478 1370.75 198.478 1370.27 198.478 1369.79C198.478 1360.27 198.118 1350.51 198.078 1340.59C198.078 1339.19 198.078 1337.83 198.078 1336.59H368.438V1341.91L367.478 1369.71V1372.59C367.478 1372.59 467.158 1418.27 477.278 1426.51C487.398 1434.75 494.758 1460.79 485.598 1463.71Z" fill="#EBEBEB"/>
<path d="M485.6 1463.71C476.44 1466.71 214.961 1464.27 205.081 1457.87C201.081 1455.47 199.4 1417.35 198.48 1371.23C198.48 1370.75 198.48 1370.27 198.48 1369.79L367.201 1369.47V1372.35C367.201 1372.35 466.88 1418.03 477 1426.27C487.12 1434.51 494.76 1460.79 485.6 1463.71Z" fill="#A6A6A6"/>
<path d="M482.762 1453.55C438.762 1452.07 260.802 1450.19 217.122 1452.07C216.762 1452.07 216.762 1452.35 217.122 1452.35C260.762 1454.79 438.642 1455.19 482.762 1454.27C483.762 1454.27 483.762 1453.59 482.762 1453.55Z" fill="#263238"/>
<path d="M385.961 1370.15C368.641 1366.75 347.401 1369.19 333.961 1381.43C333.441 1381.91 333.961 1382.63 334.681 1382.47C351.296 1377.27 368.42 1373.87 385.761 1372.31C386.047 1372.34 386.332 1372.25 386.554 1372.07C386.775 1371.88 386.914 1371.62 386.941 1371.33C386.967 1371.05 386.879 1370.76 386.695 1370.54C386.511 1370.32 386.247 1370.18 385.961 1370.15Z" fill="#263238"/>
<path d="M398.398 1377.79C381.078 1374.39 359.838 1376.87 346.398 1389.11C345.878 1389.59 346.398 1390.31 347.118 1390.11C363.752 1384.94 380.888 1381.55 398.238 1379.99C398.5 1379.97 398.744 1379.85 398.927 1379.66C399.111 1379.47 399.222 1379.22 399.241 1378.96C399.26 1378.7 399.186 1378.44 399.032 1378.22C398.878 1378.01 398.653 1377.86 398.398 1377.79Z" fill="#263238"/>
<path d="M410.84 1385.47C393.52 1382.07 372.28 1384.51 358.84 1396.75C358.32 1397.23 358.84 1397.95 359.56 1397.79C376.185 1392.59 393.324 1389.19 410.68 1387.67C410.941 1387.65 411.185 1387.53 411.369 1387.34C411.552 1387.15 411.663 1386.9 411.682 1386.64C411.701 1386.38 411.627 1386.12 411.473 1385.9C411.319 1385.69 411.095 1385.54 410.84 1385.47Z" fill="#263238"/>
<path d="M459.36 444.033C459.36 444.033 455.68 520.393 438.2 580.873C436.8 585.873 435.281 590.793 433.641 595.513C417.62 601.977 402.223 609.89 387.641 619.153C387.641 619.153 385.801 680.593 383.961 749.113C381.921 825.713 379.96 911.153 380.24 929.113C381.84 997.113 371.76 1369.87 371.76 1369.87L183.48 1370.63C183.48 1370.63 217.521 954.313 217.281 929.473C216.921 889.473 226.401 713.113 233.721 584.433C238.201 505.153 241.721 444.033 241.721 444.033H459.36Z" fill="#37474F"/>
<path d="M365.319 1336.39C336.559 1335.91 344.799 1335.63 316.039 1335.47C301.959 1335.47 209.479 1334.99 196.319 1337.23C196.245 1337.23 196.174 1337.26 196.121 1337.31C196.069 1337.37 196.039 1337.44 196.039 1337.51C196.039 1337.59 196.069 1337.66 196.121 1337.71C196.174 1337.76 196.245 1337.79 196.319 1337.79C209.479 1339.95 301.999 1338.75 316.079 1338.55C344.839 1338.15 336.559 1337.95 365.319 1337.23C365.839 1337.11 365.839 1336.39 365.319 1336.39Z" fill="#263238"/>
<path d="M257.719 471.313C254.239 576.353 250.559 681.433 245.719 786.393C240.879 891.353 234.639 997.073 225.719 1102.19C220.799 1160.91 216.159 1243.51 209.719 1302.19C209.719 1302.59 210.279 1302.75 210.319 1302.19C224.039 1198.19 231.679 1069.15 238.319 964.273C244.959 859.393 249.639 754.393 253.199 649.393C255.199 590.033 256.759 530.593 258.559 471.193C259.039 470.393 257.719 470.473 257.719 471.313Z" fill="#263238"/>
<path d="M441.48 590.953C422.757 598.71 404.742 608.078 387.64 618.953C386.96 619.353 387.64 620.433 388.2 620.073C406.36 611.233 424.92 602.753 442.56 592.913C442.716 592.727 442.811 592.499 442.835 592.258C442.858 592.017 442.808 591.775 442.692 591.563C442.575 591.351 442.396 591.179 442.18 591.07C441.964 590.961 441.72 590.92 441.48 590.953Z" fill="#263238"/>
<path d="M506.559 579.712L438.199 580.872L340.959 582.552L233.719 584.432C238.199 505.152 241.719 444.032 241.719 444.032H464.359C464.359 444.032 483.119 502.992 506.559 579.712Z" fill="#263238"/>
<path d="M608.881 59.7126L581.841 178.033C580.681 181.473 582.481 184.273 585.841 184.193L646.521 182.833C648.369 182.654 650.129 181.954 651.595 180.814C653.061 179.673 654.173 178.14 654.801 176.393L681.841 58.1126C683.041 54.6326 681.241 51.8725 677.841 51.9125L617.161 53.2726C615.315 53.4604 613.56 54.164 612.095 55.303C610.631 56.4419 609.517 57.97 608.881 59.7126Z" fill="#A6A6A6"/>
<path d="M616.12 59.4726L589.04 177.793C587.88 181.273 589.68 184.033 593.04 183.953L653.72 182.633C655.568 182.454 657.328 181.754 658.794 180.614C660.26 179.474 661.372 177.94 662 176.193L689.04 57.8726C690.24 54.3926 688.44 51.6326 685.04 51.7126L624.36 53.0326C622.518 53.2185 620.767 53.9219 619.309 55.0616C617.851 56.2013 616.745 57.7306 616.12 59.4726Z" fill="#DBDBDB"/>
<path d="M627.719 69.6725C630.568 69.6725 632.879 67.3623 632.879 64.5125C632.879 61.6628 630.568 59.3525 627.719 59.3525C624.869 59.3525 622.559 61.6628 622.559 64.5125C622.559 67.3623 624.869 69.6725 627.719 69.6725Z" fill="#455A64"/>
<path d="M417.159 242.193C452.479 314.873 530.879 408.913 562.799 408.873C577.999 408.873 605.159 412.153 624.839 394.433C667.839 355.793 703.199 282.433 710.079 240.713C712.519 225.833 639.959 194.673 629.439 206.873C604.879 235.473 576.639 291.353 572.199 291.073C555.839 290.073 491.279 237.713 446.199 200.833C391.439 156.073 403.079 213.113 417.159 242.193Z" fill="#AD6359"/>
<path d="M710.838 164.033C702.838 134.033 696.158 127.593 702.838 98.6727C707.238 79.6727 696.998 68.7527 683.758 84.1127C662.158 109.233 664.398 150.113 669.278 164.113L710.838 164.033Z" fill="#AD6359"/>
<path d="M706.718 253.673C706.718 253.673 719.598 211.553 714.198 178.713C710.478 156.033 696.838 107.553 632.838 82.7127C617.678 76.8327 591.838 79.1927 613.158 97.8327C628.278 111.073 641.878 114.873 649.158 124.153C649.158 124.153 616.678 131.073 611.398 146.513C606.746 160.018 603.07 173.84 600.398 187.873C602.86 188.934 605.385 189.843 607.958 190.593C607.958 190.593 603.438 205.233 614.478 225.713L706.718 253.673Z" fill="#AD6359"/>
<path d="M707.199 157.632C697.879 149.952 677.919 133.992 657.039 126.672C633.839 118.672 586.999 108.992 581.039 126.192C576.759 138.792 594.359 143.952 594.359 143.952C594.359 143.952 574.159 143.952 572.759 156.352C571.479 167.512 585.319 170.712 585.319 170.712C585.319 170.712 573.079 172.912 573.959 183.872C574.959 197.072 600.439 190.272 612.999 202.752C615.759 205.552 707.199 157.632 707.199 157.632Z" fill="#AD6359"/>
<path d="M652.479 152.593C634.612 143.809 614.49 140.683 594.799 143.633C594.319 143.633 594.119 144.153 594.599 144.153C614.16 144.689 633.583 147.604 652.439 152.833C652.439 152.833 652.599 152.673 652.479 152.593Z" fill="#263238"/>
<path d="M643.762 175.752C634.682 171.752 607.762 165.272 585.642 170.272C585.162 170.272 585.002 170.792 585.442 170.792C605.002 170.314 624.554 172.058 643.721 175.992C643.721 175.992 643.762 175.832 643.762 175.752Z" fill="#263238"/>
<path d="M711.161 271.233C711.161 271.233 653.481 388.713 619.161 402.673C584.841 416.633 564.361 413.873 551.561 412.113C546.616 411.015 541.973 408.844 537.961 405.753C503.001 381.473 439.881 294.793 413.961 245.953C394.601 209.233 396.281 175.753 425.041 185.953C434.769 189.975 443.769 195.57 451.681 202.513C504.881 245.953 566.521 287.193 569.401 285.633C572.281 284.073 601.961 235.753 601.961 235.753L711.161 271.233Z" fill="#37474F"/>
<path d="M538.121 405.753C503.161 381.473 440.041 294.793 414.121 245.953C394.761 209.233 396.441 175.753 425.201 185.953C440.321 214.993 505.801 341.113 538.121 405.753Z" fill="#263238"/>
<path d="M696.801 292.672C692.801 290.552 688.521 289.192 684.401 287.432C680.281 285.672 676.081 284.113 671.881 282.513C663.881 279.526 655.735 276.606 647.441 273.753L622.961 265.112C614.521 262.192 606.041 258.792 597.401 256.552C597.364 256.539 597.325 256.534 597.286 256.536C597.248 256.537 597.209 256.547 597.174 256.564C597.139 256.58 597.107 256.604 597.081 256.633C597.055 256.662 597.034 256.696 597.021 256.732C597.008 256.769 597.002 256.808 597.004 256.847C597.006 256.886 597.016 256.924 597.032 256.96C597.049 256.995 597.073 257.027 597.102 257.053C597.131 257.079 597.164 257.099 597.201 257.112C605.201 261.112 613.921 263.752 622.281 266.912L647.001 276.232C655.241 279.312 663.521 282.352 671.841 285.272C675.841 286.712 679.841 288.112 684.161 289.272C688.266 290.756 692.445 292.025 696.681 293.073C697.041 293.313 697.081 292.832 696.801 292.672Z" fill="#263238"/>
<path d="M491.521 510.513C487.201 514.793 221.841 500.753 220.561 499.033C217.081 494.353 295.881 222.313 358.121 177.633C371.481 168.033 420.601 172.233 427.201 175.233C434.681 178.593 454.361 216.393 462.601 246.753C479.081 307.553 495.281 506.753 491.521 510.513Z" fill="#EBEBEB"/>
<path d="M402.641 237.553L416.121 216.433L431.041 234.633L426.241 251.713L410.441 252.873L402.641 237.553Z" fill="#E87E31"/>
<path d="M410.439 252.872L393.359 428.752L423.239 488.872L443.959 424.192L426.239 251.712L410.439 252.872Z" fill="#E87E31"/>
<path d="M513.8 571.632C513.8 571.632 478.84 569.872 432.08 567.352C429 550.752 422.48 510.232 421.8 510.232C421.28 511.112 408.28 550.232 404.04 565.872C358.64 563.352 307.24 560.472 266.76 557.872C226.28 555.272 196.12 552.912 194.56 551.672C193 550.432 215.96 496.272 218.56 488.272C238.56 424.992 274.04 299.352 300.92 252.712C312.838 231.461 326.512 211.244 341.8 192.272C343.36 190.472 344.76 188.792 346.12 187.272L355.76 176.312L427.76 326.752C428 323.872 437.6 187.792 437.6 187.792C457.966 220.912 472.825 257.115 481.6 294.992C497.6 366.032 496.36 469.113 500.44 518.392C500.48 518.392 513.8 570.632 513.8 571.632Z" fill="#37474F"/>
<path d="M341.76 192.272L266.76 557.872C225.92 555.192 196.12 552.912 194.56 551.672C193 550.432 215.96 496.272 218.56 488.272C238.56 424.992 274.04 299.352 300.92 252.712C312.825 231.463 326.486 211.246 341.76 192.272Z" fill="#263238"/>
<path d="M427.762 326.753C428.122 342.073 428.002 357.353 427.762 372.673C427.522 387.993 427.082 403.273 426.762 418.553C426.442 433.833 425.641 449.113 424.841 464.393L423.562 487.313C422.962 494.953 422.522 502.593 421.842 510.233C421.602 502.553 421.842 494.913 421.602 487.273V464.313C421.602 448.993 422.282 433.713 422.602 418.433C422.922 403.153 423.722 387.873 424.522 372.593C425.322 357.313 426.322 342.033 427.762 326.753Z" fill="#263238"/>
<path d="M410.281 388.273C414.5 388.273 417.921 384.852 417.921 380.633C417.921 376.413 414.5 372.993 410.281 372.993C406.061 372.993 402.641 376.413 402.641 380.633C402.641 384.852 406.061 388.273 410.281 388.273Z" fill="#263238"/>
<path d="M407.64 431.512C411.859 431.512 415.28 428.092 415.28 423.872C415.28 419.653 411.859 416.232 407.64 416.232C403.421 416.232 400 419.653 400 423.872C400 428.092 403.421 431.512 407.64 431.512Z" fill="#263238"/>
<path d="M404.999 474.713C409.219 474.713 412.639 471.292 412.639 467.073C412.639 462.853 409.219 459.433 404.999 459.433C400.78 459.433 397.359 462.853 397.359 467.073C397.359 471.292 400.78 474.713 404.999 474.713Z" fill="#263238"/>
<path d="M350.318 725.393H8.07812V932.753H350.318V725.393Z" fill="#E87E31"/>
<path opacity="0.1" d="M350.318 725.393H8.07812V823.033H350.318V725.393Z" fill="black"/>
<path d="M358.44 694.913H0V791.673H358.44V694.913Z" fill="#E87E31"/>
<path d="M254.682 639.713V694.913H228.722V663.513H129.722V694.913H103.762V639.713H254.682Z" fill="#263238"/>
<path d="M72.5592 768.593H49.1992V814.833H72.5592V768.593Z" fill="#263238"/>
<path d="M309.239 768.593H285.879V814.833H309.239V768.593Z" fill="#263238"/>
<path d="M323.319 199.952C237.439 259.032 175.319 351.592 169.479 371.152C155.039 418.472 133.479 501.952 130.159 539.432C128.919 553.272 235.719 550.672 237.519 535.912C243.079 489.672 262.959 389.032 263.479 387.312C267.039 375.312 297.319 322.432 328.479 265.112C359.639 207.792 359.439 175.112 323.319 199.952Z" fill="#AD6359"/>
<path d="M228.999 681.952C225.757 682.924 222.296 682.882 219.078 681.831C215.861 680.78 213.042 678.771 210.999 676.072C207.366 680.504 202.303 683.531 196.679 684.633C186.639 686.113 179.959 671.033 179.959 671.033C175.225 674.848 169.458 677.161 163.399 677.673C153.639 678.073 144.759 663.832 144.759 663.832C138.46 664.929 131.976 663.737 126.479 660.472C117.279 654.512 112.719 625.072 112.879 608.472C113.039 591.872 128.879 545.032 131.119 535.792H237.519C237.519 535.792 257.959 610.312 254.999 629.792C252.519 646.312 241.239 677.792 228.999 681.952Z" fill="#AD6359"/>
<path d="M212.719 675.353C219.559 658.553 221.039 640.633 223.519 622.873C223.519 622.473 222.959 622.393 222.919 622.873C220.639 640.553 214.919 657.593 211.879 675.193C211.884 675.291 211.922 675.385 211.987 675.459C212.051 675.534 212.139 675.584 212.236 675.603C212.333 675.621 212.433 675.607 212.521 675.561C212.608 675.516 212.678 675.442 212.719 675.353Z" fill="#263238"/>
<path d="M181.358 670.672C182.551 666.711 183.21 662.608 183.318 658.472C183.665 654.126 183.985 649.766 184.278 645.392C184.758 636.646 185.025 627.872 185.078 619.072C185.078 618.712 184.518 618.592 184.478 619.072C183.958 627.792 183.318 636.512 182.438 645.232C181.998 649.592 181.518 653.912 181.038 658.272C180.287 662.333 179.992 666.466 180.158 670.592C180.195 670.718 180.27 670.83 180.372 670.913C180.474 670.995 180.599 671.044 180.73 671.052C180.861 671.061 180.992 671.029 181.104 670.961C181.217 670.893 181.305 670.793 181.358 670.672Z" fill="#263238"/>
<path d="M144.76 663.472C145.805 659.878 146.211 656.128 145.96 652.393C145.96 648.393 146.12 644.393 146.44 640.393C146.8 632.393 147.2 624.393 147.84 616.393C147.817 616.331 147.776 616.278 147.723 616.241C147.669 616.204 147.606 616.184 147.54 616.184C147.475 616.184 147.411 616.204 147.357 616.241C147.304 616.278 147.263 616.331 147.24 616.393C146.52 624.393 145.72 632.392 145.08 640.672C144.76 644.672 144.48 648.673 144.2 652.673C143.579 656.273 143.579 659.952 144.2 663.552C144.2 663.552 144.72 663.632 144.76 663.472Z" fill="#263238"/>
<path d="M242.599 537.113L125.879 527.713C125.879 527.713 151.599 401.993 165.519 368.033C179.439 334.073 267.999 234.713 320.079 198.353C369.079 164.193 367.559 195.673 344.799 240.433C322.039 285.193 268.479 387.553 265.919 395.633C263.359 403.713 242.599 537.113 242.599 537.113Z" fill="#37474F"/>
<path d="M240.519 513.113C236.159 512.113 231.599 511.953 227.199 511.353C222.799 510.753 218.279 510.312 213.799 509.912C205.199 509.112 196.559 508.473 187.919 507.873L162.039 506.073C153.159 505.473 144.079 504.433 135.159 504.553C134.759 504.553 134.679 505.112 135.159 505.152C143.959 506.712 153.039 507.153 161.959 507.993L188.239 510.472C197.039 511.272 205.799 512.033 214.599 512.633C218.919 512.953 223.239 513.233 227.559 513.353C231.879 513.473 236.279 513.992 240.639 513.712C240.919 513.592 240.839 513.113 240.519 513.113Z" fill="#263238"/>
<path d="M354.961 177.752C352.481 185.752 349.801 194.032 347.241 202.152C344.681 210.272 341.841 218.352 339.241 226.472L338.081 224.552C344.161 225.232 350.081 225.752 356.281 226.512L374.481 228.592L377.561 228.952L375.721 231.512C368.001 242.192 360.361 252.952 352.401 263.512L352.081 260.952C364.801 271.792 377.681 282.472 390.201 293.512C402.721 304.552 415.401 315.472 427.761 326.752C414.427 316.566 401.321 306.192 388.441 295.632C375.321 285.232 362.561 274.472 349.641 263.872L348.281 262.752L349.321 261.272C357.001 250.512 364.921 239.952 372.801 229.272L374.041 232.152L355.761 229.912C349.681 229.192 343.761 228.232 337.601 227.432L335.801 227.152L336.441 225.512C339.481 217.512 342.441 209.512 345.521 201.512C348.601 193.512 351.761 185.632 354.961 177.752Z" fill="#263238"/>
<path d="M435.761 184.232C437.801 187.872 439.761 191.512 441.681 195.192C443.601 198.872 445.681 202.472 447.481 206.192L458.801 228.352L460.121 230.952H457.161L439.241 230.072L440.801 226.872C447.161 234.112 453.521 241.312 459.761 248.592L460.521 249.512L460.081 250.632C454.961 263.432 449.721 276.232 444.281 288.912C438.841 301.592 433.401 314.352 427.641 326.912C432.121 313.819 436.801 300.806 441.681 287.872C446.561 274.939 451.494 262.046 456.481 249.192L456.801 251.192C450.441 243.992 444.201 236.672 437.921 229.392L434.881 225.872L439.481 226.232L457.361 227.552L455.721 229.992L445.561 207.272C443.841 203.512 442.241 199.672 440.601 195.872C438.961 192.072 437.321 188.072 435.761 184.232Z" fill="#263238"/>
<path d="M419.76 210.872C405.36 215.192 378.96 194.352 367.96 176.832C367.24 175.592 368.36 162.432 369 146.312C369.32 136.552 369.48 125.672 369 115.712C369 113.672 376.04 117.032 376.04 117.032L389.08 119.392L432.24 127.392C429.429 140.046 428.166 152.994 428.48 165.952C428.578 167.304 428.806 168.644 429.16 169.952C429.147 170.179 429.147 170.406 429.16 170.632C431.04 178.152 433.84 206.712 419.76 210.872Z" fill="#AD6359"/>
<path d="M429.199 169.793C429.187 170.019 429.187 170.246 429.199 170.473C427.09 170.89 424.949 171.131 422.799 171.193C380.759 172.713 372.359 119.633 372.359 119.633L388.999 119.393L432.159 127.393C429.349 140.046 428.086 152.994 428.399 165.953C428.547 167.255 428.815 168.54 429.199 169.793Z" fill="#263238"/>
<path d="M355.998 42.633C350.758 65.193 366.798 128.233 383.478 141.393C407.478 160.473 445.118 159.913 460.758 131.313C475.958 103.593 453.598 21.833 435.158 10.073C407.998 -7.20698 363.758 9.31302 355.998 42.633Z" fill="#AD6359"/>
<path d="M419.759 77.5127C419.759 77.5127 419.479 77.7927 419.519 77.9927C420.719 81.9927 421.359 87.2327 417.879 89.5927C417.879 89.5927 417.879 89.8727 417.879 89.8327C422.439 87.9927 421.519 81.3127 419.759 77.5127Z" fill="#263238"/>
<path d="M414.801 74.0325C407.841 75.1925 410.801 89.0725 417.161 87.9525C423.521 86.8325 420.641 73.1125 414.801 74.0325Z" fill="#263238"/>
<path d="M443.762 72.6328C443.762 72.6328 444.122 72.6328 444.162 72.9528C444.922 77.2728 446.522 82.1128 450.682 82.7128V82.9528C445.842 83.2728 443.762 76.8728 443.762 72.6328Z" fill="#263238"/>
<path d="M446.64 67.3925C453.44 65.4325 456.84 79.1525 450.64 80.9525C444.44 82.7525 440.96 69.1125 446.64 67.3925Z" fill="#263238"/>
<path d="M408.039 68.8322C409.799 67.9522 411.319 66.8722 412.999 65.8322C414.679 64.7922 416.519 63.9122 417.479 61.8322C417.684 61.2066 417.678 60.5308 417.461 59.9092C417.244 59.2875 416.829 58.7545 416.279 58.3922C415.077 57.8432 413.75 57.6243 412.436 57.7578C411.121 57.8914 409.866 58.3727 408.799 59.1522C406.454 60.4646 404.663 62.5818 403.759 65.1122C403.624 65.6806 403.647 66.2752 403.825 66.8315C404.004 67.3877 404.332 67.8845 404.773 68.2678C405.214 68.651 405.751 68.9063 406.327 69.0058C406.903 69.1053 407.495 69.0453 408.039 68.8322Z" fill="#263238"/>
<path d="M450.56 59.2724C448.623 59.2999 446.686 59.2064 444.76 58.9924C442.699 59.1858 440.632 58.6937 438.88 57.5925C438.399 57.1408 438.082 56.5411 437.98 55.8888C437.879 55.2365 437.999 54.569 438.32 53.9924C439.119 52.9365 440.185 52.1129 441.409 51.6066C442.632 51.1003 443.969 50.9297 445.28 51.1124C447.986 51.0759 450.608 52.0452 452.64 53.8324C453.071 54.2697 453.367 54.8217 453.493 55.4227C453.619 56.0236 453.569 56.648 453.35 57.2215C453.131 57.7949 452.751 58.2932 452.256 58.6569C451.762 59.0206 451.173 59.2342 450.56 59.2724Z" fill="#263238"/>
<path d="M422.68 105.112C424.117 106.584 425.843 107.743 427.75 108.514C429.657 109.285 431.704 109.652 433.76 109.592C435.565 109.574 437.357 109.291 439.08 108.752L440.08 108.432L440.96 108.072C441.176 107.981 441.359 107.823 441.481 107.622C441.603 107.421 441.658 107.187 441.64 106.952C441.656 106.806 441.656 106.659 441.64 106.512V106.152C441.04 102.832 439.68 97.8724 439.68 97.8724C441 98.2324 447.68 99.7124 447.28 97.8724C443.798 83.0747 438.826 68.6678 432.44 54.8724C432.403 54.7716 432.327 54.6897 432.23 54.6447C432.132 54.5997 432.021 54.5953 431.92 54.6324C431.819 54.6695 431.737 54.7452 431.692 54.8427C431.647 54.9402 431.643 55.0516 431.68 55.1524C434.8 68.8324 440.32 81.9124 443.68 95.6324C441.273 95.0475 438.793 94.8184 436.32 94.9524C435.88 95.1924 439.16 104.472 439.28 105.992C436.647 106.824 433.874 107.118 431.125 106.857C428.377 106.596 425.709 105.785 423.28 104.472C422.64 104.432 422.36 104.792 422.68 105.112Z" fill="#263238"/>
<path d="M351.962 35.4326C359.242 2.1126 411.962 -5.1674 427.402 3.1526C435.968 7.73074 442.63 15.201 446.202 24.2326C446.202 24.2326 441.762 16.4726 436.122 17.2726C430.482 18.0726 431.562 25.2726 424.362 29.0326C417.162 32.7926 406.162 25.7926 393.522 29.6726C380.882 33.5526 376.042 45.3126 375.682 56.0726C375.322 66.8326 379.682 106.313 371.162 109.553C362.642 112.793 346.082 62.3926 351.962 35.4326Z" fill="#263238"/>
<path d="M373.201 93.7124C373.201 93.7124 356.961 74.3924 348.041 80.3524C339.121 86.3124 352.641 115.232 364.041 118.352C365.468 118.855 366.982 119.063 368.492 118.964C370.002 118.866 371.476 118.462 372.825 117.778C374.175 117.094 375.372 116.144 376.344 114.984C377.316 113.825 378.043 112.481 378.481 111.032L373.201 93.7124Z" fill="#AD6359"/>
<path d="M352.12 88.5525C352.12 88.5525 351.92 88.7925 352.12 88.8725C360.12 91.2725 364.8 98.0725 368.12 105.232C367.608 104.499 366.943 103.885 366.17 103.434C365.397 102.984 364.535 102.707 363.644 102.623C362.753 102.539 361.855 102.651 361.011 102.949C360.168 103.248 359.4 103.727 358.76 104.352C358.56 104.352 358.76 104.833 359 104.753C360.314 104.207 361.763 104.079 363.152 104.387C364.54 104.695 365.8 105.423 366.76 106.472C368.307 108.249 369.649 110.195 370.76 112.272C371.2 112.912 372.4 112.272 372.08 111.672C371.76 101.672 362.76 88.5925 352.12 88.5525Z" fill="#263238"/>
<path d="M429.761 172.193L414.161 209.753L367.761 161.473L354.281 176.633C354.281 176.633 399.361 253.113 399.761 249.633L415.761 217.273L437.961 240.153L436.801 183.313L429.761 172.193Z" fill="#EBEBEB"/>
<path d="M438.8 212.033C438.32 202.633 438.08 193.193 437.12 184.033C437.12 183.713 436.56 183.553 436.48 184.033C434.48 193.073 436.48 228.953 436.48 237.553C435.56 236.553 415.88 217.553 415.68 217.553C412.24 222.673 400.56 246.233 399.68 248.393C392.56 236.393 365.24 192.113 356.8 180.593C356.56 180.273 356.04 180.593 356.24 180.913C362.48 193.713 398.6 253.153 399.2 252.913C405.326 241.803 410.88 230.389 415.84 218.713C419.16 222.713 439 244.473 439.08 243.073C439.534 232.728 439.441 222.367 438.8 212.033Z" fill="#263238"/>
</g>
<defs>
<clipPath id="clip0_1326_4453">
<rect width="716" height="1465" fill="white"/>
</clipPath>
</defs>
</svg>
