<svg width="765" height="593" viewBox="0 0 765 593" fill="none" xmlns="http://www.w3.org/2000/svg">
<rect width="364" height="585" rx="8" fill="#DCFFF4"/>
<path d="M148.5 543.306C221.959 543.306 281.509 539.829 281.509 535.541C281.509 531.252 221.959 527.775 148.5 527.775C75.0414 527.775 15.4915 531.252 15.4915 535.541C15.4915 539.829 75.0414 543.306 148.5 543.306Z" fill="#CEF9EB"/>
<path d="M235.999 324.877H157.048C154.34 324.921 151.746 325.974 149.772 327.828C147.798 329.683 146.586 332.206 146.373 334.906L134.094 523.94C133.994 525.227 134.163 526.521 134.59 527.74C135.017 528.958 135.694 530.074 136.576 531.017C137.458 531.959 138.526 532.708 139.714 533.215C140.901 533.723 142.181 533.977 143.472 533.963H222.451C225.158 533.92 227.752 532.869 229.726 531.016C231.7 529.162 232.912 526.64 233.125 523.94L241.933 388.071C242.307 387.941 242.636 387.705 242.879 387.392C243.123 387.079 243.271 386.703 243.305 386.308L244.883 361.996C244.911 361.619 244.814 361.242 244.609 360.924C244.403 360.606 244.1 360.363 243.744 360.233L245.384 334.906C245.484 333.618 245.315 332.323 244.887 331.104C244.459 329.885 243.783 328.768 242.9 327.825C242.017 326.882 240.948 326.132 239.76 325.625C238.572 325.117 237.291 324.862 235.999 324.877Z" fill="#06E19F"/>
<path d="M139.98 373.823H141.53C142.01 373.814 142.469 373.628 142.819 373.299C143.169 372.971 143.385 372.524 143.424 372.046L144.11 361.893C144.127 361.665 144.096 361.435 144.02 361.219C143.944 361.003 143.823 360.806 143.667 360.639C143.51 360.471 143.32 360.339 143.11 360.249C142.899 360.159 142.672 360.114 142.443 360.117H140.899C140.419 360.124 139.959 360.31 139.608 360.638C139.258 360.967 139.043 361.415 139.006 361.893L138.32 372.046C138.303 372.274 138.333 372.503 138.409 372.718C138.485 372.934 138.604 373.131 138.76 373.298C138.916 373.465 139.105 373.598 139.315 373.688C139.525 373.779 139.751 373.824 139.98 373.823Z" fill="#06E19F"/>
<path d="M138.807 391.947H140.35C140.832 391.938 141.293 391.751 141.644 391.422C141.995 391.092 142.212 390.644 142.251 390.164L142.937 380.018C142.954 379.789 142.923 379.56 142.847 379.344C142.771 379.128 142.65 378.93 142.494 378.763C142.337 378.596 142.147 378.463 141.936 378.373C141.726 378.283 141.499 378.238 141.27 378.241H139.726C139.245 378.248 138.784 378.434 138.433 378.762C138.081 379.091 137.865 379.538 137.826 380.018L137.14 390.164C137.121 390.393 137.15 390.623 137.225 390.841C137.301 391.058 137.421 391.257 137.578 391.425C137.735 391.593 137.925 391.726 138.137 391.816C138.349 391.906 138.577 391.951 138.807 391.947Z" fill="#06E19F"/>
<path d="M218.252 533.963H139.301C138.01 533.977 136.73 533.723 135.543 533.215C134.356 532.708 133.287 531.959 132.405 531.017C131.523 530.074 130.847 528.958 130.419 527.74C129.992 526.521 129.823 525.227 129.923 523.94L142.175 334.906C142.39 332.206 143.603 329.682 145.578 327.827C147.552 325.973 150.147 324.921 152.856 324.877H231.801C233.092 324.863 234.372 325.119 235.559 325.627C236.747 326.135 237.815 326.884 238.697 327.827C239.579 328.771 240.255 329.887 240.682 331.106C241.11 332.324 241.279 333.619 241.179 334.906L228.927 523.94C228.714 526.639 227.502 529.162 225.528 531.016C223.554 532.869 220.96 533.92 218.252 533.963Z" fill="#263238"/>
<path opacity="0.2" d="M184.143 525.925C186.909 523.247 187.117 518.976 184.608 516.385C182.1 513.793 177.824 513.863 175.058 516.54C172.293 519.218 172.084 523.489 174.593 526.08C177.102 528.672 181.377 528.602 184.143 525.925Z" fill="white"/>
<path d="M225.387 509.425H135.637C135.332 509.424 135.03 509.361 134.749 509.24C134.469 509.118 134.216 508.94 134.007 508.717C133.799 508.494 133.638 508.23 133.534 507.943C133.431 507.655 133.388 507.349 133.408 507.044L143.911 344.929C143.957 344.369 144.212 343.847 144.625 343.465C145.037 343.084 145.578 342.872 146.14 342.871H235.896C236.202 342.871 236.504 342.934 236.785 343.056C237.065 343.177 237.317 343.355 237.526 343.578C237.735 343.801 237.896 344.065 237.999 344.353C238.103 344.64 238.146 344.946 238.126 345.251L227.616 507.332C227.58 507.899 227.329 508.43 226.915 508.819C226.501 509.207 225.955 509.424 225.387 509.425Z" fill="white"/>
<path opacity="0.2" d="M200.345 445.527C210.384 435.809 211.14 420.304 202.033 410.897C192.926 401.489 177.405 401.741 167.365 411.459C157.326 421.178 156.571 436.683 165.678 446.09C174.785 455.498 190.306 455.246 200.345 445.527Z" fill="#06E19F"/>
<path opacity="0.2" d="M181.428 466.268C160.594 466.268 144.741 449.317 146.092 428.483C147.444 407.65 165.485 390.698 186.326 390.698C207.167 390.698 223.013 407.65 221.662 428.483C220.31 449.317 202.241 466.268 181.428 466.268ZM186.23 391.384C165.773 391.384 148.054 408.027 146.73 428.483C145.406 448.94 160.965 465.582 181.421 465.582C201.878 465.582 219.597 448.94 220.928 428.483C222.259 408.027 206.714 391.384 186.23 391.384Z" fill="#06E19F"/>
<path d="M177.998 440.358L175.94 436.386C171.481 427.736 161.212 420.004 157.624 417.754L161.013 412.685C165.259 415.346 173.745 421.939 179.068 429.773C188.912 418.111 202.824 406.099 221.449 393.141L224.625 397.943C204.731 411.786 190.415 424.443 180.893 436.64L177.998 440.358Z" fill="#06E19F"/>
<path opacity="0.2" d="M177.025 335.668C178.144 334.585 178.226 332.855 177.209 331.804C176.192 330.754 174.46 330.78 173.342 331.863C172.223 332.946 172.14 334.676 173.158 335.727C174.175 336.777 175.906 336.751 177.025 335.668Z" fill="white"/>
<path opacity="0.2" d="M184.796 331.03H207.496C207.849 331.026 208.199 331.096 208.523 331.235C208.847 331.374 209.139 331.579 209.379 331.837C209.62 332.096 209.803 332.402 209.918 332.735C210.033 333.069 210.078 333.423 210.048 333.774C209.992 334.512 209.662 335.201 209.125 335.709C208.587 336.216 207.879 336.505 207.139 336.518H184.446C184.094 336.521 183.744 336.451 183.42 336.311C183.096 336.172 182.804 335.967 182.564 335.709C182.323 335.451 182.139 335.146 182.022 334.813C181.906 334.48 181.86 334.126 181.888 333.774C181.944 333.037 182.273 332.347 182.811 331.839C183.349 331.332 184.057 331.043 184.796 331.03Z" fill="white"/>
<path d="M100.302 381.712C99.1422 382.899 97.9006 384.209 96.7549 385.512C95.6093 386.816 94.4637 388.154 93.3867 389.526C92.3097 390.898 91.3287 392.27 90.3134 393.717L89.6274 394.794L88.9414 395.885C88.715 396.248 88.5092 396.619 88.3103 396.996L87.7615 398.005C87.5377 398.581 87.4103 399.191 87.3842 399.809C87.3292 400.604 87.3292 401.401 87.3842 402.196C87.5187 403.911 87.7477 405.617 88.0702 407.307C88.372 409.035 88.7562 410.771 89.1609 412.5C89.5656 414.228 90.0115 415.978 90.4643 417.679L87.9261 418.633C86.3664 415.277 85.0594 411.81 84.0159 408.26C83.486 406.431 83.0803 404.567 82.8017 402.683C82.6629 401.678 82.5919 400.665 82.589 399.651C82.5729 398.456 82.7752 397.268 83.1858 396.145C83.3436 395.761 83.426 395.61 83.5357 395.377L83.8513 394.725C84.0571 394.293 84.2697 393.861 84.5373 393.443L85.2233 392.18L85.9504 390.952C86.9194 389.335 87.9751 387.771 89.1129 386.267C90.2379 384.765 91.4041 383.304 92.6321 381.89C93.86 380.477 95.1017 379.146 96.5286 377.774L100.302 381.712Z" fill="#B55B52"/>
<path d="M100.597 373.48C96.8785 373.645 93.3456 379.819 93.3456 379.819L98.2573 389.841C98.2573 389.841 104.912 384.298 104.994 378.865C105.049 375.305 104.253 373.309 100.597 373.48Z" fill="#06E19F"/>
<path opacity="0.7" d="M100.597 373.48C96.8785 373.645 93.3456 379.819 93.3456 379.819L98.2573 389.841C98.2573 389.841 104.912 384.298 104.994 378.865C105.049 375.305 104.253 373.309 100.597 373.48Z" fill="white"/>
<path opacity="0.2" d="M101.482 380.683C100.398 382.323 99.8763 386.576 99.7117 388.469C101.348 386.877 102.736 385.048 103.828 383.043C103.094 381.211 102.195 379.606 101.482 380.683Z" fill="black"/>
<path d="M89.7304 416.636L94.2511 418.008L91.2396 421.054C91.2396 421.054 87.9811 420.046 87.5283 417.83L89.7304 416.636Z" fill="#B55B52"/>
<path d="M96.9882 421.459L96.2267 424.374L91.2395 421.027L94.251 417.981L96.9882 421.459Z" fill="#B55B52"/>
<path d="M126.733 361.578C126.589 361.983 126.692 362.394 126.96 362.49C127.227 362.586 127.556 362.346 127.694 361.942C127.831 361.537 127.735 361.118 127.467 361.022C127.2 360.926 126.877 361.166 126.733 361.578Z" fill="#263238"/>
<path d="M127.344 361.002L128.421 361.091C128.421 361.091 127.652 361.66 127.344 361.002Z" fill="#263238"/>
<path d="M126.939 362.099C126.979 363.167 127.164 364.223 127.488 365.241C127.226 365.31 126.952 365.321 126.686 365.273C126.419 365.226 126.166 365.121 125.944 364.967L126.939 362.099Z" fill="#B55B52"/>
<path d="M128.064 359.993C128.015 359.986 127.969 359.965 127.933 359.932C127.896 359.899 127.87 359.856 127.858 359.808C127.783 359.498 127.638 359.209 127.435 358.963C127.232 358.717 126.976 358.52 126.685 358.388C126.623 358.365 126.572 358.318 126.544 358.258C126.515 358.197 126.512 358.128 126.534 358.066C126.545 358.034 126.562 358.005 126.584 357.98C126.606 357.956 126.633 357.936 126.663 357.921C126.693 357.907 126.726 357.9 126.759 357.898C126.793 357.897 126.826 357.903 126.857 357.915C127.23 358.077 127.56 358.325 127.82 358.638C128.08 358.952 128.262 359.322 128.352 359.719C128.36 359.751 128.362 359.785 128.357 359.818C128.352 359.851 128.341 359.883 128.324 359.912C128.307 359.94 128.284 359.965 128.257 359.985C128.23 360.005 128.199 360.02 128.167 360.028L128.064 359.993Z" fill="#263238"/>
<path d="M112.643 363.3C112.739 366.545 112.409 372.382 109.899 374.036C109.899 374.036 110.235 377.37 116.073 378.502C122.487 379.743 119.66 375.929 119.66 375.929C116.299 374.42 116.814 371.854 117.822 369.549L112.643 363.3Z" fill="#B55B52"/>
<path d="M131.707 385.506C132.283 387.077 132.941 388.778 133.641 390.39C134.341 392.002 135.013 393.635 135.829 395.192C136.646 396.749 137.442 398.313 138.306 399.829C138.752 400.577 139.198 401.325 139.678 402.038C139.911 402.409 140.151 402.765 140.405 403.102L140.776 403.623L140.961 403.89L141.057 404.021L141.119 404.089C141.565 404.597 142.077 405.042 142.641 405.413C143.321 405.878 144.027 406.304 144.754 406.689C146.257 407.499 147.869 408.233 149.508 408.926C151.148 409.619 152.822 410.298 154.516 410.894C156.211 411.491 157.946 412.122 159.613 412.706L158.975 415.347C155.299 414.732 151.667 413.877 148.102 412.788C146.277 412.231 144.486 411.569 142.738 410.805C141.821 410.398 140.928 409.94 140.062 409.433C139.058 408.861 138.149 408.137 137.366 407.286L137.201 407.101L137.085 406.957L136.858 406.676L136.406 406.099C136.097 405.722 135.802 405.338 135.528 404.947C134.945 404.172 134.409 403.376 133.881 402.573C132.84 400.981 131.881 399.337 131.007 397.648C130.136 395.967 129.312 394.273 128.558 392.544C127.803 390.815 127.124 389.114 126.5 387.221L131.707 385.506Z" fill="#B55B52"/>
<path d="M158.708 412.692L162.755 411.128L162.556 415.799C162.556 415.799 159.277 416.671 157.754 415.017L158.708 412.692Z" fill="#B55B52"/>
<path d="M165.808 412.733L167.193 415.717L162.556 415.799L162.755 411.128L165.808 412.733Z" fill="#B55B52"/>
<path d="M98.6826 529.813L104.04 530.211L105.632 517.911L100.274 517.513L98.6826 529.813Z" fill="#B55B52"/>
<path d="M56.2467 501.988L59.7453 506.146L70.1313 499.471L66.6327 495.314L56.2467 501.988Z" fill="#B55B52"/>
<path d="M61.3779 505.61L58.5585 500.191C58.5136 500.097 58.4357 500.023 58.3396 499.982C58.2435 499.942 58.1358 499.938 58.0371 499.972L53.5575 501.522C53.4451 501.567 53.3436 501.636 53.2596 501.723C53.1756 501.81 53.111 501.914 53.0702 502.028C53.0293 502.143 53.0132 502.264 53.0227 502.385C53.0322 502.506 53.0672 502.623 53.1254 502.729C54.1406 504.602 54.7237 505.473 55.9585 507.84C56.7269 509.301 57.6941 511.524 58.7437 513.547C59.7933 515.571 61.7964 514.673 61.5357 513.733C60.3558 509.541 61.1378 508.382 61.5357 506.564C61.5923 506.237 61.5367 505.901 61.3779 505.61Z" fill="#263238"/>
<path d="M104.376 529.449H98.3533C98.2497 529.448 98.149 529.484 98.0696 529.55C97.9903 529.617 97.9376 529.71 97.9212 529.813L97.1117 534.573C97.095 534.692 97.104 534.813 97.138 534.928C97.1721 535.043 97.2305 535.149 97.3092 535.24C97.3879 535.33 97.4851 535.402 97.5942 535.452C97.7034 535.502 97.8219 535.527 97.9417 535.527C100.048 535.493 101.056 535.369 103.704 535.369C105.337 535.369 108.698 535.541 110.948 535.541C113.198 535.541 113.377 533.318 112.444 533.112C108.266 532.214 106.647 530.965 105.261 529.778C105.017 529.564 104.702 529.446 104.376 529.449Z" fill="#263238"/>
<path opacity="0.2" d="M105.632 517.911L104.747 524.75L99.4098 524.215L100.274 517.52L105.632 517.911Z" fill="black"/>
<path opacity="0.2" d="M66.6327 495.314L70.1313 499.471L65.8301 502.235L62.2012 498.161L66.6327 495.314Z" fill="black"/>
<path d="M99.1079 406.099L120.593 410.263C130.746 380.374 128.318 379.393 128.318 379.393C126.739 378.541 125.111 377.785 123.44 377.13L123.145 377.02C121.773 376.519 121.485 376.444 119.647 375.909C116.477 375.161 113.534 374.537 109.892 374.022L109.206 373.926C108.52 373.844 107.889 373.775 107.258 373.713C106.832 373.665 106.407 373.638 106.002 373.61L104.63 373.535C102.284 373.418 100.603 373.453 100.603 373.453C101.783 392.119 100.885 397.49 99.1079 406.099Z" fill="#06E19F"/>
<path opacity="0.7" d="M99.1079 406.099L120.593 410.263C130.746 380.374 128.318 379.393 128.318 379.393C126.739 378.541 125.111 377.785 123.44 377.13L123.145 377.02C121.773 376.519 121.485 376.444 119.647 375.909C116.477 375.161 113.534 374.537 109.892 374.022L109.206 373.926C108.52 373.844 107.889 373.775 107.258 373.713C106.832 373.665 106.407 373.638 106.002 373.61L104.63 373.535C102.284 373.418 100.603 373.453 100.603 373.453C101.783 392.119 100.885 397.49 99.1079 406.099Z" fill="white"/>
<path opacity="0.2" d="M125.231 386.37L123.289 386.054C123.289 388.613 124.264 393.004 125.21 395.796C126.013 393.052 126.637 390.795 127.11 388.894L125.231 386.37Z" fill="black"/>
<path d="M127.57 379.03C130.746 380.045 133.058 386.329 133.922 389.039L127.748 396.29C127.748 396.29 121.424 387.2 122.432 384.381C123.42 381.445 126.033 378.529 127.57 379.03Z" fill="#06E19F"/>
<path opacity="0.7" d="M127.57 379.03C130.746 380.045 133.058 386.329 133.922 389.039L127.748 396.29C127.748 396.29 121.424 387.2 122.432 384.381C123.42 381.445 126.033 378.529 127.57 379.03Z" fill="white"/>
<path d="M129.628 355.829C128.99 357.702 126.198 358.45 123.42 357.51C120.641 356.57 118.885 354.272 119.523 352.399C120.161 350.527 122.953 349.779 125.697 350.725C128.441 351.672 130.259 353.957 129.628 355.829Z" fill="#263238"/>
<path d="M113.514 355.315C112.087 360.419 111.374 362.545 113.006 366.058C115.462 371.347 122.034 372.177 124.956 367.642C127.584 363.567 129.477 355.905 125.279 352.07C124.393 351.214 123.299 350.603 122.105 350.299C120.911 349.995 119.658 350.007 118.47 350.334C117.282 350.662 116.201 351.294 115.331 352.167C114.462 353.04 113.836 354.125 113.514 355.315Z" fill="#B55B52"/>
<path d="M121.485 349.353C119.427 350.533 115.057 343.145 109.631 349.353C105.748 353.806 108.225 360.329 108.225 360.329C108.225 360.329 105.131 354.889 102.661 357.544C99.4373 360.974 102.771 373.247 113.404 372.403C124.037 371.559 123.008 362.929 123.008 362.929C123.008 362.929 127.989 357.867 127.742 353.325C127.556 349.923 124.915 347.412 121.485 349.353Z" fill="#263238"/>
<path d="M122.775 359.698C122.51 360.648 122.543 361.656 122.871 362.586C123.31 363.897 124.318 363.903 124.854 362.998C125.389 362.092 125.684 360.521 124.922 359.465C124.161 358.409 123.118 358.649 122.775 359.698Z" fill="#B55B52"/>
<path d="M114.886 409.152C114.886 409.152 112.595 417.096 109.652 427.578C107.697 434.561 105.447 442.67 103.395 450.305C102.222 454.675 101.118 458.887 100.164 462.653C94.7724 483.953 67.8812 502.263 67.8812 502.263L62.6744 496.535C62.6744 496.535 80.7437 481.319 85.9984 461.446C96.6109 421.102 90.6427 414.297 99.101 406.099L114.886 409.152Z" fill="#FF9548"/>
<path opacity="0.2" d="M112.567 416.273C111.771 419.353 110.77 423.243 109.665 427.592C107.71 434.575 105.46 442.684 103.409 450.319C102.531 440.578 102.037 422.666 109.206 417.096C110.619 416.012 111.737 415.786 112.567 416.273Z" fill="black"/>
<path d="M68.3271 503.086L61.8239 495.931L63.7927 493.955L71.7708 501.474L68.3271 503.086Z" fill="#06E19F"/>
<path opacity="0.7" d="M68.3271 503.086L61.8239 495.931L63.7927 493.955L71.7708 501.474L68.3271 503.086Z" fill="white"/>
<path d="M62.3589 508.519C62.2935 508.518 62.2287 508.506 62.1668 508.485C61.5288 508.252 61.1241 507.031 60.9388 506.324C60.9329 506.3 60.9342 506.275 60.9428 506.251C60.9514 506.228 60.9667 506.208 60.9869 506.194C61.0068 506.179 61.0308 506.171 61.0555 506.171C61.0801 506.171 61.1041 506.179 61.1241 506.194C61.3161 506.303 63.0037 507.291 63.038 507.984C63.0437 508.06 63.0288 508.135 62.995 508.203C62.9612 508.27 62.9097 508.328 62.8459 508.368C62.7057 508.473 62.5337 508.526 62.3589 508.519ZM61.2681 506.564C61.5494 507.49 61.9061 508.114 62.256 508.238C62.3308 508.261 62.4102 508.265 62.4869 508.25C62.5636 508.234 62.6352 508.199 62.695 508.149C62.7842 508.087 62.7911 508.025 62.7842 507.984C62.7499 507.627 61.9335 506.983 61.2681 506.564Z" fill="#06E19F"/>
<path d="M120.251 410.263C120.251 410.263 121.623 452.672 118.59 468.649C115.476 485.298 105.968 523.028 105.968 523.028L98.2437 522.033C98.2437 522.033 103.128 483.851 105.207 467.346C107.463 449.345 104.521 407.19 104.521 407.19L120.251 410.263Z" fill="#FF9548"/>
<path d="M107.628 523.501L96.6178 522.081L96.7481 519.461L108.733 519.982L107.628 523.501Z" fill="#06E19F"/>
<path opacity="0.7" d="M107.628 523.501L96.6178 522.081L96.7481 519.461L108.733 519.982L107.628 523.501Z" fill="white"/>
<path d="M62.6196 506.859C62.0497 506.832 61.4936 506.675 60.9937 506.4C60.975 506.388 60.9595 506.372 60.9487 506.353C60.9379 506.333 60.9322 506.312 60.932 506.29C60.935 506.268 60.9427 506.246 60.9545 506.228C60.9664 506.209 60.9821 506.192 61.0006 506.18C61.0623 506.18 62.3726 505.46 63.1272 505.741C63.2218 505.775 63.3077 505.83 63.3788 505.901C63.45 505.972 63.5046 506.058 63.5388 506.153C63.5839 506.244 63.5969 506.348 63.5757 506.447C63.5546 506.547 63.5005 506.636 63.4222 506.701C63.1785 506.839 62.8971 506.894 62.6196 506.859ZM61.3367 506.303C61.9336 506.578 62.9763 506.729 63.2644 506.502C63.3124 506.461 63.3604 506.4 63.2644 506.242C63.2442 506.181 63.2101 506.126 63.1649 506.081C63.1196 506.035 63.0645 506.001 63.0037 505.981C62.4282 505.916 61.8467 506.029 61.3367 506.303Z" fill="#06E19F"/>
<path d="M106.366 530.382C105.801 530.37 105.238 530.306 104.685 530.19C104.659 530.187 104.634 530.175 104.616 530.157C104.597 530.138 104.585 530.113 104.582 530.087C104.578 530.061 104.583 530.034 104.595 530.011C104.607 529.987 104.627 529.968 104.651 529.957C104.898 529.826 107.066 528.736 107.71 529.099C107.772 529.133 107.823 529.183 107.86 529.243C107.896 529.303 107.915 529.372 107.916 529.442C107.93 529.557 107.914 529.672 107.871 529.779C107.828 529.886 107.758 529.98 107.669 530.053C107.284 530.305 106.825 530.421 106.366 530.382ZM105.111 530.012C106.29 530.211 107.169 530.156 107.505 529.868C107.562 529.817 107.607 529.753 107.634 529.681C107.662 529.61 107.671 529.532 107.662 529.456C107.664 529.428 107.658 529.401 107.645 529.376C107.632 529.352 107.611 529.332 107.587 529.319C107.237 529.127 106.002 529.586 105.111 530.012Z" fill="#06E19F"/>
<path d="M104.713 530.197C104.688 530.204 104.662 530.204 104.637 530.197C104.619 530.184 104.604 530.166 104.594 530.146C104.585 530.125 104.58 530.103 104.582 530.08C104.582 529.984 104.85 527.666 106.146 527.803C106.489 527.837 106.592 528.009 106.613 528.153C106.709 528.756 105.412 529.922 104.761 530.211L104.713 530.197ZM106.043 528.022C105.275 528.022 104.966 529.291 104.87 529.84C105.556 529.442 106.421 528.53 106.366 528.166C106.366 528.166 106.366 528.05 106.119 528.029L106.043 528.022Z" fill="#06E19F"/>
<path d="M98.9708 404.789L97.6879 406.511C97.5919 406.648 97.7428 406.833 97.9898 406.881L120.525 411.244C120.717 411.244 120.895 411.244 120.923 411.1L121.437 409.221C121.437 409.097 121.321 408.946 121.108 408.905L99.3481 404.693C99.2822 404.675 99.2129 404.675 99.1468 404.692C99.0808 404.709 99.0201 404.742 98.9708 404.789Z" fill="#06E19F"/>
<path d="M101.495 407.78L100.912 407.663C100.796 407.663 100.72 407.567 100.741 407.499L101.427 405.063C101.427 404.995 101.564 404.954 101.674 404.974L102.257 405.091C102.373 405.091 102.456 405.187 102.435 405.256L101.749 407.691C101.722 407.78 101.612 407.78 101.495 407.78Z" fill="#263238"/>
<path d="M116.21 410.654L115.627 410.545C115.51 410.545 115.435 410.442 115.455 410.373L116.141 407.945C116.141 407.869 116.272 407.828 116.388 407.855L116.971 407.965C117.081 407.965 117.163 408.068 117.143 408.137L116.457 410.565C116.436 410.641 116.326 410.682 116.21 410.654Z" fill="#263238"/>
<rect x="398" width="364" height="585" rx="8" fill="#FFF7F1"/>
<path d="M609.5 268.942C676.105 268.942 730.1 265.79 730.1 261.901C730.1 258.013 676.105 254.86 609.5 254.86C542.895 254.86 488.9 258.013 488.9 261.901C488.9 265.79 542.895 268.942 609.5 268.942Z" fill="#F5F5F5"/>
<path d="M502.099 183.312H501.477V191.671H502.099V183.312Z" fill="#06E19F"/>
<path d="M502.099 194.159H501.477V197.618H502.099V194.159Z" fill="#06E19F"/>
<path d="M503.654 152.759H605.37V261.901H506.565C505.795 261.901 505.056 261.595 504.511 261.05C503.967 260.506 503.661 259.767 503.661 258.996V152.759H503.654Z" fill="#06E19F"/>
<path opacity="0.2" d="M605.37 152.759H503.654V160.496H562.178L564.119 261.901L565.475 160.496H605.37V152.759Z" fill="black"/>
<path d="M502.777 136.17H605.37V158.288H502.777C502.393 158.288 502.024 158.136 501.752 157.864C501.481 157.592 501.328 157.224 501.328 156.839V137.626C501.327 137.435 501.364 137.246 501.437 137.069C501.509 136.893 501.616 136.732 501.75 136.597C501.885 136.462 502.045 136.354 502.221 136.281C502.397 136.208 502.586 136.17 502.777 136.17Z" fill="#06E19F"/>
<path d="M542.822 261.901L541.758 136.17H563.876L564.934 261.901H542.822Z" fill="#FF9548"/>
<path d="M645.458 261.901H605.395V152.759H648.344V258.996C648.344 259.764 648.041 260.5 647.5 261.044C646.959 261.588 646.225 261.896 645.458 261.901Z" fill="#06E19F"/>
<path opacity="0.2" d="M645.458 261.901H605.395V152.759H648.344V258.996C648.344 259.764 648.041 260.5 647.5 261.044C646.959 261.588 646.225 261.896 645.458 261.901Z" fill="black"/>
<path opacity="0.2" d="M605.37 152.759H648.338V160.496H624.36L621.1 261.901L621.455 160.496H605.37V152.759Z" fill="black"/>
<path d="M649.221 158.288H605.37V136.17H649.221C649.411 136.17 649.6 136.208 649.776 136.28C649.951 136.353 650.111 136.46 650.246 136.594C650.38 136.729 650.487 136.889 650.56 137.065C650.633 137.241 650.67 137.429 650.67 137.619V156.833C650.671 157.024 650.634 157.213 650.562 157.389C650.489 157.566 650.383 157.726 650.248 157.862C650.113 157.997 649.953 158.104 649.777 158.177C649.601 158.251 649.412 158.288 649.221 158.288Z" fill="#06E19F"/>
<path opacity="0.2" d="M649.221 158.288H605.37V136.17H649.221C649.411 136.17 649.6 136.208 649.776 136.28C649.951 136.353 650.111 136.46 650.246 136.594C650.38 136.729 650.487 136.889 650.56 137.065C650.633 137.241 650.67 137.429 650.67 137.619V156.833C650.671 157.024 650.634 157.213 650.562 157.389C650.489 157.566 650.383 157.726 650.248 157.862C650.113 157.997 649.953 158.104 649.777 158.177C649.601 158.251 649.412 158.288 649.221 158.288Z" fill="black"/>
<path d="M621.1 261.901L622.954 136.17H636.756L634.903 261.901H621.1Z" fill="#263238"/>
<path opacity="0.2" d="M621.1 261.901L622.954 136.17H636.756L634.903 261.901H621.1Z" fill="#FF9548"/>
<path d="M628.303 94.4339V94.4028H610.209C609.168 94.4895 608.151 94.7679 607.211 95.2239C588.862 102.912 579.943 123.058 575.999 136.145H594.51C594.51 136.145 638.317 93.1899 628.303 94.4339Z" fill="#FF9548"/>
<path opacity="0.5" d="M594.51 136.17C594.51 119.171 607.373 102.937 625.722 95.2488C644.071 87.5608 594.51 136.17 594.51 136.17Z" fill="black"/>
<path d="M633.03 105.201H619.601C618.744 105.274 617.904 105.484 617.113 105.823C601.29 111.533 588.893 126.492 582.207 136.207H595.953C595.953 136.207 640.824 104.268 633.03 105.201Z" fill="#FF9548"/>
<path opacity="0.5" d="M595.978 136.17C602.453 119.376 615.061 111.495 630.884 105.785C646.708 100.075 595.978 136.17 595.978 136.17Z" fill="black"/>
<path d="M542.604 89.1282V89.0909H524.466C524.134 89.0846 523.806 89.1671 523.516 89.3301C523.226 89.493 522.985 89.7304 522.818 90.0177C517.158 98.6822 541.478 121.404 559.162 136.164H577.672C577.672 136.164 550.553 87.7163 542.604 89.1282Z" fill="#FF9548"/>
<path opacity="0.5" d="M577.672 136.17C560.014 121.41 535.669 98.6884 541.329 90.024C546.989 81.3595 577.672 136.17 577.672 136.17Z" fill="black"/>
<path d="M561.513 101.276H548.053C547.781 101.283 547.514 101.347 547.27 101.465C547.025 101.583 546.809 101.752 546.634 101.96C540.638 108.398 553.999 125.273 564.05 136.226H577.778C577.778 136.226 567.702 100.194 561.513 101.276Z" fill="#FF9548"/>
<path opacity="0.5" d="M577.778 136.17C567.726 125.21 554.36 108.342 560.362 101.904C566.364 95.4663 577.778 136.17 577.778 136.17Z" fill="black"/>
<path d="M693.171 252.789L697.923 251.253L695.635 239.845L690.882 241.375L693.171 252.789Z" fill="#FF8B7B"/>
<path d="M655.484 256.801H660.473L661.804 245.238H656.809L655.484 256.801Z" fill="#FF8B7B"/>
<path d="M660.952 256.222H654.862C654.765 256.222 654.67 256.257 654.595 256.319C654.52 256.382 654.469 256.468 654.452 256.565L653.662 261.006C653.645 261.116 653.652 261.228 653.682 261.335C653.713 261.442 653.767 261.541 653.84 261.625C653.912 261.709 654.003 261.776 654.104 261.822C654.206 261.867 654.316 261.89 654.427 261.889C656.386 261.858 657.811 261.74 660.28 261.74C661.798 261.74 666.376 261.901 668.472 261.901C670.568 261.901 670.755 259.83 669.89 259.637C666.009 258.798 663.048 257.641 661.804 256.527C661.568 256.322 661.264 256.213 660.952 256.222Z" fill="#263238"/>
<path d="M697.712 250.718L692.518 252.422C692.424 252.453 692.344 252.514 692.29 252.597C692.235 252.679 692.211 252.778 692.22 252.876L692.643 257.404C692.653 257.514 692.688 257.619 692.745 257.713C692.801 257.807 692.879 257.887 692.971 257.947C693.063 258.007 693.168 258.045 693.277 258.059C693.386 258.073 693.496 258.062 693.601 258.026C695.467 257.404 698.135 256.409 700.486 255.65C703.235 254.761 704.871 254.313 708.093 253.268C710.046 252.646 709.959 250.494 709.076 250.581C705.095 250.967 702.856 251.694 698.975 250.749C698.565 250.618 698.127 250.607 697.712 250.718Z" fill="#263238"/>
<path d="M672.683 105.307C673.305 106.706 674.001 108.218 674.698 109.661C675.395 111.104 676.104 112.565 676.85 113.984C677.597 115.402 678.331 116.826 679.127 118.188C679.923 119.55 680.732 120.894 681.584 122.182C682.019 122.804 682.442 123.426 682.902 124.01L683.58 124.875C683.705 125.046 683.845 125.206 683.997 125.354C684.215 125.583 684.48 125.761 684.775 125.876C685.175 126.007 685.601 126.045 686.019 125.988C687.292 125.761 688.51 125.292 689.607 124.607C690.229 124.247 690.851 123.83 691.473 123.394C692.095 122.959 692.717 122.455 693.29 122.026L696.176 124.408C695.683 125.188 695.139 125.934 694.546 126.641C693.957 127.354 693.319 128.026 692.637 128.65C691.926 129.316 691.155 129.916 690.335 130.442C689.433 131.034 688.454 131.499 687.424 131.823C686.221 132.211 684.946 132.328 683.692 132.165C682.347 131.986 681.067 131.482 679.96 130.697C679.453 130.335 678.978 129.929 678.542 129.484L677.603 128.451C676.981 127.767 676.427 127.058 675.849 126.355C673.748 123.56 671.856 120.614 670.189 117.541C669.361 116.03 668.571 114.512 667.837 112.963C667.103 111.415 666.388 109.897 665.716 108.236L672.683 105.307Z" fill="#FF8B7B"/>
<path d="M663.546 105.754C662.656 110.438 668.478 117.137 668.478 117.137L677.031 113.455C677.031 113.455 676.141 108.087 672.726 104.212C668.54 99.466 664.522 100.654 663.546 105.754Z" fill="#06E19F"/>
<path opacity="0.2" d="M668.167 107.409C665.835 106.576 664.112 106.849 663.49 107.409C663.913 111.863 668.466 117.112 668.466 117.112L674.524 114.506C674.076 112.435 671.818 108.74 668.167 107.409Z" fill="black"/>
<path d="M692.568 123.077L695.299 117.324L699.13 121.329C699.13 121.329 698.042 125.92 694.453 125.335L692.568 123.077Z" fill="#FF8B7B"/>
<path d="M697.488 114.618L700.455 118.294L699.13 121.329L695.299 117.324L697.488 114.618Z" fill="#FF8B7B"/>
<path opacity="0.2" d="M695.635 239.845L696.816 245.729L692.058 247.259L690.882 241.382L695.635 239.845Z" fill="black"/>
<path opacity="0.2" d="M656.809 245.244H661.804L661.12 251.203H656.119L656.809 245.244Z" fill="black"/>
<path d="M641.141 105.823C648.338 124.178 649.227 144.318 650.098 148.324L676.415 143.759C677.037 118.953 670.817 105.244 669.15 102.029C669.03 101.798 668.852 101.603 668.634 101.462C668.416 101.322 668.165 101.24 667.906 101.226C667.172 101.176 666.04 101.12 664.646 101.114C663.913 101.114 663.123 101.114 662.302 101.158C661.848 101.158 661.387 101.208 660.927 101.239C657.161 101.673 653.423 102.323 649.731 103.186C649.034 103.341 648.325 103.515 647.641 103.696C646.957 103.876 646.397 104.05 645.775 104.23C643.175 105.008 641.141 105.823 641.141 105.823Z" fill="#06E19F"/>
<path opacity="0.2" d="M643.71 113.206C644.581 116.08 645.327 118.941 645.955 121.715C646.783 116.695 647.15 111.539 647.15 111.539L643.71 113.206Z" fill="black"/>
<path d="M648.742 90.4719C650.067 93.9489 651.92 100.424 649.818 103.26C652.107 104.865 655.055 106.669 659.353 106.078C663.651 105.487 662.401 102.676 661.002 101.32C656.822 101.058 656.411 98.0603 656.648 95.1431L648.742 90.4719Z" fill="#FF8B7B"/>
<path d="M662.152 107.266C662.152 107.266 665.48 104.255 661.835 101.114C661.359 101.084 660.882 101.134 660.423 101.264C660.423 101.264 664.51 104.759 659.857 105.991C656.31 105.77 652.864 104.724 649.793 102.937C649.422 103.019 649.067 103.162 648.742 103.36C650.023 105.929 658.731 107.944 658.731 107.944C658.813 107.538 658.953 107.146 659.148 106.781C660.004 109.183 660.665 111.65 661.126 114.158C661.713 114.07 662.293 113.939 662.861 113.766C662.378 111.29 661.755 108.844 660.995 106.439C661.423 106.65 661.814 106.929 662.152 107.266Z" fill="white"/>
<path opacity="0.2" d="M651.951 92.3816L656.616 95.1433C656.561 95.8243 656.561 96.5087 656.616 97.1896C655.049 97.2332 652.648 95.9146 652.207 94.3347C652.007 93.7038 651.92 93.0426 651.951 92.3816Z" fill="black"/>
<path d="M658.06 85.5707C661.717 84.1774 661.337 74.8225 655.708 76.2033C651.902 77.1363 652.294 78.287 652.99 80.7315C653.687 83.176 655.746 86.4539 658.06 85.5707Z" fill="#263238"/>
<path d="M647.374 85.1351C648.518 89.9556 648.941 92.8354 651.84 94.9067C656.194 98.0167 661.792 94.7512 662.14 89.6881C662.426 85.1289 660.504 78.007 655.397 76.8998C654.273 76.6488 653.103 76.6896 651.998 77.0184C650.894 77.3473 649.892 77.9532 649.088 78.7785C648.283 79.6039 647.704 80.6213 647.404 81.7339C647.104 82.8465 647.093 84.0173 647.374 85.1351Z" fill="#FF8B7B"/>
<path d="M648.064 88.6307C651.721 87.2374 650.316 78.0567 644.687 79.4562C640.88 80.3892 641.539 82.5662 642.609 84.7059C643.76 86.97 645.769 89.5139 648.064 88.6307Z" fill="#263238"/>
<path d="M656.424 72.4091C655.472 69.977 650.515 68.223 649.613 72.9502C645.445 72.6703 635.518 80.7376 647.305 80.7065C653.133 82.1745 661.767 78.9649 661.897 75.5875C662.028 72.21 657.854 70.9909 656.424 72.4091Z" fill="#263238"/>
<path d="M646.136 89.7939C646.764 90.7495 647.742 91.4197 648.86 91.6599C650.316 91.946 650.875 90.5714 650.328 89.2154C649.837 87.9714 648.462 86.3853 647.094 86.7274C645.725 87.0695 645.352 88.6121 646.136 89.7939Z" fill="#FF8B7B"/>
<path d="M698.241 244.056L690.192 246.65C690.192 246.65 682.187 217.646 679.164 202.389C678.237 197.742 675.675 191.815 673.404 184.973C670.537 176.37 667.091 167.109 664.311 159.862C661.375 152.23 659.21 146.751 659.21 146.751L676.421 143.759C676.421 143.759 691.256 183.946 693.321 199.042C695.467 214.741 698.241 244.056 698.241 244.056Z" fill="#FF9548"/>
<path opacity="0.2" d="M673.398 184.972C670.531 176.37 667.085 167.109 664.304 159.862L665.71 155.782C670.556 160.472 673.348 176.252 673.398 184.972Z" fill="black"/>
<path d="M668.217 145.183C668.217 145.183 669.616 188.176 668.994 202.787C668.31 218.797 663.427 250.059 663.427 250.059H654.284C654.284 250.059 656.324 221.714 656.15 206.096C655.932 188.306 650.129 148.337 650.129 148.337L668.217 145.183Z" fill="#FF9548"/>
<path d="M664.522 250.245H653.749V247.029L665.791 246.818L664.522 250.245Z" fill="#06E19F"/>
<path d="M699.311 243.919L689.726 247.011L688.724 243.913L699.391 240.293L699.311 243.919Z" fill="#06E19F"/>
<path d="M654.999 85.2099C655.068 85.608 655.335 85.8941 655.621 85.8319C655.907 85.7697 656.032 85.4276 655.963 85.0295C655.895 84.6314 655.628 84.3515 655.341 84.4075C655.055 84.4635 654.906 84.818 654.999 85.2099Z" fill="#263238"/>
<path d="M659.484 84.4322C659.552 84.8303 659.82 85.1164 660.106 85.0542C660.392 84.992 660.517 84.6499 660.448 84.2518C660.38 83.8538 660.112 83.5676 659.857 83.6298C659.602 83.692 659.416 84.0341 659.484 84.4322Z" fill="#263238"/>
<path d="M658.091 84.8801C658.774 86.0106 659.612 87.0405 660.579 87.9404C660.341 88.1814 660.054 88.3679 659.737 88.4871C659.42 88.6063 659.081 88.6553 658.744 88.6308L658.091 84.8801Z" fill="#FF5652"/>
<path d="M657.257 89.9806C656.802 90.0068 656.346 89.9392 655.918 89.7819C655.49 89.6246 655.099 89.381 654.769 89.0663C654.758 89.0553 654.749 89.0422 654.743 89.0278C654.737 89.0134 654.734 88.9979 654.734 88.9823C654.734 88.9667 654.737 88.9512 654.743 88.9368C654.749 88.9224 654.758 88.9093 654.769 88.8983C654.792 88.8774 654.822 88.8657 654.853 88.8657C654.884 88.8657 654.914 88.8774 654.937 88.8983C655.305 89.2379 655.748 89.4859 656.23 89.6221C656.712 89.7582 657.22 89.7788 657.711 89.6821C657.742 89.6783 657.774 89.6865 657.799 89.705C657.825 89.7234 657.842 89.7508 657.848 89.7816C657.854 89.8121 657.847 89.8435 657.829 89.8691C657.812 89.8947 657.785 89.9124 657.755 89.9184C657.59 89.9491 657.424 89.9699 657.257 89.9806Z" fill="#263238"/>
<path d="M653.363 84.0031C653.327 84.0119 653.288 84.0119 653.252 84.0031C653.197 83.9739 653.155 83.9247 653.135 83.8657C653.116 83.8066 653.119 83.7423 653.146 83.6859C653.311 83.3402 653.557 83.0397 653.864 82.81C654.17 82.5804 654.528 82.4284 654.906 82.3673C654.969 82.3607 655.031 82.3792 655.08 82.4189C655.129 82.4586 655.161 82.5161 655.167 82.5788C655.174 82.6414 655.155 82.7042 655.116 82.7532C655.076 82.8022 655.018 82.8334 654.956 82.84C654.664 82.892 654.389 83.0129 654.153 83.1924C653.917 83.372 653.728 83.6051 653.6 83.8725C653.579 83.9164 653.545 83.9527 653.503 83.9761C653.46 83.9996 653.412 84.009 653.363 84.0031Z" fill="#263238"/>
<path d="M661.126 82.5539C661.087 82.5561 661.048 82.5488 661.012 82.5326C660.976 82.5163 660.945 82.4916 660.921 82.4606C660.756 82.2139 660.534 82.0102 660.274 81.8663C660.015 81.7224 659.725 81.6426 659.428 81.6334C659.365 81.6351 659.303 81.6119 659.257 81.5689C659.21 81.5259 659.182 81.4665 659.179 81.4032C659.177 81.3416 659.2 81.2817 659.242 81.2364C659.284 81.191 659.342 81.1639 659.403 81.1606C659.779 81.1657 660.148 81.261 660.479 81.4386C660.81 81.6161 661.094 81.8706 661.306 82.1807C661.343 82.2311 661.359 82.294 661.35 82.3558C661.34 82.4176 661.307 82.4732 661.257 82.5104C661.219 82.5386 661.173 82.5539 661.126 82.5539Z" fill="#263238"/>
<path d="M662.637 257.099C662.195 257.087 661.755 257.026 661.325 256.919C661.301 256.913 661.28 256.901 661.264 256.883C661.247 256.865 661.236 256.843 661.232 256.819C661.227 256.797 661.229 256.774 661.238 256.753C661.247 256.731 661.262 256.714 661.281 256.701C661.456 256.589 663.029 255.6 663.589 255.88C663.652 255.912 663.706 255.959 663.744 256.018C663.782 256.077 663.804 256.146 663.807 256.216C663.826 256.33 663.816 256.446 663.778 256.555C663.74 256.664 663.675 256.761 663.589 256.838C663.311 257.031 662.975 257.123 662.637 257.099ZM661.661 256.751C662.513 256.919 663.166 256.888 663.427 256.658C663.487 256.607 663.532 256.54 663.557 256.466C663.582 256.392 663.587 256.312 663.57 256.235C663.572 256.206 663.566 256.177 663.551 256.151C663.537 256.126 663.516 256.105 663.49 256.092C663.197 255.942 662.302 256.372 661.661 256.776V256.751Z" fill="#06E19F"/>
<path d="M661.35 256.919C661.33 256.925 661.308 256.925 661.288 256.919C661.269 256.909 661.254 256.893 661.244 256.874C661.235 256.856 661.23 256.835 661.232 256.813C661.232 256.751 661.294 255.308 661.854 254.835C661.921 254.776 662 254.732 662.086 254.706C662.172 254.681 662.263 254.674 662.351 254.686C662.441 254.685 662.528 254.715 662.598 254.771C662.668 254.826 662.717 254.904 662.737 254.991C662.868 255.551 661.916 256.645 661.406 256.925L661.35 256.919ZM662.277 254.898C662.227 254.897 662.178 254.906 662.132 254.924C662.087 254.942 662.045 254.969 662.009 255.003C661.675 255.456 661.492 256.002 661.487 256.565C661.984 256.173 662.588 255.321 662.507 255.022C662.507 254.991 662.507 254.916 662.333 254.898H662.277Z" fill="#06E19F"/>
<path d="M698.39 251.221C698.368 251.222 698.346 251.216 698.327 251.204C698.308 251.191 698.293 251.174 698.284 251.153C698.271 251.134 698.263 251.111 698.263 251.088C698.263 251.064 698.271 251.041 698.284 251.022C698.465 250.836 700.063 249.256 700.772 249.387C700.836 249.4 700.896 249.43 700.946 249.472C700.996 249.514 701.034 249.568 701.058 249.629C701.103 249.728 701.123 249.836 701.116 249.945C701.11 250.053 701.077 250.158 701.021 250.251C700.648 250.873 699.224 251.134 698.415 251.228L698.39 251.221ZM700.673 249.617C700.275 249.617 699.367 250.338 698.732 250.942C699.833 250.774 700.598 250.475 700.81 250.127C700.843 250.064 700.861 249.993 700.861 249.921C700.861 249.85 700.843 249.779 700.81 249.716C700.804 249.692 700.79 249.67 700.771 249.653C700.752 249.636 700.729 249.626 700.704 249.623L700.673 249.617Z" fill="#06E19F"/>
<path d="M698.39 251.222H698.359C698.338 251.217 698.32 251.206 698.305 251.191C698.291 251.175 698.281 251.156 698.278 251.135C698.278 251.079 697.98 249.76 698.421 249.07C698.484 248.968 698.566 248.881 698.663 248.812C698.761 248.744 698.871 248.696 698.987 248.671C699.304 248.603 699.447 248.734 699.503 248.852C699.765 249.362 698.962 250.755 698.471 251.197C698.447 251.214 698.419 251.223 698.39 251.222ZM699.155 248.883H699.037C698.951 248.9 698.869 248.934 698.797 248.985C698.725 249.035 698.665 249.1 698.62 249.175C698.398 249.702 698.346 250.285 698.471 250.842C698.937 250.301 699.454 249.244 699.298 248.939C699.282 248.917 699.26 248.9 699.235 248.89C699.209 248.88 699.182 248.878 699.155 248.883Z" fill="#06E19F"/>
<path d="M647.218 112.012C646.596 113.442 645.974 114.985 645.352 116.496C644.73 118.008 644.158 119.532 643.604 121.062C643.051 122.592 642.503 124.11 642.031 125.64C641.558 127.17 641.11 128.694 640.749 130.199C640.581 130.952 640.401 131.704 640.289 132.438L640.189 132.992V133.129V133.091C640.189 133.06 640.189 133.011 640.189 132.967C640.161 132.78 640.076 132.607 639.947 132.469C639.76 132.351 640.034 132.706 640.519 132.942C641.098 133.239 641.702 133.484 642.323 133.676C645.383 134.485 648.503 135.045 651.653 135.349L651.852 139.081C650.108 139.411 648.344 139.619 646.571 139.703C644.736 139.81 642.895 139.741 641.073 139.498C640.044 139.364 639.033 139.12 638.056 138.77C637.469 138.559 636.905 138.29 636.37 137.968C635.673 137.549 635.06 137.005 634.56 136.363C633.931 135.541 633.54 134.562 633.428 133.533C633.413 133.282 633.413 133.031 633.428 132.78V132.426V132.252L633.497 131.555C633.571 130.616 633.714 129.72 633.851 128.812C634.483 125.332 635.373 121.904 636.513 118.555C637.079 116.907 637.658 115.277 638.311 113.666C638.964 112.055 639.599 110.488 640.376 108.852L647.218 112.012Z" fill="#FF8B7B"/>
<path d="M641.141 105.823C638.554 107.222 636.756 115.632 636.756 115.632L644.407 120.334C644.407 120.334 646.391 116.447 647.846 113.249C650.633 107.135 646.229 103.074 641.141 105.823Z" fill="#06E19F"/>
<path d="M650.969 135.268L656.001 135.051L653.768 139.84C653.768 139.84 649.028 139.554 649.656 137.284L650.969 135.268Z" fill="#FF8B7B"/>
<path d="M659.316 138.347L656.809 141.47L653.774 139.815L656.001 135.044L659.316 138.347Z" fill="#FF8B7B"/>
<g clip-path="url(#clip0_1167_3856)">
<path d="M452.976 318.443L434.3 343.402L432.338 329.807L430.376 316.212L429.68 316.313C428.143 316.534 420.779 318.511 416.495 319.852C393.653 327 372.973 339.299 358.637 354.26C347.602 365.777 339.804 379.998 337.354 393.076C337.046 394.721 336.697 395.881 336.578 395.653C334.999 392.636 332.759 384.891 332.057 380.02C331.199 374.07 331.544 365.372 332.888 359.076C337.444 337.738 354.152 316.776 378.291 302.114C391.871 293.865 406.386 288.002 423.688 283.777L425.622 283.305L423.749 269.793L421.876 256.282L446.764 274.883L471.652 293.484L452.976 318.443Z" fill="#49D7AC"/>
</g>
<defs>
<clipPath id="clip0_1167_3856">
<rect width="153.885" height="153.885" fill="white" transform="translate(335.978 417.286) rotate(-98.2113)"/>
</clipPath>
</defs>
</svg>
