<svg width="739" height="594" viewBox="0 0 739 594" fill="none" xmlns="http://www.w3.org/2000/svg">
<path d="M479.36 349.816L739 319.344L669.538 548.494L405.852 593.593L479.36 349.816Z" fill="#DCFFF4"/>
<path d="M254.142 78.5413L343.42 324.246L104.442 309.259L-2.38946e-06 62.974L254.142 78.5413Z" fill="#DCFFF4"/>
<path d="M567.715 483.573C567.715 483.573 561.244 495.625 558.152 495.555C555.059 495.486 558.152 485.97 558.152 485.97C558.152 485.97 549.604 496.406 546.149 495.555C542.695 494.705 546.149 488.969 546.149 488.969C546.149 488.969 529.87 504.871 533.447 492.154C533.447 492.154 508.158 510.421 509.966 498.029C509.966 498.029 490.686 513.227 497.241 500.209C497.241 500.209 469.651 500.936 487.885 492.254C487.885 492.254 460.065 489.271 477.676 483.573C477.676 483.573 450.925 481.308 469.497 476.616C469.497 476.616 447.424 463.211 468.005 466.017C468.005 466.017 452.409 452.435 469.859 454.151C469.859 454.151 453.81 439.045 474.937 444.488C474.937 444.488 463.858 438.009 464.889 433.356C465.92 428.702 475.714 433.356 475.714 433.356C475.714 433.356 469.274 424.296 471.867 420.925C474.46 417.555 481.061 426.336 481.061 426.336C481.061 426.336 478.83 414.192 482.176 412.893C485.523 411.594 489.416 420.917 489.416 420.917C489.416 420.917 487.354 411.927 490.816 409.561C494.279 407.196 498.179 415.243 498.179 415.243C498.179 415.243 492.224 388.766 502.795 399.782C502.795 399.782 495.417 376.923 508.635 387.004C508.635 387.004 505.373 376.119 507.435 373.011C509.497 369.904 516.475 375.879 516.475 375.879C516.475 375.879 513.928 362.142 516.475 360.326C519.021 358.509 524.776 364.384 524.776 364.384C524.776 364.384 521.083 355.409 523.407 352.015C525.73 348.622 531.562 354.837 531.562 354.837C531.562 354.837 528.554 346.581 530.616 343.473C532.678 340.365 539.379 347.872 539.379 347.872C539.379 347.872 550.342 340.675 553.751 342.715C557.159 344.756 553.751 350.268 553.751 350.268C553.751 350.268 566.722 345.282 569.669 348.908C572.616 352.533 565.653 355.641 565.653 355.641C565.653 355.641 579.055 352.015 581.887 355.123C584.718 358.231 578.971 361.307 578.971 361.307C578.971 361.307 592.45 358.725 594.25 362.08C596.051 365.435 589.103 367.778 589.103 367.778C589.103 367.778 601.983 366.479 603.783 369.324C605.583 372.169 597.343 376.281 597.343 376.281C597.343 376.281 608.938 373.692 611.777 376.281C614.616 378.871 605.899 383.192 605.899 383.192C605.899 383.192 623.594 380.162 622.332 386.115C622.332 386.115 629.811 377.317 632.38 378.384C634.95 379.451 632.38 386.115 632.38 386.115C632.38 386.115 645.267 382.489 647.068 384.824C648.868 387.158 641.682 391.781 641.682 391.781C641.682 391.781 667.741 394.626 647.352 401.614C647.352 401.614 670.349 406.345 652.653 413.21C652.653 413.21 674.319 416.743 657.854 423.051C657.854 423.051 669.987 426.506 669.733 431.168C669.479 435.829 661.486 434.26 661.486 434.26C661.486 434.26 671.287 446.42 669.733 449.528C668.179 452.636 659.17 447.456 659.17 447.456C659.17 447.456 667.418 458.851 664.555 464.285C661.693 469.72 654.769 458.464 654.769 458.464C654.769 458.464 661.955 474.637 657.977 476.708C654 478.78 649.099 470.238 649.099 470.238C649.099 470.238 652.176 482.151 649.868 483.96C647.56 485.769 641.659 478.548 641.659 478.548C641.659 478.548 641.113 492.463 636.735 491.69C632.357 490.917 632.973 482.027 632.973 482.027C632.973 482.027 627.718 495.888 622.563 495.555C617.408 495.223 620.463 486.828 620.463 486.828C620.463 486.828 606.391 505.149 607.16 489.549C607.16 489.549 590.958 506.602 595.82 487.817C595.82 487.817 581.433 506.471 584.356 486.07C584.356 486.07 572.647 503.371 575.893 484.779C575.878 484.779 565.614 508.388 567.715 483.573Z" fill="#06E19F"/>
<path d="M512.043 409.105C511.227 407.496 510.026 406.115 508.55 405.084C507.073 404.054 505.366 403.406 503.58 403.199C497.533 402.596 496.94 400.656 496.94 400.656C496.94 400.656 499.879 414.818 512.043 409.105Z" fill="#06E19F"/>
<path opacity="0.2" d="M512.043 409.105C511.227 407.496 510.026 406.115 508.55 405.084C507.073 404.054 505.366 403.406 503.58 403.199C497.533 402.596 496.94 400.656 496.94 400.656C496.94 400.656 499.879 414.818 512.043 409.105Z" fill="black"/>
<path opacity="0.2" d="M512.043 409.105C510.171 407.609 508.029 406.491 505.734 405.812C501.888 404.629 499.972 405.132 497.271 401.089C497.145 400.966 497.045 400.819 496.979 400.656C496.979 400.656 499.88 414.818 512.043 409.105Z" fill="black"/>
<path d="M514.205 409.446C514.425 406.949 515.297 404.555 516.731 402.504C518.166 400.453 520.112 398.819 522.376 397.765C530.362 393.83 530.577 391.704 530.577 391.704C530.577 391.704 530.993 410.342 514.205 409.446Z" fill="#06E19F"/>
<path opacity="0.2" d="M514.205 409.446C514.425 406.949 515.297 404.555 516.731 402.504C518.166 400.453 520.112 398.819 522.376 397.765C530.362 393.83 530.577 391.704 530.577 391.704C530.577 391.704 530.993 410.342 514.205 409.446Z" fill="black"/>
<path opacity="0.2" d="M521.953 402.727C526.027 400.254 529.076 396.386 530.539 391.835C530.354 392.353 529.223 394.394 522.376 397.764C520.112 398.818 518.166 400.453 516.731 402.503C515.297 404.554 514.425 406.948 514.205 409.445C516.329 406.721 518.96 404.44 521.953 402.727Z" fill="black"/>
<path opacity="0.2" d="M661.462 434.353C661.462 434.353 669.449 435.899 669.71 431.261C669.972 426.623 657.831 423.144 657.831 423.144C674.296 416.836 652.63 413.303 652.63 413.303C670.326 406.477 647.329 401.707 647.329 401.707C660.408 397.231 654.377 394.448 648.375 393.034C647.445 395.631 642.49 393.521 642.49 393.521C645.283 396.613 640.559 406.423 640.559 406.423C640.559 406.423 648.922 400.586 650.476 405.124C652.03 409.662 642.705 417.493 642.705 417.493C661.362 409.523 648.622 426.561 648.622 426.561C664.386 422.75 651.853 438.211 651.853 438.211C670.356 432.939 651.853 449.034 651.853 449.034C669.487 451.507 645.26 456.98 645.26 456.98C662.14 460.567 637.035 466.891 637.035 466.891C654.861 473.361 629.472 475.951 629.472 475.951C637.166 488.189 617.531 475.286 617.531 475.286C620.794 487.47 595.22 472.194 595.22 472.194C600.151 484.501 583.171 470.532 583.171 470.532C583.171 470.532 587.08 475.858 584.025 477.126C580.971 478.394 571.785 468.963 571.785 468.963C571.785 468.963 575.847 478.116 573.023 478.564C570.2 479.012 562.706 467.741 562.706 467.741C567.869 492.363 555.389 469.968 555.389 469.968C560.775 488.181 547.803 472.287 547.803 472.287C553.135 492.386 537.532 475.379 537.532 475.379C544.457 493.6 527.361 478.471 527.361 478.471C530.069 493.994 514.797 477.304 514.797 477.304C514.797 477.304 518.644 485.344 514.028 486.287C509.412 487.23 502.741 474.003 502.741 474.003C502.741 474.003 504.48 482.986 500.564 484.285C496.648 485.583 494.348 471.707 494.348 471.707C494.348 471.707 489.878 479.623 487.516 478.093C485.154 476.562 486.462 464.247 486.462 464.247C486.462 464.247 483.084 473.385 479.168 471.792C475.252 470.2 479.737 453.138 479.737 453.138C479.737 453.138 475.621 465.244 472.321 460.142C469.02 455.04 475.69 446.854 475.69 446.854C475.69 446.854 466.404 450.873 464.265 444.449C462.634 447.286 469.859 454.082 469.859 454.082C452.409 452.365 468.004 465.948 468.004 465.948C447.424 463.142 469.497 476.546 469.497 476.546C450.924 481.239 477.675 483.504 477.675 483.504C460.065 489.232 487.908 492.216 487.908 492.216C469.674 500.898 497.264 500.171 497.264 500.171C490.709 513.189 509.989 497.991 509.989 497.991C508.181 510.36 533.47 492.116 533.47 492.116C529.893 504.832 546.172 488.931 546.172 488.931C546.172 488.931 542.718 494.667 546.172 495.517C549.627 496.367 558.175 485.931 558.175 485.931C558.175 485.931 555.097 495.44 558.175 495.517C561.252 495.594 567.715 483.573 567.715 483.573C565.599 508.427 575.878 484.818 575.878 484.818C572.623 503.41 584.341 486.109 584.341 486.109C581.417 506.51 595.804 487.856 595.804 487.856C590.942 506.641 607.145 489.588 607.145 489.588C606.376 505.188 620.47 486.828 620.47 486.828C620.47 486.828 617.393 495.223 622.571 495.556C627.749 495.888 632.973 482.027 632.973 482.027C632.973 482.027 632.35 491.08 636.735 491.861C641.12 492.641 641.659 478.719 641.659 478.719C641.659 478.719 647.552 485.916 649.868 484.13C652.184 482.344 649.099 470.408 649.099 470.408C649.099 470.408 653.992 478.951 657.977 476.879C661.963 474.807 654.769 458.635 654.769 458.635C654.769 458.635 661.693 469.89 664.555 464.456C667.417 459.021 659.17 447.627 659.17 447.627C659.17 447.627 668.187 452.806 669.733 449.698C671.28 446.591 661.462 434.353 661.462 434.353Z" fill="black"/>
<path opacity="0.1" d="M552.358 430.233C552.389 430.065 552.368 429.892 552.297 429.738C550.389 429.529 546.911 427.867 546.911 427.867C546.911 427.867 547.08 439.965 542.764 431.014C542.764 431.014 541.91 441.836 537.817 434.106C537.817 434.106 537.425 444.233 533.639 437.043C533.639 437.043 532.755 442.795 530.623 442.934C528.492 443.073 528.754 439.332 528.754 439.332C528.754 439.332 523.776 444.503 522.283 443.97C520.791 443.436 522.63 439.007 522.63 439.007C522.63 439.007 517.921 443.429 515.298 442.432C512.674 441.434 517.39 437.623 517.39 437.623C517.39 437.623 510.466 441.821 509.289 440.112C508.112 438.404 511.759 435.644 511.759 435.644C511.759 435.644 507.612 436.456 506.658 435.497C505.704 434.539 507.565 432.699 507.565 432.699C507.565 432.699 503.719 432.699 504.349 430.704C504.98 428.71 508.689 429.614 508.689 429.614C508.689 429.614 499.687 427.442 498.902 425.154C495.055 426.398 502.526 430.828 502.526 430.828C502.526 430.828 498.548 429.9 498.679 432.281C498.81 434.662 505.396 436.293 505.396 436.293C505.396 436.293 501.257 436.51 501.149 438.566C501.041 440.623 507.396 440.112 507.396 440.112C507.396 440.112 504.457 443.205 505.404 444.179C506.35 445.153 511.558 443.058 511.558 443.058C511.558 443.058 507.958 445.779 509.12 447.487C510.281 449.196 517.221 444.998 517.221 444.998C517.221 444.998 512.505 448.809 515.128 449.806C517.752 450.804 522.46 446.382 522.46 446.382C522.46 446.382 520.614 450.804 522.114 451.345C523.615 451.886 528.585 446.706 528.585 446.706C528.585 446.706 528.323 450.456 530.454 450.309C532.585 450.162 533.47 444.418 533.47 444.418C537.255 451.608 537.648 441.481 537.648 441.481C541.741 449.211 542.595 438.388 542.595 438.388C546.911 447.34 546.742 435.242 546.742 435.242C546.742 435.242 549.258 438.272 550.212 437.314C551.166 436.355 548.804 430.658 548.804 430.658C548.804 430.658 552.035 431.454 552.358 430.233Z" fill="black"/>
<path opacity="0.1" d="M568.784 426.947C568.648 426.784 568.57 426.58 568.561 426.368C570.531 424.961 573.316 420.995 573.316 420.995C573.316 420.995 580.517 434.423 579.809 421.907C579.809 421.907 587.341 433.279 587.134 422.247C587.134 422.247 593.743 433.155 593.519 422.904C593.519 422.904 598.013 428.694 600.444 427.543C602.875 426.391 600.305 422.417 600.305 422.417C600.305 422.417 608.938 425.046 610.261 423.53C611.584 422.015 606.845 418.289 606.845 418.289C606.845 418.289 614.723 420.253 617.008 417.516C619.293 414.779 611.769 413.504 611.769 413.504C611.769 413.504 621.971 413.852 622.209 411.254C622.448 408.657 616.824 407.884 616.824 407.884C616.824 407.884 621.894 406.222 622.355 404.575C622.817 402.929 619.655 402.055 619.655 402.055C619.655 402.055 623.879 399.736 621.963 397.881C620.047 396.025 616.516 399.349 616.516 399.349C616.516 399.349 625.11 391.41 624.579 388.411C629.541 387.421 624.048 396.914 624.048 396.914C624.048 396.914 627.895 393.443 629.164 396.141C630.434 398.839 624.21 404.722 624.21 404.722C624.21 404.722 628.91 402.403 630.28 404.606C631.649 406.809 624.325 410.133 624.325 410.133C624.325 410.133 629.464 411.741 628.995 413.38C628.526 415.019 621.501 415.955 621.501 415.955C621.501 415.955 627.133 416.728 626.887 419.333C626.641 421.938 616.447 421.582 616.447 421.582C616.447 421.582 623.971 422.873 621.686 425.587C619.401 428.3 611.523 426.36 611.523 426.36C611.523 426.36 616.254 430.086 614.939 431.601C613.623 433.116 604.983 430.488 604.983 430.488C604.983 430.488 607.553 434.454 605.121 435.605C602.69 436.757 598.197 430.967 598.197 430.967C598.42 441.218 591.811 430.31 591.811 430.31C592.019 441.334 584.487 429.97 584.487 429.97C585.195 442.486 577.994 429.058 577.994 429.058C577.994 429.058 577.07 433.943 575.439 433.48C573.808 433.016 572.923 425.285 572.923 425.285C572.923 425.285 569.9 428.107 568.784 426.947Z" fill="black"/>
<path d="M638.52 445.81C637.427 442.949 641.728 435.366 643.282 432.784C643.426 432.542 643.474 432.255 643.415 431.979C643.357 431.704 643.197 431.461 642.967 431.3C642.839 431.208 642.694 431.145 642.541 431.114C642.387 431.083 642.229 431.085 642.076 431.12C641.923 431.155 641.78 431.222 641.655 431.317C641.53 431.412 641.426 431.533 641.351 431.671L636.466 442.215C635.713 443.854 634.434 445.19 632.834 446.011L600.821 462.546C600.462 462.734 600.061 462.828 599.656 462.821C599.252 462.813 598.855 462.704 598.503 462.504C598.151 462.304 597.854 462.018 597.639 461.673C597.424 461.328 597.299 460.935 597.274 460.529L595.451 431.006C595.431 430.667 595.283 430.348 595.037 430.115C594.791 429.882 594.465 429.753 594.127 429.754C593.947 429.752 593.768 429.788 593.602 429.859C593.436 429.929 593.286 430.033 593.161 430.164C593.037 430.295 592.94 430.451 592.877 430.621C592.814 430.791 592.787 430.972 592.796 431.153C593.135 437.144 595.874 458.21 593.512 466.388C591.104 474.675 574.024 498.284 574.024 498.284C574.024 498.284 554.859 482.661 550.658 475.479C548.042 471.004 545.919 459.701 547.234 454.885C549.096 448.067 563.076 432.691 563.076 432.691C563.244 432.476 563.323 432.203 563.295 431.931C563.268 431.659 563.137 431.407 562.929 431.23C562.718 431.052 562.445 430.964 562.169 430.988C561.894 431.011 561.639 431.142 561.46 431.354L548.465 446.614C548.153 446.981 547.742 447.25 547.281 447.387C546.819 447.524 546.329 447.524 545.868 447.387C545.407 447.249 544.995 446.98 544.684 446.613C544.372 446.245 544.173 445.794 544.111 445.315L541.318 424.048C541.165 422.925 541.41 421.784 542.01 420.825L555.913 398.507C556.431 397.647 557.257 397.019 558.221 396.752L573.554 392.492C573.691 392.452 573.812 392.369 573.898 392.255C573.983 392.141 574.03 392.002 574.031 391.859C574.032 391.759 574.01 391.66 573.967 391.571C573.924 391.481 573.861 391.402 573.783 391.34C573.705 391.278 573.614 391.235 573.517 391.214C573.42 391.192 573.32 391.193 573.224 391.217L559.044 394.672C558.386 394.838 557.691 394.775 557.073 394.494C556.454 394.214 555.948 393.732 555.636 393.126L546.496 375.06C546.454 374.978 546.396 374.905 546.325 374.847C546.254 374.789 546.171 374.747 546.083 374.722C545.994 374.698 545.902 374.693 545.811 374.708C545.721 374.722 545.634 374.755 545.557 374.805L545.388 374.913C545.256 374.999 545.159 375.13 545.115 375.282C545.071 375.434 545.083 375.597 545.149 375.74L553.551 394.394C553.826 394.991 553.945 395.649 553.897 396.305C553.848 396.961 553.634 397.594 553.274 398.143L539.694 419.279C539.356 419.806 538.833 420.187 538.229 420.344C537.624 420.502 536.983 420.425 536.432 420.129L513.251 407.644C513.072 407.548 512.868 407.511 512.667 407.54C512.466 407.57 512.28 407.663 512.136 407.807C512.034 407.909 511.956 408.034 511.91 408.172C511.863 408.31 511.849 408.456 511.867 408.6C511.886 408.744 511.937 408.882 512.017 409.003C512.097 409.124 512.203 409.225 512.328 409.299L536.032 423.098C536.689 423.48 537.247 424.013 537.661 424.652C538.075 425.291 538.334 426.019 538.417 426.777L543.803 469.782C543.833 470.035 543.797 470.291 543.697 470.525C543.597 470.759 543.438 470.962 543.235 471.114C543.032 471.266 542.793 471.362 542.541 471.391C542.29 471.421 542.035 471.383 541.802 471.282L512.651 458.449C511.74 458.053 510.928 457.459 510.274 456.71L499.395 444.279C499.222 444.082 498.983 443.958 498.723 443.931C498.464 443.904 498.204 443.976 497.995 444.132C497.773 444.293 497.625 444.536 497.581 444.807C497.538 445.078 497.604 445.355 497.764 445.578L505.95 457.042L479.961 460.018C479.715 460.047 479.488 460.165 479.324 460.35C479.159 460.536 479.068 460.775 479.068 461.023C479.066 461.164 479.094 461.302 479.149 461.431C479.204 461.56 479.285 461.676 479.387 461.771C479.49 461.866 479.61 461.939 479.742 461.985C479.874 462.031 480.014 462.048 480.153 462.036C484.877 461.673 503.742 460.32 510.474 461.588C520.068 463.404 537.794 472.851 545.634 478.703C552.812 484.068 569.823 505.18 569.823 505.18L570.446 520.34C570.446 520.34 568.138 517.093 567.161 516.157C564.853 513.838 559.183 510.313 556.721 508.125C553.935 505.652 546.773 497.032 546.773 497.032C546.697 496.956 546.606 496.896 546.506 496.857C546.406 496.818 546.299 496.801 546.191 496.806C546.084 496.811 545.979 496.838 545.883 496.887C545.787 496.935 545.702 497.003 545.634 497.086C545.553 497.212 545.51 497.358 545.51 497.508C545.51 497.657 545.553 497.803 545.634 497.929L551.443 506.765L531.516 502.9C531.367 502.877 531.215 502.898 531.078 502.961C530.941 503.025 530.826 503.127 530.747 503.255C530.69 503.358 530.657 503.472 530.651 503.589C530.645 503.705 530.665 503.822 530.71 503.93C530.755 504.038 530.824 504.135 530.912 504.212C531 504.289 531.104 504.345 531.216 504.376C531.216 504.376 547.688 507.314 552.758 509.556C556.359 511.156 562.637 516.289 565.068 519.381C567.176 522.025 570.915 531.595 570.915 531.595C570.915 531.595 577.386 567.241 574.031 576.37C572.931 579.37 565.068 585.454 565.068 585.454H569.03C569.03 585.454 573.485 580.537 575.424 579.548C576.332 579.084 578.74 578.002 579.417 578.775C580.579 580.096 577.201 585.477 577.201 585.477H581.002C581.002 585.477 583.472 579.424 585.172 578.203C585.933 577.794 586.797 577.619 587.657 577.7C588.865 577.924 590.934 579.764 591.381 580.908C591.827 582.052 590.85 585.477 590.85 585.477H594.081C594.081 585.477 594.997 582.269 594.851 581.179C594.526 580.063 594.079 578.988 593.52 577.971L610.292 585.477H614C614 585.477 598.143 578.45 594.612 574.059C588.649 566.63 585.726 546.84 583.41 537.579C581.356 529.384 578.486 512.339 579.679 503.966C580.979 494.875 590.45 478.085 596.843 471.498C602.998 465.19 623.987 453.633 631.965 449.35C632.92 448.838 633.984 448.563 635.068 448.549C636.151 448.536 637.221 448.784 638.189 449.273L652.807 456.625C653.133 456.743 653.49 456.738 653.812 456.61C654.134 456.482 654.398 456.239 654.554 455.929C654.644 455.745 654.694 455.544 654.699 455.34C654.705 455.135 654.666 454.931 654.585 454.743C654.505 454.555 654.385 454.387 654.233 454.25C654.081 454.113 653.902 454.01 653.707 453.95C649.768 452.721 639.866 449.335 638.52 445.81Z" fill="#263238"/>
<path opacity="0.2" d="M613.992 585.43C613.992 585.43 598.136 578.403 594.604 574.012C588.642 566.583 585.718 546.793 583.402 537.532C581.348 529.338 578.478 512.292 579.671 503.92C580.363 499.057 583.402 491.984 587.049 485.459C583.972 489.178 579.763 494.481 578.586 496.622C577.409 498.764 575.293 503.077 574.993 505.443C574.555 508.914 576.409 515.84 576.986 519.288C577.686 523.416 579.609 531.587 580.179 535.739C580.394 537.285 580.617 540.014 580.817 542.804C580.822 542.967 580.767 543.126 580.663 543.251C580.559 543.376 580.413 543.459 580.253 543.482C580.092 543.506 579.929 543.47 579.793 543.381C579.657 543.291 579.559 543.155 579.517 542.998C578.875 539.853 578.029 536.755 576.986 533.721C575.7 531.079 574.243 528.525 572.623 526.076C572.574 525.973 572.487 525.894 572.38 525.857C572.273 525.819 572.156 525.825 572.054 525.875C571.952 525.924 571.874 526.012 571.836 526.119C571.799 526.226 571.805 526.344 571.854 526.447C572.908 529.4 574.301 533.404 574.77 535.329C575.955 540.153 578.032 550.218 579.463 554.98C580.956 559.989 588.142 571.832 585.949 573.433C584.626 574.399 582.871 571.013 581.61 568.068C581.567 567.985 581.498 567.92 581.414 567.882C581.329 567.845 581.235 567.837 581.145 567.86C581.056 567.884 580.977 567.937 580.922 568.011C580.866 568.085 580.838 568.176 580.84 568.269C581.025 570.217 580.963 572.134 579.979 572.234C577.878 572.397 576.132 567.998 574.87 563.074C575.162 568.733 575.024 573.672 574.039 576.339C572.939 579.339 565.076 585.423 565.076 585.423H569.038C569.038 585.423 573.493 580.506 575.432 579.517C576.34 579.053 578.748 577.97 579.425 578.744C580.586 580.065 577.209 585.446 577.209 585.446H581.002C581.002 585.446 583.472 579.393 585.172 578.171C585.933 577.763 586.797 577.588 587.657 577.669C588.865 577.893 590.934 579.733 591.381 580.877C591.827 582.021 590.85 585.446 590.85 585.446H594.081C594.081 585.446 594.997 582.238 594.851 581.148C594.526 580.032 594.079 578.957 593.52 577.94L610.292 585.446L613.992 585.43ZM582.541 554.787C589.126 561.806 589.511 571.438 589.511 571.438L582.541 554.787Z" fill="black"/>
<path d="M515.375 410.907C515.09 413.394 514.158 415.762 512.672 417.772C511.186 419.782 509.199 421.363 506.912 422.355C498.818 426.066 498.541 428.184 498.541 428.184C498.541 428.184 498.679 409.531 515.375 410.907Z" fill="#06E19F"/>
<path opacity="0.2" d="M515.375 410.907C515.09 413.394 514.158 415.762 512.672 417.772C511.186 419.782 509.199 421.363 506.912 422.355C498.818 426.066 498.541 428.184 498.541 428.184C498.541 428.184 498.679 409.531 515.375 410.907Z" fill="black"/>
<path opacity="0.2" d="M507.45 417.385C503.309 419.746 500.155 423.528 498.564 428.037C498.756 427.527 499.949 425.525 506.888 422.34C509.176 421.348 511.163 419.767 512.649 417.757C514.135 415.747 515.067 413.379 515.351 410.891C513.163 413.551 510.479 415.757 507.45 417.385Z" fill="black"/>
<path d="M522.083 413.775C522.083 413.775 523.945 410.35 529.3 411.788C534.655 413.226 540.071 408.812 540.071 408.812C540.071 408.812 532.939 424.721 522.083 413.775Z" fill="#06E19F"/>
<path opacity="0.2" d="M522.083 413.775C522.083 413.775 523.945 410.35 529.3 411.788C534.655 413.226 540.071 408.812 540.071 408.812C540.071 408.812 532.939 424.721 522.083 413.775Z" fill="black"/>
<path opacity="0.2" d="M540.087 408.812C540.087 408.812 534.247 416.078 529.762 413.705C525.276 411.332 522.068 413.775 522.068 413.775C532.939 424.721 540.087 408.812 540.087 408.812Z" fill="black"/>
<path d="M513.882 408.811C513.882 408.811 516.113 403.122 510.858 395.739C505.604 388.356 506.696 386.609 506.696 386.609C506.696 386.609 497.402 397.695 513.882 408.811Z" fill="#06E19F"/>
<path opacity="0.2" d="M513.882 408.811C513.882 408.811 516.113 403.122 510.858 395.739C505.604 388.356 506.696 386.609 506.696 386.609C506.696 386.609 497.402 397.695 513.882 408.811Z" fill="black"/>
<path opacity="0.2" d="M513.882 408.811C513.321 405.607 512.24 402.518 510.681 399.666C508.042 394.556 505.765 392.57 506.604 387.181C506.59 386.986 506.621 386.79 506.696 386.609C506.696 386.609 497.402 397.695 513.882 408.811Z" fill="black"/>
<path d="M516.521 410.906C515.725 412.527 515.34 414.32 515.401 416.126C515.461 417.931 515.965 419.694 516.867 421.257C520.006 426.491 518.814 428.13 518.814 428.13C518.814 428.13 528.346 417.268 516.521 410.906Z" fill="#06E19F"/>
<path opacity="0.2" d="M516.521 410.906C515.725 412.527 515.34 414.32 515.401 416.126C515.461 417.931 515.965 419.694 516.867 421.257C520.006 426.491 518.814 428.13 518.814 428.13C518.814 428.13 528.346 417.268 516.521 410.906Z" fill="black"/>
<path opacity="0.2" d="M516.521 410.906C516.444 413.311 516.831 415.707 517.66 417.964C519.014 421.752 520.568 423.004 518.983 427.635C518.959 427.81 518.902 427.978 518.814 428.13C518.814 428.13 528.346 417.268 516.521 410.906Z" fill="black"/>
<path d="M548.104 378.013C549.58 379.044 551.288 379.693 553.074 379.902C554.861 380.111 556.671 379.874 558.344 379.211C563.953 376.892 565.391 378.291 565.391 378.291C565.391 378.291 556.136 367.206 548.104 378.013Z" fill="#06E19F"/>
<path opacity="0.2" d="M548.104 378.013C549.58 379.044 551.288 379.693 553.074 379.902C554.861 380.111 556.671 379.874 558.344 379.211C563.953 376.892 565.391 378.291 565.391 378.291C565.391 378.291 556.136 367.206 548.104 378.013Z" fill="black"/>
<path opacity="0.2" d="M548.104 378.013C550.456 378.448 552.871 378.419 555.212 377.928C559.144 377.155 560.598 375.787 564.93 378.044C565.097 378.094 565.254 378.176 565.391 378.284C565.391 378.284 556.136 367.206 548.104 378.013Z" fill="black"/>
<path d="M543.872 376.675C543.872 376.675 540.964 370.275 533.678 369.556C526.392 368.837 525.676 366.463 525.676 366.463C525.676 366.463 529.223 383.548 543.872 376.675Z" fill="#06E19F"/>
<path opacity="0.2" d="M543.872 376.675C543.872 376.675 540.964 370.275 533.678 369.556C526.392 368.837 525.676 366.463 525.676 366.463C525.676 366.463 529.223 383.548 543.872 376.675Z" fill="black"/>
<path opacity="0.2" d="M543.872 376.676C541.619 374.868 539.037 373.518 536.271 372.702C531.654 371.28 529.346 371.883 526.03 367.013C525.88 366.864 525.76 366.689 525.676 366.495C525.676 366.495 529.223 383.548 543.872 376.676Z" fill="black"/>
<path d="M572.393 391.743C572.612 389.246 573.483 386.851 574.918 384.8C576.352 382.749 578.3 381.115 580.563 380.062C588.549 376.127 588.765 374.001 588.765 374.001C588.765 374.001 589.142 392.639 572.393 391.743Z" fill="#06E19F"/>
<path opacity="0.2" d="M572.393 391.743C572.612 389.246 573.483 386.851 574.918 384.8C576.352 382.749 578.3 381.115 580.563 380.062C588.549 376.127 588.765 374.001 588.765 374.001C588.765 374.001 589.142 392.639 572.393 391.743Z" fill="black"/>
<path opacity="0.2" d="M580.14 385.025C584.202 382.545 587.239 378.678 588.696 374.132C588.511 374.65 587.38 376.683 580.533 380.062C578.269 381.115 576.321 382.749 574.887 384.8C573.452 386.851 572.581 389.246 572.362 391.742C574.497 389.018 577.139 386.737 580.14 385.025Z" fill="black"/>
<path d="M545.98 374.936C543.564 373.141 541.663 370.736 540.469 367.966C539.275 365.195 538.83 362.157 539.179 359.158C540.171 348.444 538.133 346.875 538.133 346.875C538.133 346.875 557.428 358.207 545.98 374.936Z" fill="#06E19F"/>
<path opacity="0.2" d="M545.98 374.936C543.564 373.141 541.663 370.736 540.469 367.966C539.275 365.195 538.83 362.157 539.179 359.158C540.171 348.444 538.133 346.875 538.133 346.875C538.133 346.875 557.428 358.207 545.98 374.936Z" fill="black"/>
<path opacity="0.2" d="M543.987 362.715C544.017 356.953 541.979 351.374 538.248 346.999C538.656 347.516 540.025 349.967 539.179 359.159C538.83 362.157 539.275 365.196 540.469 367.966C541.663 370.737 543.564 373.141 545.98 374.937C544.534 371.031 543.857 366.88 543.987 362.715Z" fill="black"/>
<path d="M577.663 393.753C577.663 393.753 579.517 390.328 584.879 391.758C590.242 393.188 595.651 388.79 595.651 388.79C595.651 388.79 588.519 404.722 577.663 393.753Z" fill="#06E19F"/>
<path opacity="0.2" d="M577.663 393.753C577.663 393.753 579.517 390.328 584.879 391.758C590.242 393.188 595.651 388.79 595.651 388.79C595.651 388.79 588.519 404.722 577.663 393.753Z" fill="black"/>
<path opacity="0.2" d="M595.658 388.79C595.658 388.79 589.826 396.049 585.333 393.675C580.84 391.302 577.64 393.753 577.64 393.753C588.519 404.722 595.658 388.79 595.658 388.79Z" fill="black"/>
<path d="M572.069 391.108C572.069 391.108 574.301 385.419 569.046 378.028C563.791 370.638 564.883 368.906 564.883 368.906C564.883 368.906 555.613 379.984 572.069 391.108Z" fill="#06E19F"/>
<path opacity="0.2" d="M572.069 391.108C572.069 391.108 574.301 385.419 569.046 378.028C563.791 370.638 564.883 368.906 564.883 368.906C564.883 368.906 555.613 379.984 572.069 391.108Z" fill="black"/>
<path opacity="0.2" d="M572.069 391.108C571.508 387.904 570.427 384.815 568.869 381.963C566.23 376.853 563.953 374.866 564.791 369.478C564.776 369.283 564.807 369.087 564.883 368.906C564.883 368.906 555.613 379.984 572.069 391.108Z" fill="black"/>
<path d="M574.708 393.18C573.913 394.801 573.528 396.593 573.588 398.399C573.648 400.205 574.152 401.968 575.055 403.531C578.194 408.757 577.001 410.396 577.001 410.396C577.001 410.396 586.534 399.558 574.708 393.18Z" fill="#06E19F"/>
<path opacity="0.2" d="M574.708 393.18C573.913 394.801 573.528 396.593 573.588 398.399C573.648 400.205 574.152 401.968 575.055 403.531C578.194 408.757 577.001 410.396 577.001 410.396C577.001 410.396 586.534 399.558 574.708 393.18Z" fill="black"/>
<path opacity="0.2" d="M574.708 393.18C574.631 395.582 575.018 397.976 575.847 400.23C577.201 404.026 578.755 405.278 577.17 409.901C577.149 410.076 577.091 410.245 577.001 410.396C577.001 410.396 586.534 399.558 574.708 393.18Z" fill="black"/>
<path d="M596.166 433.085C595.349 431.476 594.149 430.095 592.673 429.064C591.196 428.034 589.489 427.386 587.703 427.179C581.656 426.576 581.063 424.636 581.063 424.636C581.063 424.636 584.002 438.798 596.166 433.085Z" fill="#06E19F"/>
<path opacity="0.2" d="M596.166 433.085C595.349 431.476 594.149 430.095 592.673 429.064C591.196 428.034 589.489 427.386 587.703 427.179C581.656 426.576 581.063 424.636 581.063 424.636C581.063 424.636 584.002 438.798 596.166 433.085Z" fill="black"/>
<path opacity="0.2" d="M596.166 433.085C594.294 431.589 592.152 430.471 589.857 429.792C586.01 428.609 584.095 429.112 581.356 425.069C581.229 424.946 581.13 424.799 581.063 424.636C581.063 424.636 584.002 438.798 596.166 433.085Z" fill="black"/>
<path d="M598.328 433.425C598.543 430.925 599.413 428.527 600.847 426.473C602.282 424.419 604.232 422.782 606.499 421.729C614.485 417.794 614.7 415.668 614.7 415.668C614.7 415.668 615.077 434.322 598.328 433.425Z" fill="#06E19F"/>
<path opacity="0.2" d="M598.328 433.425C598.543 430.925 599.413 428.527 600.847 426.473C602.282 424.419 604.232 422.782 606.499 421.729C614.485 417.794 614.7 415.668 614.7 415.668C614.7 415.668 615.077 434.322 598.328 433.425Z" fill="black"/>
<path opacity="0.2" d="M606.076 426.707C610.15 424.234 613.199 420.366 614.662 415.815C614.477 416.333 613.346 418.374 606.499 421.744C604.234 422.796 602.286 424.43 600.851 426.481C599.416 428.532 598.546 430.928 598.328 433.425C600.452 430.701 603.083 428.42 606.076 426.707Z" fill="black"/>
<path d="M599.467 434.871C599.182 437.358 598.25 439.726 596.764 441.737C595.278 443.747 593.291 445.327 591.004 446.32C582.917 450.03 582.641 452.149 582.641 452.149C582.641 452.149 582.779 433.51 599.467 434.871Z" fill="#06E19F"/>
<path opacity="0.2" d="M599.467 434.871C599.182 437.358 598.25 439.726 596.764 441.737C595.278 443.747 593.291 445.327 591.004 446.32C582.917 450.03 582.641 452.149 582.641 452.149C582.641 452.149 582.779 433.51 599.467 434.871Z" fill="black"/>
<path opacity="0.2" d="M591.573 441.372C587.431 443.731 584.273 447.51 582.679 452.017C582.879 451.507 584.072 449.505 591.004 446.32C593.292 445.328 595.279 443.747 596.764 441.737C598.25 439.727 599.182 437.359 599.467 434.871C597.28 437.532 594.599 439.74 591.573 441.372Z" fill="black"/>
<path d="M595.089 454.855C594.804 457.341 593.872 459.708 592.386 461.717C590.9 463.725 588.913 465.305 586.626 466.296C578.54 470.006 578.263 472.124 578.263 472.124C578.263 472.124 578.371 453.486 595.089 454.855Z" fill="#06E19F"/>
<path opacity="0.2" d="M595.089 454.855C594.804 457.341 593.872 459.708 592.386 461.717C590.9 463.725 588.913 465.305 586.626 466.296C578.54 470.006 578.263 472.124 578.263 472.124C578.263 472.124 578.371 453.486 595.089 454.855Z" fill="black"/>
<path opacity="0.2" d="M587.157 461.348C583.02 463.704 579.866 467.477 578.271 471.977C578.471 471.467 579.663 469.465 586.595 466.28C588.883 465.289 590.869 463.71 592.355 461.701C593.841 459.692 594.773 457.325 595.058 454.839C592.869 457.502 590.185 459.713 587.157 461.348Z" fill="black"/>
<path d="M545.611 450.332C543.816 452.092 541.588 453.342 539.155 453.954C536.722 454.567 534.171 454.52 531.762 453.818C523.161 451.553 521.614 453.045 521.614 453.045C521.614 453.045 533.486 438.674 545.611 450.332Z" fill="#06E19F"/>
<path opacity="0.2" d="M545.611 450.332C543.816 452.092 541.588 453.342 539.155 453.954C536.722 454.567 534.171 454.52 531.762 453.818C523.161 451.553 521.614 453.045 521.614 453.045C521.614 453.045 533.486 438.674 545.611 450.332Z" fill="black"/>
<path opacity="0.2" d="M535.34 450.332C530.649 449.532 525.828 450.457 521.76 452.937C522.237 452.674 524.422 451.878 531.762 453.818C534.171 454.52 536.722 454.567 539.155 453.954C541.588 453.342 543.815 452.092 545.611 450.332C542.219 451.001 538.731 451.001 535.34 450.332Z" fill="black"/>
<path d="M603.598 435.436C603.598 435.436 605.452 432.011 610.815 433.441C616.177 434.871 621.586 430.473 621.586 430.473C621.586 430.473 614.446 446.374 603.598 435.436Z" fill="#06E19F"/>
<path opacity="0.2" d="M603.598 435.436C603.598 435.436 605.452 432.011 610.815 433.441C616.177 434.871 621.586 430.473 621.586 430.473C621.586 430.473 614.446 446.374 603.598 435.436Z" fill="black"/>
<path opacity="0.2" d="M621.594 430.473C621.594 430.473 615.762 437.739 611.269 435.366C606.776 432.993 603.575 435.436 603.575 435.436C614.446 446.374 621.594 430.473 621.594 430.473Z" fill="black"/>
<path d="M598.005 432.799C598.005 432.799 600.236 427.102 594.981 419.719C589.727 412.336 590.819 410.589 590.819 410.589C590.819 410.589 581.525 421.675 598.005 432.799Z" fill="#06E19F"/>
<path opacity="0.2" d="M598.005 432.799C598.005 432.799 600.236 427.102 594.981 419.719C589.727 412.336 590.819 410.589 590.819 410.589C590.819 410.589 581.525 421.675 598.005 432.799Z" fill="black"/>
<path opacity="0.2" d="M598.005 432.799C597.445 429.592 596.364 426.5 594.804 423.646C592.165 418.536 589.888 416.55 590.727 411.161C590.713 410.966 590.744 410.77 590.819 410.589C590.819 410.589 581.525 421.675 598.005 432.799Z" fill="black"/>
<path d="M600.644 434.871C599.848 436.491 599.463 438.284 599.524 440.09C599.584 441.896 600.088 443.659 600.99 445.222C604.129 450.448 602.937 452.087 602.937 452.087C602.937 452.087 612.469 441.249 600.644 434.871Z" fill="#06E19F"/>
<path opacity="0.2" d="M600.644 434.871C599.848 436.491 599.463 438.284 599.524 440.09C599.584 441.896 600.088 443.659 600.99 445.222C604.129 450.448 602.937 452.087 602.937 452.087C602.937 452.087 612.469 441.249 600.644 434.871Z" fill="black"/>
<path opacity="0.2" d="M600.644 434.871C600.567 437.273 600.954 439.667 601.782 441.921C603.137 445.709 604.691 446.962 603.106 451.592C603.082 451.767 603.025 451.935 602.937 452.087C602.937 452.087 612.469 441.249 600.644 434.871Z" fill="black"/>
<path d="M568.053 430.82C568.869 429.21 570.069 427.827 571.545 426.795C573.022 425.763 574.73 425.114 576.516 424.907C582.556 424.304 583.156 422.363 583.156 422.363C583.156 422.363 580.232 436.526 568.053 430.82Z" fill="#06E19F"/>
<path opacity="0.2" d="M568.053 430.82C568.869 429.21 570.069 427.827 571.545 426.795C573.022 425.763 574.73 425.114 576.516 424.907C582.556 424.304 583.156 422.363 583.156 422.363C583.156 422.363 580.232 436.526 568.053 430.82Z" fill="black"/>
<path opacity="0.2" d="M568.053 430.82C569.92 429.319 572.06 428.198 574.354 427.52C578.201 426.337 580.117 426.839 582.864 422.796C582.987 422.671 583.086 422.524 583.156 422.363C583.156 422.363 580.232 436.526 568.053 430.82Z" fill="black"/>
<path d="M565.884 431.153C565.666 428.655 564.795 426.26 563.361 424.209C561.926 422.158 559.978 420.524 557.713 419.472C549.727 415.537 549.512 413.411 549.512 413.411C549.512 413.411 549.135 432.049 565.884 431.153Z" fill="#06E19F"/>
<path opacity="0.2" d="M565.884 431.153C565.666 428.655 564.795 426.26 563.361 424.209C561.926 422.158 559.978 420.524 557.713 419.472C549.727 415.537 549.512 413.411 549.512 413.411C549.512 413.411 549.135 432.049 565.884 431.153Z" fill="black"/>
<path opacity="0.2" d="M558.136 424.442C554.062 421.966 551.014 418.096 549.55 413.542C549.735 414.06 550.866 416.101 557.713 419.472C559.978 420.524 561.926 422.158 563.361 424.209C564.795 426.26 565.666 428.655 565.884 431.153C563.761 428.43 561.129 426.151 558.136 424.442Z" fill="black"/>
<path d="M564.714 432.598C564.999 435.085 565.931 437.454 567.417 439.464C568.902 441.474 570.889 443.055 573.177 444.047C581.263 447.757 581.54 449.876 581.54 449.876C581.54 449.876 581.433 431.237 564.714 432.598Z" fill="#06E19F"/>
<path opacity="0.2" d="M564.714 432.598C564.999 435.085 565.931 437.454 567.417 439.464C568.902 441.474 570.889 443.055 573.177 444.047C581.263 447.757 581.54 449.876 581.54 449.876C581.54 449.876 581.433 431.237 564.714 432.598Z" fill="black"/>
<path opacity="0.2" d="M572.647 439.1C576.788 441.458 579.943 445.237 581.533 449.745C581.333 449.235 580.14 447.232 573.208 444.048C570.92 443.055 568.933 441.474 567.447 439.464C565.962 437.454 565.029 435.086 564.745 432.599C566.934 435.26 569.618 437.469 572.647 439.1Z" fill="black"/>
<path d="M560.621 433.163C560.621 433.163 558.759 429.738 553.397 431.168C548.034 432.598 542.626 428.2 542.626 428.2C542.626 428.2 549.765 444.101 560.621 433.163Z" fill="#06E19F"/>
<path opacity="0.2" d="M560.621 433.163C560.621 433.163 558.759 429.738 553.397 431.168C548.034 432.598 542.626 428.2 542.626 428.2C542.626 428.2 549.765 444.101 560.621 433.163Z" fill="black"/>
<path opacity="0.2" d="M542.618 428.2C542.618 428.2 548.458 435.466 552.943 433.093C557.428 430.72 560.637 433.163 560.637 433.163C549.765 444.101 542.618 428.2 542.618 428.2Z" fill="black"/>
<path d="M566.215 430.526C566.215 430.526 563.976 424.829 569.23 417.446C574.485 410.064 573.393 408.316 573.393 408.316C573.393 408.316 582.687 419.41 566.215 430.526Z" fill="#06E19F"/>
<path opacity="0.2" d="M566.215 430.526C566.215 430.526 563.976 424.829 569.23 417.446C574.485 410.064 573.393 408.316 573.393 408.316C573.393 408.316 582.687 419.41 566.215 430.526Z" fill="black"/>
<path opacity="0.2" d="M566.214 430.526C566.774 427.32 567.852 424.228 569.407 421.373C572.054 416.263 574.324 414.277 573.485 408.888C573.504 408.693 573.472 408.496 573.393 408.316C573.393 408.316 582.687 419.41 566.214 430.526Z" fill="black"/>
<path d="M563.576 432.599C564.369 434.22 564.753 436.012 564.693 437.818C564.632 439.623 564.13 441.386 563.229 442.95C560.09 448.176 561.275 449.814 561.275 449.814C561.275 449.814 551.766 438.976 563.576 432.599Z" fill="#06E19F"/>
<path opacity="0.2" d="M563.576 432.599C564.369 434.22 564.753 436.012 564.693 437.818C564.632 439.623 564.13 441.386 563.229 442.95C560.09 448.176 561.275 449.814 561.275 449.814C561.275 449.814 551.766 438.976 563.576 432.599Z" fill="black"/>
<path opacity="0.2" d="M563.576 432.599C563.652 435.001 563.262 437.396 562.429 439.649C561.083 443.437 559.521 444.689 561.106 449.32C561.134 449.493 561.191 449.66 561.275 449.814C561.275 449.814 551.766 438.976 563.576 432.599Z" fill="black"/>
<path d="M547.78 453.022C548.527 451.377 549.666 449.943 551.096 448.846C552.527 447.75 554.205 447.026 555.982 446.738C561.991 445.872 562.506 443.908 562.506 443.908C562.506 443.908 560.183 458.186 547.78 453.022Z" fill="#06E19F"/>
<path opacity="0.2" d="M547.78 453.022C548.527 451.377 549.666 449.943 551.096 448.846C552.527 447.75 554.205 447.026 555.982 446.738C561.991 445.872 562.506 443.908 562.506 443.908C562.506 443.908 560.183 458.186 547.78 453.022Z" fill="black"/>
<path opacity="0.2" d="M547.78 453.022C549.583 451.442 551.673 450.226 553.935 449.443C557.705 448.098 559.659 448.516 562.221 444.357C562.34 444.225 562.434 444.073 562.498 443.908C562.498 443.908 560.183 458.186 547.78 453.022Z" fill="black"/>
<path d="M547.15 378.121C547.15 378.121 540.225 377.232 535.748 383.069C531.27 388.905 528.939 388.287 528.939 388.287C528.939 388.287 545.249 394.255 547.15 378.121Z" fill="#06E19F"/>
<path opacity="0.2" d="M547.15 378.121C547.15 378.121 540.225 377.232 535.748 383.069C531.27 388.905 528.939 388.287 528.939 388.287C528.939 388.287 545.249 394.255 547.15 378.121Z" fill="black"/>
<path opacity="0.2" d="M547.15 378.122C544.433 379.091 541.929 380.583 539.779 382.513C536.148 385.697 535.432 388.009 529.569 388.256C529.361 388.3 529.147 388.3 528.939 388.256C528.939 388.256 545.249 394.255 547.15 378.122Z" fill="black"/>
<path d="M491.432 452.095C491.881 453.842 491.894 455.673 491.47 457.426C491.046 459.179 490.198 460.8 489.001 462.144C484.877 466.62 485.708 468.468 485.708 468.468C485.708 468.468 478.56 455.929 491.432 452.095Z" fill="#06E19F"/>
<path opacity="0.2" d="M491.432 452.095C491.881 453.842 491.894 455.673 491.47 457.426C491.046 459.179 490.198 460.8 489.001 462.144C484.877 466.62 485.708 468.468 485.708 468.468C485.708 468.468 478.56 455.929 491.432 452.095Z" fill="black"/>
<path opacity="0.2" d="M491.432 452.095C491.021 454.462 490.159 456.728 488.893 458.766C486.808 462.199 485.046 463.111 485.646 467.965C485.634 468.14 485.655 468.316 485.708 468.483C485.708 468.483 478.56 455.929 491.432 452.095Z" fill="black"/>
<path d="M491.647 447.642C491.647 447.642 486.677 442.686 488.516 435.566C490.355 428.447 488.424 426.962 488.424 426.962C488.424 426.962 503.126 436.2 491.647 447.642Z" fill="#06E19F"/>
<path opacity="0.2" d="M491.647 447.642C491.647 447.642 486.677 442.686 488.516 435.566C490.355 428.447 488.424 426.962 488.424 426.962C488.424 426.962 503.126 436.2 491.647 447.642Z" fill="black"/>
<path opacity="0.2" d="M491.647 447.642C490.737 444.892 490.366 441.991 490.555 439.1C490.824 434.26 492.193 432.274 488.785 427.504C488.698 427.31 488.575 427.134 488.423 426.986C488.423 426.986 503.126 436.201 491.647 447.642Z" fill="black"/>
<path d="M489.293 449.026C488.446 446.133 486.855 443.516 484.68 441.438C482.505 439.36 479.824 437.895 476.906 437.19C466.55 434.423 465.796 431.964 465.796 431.964C465.796 431.964 469.712 454.043 489.293 449.026Z" fill="#06E19F"/>
<path opacity="0.2" d="M489.293 449.026C488.446 446.133 486.855 443.516 484.68 441.438C482.505 439.36 479.824 437.895 476.906 437.19C466.55 434.423 465.796 431.964 465.796 431.964C465.796 431.964 469.712 454.043 489.293 449.026Z" fill="black"/>
<path opacity="0.2" d="M478.568 442.926C473.18 440.968 468.674 437.126 465.873 432.104C466.212 432.668 468.028 434.809 476.906 437.182C479.828 437.89 482.511 439.36 484.686 441.443C486.861 443.527 488.45 446.15 489.293 449.049C486.147 446.328 482.505 444.248 478.568 442.926Z" fill="black"/>
<path d="M491.855 451.244C491.855 451.244 493.394 444.387 500.418 442.199C507.442 440.012 507.642 437.561 507.642 437.561C507.642 437.561 507.581 455.009 491.855 451.244Z" fill="#06E19F"/>
<path opacity="0.2" d="M491.855 451.244C491.855 451.244 493.394 444.387 500.418 442.199C507.442 440.012 507.642 437.561 507.642 437.561C507.642 437.561 507.581 455.009 491.855 451.244Z" fill="black"/>
<path opacity="0.2" d="M491.855 451.244C493.704 449.028 495.961 447.191 498.502 445.833C502.734 443.514 505.142 443.63 507.404 438.195C507.516 438.017 507.597 437.821 507.642 437.615C507.642 437.615 507.581 455.009 491.855 451.244Z" fill="black"/>
<path d="M646.591 431.841C647.407 430.231 648.607 428.849 650.084 427.817C651.56 426.786 653.267 426.136 655.054 425.927C661.101 425.332 661.701 423.392 661.701 423.392C661.701 423.392 658.754 437.546 646.591 431.841Z" fill="#06E19F"/>
<path opacity="0.2" d="M646.591 431.841C647.407 430.231 648.607 428.849 650.084 427.817C651.56 426.786 653.267 426.136 655.054 425.927C661.101 425.332 661.701 423.392 661.701 423.392C661.701 423.392 658.754 437.546 646.591 431.841Z" fill="black"/>
<path opacity="0.2" d="M646.591 431.841C648.463 430.344 650.605 429.224 652.899 428.54C656.746 427.365 658.662 427.868 661.409 423.825C661.532 423.699 661.631 423.553 661.701 423.392C661.701 423.392 658.754 437.546 646.591 431.841Z" fill="black"/>
<path d="M644.429 432.18C644.211 429.683 643.34 427.288 641.906 425.237C640.471 423.186 638.523 421.552 636.258 420.5C628.272 416.565 628.056 414.439 628.056 414.439C628.056 414.439 627.679 433.077 644.429 432.18Z" fill="#06E19F"/>
<path opacity="0.2" d="M644.429 432.18C644.211 429.683 643.34 427.288 641.906 425.237C640.471 423.186 638.523 421.552 636.258 420.5C628.272 416.565 628.056 414.439 628.056 414.439C628.056 414.439 627.679 433.077 644.429 432.18Z" fill="black"/>
<path opacity="0.2" d="M636.681 425.463C632.608 422.989 629.56 419.121 628.095 414.571C628.28 415.089 629.411 417.13 636.258 420.5C638.523 421.552 640.471 423.186 641.906 425.237C643.34 427.288 644.211 429.684 644.429 432.181C642.305 429.457 639.673 427.176 636.681 425.463Z" fill="black"/>
<path d="M643.259 433.627C643.544 436.114 644.477 438.482 645.962 440.492C647.448 442.502 649.435 444.083 651.722 445.076C659.808 448.786 660.085 450.904 660.085 450.904C660.085 450.904 659.978 432.266 643.259 433.627Z" fill="#06E19F"/>
<path opacity="0.2" d="M643.259 433.627C643.544 436.114 644.477 438.482 645.962 440.492C647.448 442.502 649.435 444.083 651.722 445.076C659.808 448.786 660.085 450.904 660.085 450.904C660.085 450.904 659.978 432.266 643.259 433.627Z" fill="black"/>
<path opacity="0.2" d="M651.191 440.12C655.329 442.485 658.483 446.266 660.078 450.773C659.878 450.263 658.685 448.253 651.753 445.075C649.466 444.082 647.479 442.501 645.993 440.491C644.507 438.482 643.575 436.114 643.29 433.626C645.478 436.287 648.162 438.493 651.191 440.12Z" fill="black"/>
<path d="M652.13 454.476C653.337 456.171 654.995 457.491 656.913 458.285C658.831 459.079 660.933 459.316 662.978 458.967C670.149 457.761 671.272 459.238 671.272 459.238C671.272 459.238 662.955 445.099 652.13 454.476Z" fill="#06E19F"/>
<path opacity="0.2" d="M652.13 454.476C653.337 456.171 654.995 457.491 656.913 458.285C658.831 459.079 660.933 459.316 662.978 458.967C670.149 457.761 671.272 459.238 671.272 459.238C671.272 459.238 662.955 445.099 652.13 454.476Z" fill="black"/>
<path opacity="0.2" d="M660.409 455.473C664.341 455.237 668.208 456.561 671.18 459.16C670.818 458.874 669.125 457.931 662.978 458.967C660.933 459.316 658.831 459.079 656.913 458.285C654.995 457.491 653.337 456.171 652.13 454.476C654.786 455.402 657.61 455.742 660.409 455.473Z" fill="black"/>
<path d="M653.43 457.212C653.43 457.212 651.568 453.787 646.214 455.225C640.859 456.663 635.443 452.249 635.443 452.249C635.443 452.249 642.551 468.158 653.43 457.212Z" fill="#06E19F"/>
<path opacity="0.2" d="M653.43 457.212C653.43 457.212 651.568 453.787 646.214 455.225C640.859 456.663 635.443 452.249 635.443 452.249C635.443 452.249 642.551 468.158 653.43 457.212Z" fill="black"/>
<path opacity="0.2" d="M635.427 452.249C635.427 452.249 641.267 459.516 645.752 457.142C650.238 454.769 653.446 457.212 653.446 457.212C642.551 468.158 635.427 452.249 635.427 452.249Z" fill="black"/>
<path d="M644.76 431.547C644.76 431.547 642.521 425.857 647.775 418.475C653.03 411.092 651.938 409.36 651.938 409.36C651.938 409.36 661.232 420.43 644.76 431.547Z" fill="#06E19F"/>
<path opacity="0.2" d="M644.76 431.547C644.76 431.547 642.521 425.857 647.775 418.475C653.03 411.092 651.938 409.36 651.938 409.36C651.938 409.36 661.232 420.43 644.76 431.547Z" fill="black"/>
<path opacity="0.2" d="M644.76 431.547C645.31 428.343 646.384 425.253 647.937 422.402C650.576 417.292 652.853 415.305 652.015 409.917C652.029 409.721 651.997 409.526 651.922 409.345C651.922 409.345 661.232 420.43 644.76 431.547Z" fill="black"/>
<path d="M642.113 433.619C642.909 435.239 643.294 437.032 643.233 438.838C643.173 440.644 642.669 442.407 641.767 443.97C638.628 449.203 639.82 450.842 639.82 450.842C639.82 450.842 630.288 440.004 642.113 433.619Z" fill="#06E19F"/>
<path opacity="0.2" d="M642.113 433.619C642.909 435.239 643.294 437.032 643.233 438.838C643.173 440.644 642.669 442.407 641.767 443.97C638.628 449.203 639.82 450.842 639.82 450.842C639.82 450.842 630.288 440.004 642.113 433.619Z" fill="black"/>
<path opacity="0.2" d="M642.113 433.619C642.195 436.023 641.808 438.421 640.974 440.677C639.628 444.465 638.066 445.717 639.651 450.347C639.675 450.522 639.732 450.69 639.82 450.842C639.82 450.842 630.288 440.004 642.113 433.619Z" fill="black"/>
<path d="M570.231 391.403C569.414 389.793 568.214 388.411 566.738 387.379C565.261 386.347 563.554 385.698 561.768 385.489C555.72 384.886 555.128 382.953 555.128 382.953C555.128 382.953 558.067 397.108 570.231 391.403Z" fill="#06E19F"/>
<path opacity="0.2" d="M570.231 391.403C569.414 389.793 568.214 388.411 566.738 387.379C565.261 386.347 563.554 385.698 561.768 385.489C555.72 384.886 555.128 382.953 555.128 382.953C555.128 382.953 558.067 397.108 570.231 391.403Z" fill="black"/>
<path opacity="0.2" d="M570.231 391.403C568.361 389.902 566.218 388.781 563.922 388.102C560.075 386.927 558.159 387.429 555.42 383.386C555.296 383.262 555.196 383.115 555.128 382.953C555.128 382.953 558.067 397.108 570.231 391.403Z" fill="black"/>
<path d="M573.562 393.188C573.277 395.674 572.345 398.041 570.859 400.05C569.373 402.059 567.386 403.638 565.099 404.629C557.005 408.348 556.728 410.466 556.728 410.466C556.728 410.466 556.844 391.82 573.562 393.188Z" fill="#06E19F"/>
<path opacity="0.2" d="M573.562 393.188C573.277 395.674 572.345 398.041 570.859 400.05C569.373 402.059 567.386 403.638 565.099 404.629C557.005 408.348 556.728 410.466 556.728 410.466C556.728 410.466 556.844 391.82 573.562 393.188Z" fill="black"/>
<path opacity="0.2" d="M565.614 399.682C561.471 402.04 558.315 405.824 556.728 410.335C556.92 409.825 558.113 407.815 565.053 404.63C567.34 403.639 569.327 402.059 570.813 400.05C572.299 398.042 573.231 395.675 573.516 393.188C571.327 395.849 568.643 398.054 565.614 399.682Z" fill="black"/>
<path d="M495.525 459.083C492.163 460.327 490.847 463.342 492.694 468.955C494.232 473.709 490.385 477.072 493.017 479.051C500.61 484.725 511.066 453.324 495.525 459.083Z" fill="#06E19F"/>
<path opacity="0.4" d="M495.525 459.083C492.163 460.327 490.847 463.342 492.694 468.955C494.232 473.709 490.385 477.072 493.017 479.051C500.61 484.725 511.066 453.324 495.525 459.083Z" fill="white"/>
<path opacity="0.1" d="M495.525 459.083C495.179 459.208 494.844 459.363 494.525 459.547C494.579 459.547 500.372 459.021 500.757 463.134C501.141 467.246 497.91 480.009 493.017 479.051C500.61 484.725 511.066 453.324 495.525 459.083Z" fill="black"/>
<path d="M554.559 446.846C551.204 448.09 549.889 451.098 551.735 456.718C553.274 461.472 549.427 464.835 552.05 466.814C559.652 472.48 570.108 441.056 554.559 446.846Z" fill="#06E19F"/>
<path opacity="0.4" d="M554.559 446.846C551.204 448.09 549.889 451.098 551.735 456.718C553.274 461.472 549.427 464.835 552.05 466.814C559.652 472.48 570.108 441.056 554.559 446.846Z" fill="white"/>
<path opacity="0.1" d="M554.559 446.846C554.215 446.972 553.883 447.127 553.566 447.31C553.62 447.31 559.413 446.784 559.798 450.889C560.183 454.994 556.944 467.772 552.05 466.814C559.652 472.48 570.108 441.056 554.559 446.846Z" fill="black"/>
<path d="M641.351 448.399C644.706 449.644 646.021 452.659 644.175 458.271C642.636 463.026 646.483 466.396 643.859 468.367C636.258 474.042 625.81 442.648 641.351 448.399Z" fill="#06E19F"/>
<path opacity="0.4" d="M641.351 448.399C644.706 449.644 646.021 452.659 644.175 458.271C642.636 463.026 646.483 466.396 643.859 468.367C636.258 474.042 625.81 442.648 641.351 448.399Z" fill="white"/>
<path opacity="0.1" d="M641.351 448.399C641.693 448.529 642.025 448.684 642.344 448.863C642.29 448.863 636.496 448.338 636.112 452.45C635.727 456.563 638.966 469.334 643.859 468.367C636.258 474.042 625.81 442.648 641.351 448.399Z" fill="black"/>
<path d="M602.021 435.729C605.045 436.85 606.229 439.594 604.568 444.627C603.16 448.909 606.66 451.94 604.275 453.726C597.428 458.835 588.011 430.542 602.021 435.729Z" fill="#06E19F"/>
<path opacity="0.4" d="M602.021 435.729C605.045 436.85 606.229 439.594 604.568 444.627C603.16 448.909 606.66 451.94 604.275 453.726C597.428 458.835 588.011 430.542 602.021 435.729Z" fill="white"/>
<path opacity="0.1" d="M602.021 435.729C602.327 435.848 602.626 435.987 602.914 436.146C602.867 436.146 597.643 435.675 597.297 439.378C596.951 443.081 599.867 454.591 604.275 453.726C597.428 458.835 588.011 430.542 602.021 435.729Z" fill="black"/>
<path d="M527.654 415.653C530.677 416.766 531.862 419.518 530.193 424.543C528.792 428.826 532.293 431.864 529.908 433.642C523.061 438.736 513.643 410.466 527.654 415.653Z" fill="#06E19F"/>
<path opacity="0.5" d="M527.654 415.653C530.677 416.766 531.862 419.518 530.193 424.543C528.792 428.826 532.293 431.864 529.908 433.642C523.061 438.736 513.643 410.466 527.654 415.653Z" fill="white"/>
<path opacity="0.1" d="M527.654 415.653C527.961 415.766 528.26 415.903 528.546 416.062C528.5 416.062 523.276 415.591 522.93 419.294C522.584 422.997 525.499 434.507 529.908 433.642C523.061 438.736 513.643 410.466 527.654 415.653Z" fill="black"/>
<path d="M538.109 371.017C535.086 372.138 533.901 374.882 535.563 379.915C536.971 384.198 533.47 387.228 535.855 389.014C542.703 394.124 552.12 365.83 538.109 371.017Z" fill="#06E19F"/>
<path opacity="0.5" d="M538.109 371.017C535.086 372.138 533.901 374.882 535.563 379.915C536.971 384.198 533.47 387.228 535.855 389.014C542.703 394.124 552.12 365.83 538.109 371.017Z" fill="white"/>
<path opacity="0.1" d="M538.109 371.017C537.802 371.134 537.504 371.274 537.217 371.434C537.263 371.434 542.479 370.963 542.833 374.666C543.187 378.369 540.264 389.879 535.855 389.014C542.703 394.124 552.12 365.83 538.109 371.017Z" fill="black"/>
<path d="M541.902 505.535C538.871 506.656 537.694 509.401 539.356 514.433C540.764 518.716 537.255 521.746 539.641 523.524C546.488 528.634 555.905 500.348 541.902 505.535Z" fill="#06E19F"/>
<path opacity="0.5" d="M541.902 505.535C538.871 506.656 537.694 509.401 539.356 514.433C540.764 518.716 537.255 521.746 539.641 523.524C546.488 528.634 555.905 500.348 541.902 505.535Z" fill="white"/>
<path opacity="0.1" d="M541.902 505.535C541.586 505.658 541.282 505.811 540.995 505.991C541.041 505.991 546.265 505.512 546.611 509.215C546.957 512.918 544.041 524.429 539.633 523.563C546.488 528.634 555.905 500.348 541.902 505.535Z" fill="black"/>
<path d="M558.429 395.585C555.074 396.829 553.758 399.844 555.605 405.456C557.144 410.211 553.297 413.581 555.92 415.552C563.522 421.227 573.977 389.833 558.429 395.585Z" fill="#06E19F"/>
<path opacity="0.3" d="M558.429 395.585C555.074 396.829 553.758 399.844 555.605 405.456C557.144 410.211 553.297 413.581 555.92 415.552C563.522 421.227 573.977 389.833 558.429 395.585Z" fill="white"/>
<path opacity="0.1" d="M558.428 395.585C558.087 395.714 557.755 395.869 557.436 396.048C557.49 396.048 563.283 395.523 563.668 399.635C564.053 403.748 560.813 416.519 555.92 415.545C563.522 421.227 573.977 389.833 558.428 395.585Z" fill="black"/>
<path d="M547.765 504.445C545.402 503.643 542.87 503.482 540.425 503.977C537.98 504.473 535.709 505.607 533.839 507.267C527.038 513.026 525.015 512.369 525.015 512.369C525.015 512.369 541.841 520.239 547.765 504.445Z" fill="#06E19F"/>
<path opacity="0.2" d="M547.765 504.445C545.402 503.643 542.87 503.482 540.425 503.977C537.98 504.473 535.709 505.607 533.839 507.267C527.038 513.026 525.015 512.369 525.015 512.369C525.015 512.369 541.841 520.239 547.765 504.445Z" fill="black"/>
<path opacity="0.2" d="M538.533 508.891C534.638 511.646 529.885 512.897 525.146 512.416C525.692 512.416 528.008 512.23 533.84 507.291C535.706 505.627 537.977 504.488 540.422 503.989C542.867 503.489 545.4 503.647 547.765 504.446C544.43 505.312 541.294 506.821 538.533 508.891Z" fill="black"/>
<path d="M550.65 538.252C548.304 537.061 546.034 537.865 543.818 541.707C541.979 544.962 538.202 544.544 538.433 546.979C539.056 553.976 561.498 543.794 550.65 538.252Z" fill="#06E19F"/>
<path opacity="0.3" d="M550.65 538.252C548.304 537.061 546.034 537.865 543.818 541.707C541.979 544.962 538.202 544.544 538.433 546.979C539.056 553.976 561.498 543.794 550.65 538.252Z" fill="white"/>
<path opacity="0.1" d="M550.65 538.251C550.402 538.13 550.145 538.029 549.881 537.95C549.881 537.95 553.058 540.856 550.989 543.145C548.919 545.433 540.287 550.102 538.402 547.01C539.056 553.975 561.498 543.794 550.65 538.251Z" fill="black"/>
<path d="M542.533 545.495C541.402 543.415 539.317 542.851 535.848 544.606C532.909 546.09 530.339 543.871 529.316 545.796C526.377 551.331 547.804 555.135 542.533 545.495Z" fill="#06E19F"/>
<path opacity="0.5" d="M542.533 545.495C541.402 543.415 539.317 542.851 535.848 544.606C532.909 546.09 530.339 543.871 529.316 545.796C526.377 551.331 547.804 555.135 542.533 545.495Z" fill="white"/>
<path opacity="0.1" d="M542.533 545.495C542.418 545.284 542.287 545.083 542.141 544.892C542.141 544.892 543.049 548.672 540.418 549.329C537.786 549.986 529.169 549.105 529.316 545.797C526.377 551.332 547.804 555.135 542.533 545.495Z" fill="black"/>
<path d="M554.12 544.985C555.251 542.905 557.336 542.333 560.806 544.088C563.745 545.58 566.307 543.354 567.338 545.286C570.284 550.829 548.865 554.625 554.12 544.985Z" fill="#06E19F"/>
<path opacity="0.5" d="M554.12 544.985C555.251 542.905 557.336 542.333 560.806 544.088C563.745 545.58 566.307 543.354 567.338 545.286C570.284 550.829 548.865 554.625 554.12 544.985Z" fill="white"/>
<path opacity="0.1" d="M554.12 544.985C554.234 544.771 554.365 544.566 554.512 544.374C554.512 544.413 553.605 548.162 556.236 548.811C558.867 549.461 567.484 548.587 567.338 545.286C570.284 550.829 548.865 554.625 554.12 544.985Z" fill="black"/>
<path d="M554.674 543.098C552.781 541.684 550.65 542.039 548.219 545.093C546.165 547.675 542.918 546.724 542.78 548.904C542.403 555.166 563.453 549.654 554.674 543.098Z" fill="#06E19F"/>
<path opacity="0.6" d="M554.674 543.098C552.781 541.684 550.65 542.039 548.219 545.093C546.165 547.675 542.918 546.724 542.78 548.904C542.403 555.166 563.453 549.654 554.674 543.098Z" fill="white"/>
<path opacity="0.1" d="M554.674 543.098C554.479 542.954 554.273 542.824 554.058 542.711C554.058 542.711 556.459 545.804 554.335 547.466C552.212 549.128 544.018 551.973 542.795 548.904C542.402 555.165 563.452 549.653 554.674 543.098Z" fill="black"/>
<path d="M550.596 538.846C550.596 538.846 554.52 536.442 560.183 538.738C565.845 541.034 567.007 540.447 567.007 540.447C567.007 540.447 557.959 546.608 550.596 538.846Z" fill="#FF9548"/>
<path opacity="0.2" d="M557.528 540.145C560.56 541.178 563.827 541.291 566.922 540.47C566.584 540.555 565.045 540.71 560.183 538.738C554.52 536.419 550.596 538.847 550.596 538.847C552.959 538.923 555.297 539.36 557.528 540.145Z" fill="black"/>
<path d="M528.577 550.829L532.178 577.693C532.367 579.103 533.06 580.397 534.127 581.334C535.193 582.27 536.562 582.787 537.979 582.787H556.797C558.214 582.787 559.583 582.27 560.649 581.334C561.716 580.397 562.409 579.103 562.598 577.693L566.199 550.829H528.577Z" fill="#06E19F"/>
<path d="M568.946 552.661H526.13C525.644 552.661 525.177 552.467 524.833 552.123C524.488 551.778 524.294 551.31 524.292 550.821C524.292 550.331 524.485 549.861 524.83 549.515C525.175 549.168 525.643 548.974 526.13 548.974H568.946C569.433 548.974 569.901 549.168 570.246 549.515C570.591 549.861 570.785 550.331 570.785 550.821C570.782 551.31 570.588 551.778 570.243 552.123C569.899 552.467 569.432 552.661 568.946 552.661Z" fill="#06E19F"/>
<g opacity="0.3">
<path d="M543.218 548.974H541.918L538.248 552.661H539.548L543.218 548.974Z" fill="white"/>
<path d="M547.804 548.974H546.511L542.841 552.661H544.134L547.804 548.974Z" fill="white"/>
<path d="M538.633 548.974H537.332L533.662 552.661H534.963L538.633 548.974Z" fill="white"/>
<path d="M525.815 552.63L529.454 548.974H528.154L524.938 552.213C525.187 552.429 525.49 552.573 525.815 552.63Z" fill="white"/>
<path d="M530.37 552.661L534.039 548.974H532.747L529.077 552.661H530.37Z" fill="white"/>
<path d="M570.231 549.499C570.001 549.272 569.713 549.112 569.4 549.036L565.784 552.661H567.084L570.231 549.499Z" fill="white"/>
<path d="M566.161 548.974H564.86L561.191 552.661H562.491L566.161 548.974Z" fill="white"/>
<path d="M552.397 548.974H551.096L547.427 552.661H548.727L552.397 548.974Z" fill="white"/>
<path d="M561.568 548.974H560.275L556.605 552.661H557.898L561.568 548.974Z" fill="white"/>
<path d="M556.982 548.974H555.682L552.012 552.661H553.312L556.982 548.974Z" fill="white"/>
</g>
<path d="M542.287 567.55C542.184 567.65 542.046 567.706 541.902 567.706C541.759 567.706 541.621 567.65 541.518 567.55L533.432 559.425C533.332 559.321 533.276 559.183 533.276 559.038C533.276 558.894 533.332 558.756 533.432 558.652C533.534 558.55 533.672 558.493 533.816 558.493C533.96 558.493 534.099 558.55 534.201 558.652L542.287 566.769C542.385 566.875 542.44 567.014 542.44 567.159C542.44 567.304 542.385 567.444 542.287 567.55Z" fill="#06E19F"/>
<path d="M544.326 565.517C544.221 565.613 544.084 565.667 543.941 565.667C543.799 565.667 543.662 565.613 543.557 565.517L535.478 557.392C535.377 557.289 535.32 557.15 535.32 557.005C535.32 556.861 535.377 556.722 535.478 556.619C535.581 556.519 535.719 556.463 535.863 556.463C536.006 556.463 536.144 556.519 536.247 556.619L544.326 564.744C544.422 564.849 544.476 564.987 544.476 565.13C544.476 565.273 544.422 565.411 544.326 565.517Z" fill="#06E19F"/>
<path d="M546.38 563.453C546.275 563.55 546.138 563.603 545.995 563.603C545.853 563.603 545.716 563.55 545.611 563.453L537.532 555.336C537.433 555.232 537.377 555.094 537.377 554.949C537.377 554.805 537.433 554.667 537.532 554.563C537.636 554.463 537.774 554.407 537.917 554.407C538.061 554.407 538.199 554.463 538.302 554.563L546.38 562.664C546.432 562.716 546.473 562.778 546.501 562.845C546.529 562.913 546.543 562.985 546.543 563.059C546.543 563.132 546.529 563.204 546.501 563.272C546.473 563.34 546.432 563.401 546.38 563.453Z" fill="#06E19F"/>
<g opacity="0.3">
<path d="M542.287 567.55C542.184 567.65 542.046 567.706 541.902 567.706C541.759 567.706 541.621 567.65 541.518 567.55L533.432 559.425C533.332 559.322 533.276 559.183 533.276 559.039C533.276 558.895 533.332 558.756 533.432 558.652C533.534 558.55 533.672 558.493 533.816 558.493C533.96 558.493 534.099 558.55 534.201 558.652L542.287 566.769C542.385 566.875 542.44 567.015 542.44 567.16C542.44 567.305 542.385 567.444 542.287 567.55Z" fill="white"/>
<path d="M544.326 565.517C544.221 565.613 544.084 565.667 543.941 565.667C543.799 565.667 543.662 565.613 543.557 565.517L535.478 557.392C535.377 557.289 535.32 557.15 535.32 557.005C535.32 556.861 535.377 556.722 535.478 556.619C535.581 556.519 535.719 556.463 535.863 556.463C536.006 556.463 536.144 556.519 536.247 556.619L544.326 564.744C544.422 564.849 544.476 564.987 544.476 565.13C544.476 565.273 544.422 565.411 544.326 565.517Z" fill="white"/>
<path d="M546.38 563.453C546.275 563.55 546.138 563.603 545.995 563.603C545.853 563.603 545.716 563.55 545.611 563.453L537.532 555.336C537.433 555.232 537.377 555.094 537.377 554.949C537.377 554.805 537.433 554.667 537.532 554.563C537.636 554.463 537.774 554.407 537.917 554.407C538.061 554.407 538.199 554.463 538.302 554.563L546.38 562.664C546.432 562.716 546.473 562.778 546.501 562.845C546.529 562.913 546.543 562.985 546.543 563.059C546.543 563.132 546.529 563.204 546.501 563.272C546.473 563.34 546.432 563.401 546.38 563.453Z" fill="white"/>
</g>
<path d="M542.287 555.336L534.201 563.453C534.098 563.553 533.96 563.609 533.816 563.609C533.673 563.609 533.535 563.553 533.432 563.453C533.332 563.349 533.276 563.211 533.276 563.066C533.276 562.922 533.332 562.784 533.432 562.68L541.518 554.555C541.621 554.455 541.759 554.399 541.902 554.399C542.046 554.399 542.184 554.455 542.287 554.555C542.385 554.661 542.44 554.8 542.44 554.945C542.44 555.09 542.385 555.23 542.287 555.336Z" fill="#06E19F"/>
<path d="M544.326 557.377L536.24 565.517C536.137 565.617 535.999 565.673 535.855 565.673C535.712 565.673 535.574 565.617 535.471 565.517C535.371 565.413 535.315 565.275 535.315 565.13C535.315 564.986 535.371 564.848 535.471 564.744L543.549 556.627C543.654 556.53 543.791 556.477 543.934 556.477C544.076 556.477 544.213 556.53 544.318 556.627C544.412 556.728 544.465 556.862 544.467 557C544.468 557.139 544.418 557.273 544.326 557.377Z" fill="#06E19F"/>
<path d="M546.38 559.426L538.294 567.55C538.189 567.647 538.052 567.701 537.909 567.701C537.767 567.701 537.63 567.647 537.525 567.55C537.429 567.445 537.375 567.307 537.375 567.164C537.375 567.021 537.429 566.883 537.525 566.777L545.611 558.637C545.714 558.537 545.852 558.481 545.996 558.481C546.139 558.481 546.277 558.537 546.38 558.637C546.432 558.689 546.473 558.75 546.501 558.818C546.529 558.886 546.543 558.958 546.543 559.031C546.543 559.105 546.529 559.177 546.501 559.245C546.473 559.312 546.432 559.374 546.38 559.426Z" fill="#06E19F"/>
<g opacity="0.5">
<path d="M542.287 555.336L534.201 563.453C534.098 563.553 533.96 563.609 533.816 563.609C533.673 563.609 533.535 563.553 533.432 563.453C533.332 563.349 533.276 563.211 533.276 563.066C533.276 562.922 533.332 562.784 533.432 562.68L541.518 554.555C541.621 554.455 541.759 554.399 541.902 554.399C542.046 554.399 542.184 554.455 542.287 554.555C542.385 554.661 542.44 554.8 542.44 554.945C542.44 555.09 542.385 555.23 542.287 555.336Z" fill="white"/>
<path d="M544.326 557.376L536.24 565.516C536.137 565.617 535.999 565.673 535.855 565.673C535.712 565.673 535.574 565.617 535.471 565.516C535.371 565.413 535.315 565.274 535.315 565.13C535.315 564.986 535.371 564.847 535.471 564.743L543.549 556.626C543.654 556.53 543.791 556.476 543.934 556.476C544.076 556.476 544.213 556.53 544.318 556.626C544.412 556.728 544.465 556.861 544.467 557C544.468 557.139 544.418 557.273 544.326 557.376Z" fill="white"/>
<path d="M546.38 559.425L538.294 567.55C538.189 567.647 538.052 567.7 537.909 567.7C537.767 567.7 537.63 567.647 537.525 567.55C537.428 567.444 537.375 567.306 537.375 567.163C537.375 567.02 537.428 566.882 537.525 566.777L545.611 558.637C545.714 558.536 545.852 558.48 545.995 558.48C546.139 558.48 546.277 558.536 546.38 558.637C546.432 558.688 546.473 558.75 546.501 558.817C546.529 558.885 546.543 558.958 546.543 559.031C546.543 559.104 546.529 559.177 546.501 559.244C546.473 559.312 546.432 559.373 546.38 559.425Z" fill="white"/>
</g>
<path d="M548.496 580.266C548.393 580.367 548.255 580.423 548.111 580.423C547.968 580.423 547.83 580.367 547.727 580.266L539.64 572.142C539.544 572.036 539.491 571.898 539.491 571.755C539.491 571.612 539.544 571.474 539.64 571.369C539.745 571.272 539.883 571.218 540.025 571.218C540.168 571.218 540.305 571.272 540.41 571.369L548.488 579.493C548.589 579.596 548.646 579.734 548.647 579.878C548.649 580.023 548.595 580.162 548.496 580.266Z" fill="#06E19F"/>
<path d="M550.535 578.218C550.432 578.318 550.294 578.374 550.15 578.374C550.007 578.374 549.869 578.318 549.765 578.218L541.679 570.093C541.58 569.989 541.524 569.851 541.524 569.707C541.524 569.562 541.58 569.424 541.679 569.32C541.783 569.22 541.921 569.164 542.064 569.164C542.208 569.164 542.346 569.22 542.449 569.32L550.527 577.437C550.63 577.54 550.689 577.68 550.69 577.826C550.692 577.972 550.636 578.113 550.535 578.218Z" fill="#06E19F"/>
<path d="M552.574 576.17C552.469 576.266 552.331 576.32 552.189 576.32C552.047 576.32 551.909 576.266 551.804 576.17L543.726 568.045C543.626 567.941 543.571 567.803 543.571 567.658C543.571 567.514 543.626 567.376 543.726 567.272C543.829 567.172 543.967 567.116 544.111 567.116C544.254 567.116 544.392 567.172 544.495 567.272L552.581 575.389C552.679 575.496 552.732 575.636 552.731 575.781C552.729 575.926 552.673 576.065 552.574 576.17Z" fill="#06E19F"/>
<g opacity="0.3">
<path d="M548.496 580.266C548.393 580.367 548.255 580.423 548.111 580.423C547.968 580.423 547.83 580.367 547.727 580.266L539.64 572.142C539.544 572.036 539.491 571.898 539.491 571.755C539.491 571.612 539.544 571.474 539.64 571.369C539.745 571.272 539.883 571.218 540.025 571.218C540.168 571.218 540.305 571.272 540.41 571.369L548.488 579.493C548.589 579.596 548.646 579.734 548.647 579.878C548.649 580.023 548.595 580.162 548.496 580.266Z" fill="white"/>
<path d="M550.535 578.218C550.432 578.319 550.294 578.375 550.15 578.375C550.007 578.375 549.869 578.319 549.765 578.218L541.679 570.094C541.58 569.99 541.524 569.851 541.524 569.707C541.524 569.563 541.58 569.424 541.679 569.321C541.783 569.221 541.921 569.165 542.064 569.165C542.208 569.165 542.346 569.221 542.449 569.321L550.527 577.438C550.63 577.541 550.689 577.68 550.69 577.826C550.692 577.973 550.636 578.113 550.535 578.218Z" fill="white"/>
<path d="M552.574 576.17C552.469 576.266 552.331 576.32 552.189 576.32C552.046 576.32 551.909 576.266 551.804 576.17L543.726 568.045C543.626 567.941 543.57 567.803 543.57 567.658C543.57 567.514 543.626 567.376 543.726 567.272C543.829 567.172 543.967 567.116 544.11 567.116C544.254 567.116 544.392 567.172 544.495 567.272L552.581 575.389C552.679 575.496 552.732 575.636 552.731 575.781C552.729 575.926 552.673 576.065 552.574 576.17Z" fill="white"/>
</g>
<path d="M548.496 568.045L540.418 576.17C540.313 576.266 540.175 576.32 540.033 576.32C539.89 576.32 539.753 576.266 539.648 576.17C539.552 576.064 539.499 575.926 539.499 575.783C539.499 575.64 539.552 575.502 539.648 575.397L547.734 567.28C547.837 567.18 547.975 567.124 548.119 567.124C548.262 567.124 548.4 567.18 548.504 567.28C548.602 567.383 548.656 567.521 548.654 567.664C548.653 567.807 548.596 567.944 548.496 568.045Z" fill="#06E19F"/>
<path d="M550.535 570.093L542.456 578.218C542.351 578.315 542.214 578.369 542.072 578.369C541.929 578.369 541.792 578.315 541.687 578.218C541.591 578.113 541.537 577.975 541.537 577.832C541.537 577.689 541.591 577.551 541.687 577.445L549.773 569.328C549.875 569.226 550.014 569.169 550.158 569.169C550.302 569.169 550.44 569.226 550.542 569.328C550.641 569.432 550.695 569.569 550.693 569.712C550.692 569.855 550.635 569.992 550.535 570.093Z" fill="#06E19F"/>
<path d="M552.574 572.142L544.487 580.267C544.384 580.367 544.246 580.423 544.103 580.423C543.959 580.423 543.821 580.367 543.718 580.267C543.622 580.161 543.568 580.023 543.568 579.88C543.568 579.737 543.622 579.599 543.718 579.494L551.766 571.346C551.871 571.249 552.008 571.195 552.15 571.195C552.293 571.195 552.43 571.249 552.535 571.346C552.643 571.447 552.708 571.587 552.715 571.736C552.722 571.885 552.671 572.03 552.574 572.142Z" fill="#06E19F"/>
<g opacity="0.5">
<path d="M548.496 568.045L540.418 576.17C540.313 576.266 540.175 576.32 540.033 576.32C539.89 576.32 539.753 576.266 539.648 576.17C539.552 576.064 539.499 575.926 539.499 575.783C539.499 575.64 539.552 575.502 539.648 575.397L547.734 567.28C547.837 567.18 547.975 567.124 548.119 567.124C548.262 567.124 548.4 567.18 548.504 567.28C548.602 567.383 548.656 567.521 548.654 567.664C548.653 567.807 548.596 567.944 548.496 568.045Z" fill="white"/>
<path d="M550.535 570.093L542.456 578.218C542.351 578.315 542.214 578.369 542.072 578.369C541.929 578.369 541.792 578.315 541.687 578.218C541.591 578.113 541.537 577.975 541.537 577.832C541.537 577.689 541.591 577.551 541.687 577.445L549.773 569.328C549.875 569.226 550.014 569.169 550.158 569.169C550.302 569.169 550.44 569.226 550.542 569.328C550.641 569.432 550.695 569.569 550.693 569.712C550.692 569.855 550.635 569.992 550.535 570.093Z" fill="white"/>
<path d="M552.574 572.142L544.487 580.267C544.384 580.367 544.246 580.423 544.103 580.423C543.959 580.423 543.821 580.367 543.718 580.267C543.622 580.161 543.568 580.023 543.568 579.88C543.568 579.737 543.622 579.599 543.718 579.494L551.766 571.346C551.871 571.249 552.008 571.195 552.15 571.195C552.293 571.195 552.43 571.249 552.535 571.346C552.643 571.447 552.708 571.587 552.715 571.736C552.722 571.885 552.671 572.03 552.574 572.142Z" fill="white"/>
</g>
<path d="M559.167 570.155C559.062 570.252 558.925 570.305 558.782 570.305C558.64 570.305 558.503 570.252 558.398 570.155L550.319 562.03C550.218 561.928 550.161 561.789 550.161 561.644C550.161 561.499 550.218 561.36 550.319 561.257C550.422 561.155 550.56 561.098 550.704 561.098C550.848 561.098 550.986 561.155 551.089 561.257L559.175 569.374C559.272 569.481 559.326 569.621 559.324 569.766C559.323 569.911 559.267 570.05 559.167 570.155Z" fill="#06E19F"/>
<path d="M561.198 568.076C561.095 568.176 560.957 568.232 560.814 568.232C560.67 568.232 560.532 568.176 560.429 568.076L552.327 559.951C552.228 559.847 552.172 559.709 552.172 559.565C552.172 559.42 552.228 559.282 552.327 559.178C552.432 559.081 552.57 559.028 552.712 559.028C552.855 559.028 552.992 559.081 553.097 559.178L561.175 567.295C561.28 567.396 561.342 567.535 561.346 567.681C561.35 567.827 561.297 567.969 561.198 568.076Z" fill="#06E19F"/>
<path d="M563.237 566.027C563.134 566.127 562.996 566.183 562.852 566.183C562.709 566.183 562.571 566.127 562.468 566.027L554.382 557.91C554.285 557.805 554.232 557.667 554.232 557.524C554.232 557.381 554.285 557.243 554.382 557.137C554.487 557.04 554.624 556.987 554.766 556.987C554.909 556.987 555.046 557.04 555.151 557.137L563.229 565.262C563.33 565.363 563.386 565.5 563.388 565.643C563.389 565.786 563.335 565.924 563.237 566.027Z" fill="#06E19F"/>
<g opacity="0.3">
<path d="M559.167 570.155C559.062 570.252 558.925 570.305 558.782 570.305C558.64 570.305 558.503 570.252 558.398 570.155L550.319 562.03C550.218 561.928 550.161 561.789 550.161 561.644C550.161 561.499 550.218 561.36 550.319 561.257C550.422 561.155 550.56 561.098 550.704 561.098C550.848 561.098 550.986 561.155 551.089 561.257L559.175 569.374C559.272 569.481 559.326 569.621 559.324 569.766C559.323 569.911 559.267 570.05 559.167 570.155Z" fill="white"/>
<path d="M561.198 568.076C561.095 568.176 560.957 568.232 560.813 568.232C560.67 568.232 560.532 568.176 560.429 568.076L552.327 559.951C552.228 559.847 552.172 559.709 552.172 559.565C552.172 559.42 552.228 559.282 552.327 559.178C552.432 559.081 552.57 559.028 552.712 559.028C552.854 559.028 552.992 559.081 553.097 559.178L561.175 567.295C561.28 567.396 561.342 567.535 561.346 567.681C561.35 567.827 561.297 567.969 561.198 568.076Z" fill="white"/>
<path d="M563.237 566.027C563.134 566.127 562.996 566.183 562.852 566.183C562.709 566.183 562.571 566.127 562.468 566.027L554.382 557.91C554.285 557.805 554.232 557.667 554.232 557.524C554.232 557.381 554.285 557.243 554.382 557.137C554.487 557.04 554.624 556.987 554.766 556.987C554.909 556.987 555.046 557.04 555.151 557.137L563.229 565.262C563.33 565.363 563.387 565.5 563.388 565.643C563.389 565.786 563.335 565.924 563.237 566.027Z" fill="white"/>
</g>
<path d="M559.167 557.91L551.081 566.027C550.978 566.127 550.84 566.183 550.696 566.183C550.553 566.183 550.415 566.127 550.312 566.027C550.21 565.924 550.153 565.785 550.153 565.641C550.153 565.496 550.21 565.357 550.312 565.254L558.39 557.129C558.495 557.033 558.632 556.979 558.775 556.979C558.917 556.979 559.054 557.033 559.159 557.129C559.259 557.234 559.315 557.373 559.316 557.518C559.318 557.663 559.264 557.803 559.167 557.91Z" fill="#06E19F"/>
<path d="M561.198 559.951L553.12 568.075C553.015 568.172 552.878 568.226 552.735 568.226C552.593 568.226 552.455 568.172 552.35 568.075C552.254 567.97 552.201 567.832 552.201 567.689C552.201 567.546 552.254 567.408 552.35 567.302L560.437 559.185C560.54 559.085 560.678 559.029 560.821 559.029C560.965 559.029 561.103 559.085 561.206 559.185C561.304 559.289 561.358 559.427 561.357 559.57C561.355 559.713 561.298 559.849 561.198 559.951Z" fill="#06E19F"/>
<path d="M563.237 562L555.159 570.155C555.054 570.252 554.916 570.306 554.774 570.306C554.632 570.306 554.494 570.252 554.389 570.155C554.293 570.05 554.24 569.912 554.24 569.769C554.24 569.626 554.293 569.488 554.389 569.382L562.475 561.265C562.578 561.163 562.716 561.106 562.86 561.106C563.004 561.106 563.142 561.163 563.245 561.265C563.334 561.367 563.383 561.498 563.381 561.634C563.38 561.769 563.328 561.9 563.237 562Z" fill="#06E19F"/>
<g opacity="0.5">
<path d="M559.167 557.91L551.081 566.027C550.978 566.127 550.84 566.183 550.696 566.183C550.553 566.183 550.415 566.127 550.312 566.027C550.21 565.924 550.153 565.785 550.153 565.641C550.153 565.496 550.21 565.357 550.312 565.254L558.39 557.129C558.495 557.033 558.632 556.979 558.775 556.979C558.917 556.979 559.054 557.033 559.159 557.129C559.259 557.234 559.315 557.373 559.316 557.518C559.318 557.663 559.264 557.803 559.167 557.91Z" fill="white"/>
<path d="M561.198 559.951L553.12 568.075C553.015 568.172 552.878 568.226 552.735 568.226C552.593 568.226 552.455 568.172 552.35 568.075C552.254 567.97 552.201 567.832 552.201 567.689C552.201 567.546 552.254 567.408 552.35 567.302L560.437 559.185C560.54 559.085 560.678 559.029 560.821 559.029C560.965 559.029 561.103 559.085 561.206 559.185C561.304 559.289 561.358 559.427 561.357 559.57C561.355 559.713 561.298 559.849 561.198 559.951Z" fill="white"/>
<path d="M563.237 562L555.159 570.155C555.054 570.252 554.916 570.306 554.774 570.306C554.632 570.306 554.494 570.252 554.389 570.155C554.293 570.05 554.24 569.912 554.24 569.769C554.24 569.626 554.293 569.488 554.389 569.382L562.475 561.265C562.578 561.163 562.716 561.106 562.86 561.106C563.004 561.106 563.142 561.163 563.245 561.265C563.334 561.367 563.383 561.498 563.381 561.634C563.38 561.769 563.328 561.9 563.237 562Z" fill="white"/>
</g>
<path d="M287.646 245.409H100.303L108.211 237.484H279.745L287.646 245.409Z" fill="#F0F0F0"/>
<path d="M291.541 118.037H104.197V245.409H291.541V118.037Z" fill="#E0E0E0"/>
<path d="M287.646 118.037H100.303V245.409H287.646V118.037Z" fill="#F5F5F5"/>
<path d="M279.738 123.412H108.204V237.485H279.738V123.412Z" fill="#E0E0E0"/>
<path d="M270.697 128.495H115.788V232.401H270.697V128.495Z" fill="#06E19F"/>
<path opacity="0.1" d="M270.697 128.495H115.788V232.401H270.697V128.495Z" fill="black"/>
<path d="M287.646 118.037L279.745 123.413H108.211L100.303 118.037H287.646Z" fill="#F0F0F0"/>
<path opacity="0.5" d="M165.293 138.402C165.291 141.614 164.515 144.783 163.024 147.669C161.532 150.555 159.366 153.082 156.687 155.06C154.009 157.037 150.889 158.412 147.564 159.081C144.239 159.75 140.797 159.695 137.498 158.921C134.2 158.146 131.131 156.672 128.524 154.61C125.918 152.549 123.843 149.953 122.456 147.021C121.069 144.089 120.406 140.897 120.519 137.687C120.631 134.478 121.516 131.334 123.105 128.495H162.709C164.418 131.547 165.305 134.949 165.293 138.402Z" fill="#004741"/>
<path opacity="0.5" d="M240.903 192.327C242.945 180.557 234.502 169.45 222.044 167.521C209.586 165.591 197.831 173.569 195.789 185.339C193.747 197.11 202.19 208.216 214.648 210.146C227.106 212.075 238.861 204.098 240.903 192.327Z" fill="#DCFFF4"/>
<path opacity="0.5" d="M270.696 139.733V213.146C269.433 213.266 268.164 213.326 266.894 213.326C256.536 213.326 246.602 209.438 239.278 202.518C231.954 195.598 227.839 186.213 227.839 176.426C227.839 166.64 231.954 157.254 239.278 150.334C246.602 143.414 256.536 139.526 266.894 139.526C268.164 139.535 269.433 139.603 270.696 139.733Z" fill="#004741"/>
<path d="M293.322 120.704V235.695C293.323 238.001 292.843 240.284 291.91 242.415C290.976 244.546 289.607 246.482 287.881 248.112C286.155 249.743 284.106 251.036 281.851 251.918C279.596 252.8 277.179 253.254 274.739 253.253H95.8738C90.9451 253.253 86.2183 251.403 82.7332 248.11C79.2481 244.818 77.2902 240.352 77.2902 235.695V120.704C77.2892 118.398 77.7692 116.114 78.7027 113.983C79.6362 111.852 81.0049 109.915 82.7307 108.284C84.4564 106.653 86.5054 105.359 88.7605 104.476C91.0156 103.594 93.4328 103.139 95.8738 103.139H274.739C279.667 103.139 284.394 104.989 287.879 108.282C291.364 111.575 293.322 116.041 293.322 120.697V120.704Z" stroke="#06E19F" stroke-width="0.865279" stroke-miterlimit="10"/>
<path d="M290.111 110.837H80.5013C82.2026 108.465 84.4935 106.522 87.1735 105.18C89.8535 103.838 92.8408 103.137 95.8739 103.139H274.739C277.772 103.137 280.759 103.838 283.439 105.18C286.12 106.522 288.41 108.464 290.111 110.837Z" fill="#06E19F" stroke="#06E19F" stroke-width="0.865279" stroke-miterlimit="10"/>
<path d="M102.226 108.123C102.887 108.123 103.423 107.616 103.423 106.991C103.423 106.367 102.887 105.86 102.226 105.86C101.565 105.86 101.029 106.367 101.029 106.991C101.029 107.616 101.565 108.123 102.226 108.123Z" fill="white"/>
<path d="M108.451 108.123C109.112 108.123 109.648 107.616 109.648 106.991C109.648 106.367 109.112 105.86 108.451 105.86C107.79 105.86 107.254 106.367 107.254 106.991C107.254 107.616 107.79 108.123 108.451 108.123Z" fill="white"/>
<path d="M114.683 108.123C115.344 108.123 115.88 107.616 115.88 106.991C115.88 106.367 115.344 105.86 114.683 105.86C114.022 105.86 113.486 106.367 113.486 106.991C113.486 107.616 114.022 108.123 114.683 108.123Z" fill="white"/>
<path d="M282.245 88.3486H255.38V157.364H282.245V88.3486Z" fill="#E0E0E0"/>
<path d="M278.506 88.5884H251.641V157.152H278.506V88.5884Z" fill="#FAFAFA" stroke="#06E19F" stroke-width="0.865279" stroke-miterlimit="10"/>
<path d="M274.612 135.082H255.528V153.113H274.612V135.082Z" fill="#06E19F"/>
<path d="M274.612 91.8354H255.528V109.866H274.612V91.8354Z" fill="#004741"/>
<path d="M274.612 113.472H255.528V131.502H274.612V113.472Z" fill="#FF9548"/>
<path d="M227.811 258.729H234.656" stroke="#06E19F" stroke-width="0.865279" stroke-miterlimit="10"/>
<path d="M189.834 258.729H222.417" stroke="#06E19F" stroke-width="0.865279" stroke-miterlimit="10"/>
<path d="M81.4166 131.722V125.78" stroke="#06E19F" stroke-width="0.865279" stroke-miterlimit="10"/>
<path d="M81.4166 160.072V138.988" stroke="#06E19F" stroke-width="0.865279" stroke-miterlimit="10"/>
<path d="M296.336 214.683H212.249V243.712H296.336V214.683Z" fill="#E0E0E0"/>
<path d="M293.308 215.123H209.474V243.453H293.308V215.123Z" fill="#FAFAFA" stroke="#06E19F" stroke-width="0.865279" stroke-miterlimit="10"/>
<path d="M236.621 218.649H214.101V239.926H236.621V218.649Z" fill="white" stroke="#06E19F" stroke-width="0.865279" stroke-miterlimit="10"/>
<path d="M262.894 218.649H240.374V239.926H262.894V218.649Z" fill="white" stroke="#06E19F" stroke-width="0.865279" stroke-miterlimit="10"/>
<path d="M289.175 218.649H266.655V239.926H289.175V218.649Z" fill="white" stroke="#06E19F" stroke-width="0.865279" stroke-miterlimit="10"/>
<path d="M229.269 232.887C231.428 230.847 231.428 227.54 229.269 225.501C227.111 223.461 223.611 223.461 221.452 225.501C219.293 227.54 219.293 230.847 221.452 232.887C223.611 234.927 227.111 234.927 229.269 232.887Z" fill="#06E19F"/>
<path d="M257.261 223.971H246.008V234.603H257.261V223.971Z" fill="#06E19F"/>
<path d="M283.492 234.51H272.337L277.915 223.971L283.492 234.51Z" fill="#06E19F"/>
<path d="M93.7259 188.595C92.8879 190.325 92.0077 192.234 91.2401 194.084C90.4725 195.934 89.6909 197.843 89.0078 199.739C87.6208 203.483 86.5656 207.328 85.853 211.237L85.6559 212.461C85.6419 212.671 85.6633 212.882 85.7192 213.086C85.9286 213.778 86.2569 214.432 86.691 215.022C87.824 216.547 89.1376 217.944 90.6063 219.187C92.1549 220.548 93.7792 221.829 95.4723 223.026C97.1694 224.264 98.944 225.461 100.704 226.593L99.0566 229.52C94.8654 227.793 90.8866 225.637 87.191 223.093C85.2229 221.734 83.4458 220.145 81.9025 218.362C80.9861 217.3 80.2714 216.096 79.7899 214.803C79.5098 213.998 79.3672 213.155 79.3674 212.308V211.263L79.4519 210.431C79.9581 206.09 80.9253 201.808 82.3391 197.65C83.0433 195.601 83.7475 193.558 84.5925 191.569C85.4376 189.58 86.2967 187.63 87.36 185.581L93.7259 188.595Z" fill="#E58A7B"/>
<path d="M161.131 194.563C160.506 197.005 159.302 199.28 157.61 201.217C156.254 202.776 154.595 204.077 152.723 205.049C149.167 206.992 145.681 208.988 142.076 210.878C134.978 214.737 127.816 218.449 120.619 222.095C113.422 225.741 106.12 229.194 98.7891 232.561C91.4585 235.928 83.9588 239.135 76.4451 241.976C73.1777 242.98 69.9173 241.091 69.1708 237.751C68.9173 236.568 68.9894 235.344 69.3802 234.195C69.7711 233.046 70.4676 232.012 71.4031 231.19C77.931 226.107 84.656 221.483 91.4233 216.899C98.1906 212.315 104.965 207.904 111.943 203.652C118.922 199.4 125.83 195.209 132.844 191.17C136.365 189.121 139.886 187.178 143.407 185.182C145.256 184.003 147.378 183.262 149.594 183.022C151.811 182.782 154.055 183.051 156.139 183.805C160.209 185.329 162.378 189.966 161.131 194.563Z" fill="#06E19F"/>
<path opacity="0.3" d="M161.131 194.563C160.506 197.005 159.302 199.28 157.61 201.217C156.254 202.776 154.595 204.077 152.723 205.049C149.167 206.992 145.681 208.988 142.076 210.878C134.978 214.737 127.816 218.449 120.619 222.095C113.422 225.741 106.12 229.194 98.7891 232.561C91.4585 235.928 83.9588 239.135 76.4451 241.976C73.1777 242.98 69.9173 241.091 69.1708 237.751C68.9173 236.568 68.9894 235.344 69.3802 234.195C69.7711 233.046 70.4676 232.012 71.4031 231.19C77.931 226.107 84.656 221.483 91.4233 216.899C98.1906 212.315 104.965 207.904 111.943 203.652C118.922 199.4 125.83 195.209 132.844 191.17C136.365 189.121 139.886 187.178 143.407 185.182C145.256 184.003 147.378 183.262 149.594 183.022C151.811 182.782 154.055 183.051 156.139 183.805C160.209 185.329 162.378 189.966 161.131 194.563Z" fill="black"/>
<path d="M191.876 188.841C182.144 197.997 170.751 198.935 163.878 184.251C155.624 166.666 174.99 158.722 184.37 160.232C189.433 161.05 194.968 161.489 199.763 159.819C203.862 158.402 207.418 155.455 209.664 149.906C207.96 165.92 200.566 180.658 191.876 188.841Z" fill="#06E19F"/>
<path opacity="0.8" d="M191.876 188.841C182.144 197.997 170.751 198.935 163.878 184.251C155.624 166.666 174.99 158.722 184.37 160.232C189.433 161.05 194.968 161.489 199.763 159.819C203.862 158.402 207.418 155.455 209.664 149.906C207.96 165.92 200.566 180.658 191.876 188.841Z" fill="white"/>
<path d="M191.876 188.841C191.279 188.559 190.723 188.206 190.221 187.79C187.743 185.701 187.123 181.662 189.411 179.38C186.862 178.509 185.489 175.634 185.954 173.119C186.419 170.604 188.404 168.502 190.764 167.238C192.341 166.393 194.094 165.867 195.644 164.962C197.65 163.796 199.121 161.961 199.763 159.819C203.862 158.402 207.418 155.455 209.664 149.906C207.96 165.92 200.566 180.658 191.876 188.841Z" fill="#06E19F"/>
<path d="M183.229 177.71C183.195 177.814 183.14 177.91 183.067 177.993C182.994 178.076 182.904 178.145 182.802 178.195C182.701 178.245 182.59 178.276 182.475 178.285C182.361 178.294 182.246 178.282 182.137 178.249C182.022 178.221 181.915 178.171 181.821 178.103C181.727 178.034 181.649 177.948 181.592 177.85C181.534 177.752 181.499 177.643 181.487 177.532C181.475 177.42 181.488 177.308 181.524 177.201C181.56 177.094 181.618 176.995 181.696 176.91C181.774 176.825 181.869 176.757 181.976 176.708C182.083 176.659 182.199 176.631 182.318 176.626C182.436 176.621 182.554 176.639 182.665 176.679C182.774 176.712 182.875 176.764 182.963 176.834C183.05 176.903 183.122 176.988 183.174 177.084C183.226 177.18 183.258 177.285 183.268 177.392C183.277 177.499 183.264 177.608 183.229 177.71Z" fill="#06E19F"/>
<path d="M183.989 172.74C183.824 173.244 183.504 173.689 183.07 174.02C182.636 174.352 182.108 174.554 181.552 174.601C180.997 174.648 180.439 174.539 179.949 174.286C179.46 174.033 179.061 173.649 178.802 173.182C178.544 172.715 178.439 172.186 178.499 171.662C178.56 171.138 178.784 170.643 179.142 170.239C179.501 169.835 179.978 169.542 180.514 169.395C181.05 169.248 181.62 169.254 182.151 169.414C182.861 169.626 183.452 170.096 183.796 170.719C184.141 171.342 184.21 172.069 183.989 172.74Z" fill="#06E19F"/>
<path opacity="0.2" d="M191.876 188.841C191.279 188.559 190.723 188.206 190.221 187.79C187.743 185.701 187.123 181.662 189.411 179.38C186.862 178.509 185.489 175.634 185.954 173.119C186.419 170.604 188.404 168.502 190.764 167.238C192.341 166.393 194.094 165.867 195.644 164.962C197.65 163.796 199.121 161.961 199.763 159.819C203.862 158.402 207.418 155.455 209.664 149.906C207.96 165.92 200.566 180.658 191.876 188.841Z" fill="black"/>
<path opacity="0.2" d="M183.229 177.71C183.195 177.814 183.14 177.91 183.067 177.993C182.994 178.076 182.904 178.145 182.802 178.195C182.701 178.245 182.59 178.276 182.475 178.285C182.361 178.294 182.246 178.282 182.137 178.249C182.022 178.221 181.915 178.171 181.821 178.103C181.727 178.034 181.649 177.948 181.592 177.85C181.534 177.752 181.499 177.643 181.487 177.532C181.475 177.42 181.488 177.308 181.524 177.201C181.56 177.094 181.618 176.995 181.696 176.91C181.774 176.825 181.869 176.757 181.976 176.708C182.083 176.659 182.199 176.631 182.318 176.626C182.436 176.621 182.554 176.639 182.665 176.679C182.774 176.712 182.875 176.764 182.963 176.834C183.05 176.903 183.122 176.988 183.174 177.084C183.226 177.18 183.258 177.285 183.268 177.392C183.277 177.499 183.264 177.608 183.229 177.71Z" fill="black"/>
<path opacity="0.2" d="M183.989 172.74C183.824 173.244 183.504 173.689 183.07 174.02C182.636 174.352 182.108 174.554 181.552 174.601C180.997 174.648 180.439 174.539 179.949 174.286C179.46 174.033 179.061 173.649 178.802 173.182C178.544 172.715 178.439 172.186 178.499 171.662C178.56 171.138 178.784 170.643 179.142 170.239C179.501 169.835 179.978 169.542 180.514 169.395C181.05 169.248 181.62 169.254 182.151 169.414C182.861 169.626 183.452 170.096 183.796 170.719C184.141 171.342 184.21 172.069 183.989 172.74Z" fill="black"/>
<path d="M94.7611 218.243C94.7611 218.243 89.4233 232.328 92.4161 240.864C95.4089 249.401 101.43 262.481 101.134 266.467C100.838 270.452 78.7407 299.175 76.938 309.394L84.2686 311.39C84.2686 311.39 106.69 285.788 112.042 277.824C117.394 269.86 117.675 263.033 114.077 253.08C114.077 253.08 122.527 261.896 123.112 265.023C123.696 268.15 115.887 297.738 118.887 309.401L128.52 311.397C128.52 311.397 136.351 278.403 138.456 271.856C140.562 265.309 138.456 255.076 135.147 248.815C131.837 242.554 122.844 218.209 122.844 218.209L94.7611 218.243Z" fill="#FF9548"/>
<path d="M82.325 312.934L79.6209 318.576L74.0508 318.35L76.945 311.729L82.325 312.934Z" fill="#FF8B7B"/>
<path d="M126.598 313.799L125.591 318.576H120.197L121.14 311.729L126.598 313.799Z" fill="#FF8B7B"/>
<path d="M127.33 318.576C127.33 318.576 128.548 315.296 129.478 315.702C130.407 316.108 128.02 318.989 128.02 318.989C128.02 318.989 130.71 317.046 131.083 317.864C131.457 318.682 127.33 318.576 127.33 318.576Z" stroke="#06E19F" stroke-miterlimit="10"/>
<path d="M81.6279 318.576C81.6279 318.576 82.3321 315.649 83.1138 315.995C83.8954 316.341 81.6279 318.576 81.6279 318.576Z" stroke="#06E19F" stroke-miterlimit="10"/>
<path d="M81.6279 318.988C81.6279 318.988 85.5855 317.205 85.8531 318.15C86.1207 319.095 81.6279 318.988 81.6279 318.988Z" stroke="#06E19F" stroke-miterlimit="10"/>
<path d="M73.1072 324.258C73.1072 324.258 72.058 324.258 72.0016 323.38C71.9453 322.502 73.1072 318.15 73.1072 318.15H80.797C80.797 318.15 84.1771 320.898 85.9798 321.204C87.7826 321.51 89.0642 321.564 89.1276 322.389C89.1909 323.214 87.7192 324.258 87.7192 324.258H73.1072Z" fill="#263238"/>
<path d="M119.429 318.15C119.429 318.15 117.887 323.407 118.133 323.992C118.38 324.578 138.393 323.992 138.393 323.992C138.682 323.804 138.917 323.552 139.077 323.256C139.237 322.961 139.316 322.633 139.308 322.302C139.196 321.251 133.083 321.717 130.921 320.605C128.76 319.494 126.591 318.15 126.591 318.15H119.429Z" fill="#263238"/>
<path d="M87.022 310.759L74.931 308.423L74.0508 311.371L85.0362 314.365L87.022 310.759Z" fill="#06E19F"/>
<path d="M129.971 310.592C129.781 310.472 117.859 309.028 117.859 309.028L118.626 312.461L129.971 314.364V310.592Z" fill="#06E19F"/>
<path opacity="0.3" d="M114.077 253.06L107.127 246.533L115.57 257.884L114.077 253.06Z" fill="black"/>
<path d="M120.197 157.404C120.541 158.557 121.013 159.672 121.605 160.731C121.435 160.918 121.213 161.057 120.965 161.133C120.716 161.208 120.45 161.216 120.197 161.157V157.404Z" fill="#DF5753"/>
<path d="M120.182 155.535C120.549 155.535 120.844 155.967 120.844 156.493C120.844 157.018 120.549 157.451 120.182 157.451C119.816 157.451 119.521 157.025 119.521 156.493C119.521 155.96 119.816 155.535 120.182 155.535Z" fill="#263238"/>
<path d="M102.979 163.519C103.782 167.391 104.585 174.497 101.704 177.092C101.704 177.092 102.838 181.024 110.465 181.024C118.852 181.024 114.464 177.092 114.464 177.092C109.887 176.054 110.007 172.847 110.81 169.833L102.979 163.519Z" fill="#E58A7B"/>
<path d="M100.747 154.683C101.169 161.157 101.204 163.912 104.662 167.232C109.873 172.235 118.197 170.332 119.83 163.905C121.302 158.077 121.239 149.707 114.507 147.132C109.725 145.269 103.402 146.194 101.43 150.711C100.883 151.968 100.649 153.327 100.747 154.683Z" fill="#E58A7B"/>
<path d="M99.2821 177.531C99.2249 177.149 99.3275 176.761 99.5681 176.449C99.8086 176.137 100.168 175.926 100.571 175.861C103.669 175.382 110.725 174.397 114.274 174.863C116.915 175.215 117.605 176.666 117.718 177.857C117.751 178.242 117.622 178.624 117.358 178.919C117.094 179.215 116.717 179.4 116.309 179.434H116.063L100.733 178.768C100.378 178.748 100.041 178.615 99.7775 178.39C99.5138 178.165 99.3391 177.862 99.2821 177.531Z" fill="#06E19F"/>
<path opacity="0.6" d="M99.2821 177.531C99.2249 177.149 99.3275 176.761 99.5681 176.449C99.8086 176.137 100.168 175.926 100.571 175.861C103.669 175.382 110.725 174.397 114.274 174.863C116.915 175.215 117.605 176.666 117.718 177.857C117.751 178.242 117.622 178.624 117.358 178.919C117.094 179.215 116.717 179.4 116.309 179.434H116.063L100.733 178.768C100.378 178.748 100.041 178.615 99.7775 178.39C99.5138 178.165 99.3391 177.862 99.2821 177.531Z" fill="black"/>
<path d="M89.7754 178.568C86.9164 179.234 84.1418 189.028 84.1418 189.028L95.3174 196.074C95.3174 196.074 99.0707 188.302 97.7539 184.909C96.4159 181.37 93.3668 177.763 89.7754 178.568Z" fill="#06E19F"/>
<path opacity="0.2" d="M91.9654 184.896L91.1908 193.452L95.3385 196.114C96.4867 193.673 97.3372 191.118 97.8736 188.495L91.9654 184.896Z" fill="black"/>
<path d="M126.161 178.762C126.161 178.762 129.457 179.853 122.851 218.21H94.7611C95.2329 207.385 95.247 200.718 89.7754 178.569C93.7087 177.805 97.6955 177.311 101.704 177.092C105.952 176.799 110.217 176.799 114.464 177.092C119.95 177.564 126.161 178.762 126.161 178.762Z" fill="#70E5C1"/>
<path d="M128.619 178.609C129.623 179.368 130.483 180.284 131.161 181.317C132.14 182.827 133.224 188.07 132.872 190.172L123.295 197.025C123.295 197.025 116.049 180.033 117.359 176.639C118.161 174.57 120.535 174.504 122.288 175.076C124.594 175.908 126.734 177.103 128.619 178.609Z" fill="#06E19F"/>
<path d="M119.013 151.343C119.133 153.26 118.685 155.17 117.718 156.859C116.147 159.4 115.831 164.364 117.478 166.839C118.809 168.835 121.38 169.726 122.985 171.543C124.591 173.359 125.386 175.834 124.048 178.083C122.858 180.079 120.675 181.237 119.253 183.06C117.323 185.528 115.471 188.715 111.69 188.382C106.303 187.943 105.521 183.319 101.704 183.765C97.8877 184.211 92.0711 184.969 91.1908 179.387C90.6416 175.961 93.3738 173.845 94.078 170.738C94.585 168.542 93.1696 166.593 93.057 164.424C92.9965 163.304 93.172 162.183 93.5734 161.128C93.9747 160.073 94.5938 159.103 95.3949 158.276C96.5638 157.058 98.0145 156.233 98.7398 154.663C99.3172 153.419 99.7397 152.115 100.296 150.857C101.465 148.196 103.676 146.2 106.958 145.827C116.063 144.823 118.528 147.89 119.013 151.343Z" fill="#263238"/>
<path d="M115.211 158.315C115.211 159.546 115.585 160.752 116.288 161.788C117.218 163.119 118.323 162.62 118.598 161.19C118.844 159.932 118.654 157.71 117.464 156.838C116.274 155.967 115.225 156.825 115.211 158.315Z" fill="#E58A7B"/>
<path d="M132.02 190.791C132.02 190.791 131.182 208.456 134.583 211.417C137.984 214.377 145.526 209.786 145.526 209.786L147.012 203.679L151.716 203.878C151.716 203.878 152.632 211.423 147.012 214.717C141.393 218.01 136.611 221.516 129.929 216.433C122.33 210.651 123.781 196.513 123.781 196.513L132.02 190.791Z" fill="#E58A7B"/>
<path d="M119.316 154.483C119.478 153.976 119.776 153.517 120.182 153.152" stroke="#263238" stroke-linecap="round" stroke-linejoin="round"/>
<path opacity="0.2" d="M123.809 196.533L120.865 190.791L121.274 197.624C122.184 197.415 123.045 197.045 123.809 196.533Z" fill="black"/>
</svg>
