<svg width="650" height="50" viewBox="0 0 650 50" fill="none" xmlns="http://www.w3.org/2000/svg">
<rect x="34" y="20" width="270" height="10" rx="5" fill="#06E19F"/>
<rect x="340" y="20" width="270" height="10" rx="5" fill="#06E19F"/>
<circle cx="25" cy="25" r="25" fill="#06E19F"/>
<g clip-path="url(#clip0_457_615)">
<path fill-rule="evenodd" clip-rule="evenodd" d="M37.3279 11.4419C37.5232 11.6032 37.6848 11.8014 37.8035 12.0252C37.9221 12.249 37.9956 12.494 38.0196 12.7461C38.0436 12.9983 38.0177 13.2527 37.9433 13.4948C37.869 13.737 37.7477 13.9621 37.5863 14.1574L22.0806 32.9224L22.0748 32.9262C21.7225 33.3503 21.28 33.6904 20.7795 33.9216C20.279 34.1528 19.7332 34.2693 19.182 34.2627C18.6224 34.2563 18.0716 34.1232 17.5709 33.8734C17.0701 33.6235 16.6326 33.2634 16.291 32.8201L16.2891 32.8163L11.433 26.5754C11.2708 26.3763 11.1501 26.1467 11.0778 25.9002C11.0056 25.6538 10.9833 25.3954 11.0123 25.1402C11.0413 24.885 11.121 24.6382 11.2466 24.4142C11.3723 24.1902 11.5415 23.9936 11.7441 23.8358C11.9468 23.6781 12.179 23.5624 12.427 23.4956C12.675 23.4288 12.9338 23.4122 13.1883 23.4468C13.4428 23.4814 13.6878 23.5665 13.909 23.6971C14.1301 23.8276 14.323 24.001 14.4762 24.2071L19.2282 30.3149L34.6105 11.7004C34.7718 11.5051 34.97 11.3435 35.1938 11.2248C35.4176 11.1061 35.6626 11.0327 35.9147 11.0087C36.1669 10.9847 36.4213 11.0106 36.6634 11.0849C36.9056 11.1593 37.1307 11.2806 37.326 11.4419H37.3279Z" fill="#FFFFFA"/>
</g>
<circle cx="325" cy="25" r="25" fill="#06E19F"/>
<g clip-path="url(#clip1_457_615)">
<path fill-rule="evenodd" clip-rule="evenodd" d="M337.328 11.4419C337.523 11.6032 337.685 11.8014 337.803 12.0252C337.922 12.249 337.996 12.494 338.02 12.7461C338.044 12.9983 338.018 13.2527 337.943 13.4948C337.869 13.737 337.748 13.9621 337.586 14.1574L322.081 32.9224L322.075 32.9262C321.723 33.3503 321.28 33.6904 320.78 33.9216C320.279 34.1528 319.733 34.2693 319.182 34.2627C318.622 34.2563 318.072 34.1232 317.571 33.8734C317.07 33.6235 316.633 33.2634 316.291 32.8201L316.289 32.8163L311.433 26.5754C311.271 26.3763 311.15 26.1467 311.078 25.9002C311.006 25.6538 310.983 25.3954 311.012 25.1402C311.041 24.885 311.121 24.6382 311.247 24.4142C311.372 24.1902 311.541 23.9936 311.744 23.8358C311.947 23.6781 312.179 23.5624 312.427 23.4956C312.675 23.4288 312.934 23.4122 313.188 23.4468C313.443 23.4814 313.688 23.5665 313.909 23.6971C314.13 23.8276 314.323 24.001 314.476 24.2071L319.228 30.3149L334.611 11.7004C334.772 11.5051 334.97 11.3435 335.194 11.2248C335.418 11.1061 335.663 11.0327 335.915 11.0087C336.167 10.9847 336.421 11.0106 336.663 11.0849C336.906 11.1593 337.131 11.2806 337.326 11.4419H337.328Z" fill="#FFFFFA"/>
</g>
<circle cx="625" cy="25" r="25" fill="#FF9548"/>
<defs>
<clipPath id="clip0_457_615">
<rect width="27" height="27" fill="white" transform="translate(11 11)"/>
</clipPath>
<clipPath id="clip1_457_615">
<rect width="27" height="27" fill="white" transform="translate(311 11)"/>
</clipPath>
</defs>
</svg>
