<svg width="700" height="700" viewBox="0 0 700 700" fill="none" xmlns="http://www.w3.org/2000/svg">
<path d="M567.924 126.798L565.054 122.08C540.862 82.1942 497.112 58.1562 450.982 61.0822C445.046 61.4559 439.146 62.2654 433.328 63.5042C391.328 72.4782 354.928 104.188 339.766 144.816C330.876 168.7 328.384 196.196 311.514 215.166C289.534 239.834 252.238 240.618 219.45 239.596C186.662 238.574 149.324 239.442 127.47 264.222C113.778 279.734 109.424 301.798 110.53 322.574C113.442 377.58 151.774 426.776 200.536 451.22C249.298 475.664 306.684 477.82 360.024 467.11C434.77 452.046 505.848 410.662 548.576 346.71C591.304 282.758 602.112 195.776 567.924 126.798Z" fill="#F5F5F5"/>
<path d="M165.872 191.506C195.285 191.506 219.128 167.663 219.128 138.25C219.128 108.838 195.285 84.9941 165.872 84.9941C136.46 84.9941 112.616 108.838 112.616 138.25C112.616 167.663 136.46 191.506 165.872 191.506Z" fill="#F5F5F5"/>
<path d="M648.76 651.966C648.76 652.176 511.224 652.33 341.614 652.33C172.004 652.33 34.4404 652.176 34.4404 651.966C34.4404 651.756 171.948 651.602 341.614 651.602C511.28 651.602 648.76 651.77 648.76 651.966Z" fill="#263238"/>
<path d="M416.333 365.4H307.497L286.707 396.2L266.421 365.4H159.517C157.891 365.4 156.282 365.08 154.781 364.458C153.279 363.836 151.915 362.924 150.765 361.775C149.616 360.626 148.705 359.261 148.083 357.76C147.461 356.258 147.141 354.649 147.141 353.024V141.05C147.139 139.423 147.458 137.812 148.079 136.309C148.7 134.806 149.611 133.44 150.761 132.289C151.91 131.139 153.275 130.226 154.777 129.603C156.28 128.98 157.89 128.66 159.517 128.66H416.333C417.959 128.66 419.57 128.98 421.072 129.603C422.574 130.226 423.939 131.139 425.089 132.289C426.238 133.44 427.149 134.806 427.771 136.309C428.392 137.812 428.711 139.423 428.709 141.05V353.08C428.694 356.352 427.383 359.486 425.064 361.795C422.745 364.104 419.605 365.4 416.333 365.4Z" fill="#FAFAFA"/>
<path d="M416.332 365.4H417.004C417.679 365.356 418.348 365.258 419.006 365.106C421.251 364.599 423.309 363.472 424.945 361.853C426.581 360.235 427.73 358.189 428.26 355.95C428.389 355.419 428.487 354.882 428.554 354.34C428.554 353.78 428.624 353.206 428.554 352.618C428.554 351.442 428.554 350.21 428.554 348.936C428.554 343.821 428.554 337.946 428.554 331.31C428.554 304.71 428.484 266.378 428.442 218.96C428.442 195.23 428.442 169.26 428.442 141.372C428.502 138.76 427.717 136.199 426.203 134.07C424.689 131.941 422.529 130.358 420.042 129.556C418.352 129.042 416.582 128.843 414.82 128.968H347.06H248.654H159.922C159.348 128.968 158.816 128.968 158.27 128.968C157.728 129.032 157.19 129.13 156.66 129.262C154.52 129.777 152.563 130.875 151.009 132.434C149.454 133.994 148.363 135.953 147.854 138.096C147.497 140.076 147.379 142.093 147.504 144.102V233.702C147.504 264.712 147.504 294.756 147.504 323.554V350.154C147.423 351.874 147.498 353.599 147.728 355.306C148.053 356.955 148.719 358.518 149.683 359.895C150.648 361.272 151.889 362.431 153.328 363.3C154.759 364.165 156.358 364.714 158.018 364.91C159.656 365.078 161.406 364.98 163.086 365.008H193.06H266.42H266.574L266.658 365.134L286.916 395.934H286.496L307.314 365.134L307.384 365.036H307.496L387.8 365.4L307.566 365.498L307.748 365.4C301.308 374.994 294.388 385.284 286.986 396.27L286.776 396.592L286.566 396.27L266.266 365.47L266.49 365.596H193.13H163.128C161.42 365.596 159.754 365.666 157.99 365.498C155.356 365.197 152.882 364.081 150.912 362.307C148.942 360.533 147.575 358.188 147 355.6C146.75 353.852 146.666 352.085 146.748 350.322V323.722C146.748 294.924 146.748 264.922 146.748 233.87V141.162C146.716 138.288 147.659 135.488 149.424 133.22C151.188 130.951 153.671 129.349 156.464 128.674C157.027 128.536 157.597 128.433 158.172 128.366C158.746 128.366 159.334 128.366 159.894 128.366H414.834C416.664 128.247 418.499 128.461 420.252 128.996C421.993 129.584 423.588 130.539 424.928 131.796C426.264 133.022 427.319 134.521 428.022 136.192C428.705 137.857 429.043 139.643 429.016 141.442C429.016 169.33 429.016 195.3 429.016 219.03C429.016 266.448 428.932 304.836 428.904 331.38C428.904 338.016 428.904 343.891 428.904 349.006C428.904 350.28 428.904 351.512 428.904 352.688C428.904 353.276 428.904 353.864 428.834 354.424C428.774 354.976 428.676 355.523 428.54 356.062C427.992 358.325 426.817 360.388 425.151 362.014C423.484 363.641 421.394 364.766 419.118 365.26C418.459 365.398 417.789 365.478 417.116 365.498L416.332 365.4Z" fill="#263238"/>
<path d="M256.536 259C256.536 261.8 254.478 263.452 251.174 263.452H248.696V266.854H245.896V254.52H251.23C254.478 254.576 256.536 256.284 256.536 259ZM253.638 259C253.638 257.6 252.77 256.844 251.02 256.844H248.696V261.128H251.02C252.77 261.184 253.638 260.4 253.638 259Z" fill="#263238"/>
<path d="M266.658 261.506V266.91H264.082V265.734C263.763 266.191 263.327 266.554 262.82 266.785C262.313 267.016 261.753 267.108 261.198 267.05C258.986 267.05 257.656 265.818 257.656 264.18C257.656 262.542 258.846 261.38 261.73 261.38H263.914C263.914 260.204 263.214 259.518 261.73 259.518C260.749 259.51 259.791 259.819 259 260.4L258.006 258.482C259.225 257.703 260.648 257.303 262.094 257.334C264.992 257.292 266.658 258.636 266.658 261.506ZM263.858 263.914V262.948H261.968C260.68 262.948 260.274 263.424 260.274 264.054C260.274 264.684 260.862 265.202 261.828 265.202C262.269 265.244 262.711 265.141 263.088 264.908C263.464 264.676 263.754 264.326 263.914 263.914H263.858Z" fill="#263238"/>
<path d="M268.227 266L269.137 264.026C270.137 264.617 271.278 264.931 272.441 264.936C273.701 264.936 274.177 264.614 274.177 264.082C274.177 262.528 268.451 264.082 268.451 260.33C268.451 258.538 270.075 257.264 272.847 257.264C274.108 257.244 275.357 257.527 276.487 258.09L275.577 260.05C274.723 259.568 273.756 259.326 272.777 259.35C271.545 259.35 271.013 259.728 271.013 260.218C271.013 261.842 276.739 260.218 276.739 264.012C276.739 265.776 275.101 267.022 272.259 267.022C270.849 267.032 269.461 266.68 268.227 266Z" fill="#263238"/>
<path d="M277.578 266L278.488 264.026C279.485 264.615 280.62 264.929 281.778 264.936C283.052 264.936 283.528 264.614 283.528 264.082C283.528 262.528 277.802 264.082 277.802 260.33C277.802 258.538 279.426 257.264 282.184 257.264C283.451 257.243 284.704 257.526 285.838 258.09L284.914 260.05C284.083 259.577 283.14 259.336 282.184 259.35C280.952 259.35 280.434 259.728 280.434 260.218C280.434 261.842 286.146 260.218 286.146 264.012C286.146 265.776 284.508 267.022 281.68 267.022C280.247 267.046 278.832 266.694 277.578 266Z" fill="#263238"/>
<path d="M302.877 257.432L299.447 266.91H296.801L294.673 261.03L292.475 266.91H289.801L286.385 257.432H288.975L291.215 263.844L293.539 257.432H295.863L298.117 263.844L300.427 257.432H302.877Z" fill="#263238"/>
<path d="M303.198 262.178C303.131 261.136 303.378 260.098 303.908 259.199C304.438 258.299 305.226 257.58 306.169 257.133C307.113 256.687 308.169 256.535 309.201 256.696C310.232 256.858 311.191 257.325 311.953 258.039C312.716 258.752 313.246 259.677 313.476 260.696C313.706 261.714 313.624 262.778 313.242 263.749C312.859 264.721 312.194 265.555 311.332 266.143C310.469 266.732 309.45 267.048 308.406 267.05C307.739 267.096 307.069 267.004 306.439 266.78C305.808 266.556 305.231 266.204 304.742 265.747C304.253 265.29 303.864 264.737 303.599 264.123C303.333 263.509 303.197 262.847 303.198 262.178ZM310.828 262.178C310.793 261.705 310.62 261.252 310.331 260.876C310.042 260.5 309.65 260.216 309.202 260.06C308.754 259.904 308.27 259.881 307.81 259.996C307.35 260.111 306.933 260.357 306.611 260.706C306.289 261.054 306.075 261.488 305.997 261.956C305.918 262.424 305.978 262.905 306.169 263.339C306.359 263.773 306.673 264.142 307.07 264.401C307.468 264.66 307.932 264.797 308.406 264.796C308.74 264.795 309.07 264.725 309.375 264.59C309.68 264.456 309.953 264.259 310.179 264.013C310.404 263.767 310.575 263.476 310.682 263.161C310.789 262.845 310.829 262.51 310.8 262.178H310.828Z" fill="#263238"/>
<path d="M321.315 257.292V259.826H320.699C320.35 259.793 319.998 259.839 319.67 259.962C319.341 260.084 319.045 260.279 318.802 260.532C318.56 260.785 318.378 261.09 318.27 261.424C318.162 261.757 318.131 262.111 318.179 262.458V266.938H315.379V257.46H318.011V258.706C318.403 258.216 318.909 257.831 319.486 257.584C320.062 257.338 320.69 257.237 321.315 257.292Z" fill="#263238"/>
<path d="M332.514 253.848V266.91H329.896V265.818C329.529 266.234 329.073 266.561 328.561 266.774C328.049 266.988 327.496 267.082 326.942 267.05C325.642 267.05 324.396 266.533 323.477 265.614C322.558 264.696 322.042 263.449 322.042 262.15C322.042 260.85 322.558 259.604 323.477 258.685C324.396 257.766 325.642 257.25 326.942 257.25C327.464 257.229 327.984 257.321 328.467 257.519C328.95 257.717 329.385 258.017 329.742 258.398V253.806L332.514 253.848ZM329.826 262.248C329.791 261.775 329.618 261.322 329.329 260.946C329.04 260.57 328.648 260.286 328.2 260.13C327.752 259.973 327.268 259.951 326.808 260.066C326.348 260.181 325.931 260.427 325.609 260.775C325.287 261.124 325.073 261.558 324.994 262.026C324.916 262.494 324.976 262.974 325.166 263.409C325.357 263.843 325.67 264.212 326.068 264.471C326.465 264.73 326.93 264.867 327.404 264.866C327.746 264.87 328.086 264.801 328.399 264.664C328.713 264.527 328.994 264.324 329.223 264.07C329.452 263.815 329.625 263.515 329.729 263.189C329.833 262.862 329.866 262.518 329.826 262.178V262.248Z" fill="#263238"/>
<path d="M218.891 288.176H201.055C196.818 288.176 193.383 291.611 193.383 295.848V326.41C193.383 330.647 196.818 334.082 201.055 334.082H218.891C223.128 334.082 226.563 330.647 226.563 326.41V295.848C226.563 291.611 223.128 288.176 218.891 288.176Z" fill="#EBEBEB"/>
<path d="M297.192 288.176H280.252C276.015 288.176 272.58 291.611 272.58 295.848V326.41C272.58 330.647 276.015 334.082 280.252 334.082H297.192C301.429 334.082 304.864 330.647 304.864 326.41V295.848C304.864 291.611 301.429 288.176 297.192 288.176Z" fill="#EBEBEB"/>
<path d="M258.384 288.176H241.444C237.207 288.176 233.772 291.611 233.772 295.848V326.41C233.772 330.647 237.207 334.082 241.444 334.082H258.384C262.622 334.082 266.056 330.647 266.056 326.41V295.848C266.056 291.611 262.622 288.176 258.384 288.176Z" fill="#EBEBEB"/>
<path d="M336.728 288.176H318.878C314.641 288.176 311.206 291.611 311.206 295.848V326.41C311.206 330.647 314.641 334.082 318.878 334.082H336.728C340.965 334.082 344.4 330.647 344.4 326.41V295.848C344.4 291.611 340.965 288.176 336.728 288.176Z" fill="#EBEBEB"/>
<path d="M374.794 288.176H356.944C352.707 288.176 349.272 291.611 349.272 295.848V326.41C349.272 330.647 352.707 334.082 356.944 334.082H374.794C379.032 334.082 382.466 330.647 382.466 326.41V295.848C382.466 291.611 379.032 288.176 374.794 288.176Z" fill="#EBEBEB"/>
<path d="M214.2 309.918L217.742 311.836L216.146 314.51L212.576 312.382V316.33H209.524V312.354L205.94 314.51L204.372 311.836L207.928 309.918L204.372 307.958L205.94 305.284L209.524 307.44V303.464H212.576V307.44L216.146 305.284L217.742 307.958L214.2 309.918Z" fill="#25B290"/>
<path d="M252.924 309.708L256.48 311.626L254.884 314.3L251.3 312.2L251.37 316.148H248.304V312.172L244.72 314.328L243.166 311.654L246.708 309.736L243.166 307.776L244.72 305.102L248.304 307.258V303.282H251.37L251.3 307.258L254.884 305.102L256.48 307.776L252.924 309.708Z" fill="#25B290"/>
<path d="M292.601 309.708L296.157 311.626L294.561 314.3L290.907 312.2L290.977 316.148H287.911V312.172L284.327 314.328L282.801 311.626L286.343 309.708L282.801 307.748L284.355 305.074L287.939 307.23V303.254H291.005L290.935 307.23L294.519 305.074L296.115 307.748L292.601 309.708Z" fill="#25B290"/>
<path d="M330.904 309.708L334.446 311.626L332.85 314.3L329.266 312.2L329.336 316.148H326.27V312.172L322.686 314.328L321.118 311.654L324.674 309.736L321.118 307.776L322.686 305.102L326.27 307.258V303.282H329.336L329.266 307.258L332.85 305.102L334.446 307.776L330.904 309.708Z" fill="#25B290"/>
<path d="M218.555 334.376H201.391C199.268 334.372 197.233 333.527 195.732 332.026C194.231 330.525 193.387 328.491 193.383 326.368V295.904C193.387 293.781 194.231 291.747 195.732 290.246C197.233 288.745 199.268 287.9 201.391 287.896H218.555C220.679 287.896 222.716 288.74 224.217 290.241C225.719 291.743 226.563 293.78 226.563 295.904V326.368C226.559 328.491 225.714 330.525 224.213 332.026C222.712 333.527 220.678 334.372 218.555 334.376ZM201.391 288.4C199.418 288.404 197.527 289.19 196.133 290.586C194.74 291.983 193.957 293.875 193.957 295.848V326.312C193.957 328.284 194.74 330.174 196.134 331.569C197.528 332.963 199.419 333.746 201.391 333.746H218.555C220.528 333.746 222.42 332.963 223.816 331.569C225.213 330.176 225.999 328.285 226.003 326.312V295.904C225.999 293.93 225.213 292.038 223.817 290.642C222.421 289.246 220.529 288.46 218.555 288.456L201.391 288.4Z" fill="#263238"/>
<path d="M258.426 334.376H241.248C239.126 334.372 237.091 333.527 235.59 332.026C234.089 330.525 233.244 328.491 233.24 326.368V295.904C233.244 293.781 234.089 291.747 235.59 290.246C237.091 288.745 239.126 287.9 241.248 287.896H258.426C260.548 287.9 262.581 288.745 264.08 290.246C265.578 291.748 266.42 293.783 266.42 295.904V326.368C266.42 328.489 265.578 330.524 264.08 332.026C262.581 333.527 260.548 334.372 258.426 334.376ZM241.248 288.4C239.275 288.404 237.384 289.19 235.991 290.586C234.597 291.983 233.814 293.875 233.814 295.848V326.312C233.814 328.284 234.597 330.174 235.992 331.569C237.386 332.963 239.277 333.746 241.248 333.746H258.426C260.398 333.746 262.289 332.963 263.683 331.569C265.077 330.174 265.86 328.284 265.86 326.312V295.904C265.86 293.931 265.077 292.039 263.684 290.642C262.29 289.246 260.399 288.46 258.426 288.456L241.248 288.4Z" fill="#263238"/>
<path d="M297.192 334.376H280C277.877 334.372 275.843 333.527 274.342 332.026C272.841 330.525 271.996 328.491 271.992 326.368V295.904C271.996 293.781 272.841 291.747 274.342 290.246C275.843 288.745 277.877 287.9 280 287.896H297.178C299.3 287.9 301.333 288.745 302.832 290.246C304.33 291.748 305.172 293.783 305.172 295.904V326.368C305.172 328.487 304.332 330.52 302.837 332.021C301.341 333.522 299.311 334.369 297.192 334.376ZM280 288.4C278.027 288.404 276.136 289.19 274.743 290.586C273.349 291.983 272.566 293.875 272.566 295.848V326.312C272.566 328.284 273.349 330.174 274.744 331.569C276.138 332.963 278.029 333.746 280 333.746H297.178C298.154 333.746 299.121 333.554 300.023 333.18C300.925 332.807 301.745 332.259 302.435 331.569C303.125 330.878 303.673 330.059 304.046 329.157C304.42 328.255 304.612 327.288 304.612 326.312V295.904C304.612 293.931 303.829 292.039 302.436 290.642C301.042 289.246 299.151 288.46 297.178 288.456L280 288.4Z" fill="#263238"/>
<path d="M336.392 334.376H319.2C317.078 334.372 315.043 333.527 313.542 332.026C312.041 330.525 311.196 328.491 311.192 326.368V295.904C311.192 293.78 312.036 291.743 313.538 290.241C315.04 288.74 317.077 287.896 319.2 287.896H336.364C338.487 287.9 340.522 288.745 342.023 290.246C343.524 291.747 344.369 293.781 344.372 295.904V326.368C344.369 328.486 343.528 330.516 342.033 332.017C340.538 333.517 338.51 334.365 336.392 334.376ZM319.2 288.4C317.226 288.404 315.334 289.19 313.938 290.586C312.542 291.982 311.756 293.874 311.752 295.848V326.312C311.756 328.285 312.542 330.176 313.939 331.569C315.335 332.963 317.227 333.746 319.2 333.746H336.364C338.336 333.746 340.227 332.963 341.621 331.569C343.015 330.174 343.798 328.284 343.798 326.312V295.904C343.798 293.931 343.016 292.039 341.622 290.642C340.228 289.246 338.337 288.46 336.364 288.456L319.2 288.4Z" fill="#263238"/>
<path d="M374.458 334.376H357.294C355.171 334.372 353.137 333.527 351.636 332.026C350.135 330.525 349.29 328.491 349.286 326.368V295.904C349.286 293.78 350.13 291.743 351.632 290.241C353.133 288.74 355.17 287.896 357.294 287.896H374.458C376.581 287.9 378.616 288.745 380.117 290.246C381.618 291.747 382.462 293.781 382.466 295.904V326.368C382.462 328.491 381.618 330.525 380.117 332.026C378.616 333.527 376.581 334.372 374.458 334.376ZM357.294 288.4C355.32 288.404 353.428 289.19 352.032 290.586C350.636 291.982 349.85 293.874 349.846 295.848V326.312C349.85 328.285 350.636 330.176 352.033 331.569C353.429 332.963 355.321 333.746 357.294 333.746H374.458C376.43 333.746 378.321 332.963 379.715 331.569C381.109 330.174 381.892 328.284 381.892 326.312V295.904C381.892 293.931 381.109 292.039 379.716 290.642C378.322 289.246 376.431 288.46 374.458 288.456L357.294 288.4Z" fill="#263238"/>
<path d="M375.075 322.182C372.023 322.55 368.948 322.672 365.877 322.546C362.806 322.672 359.73 322.55 356.679 322.182C359.731 321.822 362.806 321.7 365.877 321.818C368.948 321.7 372.023 321.822 375.075 322.182Z" fill="#25B290"/>
<path d="M289.437 240.576C309.919 240.576 326.523 223.972 326.523 203.49C326.523 183.008 309.919 166.404 289.437 166.404C268.955 166.404 252.351 183.008 252.351 203.49C252.351 223.972 268.955 240.576 289.437 240.576Z" fill="#25B290"/>
<path d="M282.912 196.742H282.296V193.284C282.253 192.307 282.408 191.332 282.752 190.418C283.096 189.503 283.622 188.667 284.298 187.961C284.973 187.255 285.785 186.693 286.684 186.309C287.583 185.925 288.55 185.728 289.527 185.728C290.504 185.728 291.472 185.925 292.37 186.309C293.269 186.693 294.081 187.255 294.756 187.961C295.432 188.667 295.958 189.503 296.302 190.418C296.646 191.332 296.801 192.307 296.758 193.284V196.084H296.142V193.284C296.183 192.389 296.043 191.496 295.729 190.658C295.415 189.819 294.934 189.053 294.316 188.406C293.698 187.758 292.954 187.243 292.131 186.891C291.308 186.539 290.422 186.357 289.527 186.357C288.632 186.357 287.746 186.539 286.923 186.891C286.1 187.243 285.356 187.758 284.738 188.406C284.12 189.053 283.639 189.819 283.325 190.658C283.012 191.496 282.871 192.389 282.912 193.284V196.742Z" fill="white"/>
<path d="M298.634 220.92H280.252C279.851 220.921 279.453 220.844 279.082 220.691C278.711 220.538 278.374 220.314 278.09 220.03C277.806 219.746 277.581 219.409 277.429 219.038C277.276 218.667 277.198 218.269 277.2 217.868V199.486C277.2 198.676 277.522 197.9 278.094 197.327C278.666 196.755 279.443 196.434 280.252 196.434H298.634C299.443 196.437 300.217 196.76 300.788 197.332C301.36 197.903 301.683 198.677 301.686 199.486V217.868C301.686 218.677 301.365 219.453 300.792 220.026C300.22 220.598 299.444 220.92 298.634 220.92ZM280.252 197.05C279.606 197.05 278.987 197.306 278.53 197.763C278.073 198.22 277.816 198.84 277.816 199.486V217.868C277.816 218.187 277.879 218.504 278.002 218.8C278.124 219.095 278.304 219.364 278.53 219.59C278.756 219.816 279.024 219.996 279.32 220.118C279.616 220.241 279.932 220.304 280.252 220.304H298.634C298.954 220.304 299.271 220.241 299.566 220.118C299.862 219.996 300.131 219.816 300.357 219.59C300.583 219.364 300.762 219.095 300.885 218.8C301.007 218.504 301.07 218.187 301.07 217.868V199.486C301.07 198.84 300.814 198.22 300.357 197.763C299.9 197.306 299.28 197.05 298.634 197.05H280.252Z" fill="white"/>
<path d="M289.534 209.286C288.96 209.288 288.397 209.121 287.919 208.803C287.44 208.486 287.066 208.033 286.845 207.503C286.624 206.973 286.566 206.389 286.677 205.826C286.788 205.262 287.065 204.745 287.471 204.339C287.877 203.932 288.395 203.656 288.958 203.545C289.522 203.433 290.105 203.492 290.636 203.713C291.166 203.934 291.618 204.308 291.935 204.786C292.253 205.265 292.421 205.827 292.418 206.402C292.414 207.165 292.109 207.897 291.569 208.437C291.029 208.977 290.298 209.282 289.534 209.286ZM289.534 204.134C289.085 204.134 288.647 204.267 288.274 204.516C287.901 204.765 287.61 205.119 287.439 205.534C287.267 205.948 287.222 206.404 287.31 206.844C287.397 207.284 287.613 207.688 287.93 208.005C288.248 208.323 288.652 208.539 289.092 208.626C289.532 208.714 289.988 208.669 290.402 208.497C290.816 208.325 291.171 208.035 291.42 207.662C291.669 207.289 291.802 206.85 291.802 206.402C291.804 206.103 291.746 205.808 291.633 205.532C291.52 205.256 291.353 205.005 291.142 204.794C290.931 204.583 290.68 204.416 290.404 204.303C290.128 204.189 289.832 204.132 289.534 204.134Z" fill="white"/>
<path d="M289.745 208.838H289.129V214.046H289.745V208.838Z" fill="white"/>
<path d="M415.003 152.148C416.362 145.971 412.456 139.862 406.279 138.503C400.102 137.144 393.993 141.049 392.634 147.226C391.275 153.403 395.18 159.513 401.357 160.872C407.534 162.231 413.644 158.325 415.003 152.148Z" fill="#E0E0E0"/>
<path d="M400.134 153.762C400.087 153.761 400.04 153.751 399.997 153.732C399.954 153.712 399.915 153.685 399.882 153.65C399.849 153.618 399.822 153.58 399.804 153.538C399.786 153.496 399.776 153.451 399.776 153.405C399.776 153.359 399.786 153.314 399.804 153.271C399.822 153.229 399.849 153.191 399.882 153.16L407.302 145.74C407.334 145.706 407.372 145.68 407.414 145.661C407.456 145.643 407.502 145.634 407.547 145.634C407.593 145.634 407.639 145.643 407.681 145.661C407.723 145.68 407.761 145.706 407.792 145.74C407.826 145.773 407.853 145.812 407.872 145.855C407.89 145.898 407.9 145.945 407.9 145.992C407.9 146.039 407.89 146.085 407.872 146.129C407.853 146.172 407.826 146.211 407.792 146.244L400.372 153.65C400.311 153.717 400.225 153.757 400.134 153.762Z" fill="white"/>
<path d="M407.541 153.762C407.45 153.757 407.364 153.717 407.302 153.65L399.883 146.244C399.849 146.211 399.822 146.172 399.803 146.129C399.785 146.085 399.775 146.039 399.775 145.992C399.775 145.945 399.785 145.898 399.803 145.855C399.822 145.812 399.849 145.773 399.883 145.74C399.914 145.706 399.952 145.68 399.994 145.661C400.036 145.643 400.082 145.634 400.127 145.634C400.173 145.634 400.219 145.643 400.261 145.661C400.303 145.68 400.341 145.706 400.373 145.74L407.792 153.16C407.826 153.191 407.853 153.229 407.871 153.271C407.889 153.314 407.899 153.359 407.899 153.405C407.899 153.451 407.889 153.496 407.871 153.538C407.853 153.58 407.826 153.618 407.792 153.65C407.76 153.685 407.721 153.712 407.678 153.732C407.635 153.751 407.588 153.761 407.541 153.762Z" fill="white"/>
<path d="M109.284 581.77C109.284 581.77 72.2964 539.196 58.3383 496.622C44.3803 454.048 51.0024 458.934 51.0024 458.934C51.0024 458.934 69.8464 500.29 84.1544 520.268C98.4624 540.246 123.942 569.548 123.942 569.548L109.284 581.77Z" fill="#455A64"/>
<path d="M116.648 465.556C116.399 465.117 116.003 464.78 115.531 464.603C115.058 464.426 114.539 464.42 114.063 464.587C113.586 464.753 113.183 465.081 112.924 465.514C112.665 465.947 112.566 466.457 112.644 466.956C114.898 481.922 119.77 517.006 119.644 539.756C119.406 569.324 119.644 580.748 119.644 580.748H135.044C135.044 580.748 132.244 519.624 128.828 500.948C126.336 487.914 121.156 473.41 116.648 465.556Z" fill="#455A64"/>
<path d="M125.049 575.764C131.502 561.147 135.771 545.661 137.719 529.802C138.979 518.924 136.725 504.21 133.365 484.582C132.06 477.404 131.409 470.122 131.419 462.826C131.426 462.014 131.703 461.227 132.206 460.59C132.709 459.952 133.409 459.499 134.197 459.302C134.985 459.105 135.816 459.175 136.56 459.501C137.303 459.827 137.918 460.391 138.307 461.104C140.169 464.422 145.545 475.748 146.917 482.846C150.641 502.222 154.855 511.91 151.635 530.306C148.415 548.702 136.473 577.01 136.473 577.01L125.049 575.764Z" fill="#455A64"/>
<path d="M138.908 577.01C138.908 577.01 179.508 489.734 182.308 476.784C185.108 463.834 194.698 434 195.818 435.694C196.938 437.388 198.618 453.138 191.324 471.156C184.03 489.174 152.754 579.67 152.754 579.67H138.908" fill="#455A64"/>
<path d="M120.596 573.104C120.194 572.88 119.815 572.617 119.462 572.32C118.734 571.774 117.642 571.004 116.312 569.926C113.61 567.798 109.816 564.564 105.392 560.294C93.9825 549.033 84.0983 536.325 75.9925 522.494C67.8942 508.656 61.1567 494.065 55.8745 478.926C53.8305 473.13 52.3465 468.384 51.3805 465.094C50.8765 463.442 50.5405 462.154 50.3025 461.286C50.1543 460.83 50.0465 460.361 49.9805 459.886C50.1805 460.301 50.3444 460.732 50.4705 461.174C50.7785 462.112 51.1845 463.372 51.7025 464.94C52.7665 468.202 54.3485 472.906 56.4485 478.674C61.8886 493.7 68.6783 508.203 76.7345 522.004C84.8386 535.769 94.6304 548.467 105.882 559.804C110.236 564.13 113.946 567.42 116.578 569.604C117.88 570.724 118.944 571.536 119.616 572.124C119.969 572.424 120.297 572.752 120.596 573.104Z" fill="#263238"/>
<path d="M125.049 531.23C124.838 530.391 124.716 529.532 124.685 528.668C124.489 526.862 124.237 524.468 123.929 521.668C123.285 515.76 122.277 507.668 120.849 498.666C119.421 489.664 117.811 481.67 116.565 475.874C115.963 473.074 115.473 470.764 115.081 468.986C114.854 468.152 114.704 467.299 114.633 466.438C114.965 467.235 115.227 468.06 115.417 468.902C115.865 470.512 116.467 472.836 117.167 475.734C118.567 481.516 120.261 489.566 121.703 498.54C123.145 507.514 124.055 515.676 124.503 521.612C124.741 524.566 124.909 526.974 124.979 528.612C125.075 529.481 125.098 530.357 125.049 531.23Z" fill="#263238"/>
<path d="M134.554 460.418C134.753 460.768 134.913 461.139 135.03 461.524L136.248 464.772C136.794 466.172 137.41 467.908 137.998 469.966C138.586 472.024 139.398 474.32 139.972 476.966L140.98 481.068C141.316 482.468 141.554 484.008 141.862 485.562C142.534 488.656 142.94 492.016 143.43 495.544C144.305 503.22 144.633 510.949 144.41 518.672C144.081 526.397 143.201 534.088 141.778 541.688C141.036 545.16 140.378 548.492 139.51 551.488C139.076 553.014 138.726 554.512 138.292 555.912L136.99 560C136.22 562.576 135.268 564.83 134.526 566.832C133.784 568.834 133.126 570.528 132.412 571.886L131.012 575.036C130.865 575.41 130.677 575.767 130.452 576.1C130.547 575.71 130.678 575.331 130.844 574.966C131.18 574.154 131.614 573.09 132.146 571.76C132.678 570.43 133.42 568.68 134.106 566.65C134.792 564.62 135.716 562.45 136.458 559.804C136.85 558.53 137.256 557.186 137.69 555.786C138.124 554.386 138.446 552.902 138.852 551.376C139.692 548.338 140.252 545.034 141.036 541.576C142.401 534.012 143.252 526.365 143.584 518.686C143.805 511.007 143.505 503.322 142.688 495.684C142.212 492.17 141.834 488.824 141.204 485.73C140.91 484.19 140.686 482.678 140.364 481.25C140.042 479.822 139.72 478.45 139.412 477.148C138.866 474.53 138.124 472.22 137.578 470.148C137.032 468.076 136.458 466.34 135.968 464.912L134.918 461.622C134.757 461.234 134.635 460.83 134.554 460.418Z" fill="#263238"/>
<path d="M195.385 437.444C195.4 437.574 195.4 437.706 195.385 437.836C195.385 438.144 195.273 438.508 195.203 438.97C195.021 439.964 194.797 441.434 194.405 443.31C193.621 447.062 192.305 452.466 190.205 459.018C188.105 465.57 185.417 473.27 182.127 481.712C178.837 490.154 175.043 499.366 171.431 509.166C167.819 518.966 164.949 528.5 162.303 537.166C159.657 545.832 157.179 553.616 154.771 560.042C152.928 565.136 150.801 570.123 148.401 574.98C147.575 576.702 146.819 577.99 146.343 578.886L145.769 579.88C145.643 580.104 145.573 580.216 145.559 580.202C145.585 580.074 145.632 579.951 145.699 579.838L146.189 578.802C146.623 577.892 147.323 576.576 148.107 574.826C149.731 571.368 151.943 566.286 154.239 559.832C156.535 553.378 158.999 545.622 161.575 536.942C164.151 528.262 166.993 518.742 170.661 508.942C174.329 499.142 178.109 489.916 181.427 481.488C184.745 473.06 187.573 465.43 189.673 458.906C191.773 452.382 193.159 447.034 194.041 443.31C194.489 441.448 194.769 439.992 195.007 438.998C195.105 438.55 195.203 438.186 195.273 437.892C195.282 437.737 195.32 437.585 195.385 437.444Z" fill="#263238"/>
<path d="M70.1542 418.166C69.5973 417.623 68.875 417.283 68.1021 417.198C67.3292 417.113 66.5501 417.289 65.8887 417.697C65.2273 418.106 64.7215 418.724 64.4518 419.454C64.1821 420.183 64.1639 420.981 64.4002 421.722C65.7868 426.214 67.4898 430.602 69.4962 434.854C75.0962 446.712 91.4762 489.286 99.1622 512.666C106.848 536.046 117.6 579.67 117.6 579.67L133.994 577.01C133.994 577.01 119 505.4 104.398 479.514C92.6242 458.766 80.8362 428.778 70.1542 418.166Z" fill="#455A64"/>
<path d="M103.601 527.296C103.961 527.914 104.247 528.571 104.455 529.256C104.931 530.544 105.603 532.42 106.345 534.758C107.857 539.434 109.705 545.958 111.553 553.224C113.401 560.49 114.969 567.098 116.047 571.886C116.537 574.14 116.943 576.086 117.279 577.556C117.46 578.248 117.573 578.956 117.615 579.67C117.322 579.018 117.097 578.338 116.943 577.64C116.551 576.142 116.047 574.266 115.445 572.04C114.185 567.112 112.547 560.63 110.713 553.462C108.879 546.294 107.115 539.658 105.757 534.954C105.113 532.728 104.567 530.866 104.133 529.354C103.887 528.687 103.709 527.998 103.601 527.296Z" fill="#263238"/>
<path d="M125.888 578.34C125.842 578.2 125.813 578.054 125.804 577.906C125.804 577.556 125.692 577.136 125.608 576.618C125.44 575.484 125.286 573.818 124.936 571.648C124.334 567.336 123.27 561.134 121.506 553.56C119.407 544.706 116.846 535.967 113.834 527.38C110.46 517.664 106.246 507.164 101.472 496.3C91.8261 474.614 82.1941 455.364 75.8521 441.14C72.6601 434.028 70.2521 428.246 68.5441 424.2C67.7181 422.184 67.1441 420.602 66.7101 419.538C66.5141 419.048 66.3741 418.642 66.2481 418.32C66.1855 418.182 66.1431 418.036 66.1221 417.886C66.2073 418.008 66.2777 418.14 66.3321 418.278L66.8641 419.468C67.3541 420.588 68.0121 422.128 68.8661 424.074C70.5881 428.064 73.1501 433.874 76.4121 440.874C82.8801 455 92.6101 474.222 102.27 495.95C107.044 506.828 111.258 517.356 114.59 527.114C117.579 535.742 120.089 544.529 122.108 553.434C123.47 559.444 124.526 565.518 125.272 571.634C125.566 573.79 125.664 575.484 125.79 576.618L125.888 577.92C125.904 578.06 125.904 578.201 125.888 578.34Z" fill="#263238"/>
<path d="M134.051 577.01C133.79 576.093 133.603 575.157 133.491 574.21C133.169 572.292 132.735 569.744 132.217 566.678C131.097 560.322 129.417 551.572 126.883 542.052C124.349 532.532 121.661 524.09 119.533 518C118.497 515.06 117.629 512.638 116.971 510.804C116.609 509.937 116.319 509.043 116.103 508.13C116.57 508.944 116.968 509.797 117.293 510.678C117.993 512.344 118.987 514.766 120.093 517.79C123.056 525.681 125.598 533.723 127.709 541.884C129.828 550.038 131.534 558.295 132.819 566.622C133.281 569.814 133.631 572.404 133.813 574.21C133.962 575.136 134.042 576.072 134.051 577.01Z" fill="#263238"/>
<path d="M167.706 574.658H103.712V652.624H167.706V574.658Z" fill="#25B290"/>
<g opacity="0.3">
<path d="M167.706 574.658H103.712V652.624H167.706V574.658Z" fill="black"/>
</g>
<path d="M147.281 574.658H90.5107V652.624H147.281V574.658Z" fill="#25B290"/>
<path d="M541.674 401.198L508.032 396.326L440.734 406.28L421.848 412.958L425.194 454.258L489.902 466.172L533.554 453.236L550.06 428.946L541.674 401.198Z" fill="#FFBE9D"/>
<path d="M562.884 405.146L534.716 398.51C534.716 398.51 514.822 460.11 465.696 457.408C425.656 455.238 425.194 410.55 425.194 410.55L396.34 419.79C396.34 419.79 385.294 493.808 397.516 546.252C400.316 558.502 404.194 575.008 404.194 575.008L400.288 651.63L613.704 651.966L562.884 405.146Z" fill="#25B290"/>
<g opacity="0.3">
<path d="M479.22 636.762C489.608 636.496 499.184 637.378 509.572 637.126C522.032 636.818 534.59 636.51 546.896 638.526C556.108 640.052 565.096 642.852 574.308 644.308C586.908 646.296 600.334 645.596 611.534 639.534L609.728 629.076L567.196 618.8L479.22 636.762Z" fill="black"/>
</g>
<path d="M372.246 437.038C382.046 424.438 398.23 419.188 398.23 419.188L409.15 514.234L388.472 652.638L320.74 652.316C320.74 652.316 358.092 455.308 372.246 437.038Z" fill="#25B290"/>
<path d="M559.594 404.446C559.594 404.446 605.178 408.1 621.53 482.846C628.922 516.628 638.33 556.206 640.976 582.82C642.922 602.112 632.436 632.324 613.2 634.802L589.008 638.05C584.264 638.733 579.437 638.557 574.756 637.532C559.482 634.018 557.956 623.532 555.156 612.332L548.156 590.044C544.292 568.848 564.046 564.844 574.952 565.138L566.818 468.384L559.594 404.446Z" fill="#25B290"/>
<path d="M392.588 472.038C392.482 472.374 392.411 472.722 392.378 473.074C392.266 473.83 392.112 474.838 391.916 476.084C391.832 476.742 391.72 477.484 391.608 478.268C391.496 479.052 391.44 479.934 391.342 480.872C391.146 482.734 390.922 484.862 390.824 487.228C390.501 492.761 390.463 498.308 390.712 503.846C391.046 510.618 391.719 517.37 392.728 524.076C393.778 531.23 395.094 537.978 396.438 544.082C397.782 550.186 399.084 555.66 400.232 560.252C401.38 564.844 402.346 568.526 403.032 571.074C403.368 572.292 403.634 573.272 403.844 574C403.92 574.347 404.032 574.685 404.18 575.008C404.15 574.657 404.085 574.309 403.984 573.972C403.816 573.216 403.592 572.236 403.312 571.004C402.682 568.358 401.8 564.662 400.708 560.126C399.616 555.59 398.356 550.046 397.082 543.942C395.808 537.838 394.478 531.104 393.442 523.978C392.406 516.852 391.678 509.978 391.37 503.804C391.062 497.63 391.048 491.96 391.37 487.256C391.44 484.89 391.622 482.776 391.776 480.9C391.842 479.966 391.912 479.098 391.986 478.296C392.07 477.512 392.154 476.784 392.224 476.112C392.364 474.866 392.476 473.858 392.546 473.088C392.595 472.74 392.609 472.388 392.588 472.038Z" fill="#263238"/>
<path d="M610.722 591.318C610.691 590.668 610.583 590.024 610.4 589.4C609.953 587.714 609.363 586.07 608.636 584.486C606.244 579.201 602.521 574.629 597.831 571.215C593.141 567.801 587.646 565.664 581.882 565.012C580.15 564.801 578.402 564.745 576.66 564.844C576.018 564.851 575.38 564.931 574.756 565.082C577.095 565.095 579.432 565.24 581.756 565.516C587.389 566.298 592.742 568.457 597.34 571.803C601.939 575.148 605.641 579.577 608.118 584.696C609.101 586.856 609.97 589.066 610.722 591.318Z" fill="#263238"/>
<path d="M600.194 554.106C599.832 554.015 599.459 553.982 599.088 554.008C598.082 553.989 597.077 554.036 596.078 554.148C592.772 554.484 589.533 555.295 586.46 556.556C583.389 557.83 580.514 559.532 577.92 561.61C577.137 562.235 576.393 562.908 575.694 563.626C575.204 564.144 574.952 564.438 574.98 564.48C575.008 564.522 576.212 563.5 578.242 562.016C583.521 558.139 589.668 555.611 596.148 554.652C598.626 554.288 600.194 554.232 600.194 554.106Z" fill="#263238"/>
<path d="M553 457.408C553.102 456.745 553.139 456.075 553.112 455.406C553.112 454.118 553.196 452.27 553.35 449.988C554.167 438.052 557.436 426.414 562.954 415.8C564.004 413.77 564.914 412.146 565.572 411.054C565.941 410.497 566.255 409.906 566.51 409.29C566.063 409.787 565.665 410.326 565.32 410.9C564.592 411.964 563.612 413.546 562.52 415.562C556.708 426.142 553.403 437.915 552.86 449.974C552.776 452.27 552.776 454.174 552.86 455.42C552.838 456.085 552.885 456.751 553 457.408Z" fill="#263238"/>
<path d="M465.696 525.21C465.726 525.478 465.792 525.742 465.892 525.994C466.06 526.498 466.27 527.268 466.648 528.192C467.669 530.867 468.939 533.44 470.442 535.878C475.411 544.005 482.622 550.522 491.209 554.645C499.796 558.768 509.391 560.322 518.84 559.118C521.69 558.763 524.502 558.149 527.24 557.284C528.206 556.99 528.934 556.668 529.424 556.486C529.681 556.402 529.93 556.295 530.166 556.164C530.166 556.094 529.088 556.458 527.156 557.004C524.407 557.774 521.597 558.308 518.756 558.6C509.415 559.698 499.955 558.121 491.476 554.051C482.996 549.981 475.848 543.587 470.862 535.612C469.338 533.216 468.008 530.702 466.886 528.094C466.2 526.246 465.752 525.182 465.696 525.21Z" fill="#263238"/>
<path d="M561.764 630.28C561.834 630.21 562.548 631.232 564.256 632.632C566.754 634.518 569.613 635.871 572.656 636.608C577.137 637.729 581.767 638.14 586.376 637.826C591.584 637.448 597.338 636.832 603.302 635.95C608.919 635.223 614.452 633.947 619.822 632.142C622.063 631.157 624.114 629.788 625.884 628.096C627.444 626.633 628.851 625.014 630.084 623.266C631.909 620.739 633.472 618.033 634.746 615.188C635.18 614.166 635.516 613.382 635.726 612.836C635.808 612.55 635.931 612.276 636.09 612.024C636.037 612.314 635.962 612.599 635.866 612.878C635.698 613.452 635.404 614.278 634.998 615.3C633.823 618.222 632.315 620.998 630.504 623.574C629.279 625.367 627.872 627.028 626.304 628.53C624.498 630.289 622.393 631.711 620.088 632.73C614.685 634.607 609.102 635.916 603.428 636.636C597.422 637.532 591.682 638.12 586.432 638.47C581.753 638.745 577.06 638.272 572.53 637.07C569.464 636.279 566.601 634.848 564.13 632.87C563.479 632.308 562.883 631.684 562.352 631.008C562.125 630.791 561.928 630.547 561.764 630.28Z" fill="#263238"/>
<path d="M554.246 481.208C554.428 481.208 559.244 499.814 564.97 522.886C570.696 545.958 575.19 564.69 574.994 564.746C574.798 564.802 569.996 546.126 564.27 523.054C558.544 499.982 554.05 481.25 554.246 481.208Z" fill="#263238"/>
<path d="M548.437 586.6C548.287 586.1 548.207 585.582 548.199 585.06C548.059 583.665 548.026 582.26 548.101 580.86C548.261 578.723 548.969 576.664 550.159 574.882C550.832 573.822 551.616 572.837 552.497 571.942C553.472 571.01 554.558 570.201 555.731 569.534C559.877 567.358 564.366 565.909 569.003 565.25C570.395 565.05 571.797 564.928 573.203 564.886C573.718 564.809 574.241 564.809 574.757 564.886C574.757 564.998 572.559 565.082 569.073 565.712C564.54 566.493 560.156 567.976 556.081 570.108C554.957 570.747 553.913 571.518 552.973 572.404C552.123 573.257 551.363 574.195 550.705 575.204C549.545 576.865 548.823 578.791 548.605 580.804C548.48 582.2 548.438 583.603 548.479 585.004C548.526 585.536 548.512 586.071 548.437 586.6Z" fill="#263238"/>
<g opacity="0.3">
<path d="M394.688 534.8C383.054 515.102 382.802 489.51 392.952 469C389.702 490.853 390.403 513.112 395.024 534.716" fill="black"/>
</g>
<path d="M413.238 623.154C416.906 616.238 445.508 597.954 445.508 597.954L437.766 596.162L429.212 599.774C428.565 602.674 427.31 605.403 425.53 607.782C422.394 612.262 417.06 607.628 417.06 607.628L420.672 590.31L437.584 580.132C437.584 580.132 453.488 582.568 456.064 583.8L462.84 590.002C465.822 592.34 474.418 601.538 476.77 601.818C479.122 602.098 553 585.508 553 585.508C563.122 593.53 568.4 609.448 570.052 620.942C570.052 620.942 571.858 626.542 569.898 629.65L479.276 636.762L460.068 642.068C454.925 644.195 449.655 646.004 444.29 647.486C437.906 648.886 433.608 646.772 433.426 643.286C433.244 639.8 438.214 639.366 438.214 639.366C442.452 637.845 446.578 636.03 450.562 633.934C453.48 631.99 455.882 629.367 457.562 626.29L450.716 627.102C450.716 627.102 436.156 637.21 430.682 640.178C425.208 643.146 424.13 637.7 423.682 635.978C423.234 634.256 440.034 617.904 440.034 617.904C440.034 617.904 424.06 627.704 421.19 630.224C418.32 632.744 414.064 633.458 413.154 631.792C412.244 630.126 409.584 630.07 413.238 623.154Z" fill="#FFBE9D"/>
<path d="M492.002 624.75C492.083 624.382 492.112 624.005 492.086 623.63C492.102 623.189 492.074 622.748 492.002 622.314C491.946 621.731 491.838 621.155 491.68 620.592C490.769 617.322 489.192 614.276 487.046 611.646C484.954 609.007 482.609 606.578 480.046 604.394C479.04 603.433 477.938 602.579 476.756 601.846C477.688 602.869 478.679 603.837 479.724 604.744C482.162 607.012 484.427 609.459 486.5 612.066C488.598 614.628 490.194 617.564 491.204 620.718C491.932 623.154 491.862 624.764 492.002 624.75Z" fill="#EB996E"/>
<path d="M446.166 597.436C447.804 597.677 449.476 597.528 451.045 597C452.615 596.472 454.037 595.58 455.196 594.398C455.084 594.244 453.334 595.546 450.828 596.358C448.322 597.17 446.166 597.24 446.166 597.436Z" fill="#EB996E"/>
<path d="M441.406 616.392C446.335 614.846 451.122 612.879 455.714 610.512C453.215 611.172 450.778 612.053 448.434 613.144C446.004 614.025 443.653 615.112 441.406 616.392Z" fill="#EB996E"/>
<path d="M456.75 626.08C458.039 625.785 459.289 625.338 460.474 624.75C461.745 624.38 462.968 623.858 464.114 623.196C461.442 623.468 458.896 624.465 456.75 626.08Z" fill="#EB996E"/>
<path d="M443.8 617.652C444.827 618.36 445.767 619.187 446.6 620.116C447.276 621.175 447.822 622.313 448.224 623.504C448.308 623.504 448.392 623.042 448.224 622.314C448.053 621.367 447.66 620.474 447.076 619.71C446.497 618.945 445.743 618.331 444.878 617.918C444.248 617.61 443.8 617.582 443.8 617.652Z" fill="#EB996E"/>
<path d="M437.052 607.082C436.954 607.25 438.214 607.936 439.04 609.378C439.461 610.304 439.802 611.264 440.062 612.248C440.265 611.712 440.329 611.132 440.249 610.565C440.168 609.997 439.945 609.458 439.6 609C438.662 607.376 437.08 606.9 437.052 607.082Z" fill="#EB996E"/>
<path d="M439.32 588.182C439.404 588.182 439.656 587.902 439.866 587.272C440.082 586.446 440.082 585.578 439.866 584.752C439.665 583.921 439.25 583.159 438.662 582.54C438.2 582.078 437.822 581.91 437.766 581.98C438.352 582.898 438.822 583.886 439.166 584.92C439.365 585.995 439.416 587.092 439.32 588.182Z" fill="#EB996E"/>
<path d="M570.641 632.24C570.547 631.548 570.51 630.851 570.529 630.154C570.529 629.482 570.529 628.67 570.431 627.718C570.333 626.766 570.347 625.688 570.207 624.512C569.681 618.299 568.349 612.181 566.245 606.312C565.062 603.106 563.63 599.997 561.961 597.016C561.121 595.616 560.393 594.37 559.553 593.236C559.161 592.662 558.769 592.116 558.391 591.584C558.013 591.052 557.607 590.576 557.229 590.184C554.219 586.474 551.909 584.584 552.021 584.472C552.608 584.845 553.152 585.282 553.645 585.774C554.275 586.302 554.873 586.868 555.437 587.468C556.095 588.154 556.837 588.868 557.635 589.848C558.013 590.324 558.419 590.8 558.839 591.248C559.259 591.696 559.637 592.326 560.057 592.9C560.925 594.034 561.681 595.35 562.535 596.694C564.264 599.69 565.735 602.828 566.931 606.074C569.054 611.987 570.332 618.171 570.725 624.442C570.823 625.632 570.809 626.724 570.837 627.676C570.865 628.628 570.837 629.454 570.837 630.126C570.843 630.835 570.778 631.543 570.641 632.24Z" fill="#263238"/>
<g opacity="0.3">
<path d="M601.734 567.49C593.236 563.981 583.875 563.126 574.882 565.04C582.612 564.684 590.26 566.751 596.759 570.952C603.257 575.154 608.28 581.28 611.128 588.476C611.772 590.212 613.06 592.27 614.908 592.004C616.756 591.738 617.26 589.596 617.26 587.874C617.274 578.816 610.092 570.976 601.734 567.49Z" fill="black"/>
</g>
<path d="M392 465.626C391.581 465.549 391.175 465.413 390.796 465.22C390.026 464.926 388.948 464.436 387.632 463.82C384.197 462.105 380.918 460.096 377.832 457.814C374.757 455.543 371.881 453.014 369.236 450.254C368.228 449.19 367.43 448.294 366.926 447.664C366.422 447.034 366.142 446.656 366.184 446.614C366.226 446.572 367.5 447.874 369.6 449.89C372.329 452.522 375.223 454.977 378.266 457.24C381.317 459.484 384.511 461.528 387.828 463.358C390.46 464.8 392.084 465.528 392 465.626Z" fill="white"/>
<path d="M553.658 470.904C553.553 470.999 553.435 471.079 553.308 471.142L552.23 471.786C551.292 472.36 549.864 473.186 548.03 474.11C542.774 476.808 537.322 479.106 531.72 480.984C523.399 483.737 514.862 485.788 506.198 487.116C495.59 488.695 484.89 489.584 474.166 489.776C462.756 490.042 451.892 489.776 441.966 489.608C433.207 489.485 424.464 488.826 415.786 487.634C409.931 486.804 404.16 485.464 398.538 483.63C396.564 482.958 395.038 482.398 394.03 481.964L392.882 481.474C392.746 481.427 392.614 481.366 392.49 481.292L392.91 481.404L394.086 481.824C395.108 482.216 396.648 482.734 398.636 483.364C404.267 485.075 410.025 486.334 415.856 487.13C424.522 488.238 433.245 488.841 441.98 488.936C451.78 489.118 462.7 489.314 474.082 489.048C484.776 488.86 495.447 487.99 506.03 486.444C514.667 485.16 523.185 483.17 531.496 480.494C537.094 478.665 542.558 476.447 547.848 473.858C549.71 472.934 551.152 472.192 552.048 471.66L553.154 471.086C553.518 470.946 553.644 470.89 553.658 470.904Z" fill="white"/>
<path d="M392.532 520.8C391.941 520.745 391.359 520.623 390.796 520.436L386.134 519.162C382.214 518.056 376.81 516.474 370.846 514.696C364.882 512.918 359.506 511.252 355.614 510.02L351.022 508.536C350.453 508.372 349.9 508.157 349.37 507.892C349.961 507.946 350.543 508.068 351.106 508.256L355.768 509.53C359.688 510.636 365.092 512.218 371.056 513.996C377.02 515.774 382.396 517.426 386.288 518.658L390.88 520.156C391.452 520.311 392.006 520.527 392.532 520.8Z" fill="white"/>
<path d="M396.606 598.178C396.606 598.36 382.606 594.356 365.386 589.218C348.166 584.08 334.32 579.754 334.376 579.558C334.432 579.362 348.376 583.366 365.596 588.518C382.816 593.67 396.662 597.982 396.606 598.178Z" fill="white"/>
<path d="M598.948 430.766C598.477 431.223 597.961 431.631 597.408 431.984C596.4 432.726 594.888 433.762 592.998 434.994C583.11 441.389 572.505 446.6 561.4 450.52C559.272 451.262 557.536 451.822 556.318 452.172C555.702 452.396 555.064 452.556 554.414 452.648C554.997 452.346 555.606 452.097 556.234 451.906L561.232 450.044C565.432 448.434 571.186 446.054 577.346 443.044C583.506 440.034 588.91 436.926 592.746 434.574L597.282 431.774C597.803 431.384 598.361 431.046 598.948 430.766Z" fill="white"/>
<path d="M626.836 510.314C626.107 510.728 625.349 511.088 624.568 511.392C623.098 512.05 620.914 512.918 618.198 513.912C604.001 519.082 589.095 522.048 574 522.704C571.102 522.83 568.764 522.858 567.14 522.802C566.303 522.82 565.466 522.783 564.634 522.69C565.463 522.564 566.301 522.508 567.14 522.522C568.75 522.522 571.088 522.382 573.972 522.186C581.471 521.71 588.93 520.742 596.302 519.288C603.668 517.808 610.93 515.853 618.044 513.436C620.774 512.498 622.972 511.7 624.484 511.126C625.243 510.789 626.03 510.517 626.836 510.314Z" fill="white"/>
<path d="M586.6 637.546C586.589 637.283 586.613 637.019 586.67 636.762C586.754 636.188 586.88 635.46 587.02 634.564C587.16 633.668 587.37 632.436 587.51 631.064C587.65 629.692 587.888 628.152 587.944 626.416C587.944 625.562 588.056 624.652 588.112 623.714C588.168 622.776 588.112 621.782 588.112 620.774C588.112 618.744 588.028 616.574 587.916 614.292C587.548 609.35 586.795 604.444 585.662 599.62C584.474 594.807 582.915 590.094 581 585.522C580.048 583.45 579.194 581.448 578.2 579.67C577.724 578.774 577.29 577.892 576.8 577.066L575.4 574.742C574.546 573.23 573.622 571.942 572.88 570.808C572.138 569.674 571.48 568.694 570.85 567.924L569.534 566.118C569.365 565.918 569.224 565.697 569.114 565.46C569.308 565.63 569.487 565.817 569.646 566.02L571.046 567.756C571.809 568.651 572.524 569.586 573.188 570.556C573.972 571.69 574.924 572.95 575.806 574.448L577.206 576.772C577.696 577.584 578.144 578.48 578.606 579.376C579.614 581.154 580.51 583.156 581.406 585.242C585.44 594.415 587.81 604.233 588.406 614.236C588.49 616.532 588.616 618.716 588.532 620.76C588.532 621.782 588.532 622.776 588.448 623.728C588.364 624.68 588.308 625.576 588.238 626.444C588.14 628.194 587.86 629.734 587.678 631.106C587.496 632.478 587.286 633.654 587.076 634.592C586.866 635.53 586.712 636.202 586.586 636.79C586.618 637.041 586.623 637.294 586.6 637.546Z" fill="white"/>
<path d="M640.612 594.636C640.542 594.636 640.5 593.488 640.178 591.472C639.683 588.624 638.738 585.874 637.378 583.324C635.386 579.537 632.703 576.156 629.468 573.356C625.527 569.898 620.96 567.228 616.014 565.488C611.039 563.826 605.844 562.92 600.6 562.8C596.31 562.681 592.017 562.844 587.748 563.29C584.094 563.626 581.14 564.004 579.096 564.228L576.744 564.48C576.47 564.517 576.192 564.517 575.918 564.48C576.175 564.385 576.443 564.324 576.716 564.298L579.054 563.906C581.084 563.584 584.038 563.15 587.692 562.73C591.984 562.218 596.306 562.003 600.628 562.086C605.943 562.191 611.211 563.102 616.252 564.788C621.284 566.57 625.924 569.308 629.916 572.852C633.188 575.725 635.878 579.199 637.84 583.086C639.169 585.718 640.035 588.56 640.402 591.486C640.512 592.274 640.568 593.069 640.57 593.866C640.613 594.12 640.627 594.378 640.612 594.636Z" fill="white"/>
<path d="M490 554.106C489.741 554.185 489.473 554.232 489.202 554.246L486.92 554.484L478.52 555.184C471.422 555.73 461.608 556.402 450.772 556.962C439.936 557.522 430.094 557.872 422.968 557.956C419.412 557.956 416.528 557.956 414.568 557.956H412.286C412.018 557.965 411.749 557.936 411.488 557.872C411.751 557.818 412.018 557.795 412.286 557.802H414.568L422.968 557.592C430.066 557.382 439.894 556.962 450.73 556.388L478.478 554.82L486.878 554.344L489.174 554.246C489.442 554.163 489.72 554.116 490 554.106Z" fill="white"/>
<g opacity="0.3">
<path d="M498.134 557.018C506.954 559.608 519.134 560.238 527.772 557.018C521.052 566.58 508.074 570.038 496.804 566.93C485.534 563.822 475.16 552.552 474.292 540.89C479.752 548.24 489.314 554.4 498.134 557.018Z" fill="black"/>
</g>
<path d="M569.66 547.792C569.428 547.877 569.189 547.942 568.946 547.988L566.916 548.422C565.138 548.786 562.576 549.262 559.384 549.822C553.014 550.942 544.18 552.314 534.394 553.518C524.608 554.722 515.69 555.506 509.194 555.954C505.974 556.178 503.356 556.332 501.55 556.402L499.478 556.472C499.237 556.511 498.991 556.511 498.75 556.472C498.984 556.411 499.223 556.374 499.464 556.36L501.536 556.15L509.152 555.464C515.592 554.89 524.468 554.064 534.268 552.818C544.068 551.572 552.874 550.326 559.258 549.346L566.818 548.17L568.89 547.876C569.14 547.803 569.4 547.774 569.66 547.792Z" fill="white"/>
<g opacity="0.3">
<path d="M554.988 485.464C552.776 510.804 559.678 535.948 566.524 560.448C566.829 561.97 567.47 563.405 568.4 564.648C568.881 565.269 569.55 565.717 570.307 565.927C571.064 566.136 571.868 566.095 572.6 565.81C574.742 564.718 574.448 561.61 573.846 559.314L554.82 486.514" fill="black"/>
</g>
<path d="M200.508 510.706L229.278 651.966H479.038C480.36 651.966 481.628 651.441 482.562 650.506C483.497 649.571 484.022 648.304 484.022 646.982C484.022 645.66 483.497 644.392 482.562 643.458C481.628 642.523 480.36 641.998 479.038 641.998H428.75L402.08 510.622C401.831 509.399 401.169 508.298 400.206 507.503C399.243 506.708 398.037 506.267 396.788 506.254L205.912 504.168C205.099 504.158 204.293 504.33 203.555 504.672C202.816 505.014 202.164 505.517 201.646 506.144C201.127 506.771 200.756 507.506 200.559 508.296C200.362 509.085 200.345 509.909 200.508 510.706Z" fill="#E0E0E0"/>
<path d="M200.508 510.706C200.471 510.568 200.443 510.427 200.424 510.286C200.37 509.858 200.37 509.425 200.424 508.998C200.523 508.154 200.812 507.343 201.271 506.628C201.729 505.912 202.345 505.31 203.07 504.868C203.582 504.564 204.14 504.346 204.722 504.224C205.368 504.103 206.026 504.061 206.682 504.098H211.176L222.376 504.196L294.546 504.882L344.862 505.386L373.058 505.68L387.842 505.834L395.388 505.904C396.032 505.904 396.634 505.904 397.32 505.904C397.993 505.97 398.648 506.16 399.252 506.464C400.502 507.051 401.496 508.07 402.052 509.334C402.296 509.952 402.47 510.595 402.57 511.252L402.962 513.156C403.214 514.416 403.48 515.69 403.732 516.964C404.264 519.526 404.782 522.102 405.314 524.678L408.506 540.4C410.662 550.993 412.865 561.834 415.114 572.922C419.622 595.07 424.312 618.1 429.114 641.844L428.778 641.564H478.226C478.877 641.533 479.529 641.57 480.172 641.676C481.512 642.007 482.674 642.839 483.42 644C483.845 644.617 484.135 645.316 484.272 646.053C484.409 646.789 484.39 647.546 484.216 648.275C484.041 649.003 483.716 649.687 483.261 650.282C482.805 650.877 482.23 651.369 481.572 651.728C480.848 652.119 480.043 652.334 479.22 652.358H414.162H346.542H229.278H229.068V652.148C220.262 608.748 213.108 573.412 208.152 548.94C205.702 536.704 203.784 527.184 202.482 520.716C201.838 517.482 201.348 515.018 201.082 513.352C200.816 511.686 200.62 510.832 200.62 510.832C200.62 510.832 200.816 511.686 201.166 513.338L202.706 520.674C204.036 527.142 205.996 536.662 208.516 548.87L229.656 652.05L229.39 651.826H346.654H479.318C480.032 651.798 480.73 651.612 481.362 651.28C481.934 650.966 482.434 650.536 482.829 650.017C483.224 649.498 483.506 648.902 483.656 648.267C483.807 647.633 483.822 646.973 483.702 646.332C483.582 645.691 483.328 645.083 482.958 644.546C482.301 643.581 481.299 642.904 480.158 642.656C479.561 642.56 478.956 642.523 478.352 642.544H428.47V642.278C423.654 618.478 418.992 595.49 414.47 573.342C412.221 562.272 410.023 551.432 407.876 540.82L404.6 524.888C404.082 522.298 403.564 519.736 403.046 517.174C402.78 515.9 402.528 514.626 402.262 513.352L401.884 511.462C401.792 510.843 401.628 510.236 401.394 509.656C400.926 508.541 400.078 507.628 399 507.08C398.46 506.813 397.877 506.643 397.278 506.576C396.69 506.576 396.018 506.576 395.402 506.576L387.842 506.492L373.058 506.324L344.876 505.988L294.56 505.4L222.39 504.518L211.19 504.364L206.696 504.294C206.05 504.254 205.402 504.287 204.764 504.392C204.198 504.518 203.655 504.731 203.154 505.022C202.433 505.446 201.819 506.03 201.36 506.729C200.902 507.428 200.61 508.224 200.508 509.054C200.438 509.602 200.438 510.157 200.508 510.706Z" fill="#263238"/>
<path d="M315.588 575.4C315.588 577.031 315.104 578.625 314.198 579.981C313.292 581.337 312.004 582.394 310.497 583.018C308.991 583.642 307.333 583.806 305.733 583.487C304.133 583.169 302.664 582.384 301.511 581.231C300.358 580.077 299.572 578.608 299.254 577.009C298.936 575.409 299.099 573.751 299.723 572.244C300.348 570.737 301.404 569.45 302.76 568.544C304.117 567.637 305.711 567.154 307.342 567.154C309.529 567.154 311.626 568.023 313.173 569.569C314.719 571.115 315.588 573.213 315.588 575.4Z" fill="white"/>
<path d="M200.732 511.854C200.732 511.854 201.026 511.854 201.6 511.854H213.836L249.55 512.022L367.36 512.848L384.398 512.988H388.598C389.315 512.954 390.033 512.997 390.74 513.114C391.458 513.254 392.142 513.53 392.756 513.926C394.004 514.714 394.909 515.944 395.29 517.37C395.612 518.77 395.836 520.058 396.116 521.402C398.23 532.042 400.316 542.304 402.206 552.076C406.07 571.676 409.556 589.246 412.468 604.044L419.342 639.044C420.126 643.174 420.742 646.38 421.176 648.578C421.372 649.656 421.526 650.482 421.638 651.07C421.75 651.658 421.764 651.91 421.764 651.91C421.764 651.91 421.68 651.63 421.568 651.084C421.456 650.538 421.26 649.684 421.036 648.606C420.588 646.408 419.93 643.216 419.076 639.1C417.396 630.812 414.988 618.856 411.992 604.1L401.576 552.16C399.63 542.36 397.572 532.126 395.458 521.486C395.178 520.17 394.926 518.798 394.646 517.51C394.299 516.252 393.495 515.169 392.392 514.472C391.842 514.138 391.234 513.91 390.6 513.8C389.939 513.691 389.268 513.653 388.598 513.688H384.398L367.36 513.562L249.536 512.526L213.836 512.134L204.12 511.994H201.6L200.732 511.854Z" fill="#263238"/>
<path d="M534.282 297.318C534.57 310.379 532.089 323.354 527.003 335.387C521.916 347.421 514.339 358.241 504.77 367.136C500.356 354.396 495.955 341.656 491.568 328.916" fill="#263238"/>
<path d="M434.827 221.298C446.153 215.11 459.831 214.214 472.487 216.748C485.143 219.282 496.931 225.008 508.103 231.476C514.375 235.102 520.619 239.092 525.127 244.748C533.345 255.094 541.479 272.09 542.263 285.348C542.907 296.016 538.819 322.714 534.311 332.402C530.181 341.292 510.819 348.068 501.257 350.266L413.561 248.206C415.146 242.535 417.842 237.237 421.493 232.617C425.144 227.998 429.676 224.15 434.827 221.298Z" fill="#263238"/>
<path d="M419.706 235.046L440.706 231.294C429.212 258.664 426.09 321.244 419.524 350.196C411.768 338.996 393.778 304.696 394.744 291.074C395.71 277.452 394.8 232.736 419.706 235.046Z" fill="#263238"/>
<path d="M519.4 280.602C518.266 264.614 507.906 251.51 492.38 247.548L443.954 235.2C423.038 232.946 409.066 258.678 407.694 279.678C406.168 303.016 405.23 327.628 407.96 345.044C413.434 380.044 440.258 384.58 440.258 384.58C440.258 384.58 440.258 401.24 440.258 411.46L456.456 478.534L508.662 406.406L519.47 281.05C519.512 280.434 519.4 281.4 519.4 280.602Z" fill="#FFBE9D"/>
<path d="M418.208 306.124C418.196 307.294 418.642 308.423 419.45 309.27C420.258 310.118 421.364 310.616 422.534 310.66C423.106 310.705 423.68 310.636 424.225 310.457C424.769 310.277 425.272 309.99 425.704 309.613C426.135 309.236 426.487 308.777 426.739 308.261C426.99 307.746 427.136 307.186 427.168 306.614C427.18 305.446 426.737 304.319 425.932 303.472C425.127 302.625 424.024 302.125 422.856 302.078C422.284 302.03 421.707 302.098 421.162 302.277C420.616 302.455 420.111 302.742 419.678 303.119C419.244 303.496 418.891 303.957 418.639 304.473C418.386 304.989 418.24 305.55 418.208 306.124Z" fill="#263238"/>
<path d="M413 293.384C413.56 293.972 416.962 291.466 421.792 291.48C426.622 291.494 430.192 293.93 430.682 293.342C430.948 293.076 430.374 292.026 428.834 290.892C426.747 289.44 424.264 288.668 421.722 288.68C419.211 288.671 416.761 289.455 414.722 290.92C413.182 292.068 412.678 293.118 413 293.384Z" fill="#263238"/>
<path d="M460.321 306.124C460.309 307.294 460.754 308.423 461.562 309.27C462.37 310.117 463.477 310.616 464.647 310.66C465.219 310.707 465.796 310.639 466.342 310.459C466.888 310.279 467.392 309.991 467.825 309.613C468.257 309.234 468.609 308.772 468.859 308.254C469.109 307.736 469.252 307.174 469.281 306.6C469.292 305.431 468.849 304.304 468.044 303.458C467.239 302.611 466.136 302.111 464.969 302.064C464.395 302.016 463.818 302.084 463.271 302.264C462.724 302.443 462.219 302.731 461.785 303.11C461.352 303.489 460.999 303.95 460.747 304.468C460.495 304.986 460.35 305.549 460.321 306.124Z" fill="#263238"/>
<path d="M458.822 293.384C459.382 293.972 462.798 291.466 467.628 291.48C472.458 291.494 476.028 293.93 476.518 293.342C476.77 293.076 476.21 292.026 474.67 290.892C472.593 289.453 470.127 288.681 467.6 288.68C465.09 288.676 462.642 289.459 460.6 290.92C459.06 292.068 458.556 293.118 458.822 293.384Z" fill="#263238"/>
<path d="M443.8 331.324C443.8 331.058 440.818 330.526 435.946 329.924C434.714 329.798 433.552 329.546 433.342 328.706C433.24 327.431 433.533 326.155 434.182 325.052C435.348 322.075 436.571 318.943 437.85 315.658C442.946 302.302 446.628 291.312 446.096 291.116C445.564 290.92 440.986 301.574 435.89 314.916C434.658 318.201 433.486 321.347 432.376 324.352C431.595 325.84 431.363 327.554 431.718 329.196C431.895 329.632 432.171 330.022 432.523 330.335C432.875 330.648 433.294 330.876 433.748 331.002C434.426 331.197 435.128 331.296 435.834 331.296C440.664 331.576 443.702 331.604 443.8 331.324Z" fill="#263238"/>
<path d="M486.696 372.106C486.696 372.106 475.3 396.2 440.272 392.798V384.566C456.602 384.791 472.674 380.477 486.696 372.106Z" fill="#EB996E"/>
<path d="M460.348 275.926C460.824 277.242 465.64 276.626 471.31 277.326C476.98 278.026 481.558 279.58 482.314 278.404C482.65 277.83 481.852 276.598 480.004 275.324C477.551 273.752 474.757 272.791 471.856 272.524C468.958 272.169 466.017 272.505 463.274 273.504C461.188 274.274 460.138 275.296 460.348 275.926Z" fill="#263238"/>
<path d="M414.527 278.6C415.367 279.706 418.727 278.6 422.703 278.53C426.679 278.46 430.095 279.286 430.879 278.138C431.215 277.578 430.683 276.486 429.213 275.436C427.225 274.19 424.913 273.562 422.568 273.629C420.224 273.696 417.952 274.456 416.039 275.814C414.611 276.934 414.149 278.068 414.527 278.6Z" fill="#263238"/>
<path d="M417.201 247.688C419.343 242.424 425.125 239.288 430.795 238.98C436.465 238.672 441.995 240.842 446.951 243.684C467.797 255.738 478.521 284.844 499.115 297.318C504.183 300.384 510.777 297.57 515.089 301.63C519.401 305.69 522.187 312.186 519.807 317.604C522.758 313.94 525.167 309.871 526.961 305.522C528.529 301.084 528.725 295.946 526.373 291.872C524.595 288.778 521.445 286.426 520.591 282.968C519.821 279.916 521.025 276.738 520.899 273.602C520.542 270.415 519.444 267.356 517.693 264.67C509.615 250.404 498.513 237.496 484.219 229.46C474.886 224.072 464.263 221.327 453.489 221.522C442.652 221.765 432.262 225.882 424.201 233.128C419.595 237.426 414.751 241.864 417.201 247.688Z" fill="#263238"/>
<path d="M514.584 305.97C514.948 304.962 533.218 298.382 533.456 317.786C533.694 336.644 514.668 332.934 514.626 332.388C514.584 331.842 514.584 305.97 514.584 305.97Z" fill="#FFBE9D"/>
<path d="M520.38 325.192C520.464 325.192 520.702 325.416 521.262 325.668C522.053 325.983 522.935 325.983 523.726 325.668C525.7 324.926 527.352 321.734 527.408 318.346C527.447 316.726 527.121 315.119 526.456 313.642C526.27 313.055 525.944 312.523 525.508 312.089C525.072 311.655 524.537 311.333 523.95 311.15C523.574 311.052 523.176 311.09 522.825 311.256C522.475 311.422 522.194 311.707 522.032 312.06C521.78 312.592 521.906 312.97 521.794 312.998C521.682 313.026 521.388 312.69 521.542 311.906C521.645 311.443 521.901 311.028 522.27 310.73C522.523 310.531 522.812 310.384 523.122 310.297C523.432 310.211 523.756 310.186 524.076 310.226C524.853 310.37 525.58 310.713 526.185 311.221C526.791 311.729 527.256 312.384 527.534 313.124C528.358 314.744 528.767 316.543 528.724 318.36C528.64 322.168 526.736 325.738 524.006 326.55C523.504 326.702 522.974 326.74 522.455 326.66C521.937 326.58 521.443 326.385 521.01 326.088C520.408 325.654 520.31 325.234 520.38 325.192Z" fill="#EB996E"/>
<path d="M522.088 296.282C521.693 296.105 521.313 295.894 520.954 295.652C520.226 295.19 519.106 294.574 517.79 293.636C514.072 290.919 510.655 287.812 507.598 284.368C503.152 279.214 498.996 273.816 495.152 268.198C490.521 261.313 485.318 254.832 479.598 248.822C476.545 245.819 473.175 243.157 469.546 240.884C466.146 238.811 462.507 237.156 458.71 235.956C452.265 233.888 445.486 233.057 438.732 233.506C434.175 233.784 429.674 234.664 425.348 236.124C423.794 236.6 422.646 237.118 421.848 237.426C421.452 237.608 421.039 237.753 420.616 237.86C420.989 237.636 421.377 237.44 421.778 237.272C422.901 236.735 424.056 236.267 425.236 235.872C429.559 234.263 434.089 233.282 438.69 232.96C445.524 232.401 452.402 233.161 458.948 235.2C462.82 236.393 466.529 238.057 469.994 240.156C473.677 242.463 477.099 245.162 480.2 248.206C485.956 254.275 491.175 260.833 495.796 267.806C499.599 273.424 503.693 278.84 508.06 284.032C511.056 287.482 514.38 290.633 517.986 293.44C519.274 294.406 520.352 295.064 521.038 295.568C521.407 295.776 521.759 296.015 522.088 296.282Z" fill="#455A64"/>
<path d="M522.523 328.524C523.451 328.353 524.409 328.542 525.203 329.053C525.997 329.563 526.566 330.357 526.795 331.273C527.023 332.189 526.895 333.157 526.435 333.981C525.974 334.805 525.218 335.423 524.318 335.709C523.418 335.994 522.444 335.926 521.593 335.518C520.741 335.111 520.078 334.394 519.736 333.514C519.395 332.634 519.402 331.657 519.756 330.782C520.11 329.907 520.784 329.199 521.641 328.804" fill="white"/>
<path d="M521.64 328.804C520.831 329.457 520.24 330.341 519.946 331.338C519.812 331.852 519.808 332.391 519.935 332.907C520.062 333.423 520.316 333.899 520.674 334.292C521.095 334.788 521.653 335.149 522.278 335.33C522.903 335.51 523.568 335.502 524.188 335.306C524.809 335.11 525.358 334.735 525.766 334.229C526.175 333.722 526.424 333.106 526.484 332.458C526.541 331.935 526.469 331.406 526.274 330.918C526.078 330.43 525.766 329.997 525.364 329.658C524.564 329.017 523.587 328.636 522.564 328.566C522.564 328.566 522.844 328.37 523.446 328.356C524.3 328.363 525.127 328.653 525.798 329.182C526.322 329.57 526.737 330.088 527.002 330.684C527.267 331.28 527.373 331.935 527.31 332.584C527.257 333.396 526.96 334.173 526.458 334.814C525.957 335.455 525.273 335.93 524.498 336.176C523.722 336.423 522.89 336.429 522.111 336.196C521.331 335.962 520.64 335.499 520.128 334.866C519.704 334.373 519.414 333.779 519.286 333.141C519.159 332.504 519.198 331.844 519.4 331.226C519.622 330.41 520.116 329.694 520.8 329.196C521.29 328.818 521.626 328.762 521.64 328.804Z" fill="#263238"/>
<path d="M517.342 301.616C517.636 306.768 517.874 312.2 515.494 316.778C513.114 321.356 507.094 324.478 502.642 321.916C498.988 319.83 497.896 315.14 497.266 310.982C495.488 298.97 494.662 286.832 492.772 274.834L517.342 301.616Z" fill="#263238"/>
<path d="M421.848 238.728C421.848 238.826 423.514 238.406 426.524 238.308C430.796 238.243 435.039 239.018 439.012 240.59C441.752 241.651 444.371 243.003 446.824 244.622C449.635 246.509 452.328 248.566 454.888 250.782C460.819 255.798 466.122 261.515 470.68 267.806C473.074 271.166 475.202 274.624 477.498 277.83C479.678 280.947 482.215 283.799 485.058 286.328C489.947 290.472 495.292 294.046 500.99 296.982C505.82 299.53 509.852 301.322 512.638 302.582L515.858 303.982C516.229 304.164 516.618 304.304 517.02 304.402C516.689 304.162 516.332 303.96 515.956 303.8L512.806 302.246C510.006 300.846 506.1 298.998 501.354 296.38C495.759 293.368 490.511 289.753 485.702 285.6C482.927 283.098 480.455 280.278 478.338 277.2C476.084 274.036 473.97 270.578 471.548 267.176C466.94 260.817 461.56 255.057 455.532 250.026C452.918 247.804 450.169 245.746 447.3 243.866C444.779 242.247 442.089 240.909 439.278 239.876C435.206 238.333 430.858 237.656 426.51 237.888C425.336 237.956 424.17 238.12 423.024 238.378C422.617 238.44 422.222 238.558 421.848 238.728Z" fill="#455A64"/>
<path d="M517.86 289.968C518.37 290.405 518.929 290.781 519.526 291.088L524.314 293.888L525.91 294.798C526.541 295.179 527.249 295.414 527.982 295.484C528.428 295.532 528.877 295.429 529.256 295.19C529.459 295.048 529.627 294.862 529.748 294.646C529.869 294.431 529.94 294.191 529.956 293.944C529.915 293.078 529.607 292.247 529.074 291.564L523.474 282.688L522.718 283.374C526.415 286.097 530.944 287.448 535.528 287.196C536.114 287.191 536.696 287.092 537.25 286.902C537.56 286.8 537.846 286.634 538.087 286.415C538.328 286.195 538.52 285.927 538.65 285.628C538.758 285.308 538.785 284.967 538.728 284.635C538.672 284.303 538.535 283.99 538.328 283.724C538.017 283.295 537.66 282.9 537.264 282.548C534.775 280.141 532.614 277.415 530.838 274.442C529.273 271.648 527.906 268.748 526.75 265.762C526.838 266.629 527.041 267.481 527.352 268.296C528.057 270.562 528.995 272.748 530.152 274.82C531.873 277.907 534.022 280.735 536.536 283.22C537.236 283.892 537.936 284.62 537.67 285.25C537.404 285.88 536.368 286.146 535.374 286.146C533.218 286.254 531.059 285.994 528.99 285.376C526.929 284.771 524.984 283.824 523.236 282.576L520.996 280.924L522.494 283.262L528.094 292.068C528.531 292.595 528.808 293.236 528.892 293.916C528.892 294.448 528.416 294.756 527.814 294.714C526.604 294.475 525.452 293.999 524.426 293.314L519.498 290.794C518.983 290.461 518.434 290.185 517.86 289.968Z" fill="#455A64"/>
<path d="M462.098 340.2C461.747 338.765 460.902 337.499 459.712 336.624C458.522 335.749 457.062 335.32 455.588 335.412C454.511 335.544 453.484 335.942 452.599 336.57C451.715 337.198 451 338.036 450.52 339.01C450.051 339.989 449.783 341.052 449.732 342.137C449.682 343.221 449.85 344.305 450.226 345.324L450.338 345.772C451.344 346.855 452.659 347.602 454.105 347.91C455.551 348.218 457.056 348.073 458.416 347.494C459.748 346.853 460.83 345.791 461.496 344.472C462.162 343.153 462.374 341.651 462.098 340.2Z" fill="#EB996E"/>
<path d="M446.824 345.912C446.824 345.184 451.71 345.408 455.392 341.404C459.074 337.4 458.78 332.164 459.466 332.164C459.774 332.164 460.362 333.368 460.306 335.58C460.206 338.438 459.1 341.17 457.184 343.294C455.335 345.336 452.765 346.581 450.016 346.766C448 346.85 446.782 346.248 446.824 345.912Z" fill="#263238"/>
<path d="M611.408 642.6C611.301 642.614 611.193 642.614 611.086 642.6L610.106 642.698L606.368 643.006C603.12 643.272 598.416 643.58 592.592 643.93C580.958 644.616 564.872 645.33 547.092 645.624C529.312 645.918 513.184 645.75 501.536 645.442C495.712 645.302 490.994 645.134 487.746 644.994L483.994 644.798H487.746L501.55 645.036C513.198 645.204 529.298 645.288 547.078 645.036C564.858 644.784 580.93 644.112 592.564 643.552L606.354 642.866L610.106 642.698H611.072L611.408 642.6Z" fill="white"/>
</svg>
