<svg width="230" height="50" viewBox="0 0 230 50" fill="none" xmlns="http://www.w3.org/2000/svg">
<path d="M50.7476 15.1874C49.6393 13.9364 48.245 12.6125 47.3674 11.9773C45.6951 10.7669 43.6852 9.87888 41.0159 9.17086C39.8832 8.87043 40.2669 8.79204 42.1206 8.94528C45.0575 9.1881 47.8886 10.2755 49.1138 11.6313C49.979 12.5886 50.9613 14.1213 51.4796 15.3218C51.8095 16.0863 51.8055 16.0683 51.6478 16.0683C51.582 16.0683 51.1769 15.6719 50.7476 15.1874Z" fill="#FFFFFA"/>
<path d="M14.5143 49.627C14.2147 49.6139 13.3281 49.5486 12.5443 49.4824C8.67741 49.1546 5.94081 48.4158 3.8288 47.1292C3.11939 46.6971 1.45944 45.2285 1.11061 44.7245C0.0845132 43.2418 -0.29013 40.9495 0.23928 39.393C0.743691 37.9101 1.80682 36.5724 3.29832 35.5441C4.68288 34.5895 5.61464 33.7127 6.80989 32.2397C8.68928 29.9236 10.3666 26.5143 11.4208 22.8678C12.4448 19.326 13.7231 16.8731 15.594 14.8599C17.3995 12.9171 19.7319 11.6063 22.8134 10.8024C23.8169 10.5407 23.9145 10.5296 25.1187 10.5413C30.5378 10.5938 34.9004 12.1642 38.5202 15.3654C40.5277 17.1407 42.3131 19.7318 42.7622 21.5213C43.607 24.8888 43.6195 28.7268 42.7975 32.4047C42.0006 35.97 40.3475 39.2902 38.0639 41.9124C37.268 42.8263 35.4928 44.4419 34.5866 45.0769C32.0923 46.825 29.3735 47.997 26.0525 48.7557C24.9511 49.0075 21.7674 49.4673 20.2147 49.5993C19.3483 49.6728 15.9121 49.6894 14.5143 49.627Z" fill="#FFFFFA"/>
<path d="M33.2972 11.6198C33.2692 11.5779 33.2845 11.4116 33.3314 11.2504C33.3783 11.0891 33.4977 10.5721 33.5968 10.1016C34.1101 7.66502 35.1677 5.24991 36.5769 3.29645C37.2432 2.37267 38.8206 0.853967 39.5789 0.406069C40.8029 -0.316936 42.0096 -0.0866194 43.7111 1.19475C45.5581 2.58564 45.8797 2.98233 45.6218 3.55154C45.5481 3.71421 45.3257 3.94592 45.0882 4.10755C44.5666 4.46249 43.0208 5.15971 42.151 5.43236C39.4605 6.27569 36.8934 8.05661 34.3276 10.8599C33.5995 11.6555 33.4132 11.7928 33.2972 11.6198Z" fill="#FFFFFA"/>
<path d="M52.2544 19.7325C52.2441 19.386 51.9982 18.4095 51.856 18.1508C51.5716 17.6336 50.4933 16.8268 49.6776 16.5209C49.0438 16.2831 48.059 16.1332 46.1484 15.9838C45.2969 15.9172 44.2613 15.812 43.847 15.75C40.5855 15.2615 38.3817 13.7313 36.8044 10.8598L36.4141 10.1493L36.9504 9.62223C37.5461 9.03695 38.2231 8.54803 39.2777 7.94155C40.2392 7.38873 41.8259 6.66309 42.6031 6.42087C43.3422 6.19054 43.5939 6.19872 45.2746 6.50801C49.3578 7.25938 52.1804 9.3051 53.2029 12.2542C53.5525 13.262 53.6305 13.7462 53.63 14.8959C53.629 16.4415 53.2957 17.8691 52.5996 19.3101C52.3552 19.8157 52.2609 19.9314 52.2544 19.7325ZM51.7553 15.9826C51.7553 15.9606 51.6264 15.6452 51.4684 15.2818C50.951 14.0905 49.9704 12.5696 49.1066 11.6197C48.168 10.5871 46.068 9.61185 43.8626 9.18423C42.6394 8.94708 40.374 8.78898 40.374 8.94075C40.374 8.97725 40.6659 9.08408 41.0226 9.17809C43.6873 9.88068 45.6938 10.7619 47.3632 11.963C48.2393 12.5933 49.6312 13.9071 50.7377 15.1484C51.1662 15.6292 51.5706 16.0225 51.6363 16.0225C51.7019 16.0225 51.7553 16.0045 51.7553 15.9826Z" fill="#FFFFFA"/>
<path d="M65.5172 39L67.9772 14.25H73.1372L79.0472 29.73L84.9572 14.25H90.1172L92.5772 39H87.7172L86.1872 22.98L80.5322 38.385H77.5472L71.9072 22.98L70.3622 39H65.5172ZM95.0907 39L105.036 14.25H109.551L119.481 39H114.246L112.146 33.36H102.426L100.326 39H95.0907ZM104.091 29.1H110.496L107.286 20.805L104.091 29.1ZM123.142 39V14.25H128.002L138.667 30.9V14.25H143.527V39H138.667L128.002 22.35V39H123.142ZM160.621 39.48C158.921 39.48 157.336 39.155 155.866 38.505C154.396 37.855 153.111 36.95 152.011 35.79C150.911 34.62 150.051 33.255 149.431 31.695C148.811 30.135 148.501 28.445 148.501 26.625C148.501 24.885 148.791 23.245 149.371 21.705C149.951 20.155 150.786 18.79 151.876 17.61C152.966 16.42 154.281 15.49 155.821 14.82C157.361 14.14 159.086 13.8 160.996 13.8C162.076 13.8 163.161 13.92 164.251 14.16C165.351 14.4 166.406 14.755 167.416 15.225C168.426 15.685 169.336 16.25 170.146 16.92L167.866 20.685C166.996 19.875 165.941 19.25 164.701 18.81C163.471 18.36 162.256 18.135 161.056 18.135C159.876 18.135 158.831 18.345 157.921 18.765C157.021 19.175 156.261 19.755 155.641 20.505C155.021 21.255 154.551 22.135 154.231 23.145C153.911 24.145 153.751 25.235 153.751 26.415C153.751 27.705 153.931 28.875 154.291 29.925C154.651 30.975 155.151 31.88 155.791 32.64C156.441 33.4 157.196 33.985 158.056 34.395C158.926 34.805 159.861 35.01 160.861 35.01C161.661 35.01 162.431 34.88 163.171 34.62C163.921 34.35 164.586 33.975 165.166 33.495C165.746 33.015 166.206 32.45 166.546 31.8C166.886 31.15 167.056 30.44 167.056 29.67V29.295H160.561V25.53H172.006V29.28C172.006 30.79 171.691 32.17 171.061 33.42C170.441 34.66 169.591 35.735 168.511 36.645C167.431 37.545 166.211 38.245 164.851 38.745C163.491 39.235 162.081 39.48 160.621 39.48ZM187.581 39.48C185.851 39.48 184.231 39.15 182.721 38.49C181.211 37.83 179.886 36.915 178.746 35.745C177.606 34.565 176.711 33.2 176.061 31.65C175.421 30.09 175.101 28.42 175.101 26.64C175.101 24.86 175.421 23.195 176.061 21.645C176.711 20.085 177.606 18.72 178.746 17.55C179.886 16.37 181.211 15.45 182.721 14.79C184.231 14.13 185.851 13.8 187.581 13.8C189.311 13.8 190.931 14.13 192.441 14.79C193.951 15.45 195.276 16.37 196.416 17.55C197.556 18.72 198.446 20.085 199.086 21.645C199.736 23.195 200.061 24.86 200.061 26.64C200.061 28.42 199.736 30.09 199.086 31.65C198.446 33.2 197.556 34.565 196.416 35.745C195.276 36.915 193.951 37.83 192.441 38.49C190.931 39.15 189.311 39.48 187.581 39.48ZM187.566 34.8C188.626 34.8 189.596 34.6 190.476 34.2C191.356 33.8 192.121 33.235 192.771 32.505C193.421 31.775 193.926 30.915 194.286 29.925C194.646 28.925 194.826 27.83 194.826 26.64C194.826 25.45 194.646 24.36 194.286 23.37C193.926 22.37 193.421 21.505 192.771 20.775C192.121 20.045 191.356 19.48 190.476 19.08C189.596 18.68 188.626 18.48 187.566 18.48C186.526 18.48 185.561 18.68 184.671 19.08C183.791 19.48 183.026 20.045 182.376 20.775C181.726 21.505 181.221 22.37 180.861 23.37C180.511 24.36 180.336 25.45 180.336 26.64C180.336 27.83 180.511 28.925 180.861 29.925C181.221 30.915 181.726 31.775 182.376 32.505C183.026 33.235 183.791 33.8 184.671 34.2C185.561 34.6 186.526 34.8 187.566 34.8ZM215.677 39.48C213.947 39.48 212.327 39.15 210.817 38.49C209.307 37.83 207.982 36.915 206.842 35.745C205.702 34.565 204.807 33.2 204.157 31.65C203.517 30.09 203.197 28.42 203.197 26.64C203.197 24.86 203.517 23.195 204.157 21.645C204.807 20.085 205.702 18.72 206.842 17.55C207.982 16.37 209.307 15.45 210.817 14.79C212.327 14.13 213.947 13.8 215.677 13.8C217.407 13.8 219.027 14.13 220.537 14.79C222.047 15.45 223.372 16.37 224.512 17.55C225.652 18.72 226.542 20.085 227.182 21.645C227.832 23.195 228.157 24.86 228.157 26.64C228.157 28.42 227.832 30.09 227.182 31.65C226.542 33.2 225.652 34.565 224.512 35.745C223.372 36.915 222.047 37.83 220.537 38.49C219.027 39.15 217.407 39.48 215.677 39.48ZM215.662 34.8C216.722 34.8 217.692 34.6 218.572 34.2C219.452 33.8 220.217 33.235 220.867 32.505C221.517 31.775 222.022 30.915 222.382 29.925C222.742 28.925 222.922 27.83 222.922 26.64C222.922 25.45 222.742 24.36 222.382 23.37C222.022 22.37 221.517 21.505 220.867 20.775C220.217 20.045 219.452 19.48 218.572 19.08C217.692 18.68 216.722 18.48 215.662 18.48C214.622 18.48 213.657 18.68 212.767 19.08C211.887 19.48 211.122 20.045 210.472 20.775C209.822 21.505 209.317 22.37 208.957 23.37C208.607 24.36 208.432 25.45 208.432 26.64C208.432 27.83 208.607 28.925 208.957 29.925C209.317 30.915 209.822 31.775 210.472 32.505C211.122 33.235 211.887 33.8 212.767 34.2C213.657 34.6 214.622 34.8 215.662 34.8Z" fill="#FFFFFA"/>
</svg>
