<svg width="78" height="78" viewBox="0 0 78 78" fill="none" xmlns="http://www.w3.org/2000/svg">
<path d="M38.6871 66.948C29.0871 66.948 20.6007 62.0328 15.6471 54.66C15.7623 46.98 31.0071 42.756 38.6871 42.756C46.3671 42.756 61.6119 46.98 61.7271 54.66C56.7735 62.0328 48.2871 66.948 38.6871 66.948ZM38.6871 12.42C41.7424 12.42 44.6726 13.6337 46.833 15.7942C48.9934 17.9546 50.2071 20.8847 50.2071 23.94C50.2071 26.9953 48.9934 29.9255 46.833 32.0859C44.6726 34.2463 41.7424 35.46 38.6871 35.46C35.6318 35.46 32.7017 34.2463 30.5412 32.0859C28.3808 29.9255 27.1671 26.9953 27.1671 23.94C27.1671 20.8847 28.3808 17.9546 30.5412 15.7942C32.7017 13.6337 35.6318 12.42 38.6871 12.42ZM38.6871 0.900024C33.6444 0.900024 28.651 1.89327 23.9921 3.82305C19.3332 5.75283 15.1 8.58136 11.5342 12.1471C4.33281 19.3485 0.287109 29.1157 0.287109 39.3C0.287109 49.4843 4.33281 59.2515 11.5342 66.4529C15.1 70.0187 19.3332 72.8472 23.9921 74.777C28.651 76.7068 33.6444 77.7 38.6871 77.7C48.8714 77.7 58.6386 73.6543 65.84 66.4529C73.0414 59.2515 77.0871 49.4843 77.0871 39.3C77.0871 18.0648 59.8071 0.900024 38.6871 0.900024Z" fill="#F1F1F1"/>
</svg>
