<svg width="745" height="629" viewBox="0 0 745 629" fill="none" xmlns="http://www.w3.org/2000/svg">
<path fill-rule="evenodd" clip-rule="evenodd" d="M371.601 48.0366C690.269 62.8212 858.233 378.53 658.947 485.358C615.191 508.824 554.1 449.723 448.741 494.229C351.029 535.493 275.667 668.062 141.183 617.775C53.3681 584.927 38.7765 463.863 30.0897 407.284C-27.1411 34.3134 15.1007 31.4892 371.601 48.0366Z" fill="#DCFFF4"/>
<path d="M449.971 206.575C446.499 202.657 442.131 198.509 439.382 196.519C434.144 192.728 427.848 189.946 419.486 187.728C415.937 186.787 417.139 186.541 422.946 187.022C432.146 187.782 441.015 191.189 444.853 195.436C447.563 198.434 450.64 203.236 452.264 206.996C453.297 209.391 453.285 209.335 452.791 209.335C452.585 209.335 451.316 208.093 449.971 206.575Z" fill="#E87E31"/>
<path d="M336.467 314.459C335.528 314.418 332.751 314.214 330.296 314.006C318.183 312.979 309.61 310.665 302.994 306.635C300.772 305.281 295.572 300.681 294.479 299.102C291.265 294.457 290.091 287.276 291.75 282.401C293.33 277.755 296.66 273.565 301.332 270.344C305.669 267.353 308.588 264.607 312.332 259.993C318.22 252.737 323.474 242.057 326.776 230.634C329.984 219.54 333.988 211.856 339.849 205.549C345.505 199.463 352.811 195.357 362.464 192.839C365.608 192.019 365.914 191.984 369.686 192.021C386.662 192.186 400.328 197.105 411.667 207.133C417.955 212.694 423.548 220.811 424.955 226.416C427.602 236.965 427.641 248.988 425.066 260.509C422.569 271.678 417.391 282.079 410.237 290.293C407.744 293.156 402.183 298.217 399.345 300.206C391.531 305.682 383.014 309.353 372.611 311.73C369.161 312.519 359.188 313.959 354.324 314.372C351.61 314.603 340.846 314.655 336.467 314.459Z" fill="#06E19F"/>
<path d="M395.309 195.4C395.221 195.268 395.269 194.748 395.416 194.242C395.562 193.737 395.937 192.118 396.247 190.644C397.855 183.011 401.168 175.446 405.582 169.326C407.67 166.433 412.611 161.675 414.986 160.272C418.821 158.007 422.601 158.729 427.931 162.743C433.716 167.1 434.724 168.342 433.916 170.125C433.685 170.635 432.989 171.361 432.244 171.867C430.611 172.979 425.768 175.163 423.044 176.017C414.615 178.659 406.574 184.238 398.536 193.019C396.255 195.511 395.672 195.942 395.309 195.4Z" fill="#036C66"/>
<path d="M454.691 220.813C454.658 219.727 453.888 216.668 453.443 215.858C452.552 214.238 449.174 211.71 446.619 210.752C444.633 210.007 441.548 209.538 435.563 209.07C432.896 208.861 429.652 208.531 428.354 208.337C418.137 206.807 411.234 202.014 406.293 193.018L405.07 190.793L406.75 189.142C408.616 187.308 410.737 185.777 414.041 183.877C417.052 182.145 422.023 179.872 424.458 179.113C426.773 178.392 427.561 178.417 432.826 179.386C445.617 181.74 454.459 188.148 457.662 197.386C458.757 200.544 459.001 202.06 459 205.662C458.997 210.503 457.953 214.975 455.772 219.489C455.006 221.073 454.711 221.436 454.691 220.813ZM453.127 209.066C453.127 208.997 452.724 208.009 452.229 206.871C450.608 203.139 447.536 198.375 444.83 195.399C441.89 192.164 435.311 189.109 428.403 187.77C424.571 187.027 417.475 186.531 417.475 187.007C417.475 187.121 418.389 187.456 419.506 187.75C427.854 189.951 434.139 192.712 439.369 196.474C442.113 198.449 446.473 202.564 449.94 206.453C451.282 207.959 452.549 209.191 452.754 209.191C452.96 209.191 453.127 209.135 453.127 209.066Z" fill="#FF9548"/>
<path d="M178.718 39.8128C174.654 38.1625 169.833 36.6738 167.03 36.2026C161.688 35.3048 155.928 35.5582 148.826 37.0031C145.813 37.6163 146.624 36.9849 151.161 35.1857C158.349 32.3354 166.273 31.5941 170.733 33.3547C173.883 34.5976 177.978 37.0571 180.595 39.2761C182.262 40.6894 182.231 40.6515 181.86 40.8353C181.706 40.912 180.291 40.4518 178.718 39.8128Z" fill="#B5FBE5"/>
<path d="M133.642 163.002C132.922 163.32 130.761 164.199 128.841 164.956C119.367 168.69 112.072 170.141 105.607 169.577C103.436 169.387 97.8217 167.868 96.4143 167.089C92.2744 164.798 88.723 159.844 88.1546 155.568C87.6131 151.494 88.5545 147.11 90.8635 142.954C93.0069 139.097 94.1764 135.95 95.2708 131.094C96.9917 123.459 96.964 113.488 95.1947 103.686C93.4763 94.1655 93.6244 86.9086 95.6783 79.9955C97.6604 73.3241 101.617 67.5249 107.927 62.0449C109.981 60.2603 110.198 60.1206 113.043 58.7453C125.846 52.5558 137.933 51.166 150.174 54.4761C156.962 56.3118 164.179 60.3243 167.319 64.0087C173.229 70.9426 177.729 79.9524 180.081 89.5578C182.361 98.8695 182.342 108.602 180.027 117.428C179.22 120.504 176.928 126.371 175.537 128.919C171.709 135.936 166.681 141.859 159.756 147.511C157.46 149.386 150.51 154.176 147.013 156.296C145.061 157.478 137.001 161.52 133.642 163.002Z" fill="#B5FBE5"/>
<path d="M133.532 51.7527C133.417 51.6868 133.26 51.278 133.182 50.8442C133.104 50.4103 132.783 49.0556 132.468 47.8338C130.836 41.5068 130.509 34.596 131.547 28.3613C132.038 25.4129 133.977 20.0044 135.239 18.0679C137.274 14.9419 140.38 14.0777 145.874 15.1084C151.837 16.2272 153.055 16.7853 153.112 18.4241C153.128 18.8924 152.875 19.6964 152.505 20.3531C151.692 21.7953 148.869 25.2355 147.142 26.8898C141.798 32.0071 137.837 39.1851 135.069 48.7655C134.284 51.4844 134.006 52.0244 133.532 51.7527Z" fill="#B5FBE5"/>
<path d="M187.555 48.7441C187.127 47.9414 185.412 45.9318 184.776 45.4892C183.505 44.6043 180.029 43.9634 177.755 44.1943C175.988 44.3737 173.497 45.1686 168.831 47.0429C166.751 47.8784 164.194 48.8373 163.147 49.1742C154.909 51.8252 147.945 50.7945 140.891 45.8802L139.146 44.6643L139.793 42.8002C140.511 40.7301 141.534 38.7918 143.307 36.1371C144.924 33.7173 147.809 30.1625 149.355 28.6876C150.824 27.285 151.425 27.0111 155.738 25.7803C166.214 22.7903 175.234 24.3122 181.074 30.0553C183.07 32.0178 183.817 33.0654 185.155 35.7693C186.953 39.4046 187.833 43.1494 187.875 47.3487C187.889 48.8223 187.802 49.2042 187.555 48.7441ZM182.013 40.5082C181.987 40.4565 181.317 39.8652 180.522 39.1948C177.918 36.9964 173.84 34.5627 170.703 33.3354C167.293 32.0008 161.219 32.1542 155.535 33.7179C152.383 34.5853 146.872 36.8526 147.049 37.2094C147.091 37.2953 147.902 37.2064 148.85 37.012C155.934 35.5596 161.679 35.2943 167.003 36.1735C169.798 36.6349 174.601 38.1025 178.649 39.7324C180.216 40.3635 181.625 40.8173 181.78 40.7408C181.934 40.6643 182.039 40.5599 182.013 40.5082Z" fill="#B5FBE5"/>
<path d="M708.492 382.523C706.315 379.755 703.546 376.798 701.778 375.354C698.411 372.603 694.293 370.487 688.766 368.669C686.421 367.897 687.238 367.78 691.117 368.331C697.264 369.203 703.085 371.84 705.494 374.842C707.196 376.962 709.073 380.307 710.015 382.896C710.614 384.544 710.608 384.506 710.276 384.486C710.138 384.478 709.335 383.595 708.492 382.523Z" fill="#B5FBE5"/>
<path d="M628.039 450.487C627.41 450.422 625.554 450.176 623.913 449.94C615.821 448.774 610.157 446.882 605.873 443.916C604.435 442.92 601.124 439.626 600.453 438.523C598.478 435.278 597.972 430.411 599.278 427.203C600.522 424.146 602.922 421.464 606.186 419.485C609.216 417.648 611.284 415.919 613.979 412.968C618.217 408.329 622.166 401.365 624.833 393.826C627.423 386.503 630.414 381.502 634.597 377.498C638.634 373.635 643.701 371.166 650.281 369.855C652.424 369.428 652.631 369.417 655.162 369.59C666.553 370.369 675.534 374.21 682.753 381.389C686.756 385.37 690.192 391.04 690.915 394.859C692.277 402.045 691.83 410.119 689.647 417.753C687.532 425.153 683.646 431.932 678.519 437.166C676.733 438.99 672.8 442.169 670.816 443.392C665.354 446.761 659.492 448.891 652.413 450.077C650.066 450.471 643.313 451.045 640.031 451.132C638.2 451.179 630.971 450.791 628.039 450.487Z" fill="#B5FBE5"/>
<path d="M672.232 372.868C672.178 372.776 672.231 372.428 672.349 372.095C672.468 371.761 672.783 370.689 673.049 369.711C674.429 364.65 676.951 359.701 680.156 355.766C681.671 353.906 685.176 350.906 686.826 350.058C689.49 348.688 691.999 349.321 695.42 352.226C699.133 355.379 699.76 356.253 699.148 357.418C698.973 357.751 698.476 358.211 697.957 358.522C696.816 359.204 693.479 360.48 691.616 360.946C685.853 362.388 680.235 365.817 674.493 371.396C672.863 372.98 672.454 373.246 672.232 372.868Z" fill="#B5FBE5"/>
<path d="M711.1 392.268C711.121 391.538 710.725 389.453 710.457 388.892C709.923 387.769 707.755 385.939 706.077 385.195C704.773 384.617 702.72 384.18 698.721 383.63C696.938 383.385 694.773 383.036 693.909 382.855C687.11 381.425 682.663 377.935 679.7 371.701L678.967 370.159L680.16 369.116C681.485 367.959 682.969 367.014 685.262 365.869C687.352 364.825 690.779 363.494 692.443 363.08C694.026 362.687 694.555 362.735 698.051 363.593C706.546 365.677 712.23 370.328 714.017 376.656C714.628 378.819 714.733 379.847 714.59 382.265C714.397 385.515 713.52 388.477 711.878 391.422C711.302 392.455 711.089 392.687 711.1 392.268ZM710.513 384.319C710.516 384.273 710.284 383.594 709.996 382.81C709.055 380.241 707.18 376.921 705.48 374.817C703.634 372.529 699.337 370.219 694.752 369.048C692.208 368.398 687.463 367.786 687.444 368.105C687.44 368.182 688.041 368.443 688.779 368.685C694.297 370.491 698.408 372.592 701.771 375.323C703.536 376.757 706.302 379.692 708.476 382.439C709.318 383.503 710.12 384.38 710.258 384.388C710.396 384.397 710.51 384.365 710.513 384.319Z" fill="#B5FBE5"/>
<path d="M155.68 543.327C154.03 539.721 151.781 535.752 150.229 533.703C147.27 529.799 143.323 526.394 137.754 522.94C135.391 521.475 136.316 521.563 140.417 523.192C146.915 525.775 152.589 530.201 154.432 534.126C155.733 536.897 156.903 541.055 157.249 544.138C157.469 546.102 157.472 546.058 157.114 545.949C156.965 545.903 156.32 544.723 155.68 543.327Z" fill="#B5FBE5"/>
<path d="M49.6217 596.432C48.9506 596.195 46.9836 595.434 45.2505 594.741C36.7006 591.323 31.0004 587.753 27.0967 583.372C25.7854 581.901 23.0336 577.42 22.5905 576.034C21.2871 571.96 22.0223 566.498 24.3004 563.331C26.4709 560.314 29.8091 558.013 33.9055 556.711C37.7083 555.502 40.4295 554.156 44.1611 551.64C50.0287 547.683 56.1938 541.105 61.1086 533.558C65.8822 526.227 70.4802 521.544 76.1191 518.269C81.5607 515.108 87.761 513.746 95.3111 514.053C97.7698 514.153 97.9989 514.196 100.724 515.055C112.987 518.922 121.803 525.504 127.804 535.273C131.133 540.691 133.393 547.807 133.174 552.179C132.763 560.407 130.137 569.126 125.727 576.905C121.452 584.446 115.404 590.839 108.407 595.211C105.969 596.735 100.822 599.173 98.3264 599.988C91.456 602.23 84.4746 603.01 76.4122 602.435C73.7383 602.245 66.1944 601.086 62.5789 600.312C60.5616 599.88 52.7512 597.541 49.6217 596.432Z" fill="#B5FBE5"/>
<path d="M118.543 523.16C118.508 523.046 118.658 522.679 118.876 522.345C119.094 522.012 119.722 520.921 120.273 519.922C123.123 514.746 127.194 509.996 131.743 506.537C133.895 504.902 138.525 502.546 140.556 502.053C143.834 501.259 146.414 502.616 149.389 506.702C152.619 511.136 153.075 512.259 152.096 513.372C151.816 513.69 151.151 514.063 150.5 514.265C149.071 514.71 145.08 515.223 142.917 515.24C136.228 515.294 129.169 517.56 121.407 522.148C119.204 523.45 118.686 523.633 118.543 523.16Z" fill="#B5FBE5"/>
<path d="M155.957 554.685C156.173 553.891 156.29 551.505 156.146 550.819C155.858 549.448 153.969 546.871 152.329 545.613C151.055 544.635 148.924 543.614 144.691 541.953C142.804 541.213 140.526 540.258 139.629 539.83C132.564 536.466 128.621 531.469 127.027 523.86L126.632 521.978L128.214 521.152C129.971 520.236 131.846 519.595 134.659 518.947C137.223 518.358 141.327 517.808 143.258 517.796C145.095 517.784 145.661 517.977 149.261 519.842C158.009 524.371 163.001 530.966 163.282 538.367C163.378 540.896 163.22 542.049 162.424 544.658C161.353 548.166 159.609 551.175 157.032 553.964C156.128 554.943 155.834 555.14 155.957 554.685ZM157.417 545.828C157.432 545.778 157.358 544.973 157.251 544.039C156.9 540.977 155.727 536.847 154.423 534.094C153.007 531.101 148.915 527.435 144.206 524.939C141.593 523.555 136.561 521.629 136.456 521.974C136.431 522.056 137.019 522.501 137.764 522.961C143.326 526.399 147.271 529.787 150.229 533.667C151.781 535.704 154.032 539.648 155.685 543.231C156.325 544.619 156.971 545.791 157.12 545.836C157.269 545.882 157.402 545.878 157.417 545.828Z" fill="#B5FBE5"/>
<path d="M641 134.679C628.841 146.822 626.967 152.074 623 167C620.249 151.481 617.23 146.08 605 134.679C616.649 126.534 618.871 117.962 623 106C627.523 118.729 628.955 127.059 641 134.679Z" fill="#06E19F"/>
<path d="M48 315.082C31.7885 331.206 29.2896 338.18 24 358C20.3325 337.393 16.3067 330.221 0 315.082C15.5319 304.266 18.4945 292.884 24 277C30.0312 293.902 31.9394 304.963 48 315.082Z" fill="#06E19F"/>
<path d="M306 58.6119C290.126 74.5369 287.679 81.4252 282.5 101C278.909 80.6472 274.967 73.5641 259 58.6119C274.208 47.9296 277.109 36.6876 282.5 21C288.406 37.6938 290.274 48.6179 306 58.6119Z" fill="#06E19F"/>
<path d="M422 532.388C411.192 543.137 409.526 547.787 406 561C403.555 547.262 400.871 542.481 390 532.388C400.355 525.177 402.33 517.589 406 507C410.021 518.268 411.293 525.642 422 532.388Z" fill="#06E19F"/>
<path d="M718 272.455C711.245 279.422 710.204 282.436 708 291C706.472 282.096 704.794 278.997 698 272.455C704.472 267.782 705.706 262.863 708 256C710.513 263.304 711.308 268.083 718 272.455Z" fill="#E87E31"/>
<path d="M200 591.754C194.934 596.73 194.153 598.883 192.5 605C191.354 598.64 190.096 596.426 185 591.754C189.854 588.416 190.78 584.902 192.5 580C194.385 585.217 194.981 588.631 200 591.754Z" fill="#E87E31"/>
<path d="M422 57.4552C415.245 64.4224 414.204 67.436 412 76C410.472 67.0957 408.794 63.9968 402 57.4552C408.472 52.7817 409.706 47.8633 412 41C414.513 48.3035 415.308 53.0828 422 57.4552Z" fill="#E87E31"/>
<path d="M20 130.455C13.2452 137.422 12.204 140.436 10 149C8.47186 140.096 6.79446 136.997 0 130.455C6.47162 125.782 7.70603 120.863 10 114C12.513 121.304 13.3081 126.083 20 130.455Z" fill="#E87E31"/>
</svg>
