<svg width="10" height="10" viewBox="0 0 10 10" fill="none" xmlns="http://www.w3.org/2000/svg">
<g clip-path="url(#clip0_224_77)">
<path fill-rule="evenodd" clip-rule="evenodd" d="M0.0144053 1.91131C0.0141964 1.70016 0.0677866 1.49244 0.17012 1.30774C0.266663 1.11833 0.412932 0.958768 0.593248 0.846149C0.773563 0.73353 0.981127 0.672105 1.19369 0.668457L8.82012 0.668457C9.03268 0.672105 9.24025 0.73353 9.42056 0.846149C9.60088 0.958768 9.74715 1.11833 9.84369 1.30774C9.94814 1.49579 10.002 1.70772 10 1.92282C9.99799 2.13792 9.9402 2.34882 9.83226 2.53489L6.01941 8.69917C5.92354 8.8894 5.77672 9.04926 5.59532 9.16094C5.41392 9.27261 5.20506 9.33171 4.99204 9.33163C4.77902 9.33156 4.57021 9.27232 4.38889 9.16052C4.20756 9.04872 4.06085 8.88875 3.96512 8.69846L0.180834 2.53417C0.0715367 2.34481 0.0141291 2.12996 0.0144053 1.91131Z" fill="#004741"/>
</g>
<defs>
<clipPath id="clip0_224_77">
<rect width="10" height="10" fill="white" transform="matrix(0 1 1 0 0 0)"/>
</clipPath>
</defs>
</svg>
