<svg width="693" height="555" viewBox="0 0 693 555" fill="none" xmlns="http://www.w3.org/2000/svg">
<g clip-path="url(#clip0_1323_3900)">
<path d="M686.571 537.682C466.784 538.702 220.217 538.702 0.430664 537.682C220.217 536.679 466.784 536.679 686.571 537.682Z" fill="#263238"/>
<path d="M219.335 279.221C229.845 352.815 255.713 447.021 280.085 467.633C299.747 484.259 407.226 519.731 413.297 520.864C428.314 523.672 467.206 419.205 451.804 413.542C432.505 406.407 338.729 395.58 333.836 389.623C328.944 383.666 298.614 334.218 264.365 277.296C240.74 237.951 212.857 233.579 219.335 279.221Z" fill="#F7A9A0"/>
<path d="M401.678 513.978C403.399 515.042 427.93 530.06 443.401 535.994C454.908 540.411 488.454 552.235 494.57 540.026C498.761 531.713 479.87 522.426 466.641 515.586C459.687 511.962 451.42 503.671 453.934 499.209C458.464 491.417 476.223 501.112 487.911 509.244C510.381 524.941 539.759 552.281 555.207 541.521C561.029 537.467 555.388 528.678 546.804 519.799C561.051 530.49 576.431 539.573 583.045 535.315C586.874 532.891 587.349 529.154 585.718 524.714C590.249 526.594 594.348 526.662 597.474 523.876C602.775 519.165 601.03 511.418 596.342 503.241C597.269 503.211 598.176 502.963 598.99 502.519C599.805 502.074 600.503 501.445 601.03 500.681C612.696 485.777 564.789 436.126 547.166 430.463C495.522 413.497 439.075 413.339 439.075 413.339C416.945 428.085 401.633 513.932 401.678 513.978Z" fill="#F7A9A0"/>
<path d="M483.242 471.982C495.608 474.998 507.19 480.612 517.219 488.45C529.835 498.393 537.831 509.47 548.16 520.795C548.432 521.09 547.979 521.543 547.707 521.226C542.792 515.835 522.225 495.403 516.856 490.715C507.176 482.056 495.649 475.72 483.151 472.186L483.242 471.982Z" fill="#263238"/>
<path d="M494.95 450.441C508.541 455.379 522.358 460.408 534.658 468.041C548.113 476.399 558.147 489.016 568.023 501.157C573.958 508.481 579.726 515.918 585.328 523.468C585.555 523.785 585.125 524.216 584.875 523.899C574.864 511.35 564.482 499.111 553.73 487.181C543.806 476.048 531.773 466.995 518.326 460.543C510.648 456.851 502.72 453.748 494.792 450.668C494.724 450.622 494.792 450.373 494.95 450.441Z" fill="#263238"/>
<path d="M511.396 432.116C524.624 436.012 536.153 439.364 547.456 447.587C562.429 458.459 576.314 475.833 581.184 481.971C586.552 488.766 591.694 495.743 596.723 502.787C596.926 503.082 596.428 503.444 596.224 503.15C584.636 487.656 572.061 472.925 558.578 459.048C552.269 452.341 544.956 446.656 536.901 442.196C528.691 438.147 520.151 434.805 511.373 432.206C511.373 432.206 511.328 432.116 511.396 432.116Z" fill="#263238"/>
<path opacity="0.1" d="M408.742 519.549C386.861 512.867 297.751 482.605 280.129 467.633C255.756 447.021 229.889 352.814 219.378 279.221C215.324 250.816 224.588 241.779 237.862 248.483L408.742 519.549Z" fill="black"/>
<path d="M240.604 403.916L322.148 358.274C322.148 358.274 290.436 301.896 257.887 259.402C225.337 216.908 212.358 241.281 217.115 287.444C221.871 333.607 240.604 403.916 240.604 403.916Z" fill="#06E19F"/>
<path d="M309.665 346.857C286.296 358.424 263.546 371.202 241.508 385.138C241.168 385.341 241.508 385.885 241.848 385.704C265.238 374.16 288.01 361.406 310.073 347.491C310.413 347.265 310.05 346.676 309.665 346.857Z" fill="#263238"/>
<path opacity="0.1" d="M307.674 366.337L240.582 403.915C240.582 403.915 221.6 333.516 217.07 287.443C214.102 258.291 218.225 237.815 229.913 237.452L307.674 366.337Z" fill="black"/>
<path d="M11.351 531.533H319.769C323.642 528.633 287.921 319.677 242.506 247.533C234.012 233.942 193.308 213.42 161.437 237.838C65.306 311.658 7.72682 527.003 11.351 531.533Z" fill="#06E19F"/>
<path d="M152.648 246.535C79.3718 329.619 -13.5658 484.372 2.49386 515.064C22.8799 553.888 163.611 546.776 196.455 539.074C210.477 535.813 162.026 414.493 146.985 417.574C133.87 420.337 122.567 423.101 122.069 421.289C121.571 419.476 160.78 361.603 184.609 278.269C200.895 221.483 168.187 228.89 152.648 246.535Z" fill="#F7A9A0"/>
<path d="M59.0991 459.457C67.9331 448.018 94.6387 427.201 122.069 421.742C122.703 421.742 123.134 422.014 122.59 422.263C100.052 432.122 78.7933 444.68 59.2803 459.66C59.1671 459.774 59.0085 459.57 59.0991 459.457Z" fill="#263238"/>
<path d="M250.025 359.973C250.025 359.973 232.515 339.723 247.306 328.918C262.098 318.114 276.073 340.924 276.073 340.924L250.025 359.973Z" fill="#455A64"/>
<path d="M386.542 491.938L390.437 517.942L391.774 526.481L383.982 522.676L360.47 511.101L249.479 359.338L275.528 340.289L386.519 492.051L386.542 491.938Z" fill="#455A64"/>
<path d="M390.439 517.85L391.776 526.39L383.961 522.584L390.439 517.85Z" fill="#37474F"/>
<path d="M277.022 337.676L246.599 359.926L251.011 365.96L281.435 343.71L277.022 337.676Z" fill="#37474F"/>
<path d="M281.905 344.35L251.481 366.6L255.894 372.633L286.317 350.383L281.905 344.35Z" fill="#37474F"/>
<path d="M255.914 372.612L265.722 365.431L300.492 424.347L296.731 426.771L255.914 372.612Z" fill="#37474F"/>
<path d="M345.659 424.483C345.342 439.818 307.628 435.808 307.628 435.808C313.049 439.592 316.976 445.153 318.727 451.528C321.286 462.854 304.593 471.914 304.593 471.914C309.391 477.005 312.548 483.421 313.653 490.33C315.012 501.451 299.451 512.981 299.451 512.981C301.265 520.106 300.461 527.645 297.186 534.227C287.763 551.442 257.795 553.186 238.791 554.478C219.787 555.769 164.586 541.634 153.781 539.981L144.585 417.914C144.585 417.914 228.258 387.833 250.841 389.487C269.778 390.891 346.18 401.061 345.659 424.483Z" fill="#F7A9A0"/>
<path d="M307.308 435.401C287.443 429.059 266.083 427.496 245.471 426.204C245.375 426.204 245.283 426.243 245.215 426.311C245.147 426.379 245.108 426.471 245.108 426.567C245.108 426.663 245.147 426.755 245.215 426.823C245.283 426.891 245.375 426.929 245.471 426.929C265.993 427.971 286.741 434.517 307.172 436.375C307.291 436.372 307.404 436.327 307.492 436.249C307.58 436.17 307.638 436.063 307.654 435.946C307.67 435.829 307.644 435.709 307.581 435.61C307.518 435.51 307.421 435.436 307.308 435.401Z" fill="#263238"/>
<path d="M304.071 470.375C299.423 469.375 294.663 468.994 289.914 469.242C284.863 469.242 279.835 469.242 274.783 469.242C264.704 469.446 254.624 469.876 244.567 470.601C244.114 470.601 244.046 471.326 244.567 471.326C254.624 471.145 264.681 471.1 274.738 471.326C279.767 471.439 284.795 471.621 289.824 471.802C294.555 472.296 299.326 472.258 304.049 471.689C304.175 471.632 304.282 471.541 304.358 471.426C304.435 471.311 304.476 471.177 304.479 471.039C304.481 470.901 304.444 470.765 304.372 470.647C304.3 470.53 304.195 470.435 304.071 470.375Z" fill="#263238"/>
<path d="M299.042 512.935C295.146 511.644 290.276 512.414 286.244 512.573C281.714 512.784 277.115 512.95 272.449 513.071C263.253 513.366 254.079 513.638 244.883 513.592C244.407 513.592 244.385 514.294 244.883 514.294C254.215 514.294 263.57 514.612 272.902 514.612C277.433 514.612 282.076 514.612 286.674 514.612C290.57 514.612 295.44 514.974 299.132 513.479C299.204 513.467 299.269 513.427 299.311 513.367C299.354 513.308 299.371 513.234 299.359 513.162C299.347 513.09 299.307 513.025 299.247 512.983C299.188 512.94 299.114 512.923 299.042 512.935Z" fill="#263238"/>
<path d="M66.1426 349.032L153.44 382.262C153.44 382.262 176.318 321.738 188.028 269.527C199.739 217.316 172.671 223.024 140.325 256.163C107.979 289.301 66.1426 349.032 66.1426 349.032Z" fill="#06E19F"/>
<path d="M180.463 314.67C180.47 314.628 180.463 314.585 180.444 314.548C180.425 314.51 180.395 314.479 180.358 314.459C180.32 314.439 180.278 314.431 180.236 314.436C180.194 314.442 180.155 314.46 180.123 314.489C178.606 317.32 177.111 320.174 175.593 323.028C177.179 317.252 178.651 311.431 179.965 305.564C179.965 305.383 179.716 305.27 179.648 305.451C175.208 318.06 170.867 330.699 166.623 343.369C162.41 356.054 157.563 368.557 153.508 381.264C150.994 380.766 149.635 380.358 147.755 380.041C147.325 380.041 147.053 380.449 147.461 380.653C149.716 381.87 152.123 382.784 154.618 383.371C160.145 371.207 164.63 357.549 168.934 344.864C171.063 338.635 172.988 332.361 174.755 326.064C176.868 322.375 178.773 318.571 180.463 314.67Z" fill="#263238"/>
<path d="M154.212 365.409C130.36 354.897 105.977 345.635 81.1618 337.661C80.7994 337.548 80.5955 338.137 80.9579 338.295C104.798 348.856 129.174 358.163 153.985 366.179C154.393 366.179 154.619 365.567 154.212 365.409Z" fill="#263238"/>
<path d="M662.865 536.629H318.296V545.101H662.865V536.629Z" fill="#06E19F"/>
<path d="M467.612 536.629V524.012L339.882 526.481L323.098 536.629H467.612Z" fill="#EBEBEB"/>
<path d="M467.612 536.629V524.012C467.612 524.012 509.154 524.737 516.493 524.012C523.832 523.287 561.388 519.799 567.458 520.116C573.529 520.433 585.398 527.614 585.398 527.614V536.674L467.612 536.629Z" fill="#DBDBDB"/>
<path d="M659.467 536.629L656.5 529.448C656.5 529.448 638.243 529.833 635.616 529.448C632.988 529.063 608.208 521.928 602.862 522.902C597.516 523.876 585.443 527.613 585.443 527.613V536.674L659.467 536.629Z" fill="#DBDBDB"/>
<path d="M183.476 239.106C183.748 244.135 201.076 279.674 223.342 282.642C230.59 283.593 237.589 244.271 237.589 244.271L238.767 241.485L255.257 202.457L206.897 157.789C206.897 157.789 183.408 237.068 183.476 239.106Z" fill="#F7A9A0"/>
<path d="M255.256 202.479L238.743 241.462L237.588 244.271C237.588 244.271 236.297 251.383 234.304 259.492C205.039 249.548 195.366 224.451 192.195 207.757C198.945 184.97 206.896 157.789 206.896 157.789L255.256 202.479Z" fill="#263238"/>
<path d="M326.519 138.988C320.765 229.593 265.882 236.388 246.334 235.074C228.621 233.919 168.391 227.758 164.79 137.085C161.188 46.4128 205.086 20.4547 245.767 20.9303C286.449 21.406 332.295 48.4288 326.519 138.988Z" fill="#F7A9A0"/>
<path d="M304.094 153.485C314.105 154.572 311.183 174.528 301.829 173.508C292.474 172.489 295.713 152.579 304.094 153.485Z" fill="#263238"/>
<path d="M257.84 148.727C247.873 147.255 245.676 167.279 254.895 168.638C264.114 169.997 266.176 150.019 257.84 148.727Z" fill="#263238"/>
<path d="M312.338 141.797C310.331 141.203 308.357 140.5 306.426 139.691C304.248 139.249 302.279 138.093 300.832 136.406C300.472 135.792 300.327 135.074 300.422 134.369C300.516 133.663 300.844 133.008 301.353 132.51C302.503 131.67 303.857 131.152 305.274 131.009C306.691 130.865 308.121 131.102 309.416 131.695C312.238 132.499 314.66 134.323 316.212 136.814C316.532 137.402 316.674 138.071 316.62 138.739C316.566 139.407 316.318 140.045 315.906 140.574C315.495 141.103 314.939 141.5 314.305 141.717C313.671 141.935 312.988 141.962 312.338 141.797Z" fill="#263238"/>
<path d="M250.841 136.496C252.932 136.46 255.019 136.308 257.093 136.043C259.321 136.18 261.533 135.583 263.39 134.344C263.897 133.84 264.223 133.183 264.318 132.474C264.412 131.765 264.269 131.045 263.911 130.426C263.014 129.316 261.84 128.463 260.507 127.954C259.175 127.445 257.731 127.297 256.323 127.526C253.403 127.563 250.601 128.686 248.463 130.675C248.003 131.156 247.692 131.759 247.568 132.413C247.444 133.066 247.512 133.741 247.764 134.357C248.015 134.973 248.44 135.503 248.986 135.882C249.532 136.262 250.177 136.475 250.841 136.496Z" fill="#263238"/>
<path d="M252.923 203.454C254.101 205.153 255.188 207.395 257.318 207.984C259.573 208.393 261.89 208.315 264.113 207.758C264.157 207.753 264.201 207.762 264.241 207.782C264.28 207.802 264.312 207.834 264.334 207.872C264.356 207.911 264.366 207.955 264.363 207.999C264.36 208.043 264.344 208.085 264.317 208.12C263.215 209.137 261.859 209.838 260.392 210.149C258.925 210.46 257.401 210.37 255.981 209.887C254.806 209.326 253.825 208.427 253.163 207.305C252.501 206.184 252.189 204.89 252.266 203.59C252.266 203.25 252.742 203.205 252.923 203.454Z" fill="#263238"/>
<path d="M281.581 184.97C281.581 184.97 281.581 194.302 280.969 198.56C280.969 198.968 279.859 199.013 278.364 198.9C278.364 198.9 278.251 198.9 278.206 198.9C274.413 199.061 270.649 198.177 267.325 196.343C264.002 194.509 261.246 191.797 259.36 188.503C259.111 188.027 259.722 187.665 260.085 187.982C265.056 192.503 271.358 195.293 278.047 195.933C278.523 194.777 277.549 179.805 278.206 180.077C281.014 180.96 285.884 182.908 287.696 183.633C287.832 177.585 287.379 160.393 287.696 149.362C287.696 148.682 288.784 148.592 288.852 149.249C290.647 162.068 291.585 174.993 291.66 187.937C291.615 188.82 283.189 185.83 281.581 184.97Z" fill="#263238"/>
<g opacity="0.2">
<path d="M220.602 161.594C220.485 161.855 220.293 162.075 220.051 162.227C219.809 162.379 219.528 162.456 219.242 162.449C218.956 162.441 218.679 162.35 218.445 162.185C218.212 162.021 218.032 161.791 217.928 161.524C217.825 161.258 217.803 160.967 217.864 160.688C217.926 160.409 218.068 160.154 218.274 159.956C218.48 159.757 218.74 159.624 219.021 159.573C219.302 159.522 219.592 159.555 219.854 159.669C220.207 159.827 220.483 160.118 220.622 160.478C220.762 160.839 220.755 161.239 220.602 161.594Z" fill="black"/>
<path d="M249.3 172.33C249.225 172.505 249.117 172.665 248.981 172.798C248.846 172.932 248.685 173.038 248.508 173.11C248.331 173.181 248.142 173.217 247.951 173.215C247.761 173.214 247.572 173.174 247.397 173.1C247.042 172.947 246.763 172.659 246.621 172.3C246.479 171.941 246.485 171.54 246.638 171.186C246.791 170.831 247.079 170.552 247.438 170.41C247.797 170.268 248.198 170.274 248.552 170.427C248.728 170.501 248.887 170.609 249.02 170.745C249.153 170.882 249.257 171.043 249.327 171.221C249.397 171.398 249.43 171.587 249.426 171.778C249.421 171.968 249.378 172.156 249.3 172.33Z" fill="black"/>
<path d="M235.189 177.97C235.03 178.323 234.74 178.598 234.379 178.738C234.019 178.878 233.618 178.871 233.264 178.718C233.088 178.644 232.929 178.535 232.795 178.4C232.661 178.264 232.555 178.103 232.484 177.926C232.412 177.749 232.376 177.56 232.378 177.37C232.38 177.179 232.419 176.99 232.493 176.815C232.668 176.492 232.957 176.245 233.304 176.125C233.651 176.004 234.031 176.017 234.369 176.162C234.707 176.306 234.978 176.572 235.13 176.907C235.281 177.241 235.303 177.621 235.189 177.97Z" fill="black"/>
<path d="M226.128 150.789C226.015 151.053 225.828 151.278 225.588 151.435C225.348 151.592 225.067 151.674 224.781 151.672C224.494 151.669 224.215 151.582 223.978 151.421C223.741 151.259 223.557 151.032 223.45 150.766C223.342 150.5 223.316 150.209 223.374 149.928C223.432 149.648 223.572 149.39 223.776 149.189C223.98 148.988 224.239 148.852 224.521 148.798C224.802 148.744 225.093 148.775 225.357 148.887C225.533 148.961 225.692 149.069 225.826 149.205C225.96 149.34 226.066 149.501 226.137 149.678C226.209 149.855 226.245 150.044 226.243 150.235C226.241 150.425 226.202 150.614 226.128 150.789Z" fill="black"/>
<path d="M236.161 164.063C236.097 164.257 235.994 164.437 235.858 164.589C235.721 164.742 235.555 164.864 235.369 164.948C235.182 165.033 234.98 165.078 234.776 165.08C234.571 165.082 234.368 165.041 234.18 164.961C233.992 164.88 233.823 164.761 233.684 164.612C233.544 164.462 233.437 164.285 233.37 164.092C233.303 163.899 233.276 163.694 233.293 163.49C233.309 163.286 233.368 163.088 233.465 162.908C233.528 162.713 233.631 162.534 233.768 162.381C233.904 162.229 234.071 162.107 234.257 162.022C234.443 161.938 234.645 161.893 234.85 161.891C235.054 161.889 235.257 161.929 235.445 162.01C235.633 162.09 235.802 162.209 235.942 162.359C236.081 162.508 236.188 162.685 236.256 162.879C236.323 163.072 236.349 163.277 236.333 163.481C236.316 163.685 236.258 163.883 236.161 164.063Z" fill="black"/>
<path d="M313.721 174.324C313.566 174.68 313.277 174.961 312.917 175.105C312.556 175.25 312.153 175.246 311.795 175.094C311.601 175.031 311.422 174.928 311.269 174.791C311.117 174.655 310.994 174.488 310.91 174.302C310.825 174.116 310.781 173.914 310.778 173.709C310.776 173.505 310.817 173.302 310.897 173.114C310.978 172.926 311.097 172.757 311.246 172.617C311.396 172.478 311.573 172.371 311.766 172.304C311.959 172.236 312.164 172.21 312.368 172.226C312.572 172.243 312.771 172.301 312.951 172.399C313.307 172.553 313.588 172.842 313.732 173.203C313.876 173.563 313.872 173.966 313.721 174.324Z" fill="black"/>
<path d="M299.948 177.45C299.836 177.713 299.648 177.938 299.408 178.095C299.169 178.252 298.888 178.335 298.601 178.332C298.315 178.33 298.035 178.242 297.798 178.081C297.561 177.92 297.377 177.692 297.27 177.426C297.162 177.161 297.136 176.869 297.194 176.589C297.252 176.308 297.392 176.051 297.596 175.85C297.801 175.649 298.06 175.512 298.341 175.459C298.623 175.405 298.914 175.435 299.178 175.547C299.353 175.621 299.513 175.729 299.646 175.865C299.78 176.001 299.886 176.162 299.958 176.339C300.029 176.515 300.065 176.704 300.063 176.895C300.062 177.086 300.022 177.274 299.948 177.45Z" fill="black"/>
<path d="M298.837 187.461C298.774 187.656 298.671 187.835 298.535 187.988C298.398 188.14 298.232 188.263 298.045 188.347C297.859 188.432 297.657 188.476 297.453 188.478C297.248 188.48 297.045 188.44 296.857 188.359C296.669 188.279 296.5 188.16 296.36 188.01C296.221 187.861 296.114 187.684 296.047 187.491C295.98 187.297 295.953 187.092 295.97 186.888C295.986 186.684 296.045 186.486 296.142 186.306C296.317 185.983 296.606 185.737 296.953 185.616C297.3 185.495 297.679 185.508 298.017 185.653C298.355 185.798 298.626 186.063 298.778 186.398C298.93 186.733 298.951 187.112 298.837 187.461Z" fill="black"/>
<path d="M310.617 185.218C310.505 185.482 310.317 185.707 310.077 185.864C309.837 186.021 309.557 186.103 309.27 186.101C308.984 186.098 308.704 186.011 308.467 185.85C308.23 185.688 308.046 185.461 307.939 185.195C307.831 184.929 307.805 184.638 307.863 184.357C307.921 184.077 308.061 183.82 308.265 183.618C308.469 183.417 308.729 183.281 309.01 183.227C309.292 183.173 309.583 183.204 309.847 183.316C310.022 183.39 310.182 183.498 310.315 183.634C310.449 183.77 310.555 183.931 310.626 184.107C310.698 184.284 310.734 184.473 310.732 184.664C310.731 184.854 310.691 185.043 310.617 185.218Z" fill="black"/>
</g>
<path d="M168.255 145.648C185.561 147.913 197.475 105.736 197.475 105.736C197.475 105.736 220.421 103.607 237.522 66.9802C237.522 66.9802 241.396 108.726 313.041 119.259C318.538 107.569 320.218 94.4462 317.843 81.7487C321.432 95.5452 323.879 109.614 325.16 123.812C325.16 123.812 357.46 70.6496 313.834 36.8995C296.461 23.4673 266.267 16.9891 214.894 27.0009C214.894 27.0009 213.603 -2.44558 207.419 -0.31637C201.235 1.81284 204.384 29.855 204.384 29.855C204.384 29.855 186.263 18.3029 181.733 21.542C177.859 24.3281 195.641 34.5664 195.641 34.5664C195.641 34.5664 162.593 35.9707 158.085 72.4164C153.872 105.94 159.693 144.538 168.255 145.648Z" fill="#263238"/>
<path d="M201.211 35.6994C192.513 33.0185 183.135 33.6115 174.845 37.3666C166.555 41.1217 159.924 47.7796 156.203 56.0855C152.058 65.6216 151.673 76.9924 152.216 87.2081C153.151 98.2289 155.496 109.084 159.193 119.509C159.397 120.098 160.28 119.712 160.076 119.124C157.033 109.45 155.505 99.3646 155.546 89.224C155.387 79.7785 155.75 69.4949 158.649 60.4571C161.445 51.9221 167.348 44.7504 175.187 40.3656C183.025 35.9807 192.225 34.7032 200.961 36.7867C201.528 36.832 201.777 35.858 201.211 35.6994Z" fill="#263238"/>
<path d="M276.777 16.5813C264.231 16.0156 251.665 17.1046 239.403 19.8204C227.641 21.8625 216.312 25.8916 205.902 31.7349C205.785 31.789 205.694 31.8873 205.649 32.0084C205.605 32.1295 205.61 32.2633 205.664 32.3804C205.718 32.4976 205.816 32.5884 205.937 32.633C206.058 32.6776 206.192 32.6724 206.309 32.6183C227.33 24.2827 250.864 21.5872 273.379 21.2927C294.445 21.0436 317.572 27.3859 328.127 47.3415C328.168 47.396 328.227 47.4346 328.293 47.4508C328.359 47.467 328.428 47.4599 328.49 47.4305C328.551 47.4011 328.601 47.3514 328.629 47.2897C328.658 47.2281 328.665 47.1583 328.648 47.0924C319.905 26.8422 297.594 17.8044 276.777 16.5813Z" fill="#263238"/>
<path d="M237.453 184.313C231.705 182.829 226.489 179.761 222.399 175.458C218.309 171.156 215.508 165.792 214.316 159.976C213.124 154.161 213.588 148.128 215.656 142.563C217.723 136.998 221.312 132.126 226.012 128.5C230.712 124.874 236.336 122.64 242.243 122.052C248.151 121.465 254.104 122.547 259.427 125.177C264.749 127.806 269.227 131.876 272.35 136.925C275.473 141.974 277.116 147.797 277.093 153.734C277.057 162.121 273.7 170.152 267.757 176.069C261.814 181.987 253.768 185.309 245.381 185.309C242.707 185.322 240.042 184.987 237.453 184.313ZM252.267 127.051C250.049 126.465 247.766 126.168 245.472 126.167C238.476 126.137 231.732 128.774 226.612 133.542C221.492 138.309 218.382 144.849 217.915 151.83C217.448 158.81 219.659 165.706 224.098 171.113C228.537 176.52 234.87 180.033 241.807 180.935C248.745 181.836 255.765 180.06 261.439 175.967C267.113 171.875 271.014 165.773 272.347 158.906C273.68 152.038 272.345 144.92 268.615 139.002C264.884 133.084 259.038 128.81 252.267 127.051Z" fill="#455A64"/>
<path d="M306.926 193.125C295.17 190.067 287.627 175.298 289.87 158.921C290.814 151.073 294.188 143.715 299.519 137.878C301.652 135.231 304.432 133.179 307.59 131.921C310.749 130.663 314.178 130.241 317.547 130.696C320.916 131.152 324.111 132.47 326.821 134.521C329.532 136.573 331.667 139.29 333.02 142.409C336.586 149.461 337.845 157.456 336.622 165.264C334.357 182.592 321.853 195.231 308.965 193.464C308.28 193.388 307.599 193.275 306.926 193.125ZM318.569 135.138C318.048 134.997 317.518 134.891 316.983 134.821C314.286 134.578 311.57 134.986 309.063 136.011C306.556 137.035 304.332 138.647 302.577 140.71C297.864 145.899 294.894 152.434 294.083 159.397C292.022 174.392 298.908 187.779 309.531 189.229C320.154 190.678 330.37 179.647 332.431 164.652C333.54 157.692 332.431 150.56 329.26 144.266C328.21 142.085 326.717 140.147 324.876 138.575C323.035 137.004 320.887 135.833 318.569 135.138Z" fill="#455A64"/>
<path d="M275.962 157.268L274.06 154.232C278.59 151.424 288.443 148.162 293.97 155.954L291.048 158.015C285.997 150.993 276.257 157.018 275.962 157.268Z" fill="#455A64"/>
<path d="M147.144 146.622L144.222 144.583C145.196 143.201 153.826 131.264 161.912 130.992C169.455 130.811 216.275 141.774 218.268 142.318L217.453 145.806C204.043 142.658 167.824 134.481 162.003 134.662C156.657 134.752 149.477 143.337 147.144 146.622Z" fill="#455A64"/>
<path d="M181.439 146.463C181.439 146.463 166.104 115.499 152.332 120.55C138.56 125.601 147.168 168.435 161.234 176.249C162.97 177.377 164.916 178.141 166.955 178.496C168.994 178.852 171.084 178.79 173.099 178.316C175.114 177.842 177.012 176.965 178.679 175.738C180.346 174.511 181.747 172.959 182.798 171.175L181.439 146.463Z" fill="#F7A9A0"/>
<path d="M155.096 132.872C154.869 132.872 154.756 133.144 154.96 133.257C164.791 139.079 168.822 149.611 171.155 160.235C168.641 155.908 164.723 153.145 158.969 156.067C158.675 156.203 158.969 156.678 159.173 156.656C161.103 156.349 163.08 156.648 164.833 157.512C166.585 158.377 168.027 159.763 168.958 161.48C170.492 164.363 171.714 167.4 172.605 170.541C172.968 171.56 174.734 171.311 174.53 170.178C174.53 170.178 174.53 169.997 174.53 169.929C176.773 156.588 169.23 136.338 155.096 132.872Z" fill="#263238"/>
<path d="M693.442 516.804H516.975V537.683H693.442V516.804Z" fill="#C7C7C7"/>
<path d="M558.779 516.804H551.578V537.683H558.779V516.804Z" fill="#DBDBDB"/>
<path d="M672.677 516.804H655.432V537.683H672.677V516.804Z" fill="#DBDBDB"/>
<path d="M592.088 522.344L587.879 527.835C587.838 527.897 587.782 527.948 587.716 527.982C587.649 528.017 587.576 528.034 587.501 528.032C587.423 528.043 587.344 528.029 587.274 527.994C587.204 527.959 587.145 527.904 587.107 527.835L582.882 522.361V532.504C582.877 532.619 582.829 532.728 582.746 532.807C582.663 532.887 582.553 532.932 582.438 532.932C582.318 532.936 582.202 532.894 582.113 532.814C582.024 532.735 581.969 532.623 581.961 532.504V521.078C581.963 521.009 581.983 520.942 582.017 520.881C582.051 520.821 582.1 520.77 582.158 520.733C582.262 520.674 582.383 520.654 582.5 520.675C582.617 520.696 582.723 520.757 582.799 520.848L587.485 526.931L592.154 520.848C592.228 520.754 592.335 520.691 592.453 520.67C592.571 520.649 592.692 520.671 592.795 520.733L592.926 520.881C592.943 520.957 592.943 521.035 592.926 521.111V532.537C592.906 532.642 592.85 532.737 592.768 532.805C592.685 532.873 592.581 532.911 592.474 532.911C592.367 532.911 592.264 532.873 592.181 532.805C592.099 532.737 592.042 532.642 592.022 532.537L592.088 522.344Z" fill="white"/>
<path d="M603.792 529.742H597.792L596.625 532.652C596.589 532.736 596.529 532.807 596.453 532.857C596.377 532.906 596.288 532.932 596.197 532.932H596.016C595.961 532.913 595.911 532.884 595.868 532.846C595.825 532.807 595.79 532.761 595.765 532.708C595.741 532.656 595.727 532.599 595.725 532.542C595.723 532.484 595.732 532.427 595.753 532.373L600.324 520.865C600.37 520.784 600.437 520.717 600.518 520.671C600.599 520.625 600.691 520.601 600.784 520.602C600.876 520.591 600.97 520.611 601.05 520.659C601.13 520.706 601.192 520.778 601.228 520.865L605.814 532.373C605.853 532.48 605.848 532.597 605.803 532.701C605.757 532.805 605.673 532.888 605.568 532.932H605.387C605.297 532.93 605.208 532.903 605.133 532.854C605.057 532.804 604.997 532.734 604.96 532.652L603.792 529.742ZM598.121 528.871H603.447L600.8 522.295L598.121 528.871Z" fill="white"/>
<path d="M610.272 521.407H606.294C606.176 521.407 606.063 521.36 605.98 521.277C605.896 521.194 605.85 521.081 605.85 520.963C605.852 520.907 605.865 520.852 605.888 520.801C605.912 520.75 605.945 520.704 605.986 520.666C606.028 520.628 606.076 520.598 606.129 520.578C606.181 520.559 606.237 520.55 606.294 520.552H615.138C615.253 520.548 615.366 520.588 615.452 520.665C615.537 520.741 615.59 520.849 615.599 520.963C615.594 521.083 615.544 521.195 615.458 521.278C615.372 521.361 615.258 521.407 615.138 521.407H611.176V532.471C611.168 532.588 611.116 532.696 611.03 532.776C610.945 532.855 610.832 532.899 610.716 532.899C610.601 532.899 610.49 532.854 610.408 532.775C610.325 532.695 610.276 532.586 610.272 532.471V521.407Z" fill="white"/>
<path d="M626.745 527.177H619.971V532.504C619.963 532.623 619.909 532.734 619.82 532.814C619.731 532.894 619.614 532.936 619.495 532.931C619.38 532.931 619.269 532.887 619.186 532.807C619.104 532.727 619.055 532.619 619.051 532.504V520.996C619.059 520.884 619.11 520.779 619.192 520.703C619.274 520.627 619.382 520.585 619.495 520.585C619.553 520.58 619.612 520.588 619.667 520.606C619.723 520.624 619.774 520.653 619.818 520.691C619.863 520.729 619.899 520.776 619.925 520.828C619.952 520.881 619.967 520.938 619.971 520.996V526.339H626.745V520.996C626.753 520.881 626.806 520.774 626.892 520.697C626.978 520.621 627.09 520.58 627.205 520.585C627.263 520.58 627.32 520.588 627.375 520.606C627.43 520.625 627.48 520.654 627.523 520.692C627.566 520.731 627.601 520.777 627.625 520.83C627.65 520.882 627.663 520.938 627.665 520.996V532.504C627.663 532.562 627.65 532.62 627.625 532.673C627.601 532.726 627.567 532.773 627.524 532.813C627.481 532.853 627.431 532.884 627.376 532.904C627.321 532.924 627.263 532.934 627.205 532.931C627.088 532.932 626.976 532.888 626.891 532.808C626.805 532.729 626.753 532.62 626.745 532.504V527.177Z" fill="white"/>
<path d="M689.002 432.039H512.535V458.951H689.002V432.039Z" fill="#06E19F"/>
<path d="M597.907 449.679C597.944 449.64 597.988 449.609 598.038 449.587C598.087 449.566 598.14 449.555 598.194 449.555C598.248 449.555 598.302 449.566 598.351 449.587C598.401 449.609 598.445 449.64 598.482 449.679C599.721 450.669 601.239 451.244 602.822 451.323C603.845 451.348 604.853 451.068 605.716 450.518C606.044 450.331 606.32 450.064 606.518 449.742C606.717 449.42 606.831 449.054 606.85 448.676C606.832 448.333 606.724 448 606.537 447.711C606.349 447.422 606.088 447.188 605.781 447.032C604.83 446.519 603.794 446.18 602.724 446.03C601.631 445.886 600.577 445.534 599.616 444.994C599.22 444.786 598.885 444.478 598.646 444.1C598.406 443.722 598.27 443.287 598.252 442.84C598.274 442.37 598.411 441.913 598.652 441.508C598.893 441.104 599.23 440.765 599.633 440.522C600.578 439.914 601.682 439.599 602.806 439.618C604.274 439.694 605.689 440.19 606.883 441.048C606.928 441.077 606.967 441.114 606.998 441.158C607.028 441.201 607.049 441.251 607.06 441.303C607.071 441.355 607.071 441.409 607.06 441.462C607.05 441.514 607.028 441.563 606.998 441.607C606.932 441.694 606.837 441.752 606.73 441.77C606.623 441.788 606.513 441.765 606.423 441.706C605.369 440.929 604.112 440.478 602.806 440.407C601.86 440.392 600.93 440.648 600.126 441.147C599.835 441.319 599.589 441.557 599.409 441.843C599.229 442.129 599.12 442.454 599.09 442.791C599.106 443.104 599.204 443.407 599.374 443.669C599.544 443.932 599.781 444.145 600.06 444.287C600.936 444.773 601.895 445.091 602.888 445.224C604.046 445.391 605.162 445.776 606.176 446.358C606.601 446.582 606.958 446.915 607.213 447.322C607.467 447.729 607.608 448.197 607.623 448.676C607.6 449.18 607.453 449.67 607.195 450.103C606.937 450.537 606.575 450.899 606.143 451.159C605.133 451.806 603.956 452.144 602.757 452.129C600.964 452.068 599.238 451.44 597.825 450.337C597.774 450.294 597.735 450.24 597.711 450.179C597.687 450.117 597.678 450.051 597.687 449.986C597.695 449.92 597.719 449.858 597.758 449.804C597.796 449.751 597.847 449.708 597.907 449.679Z" fill="white"/>
<path d="M617.323 439.454C618.849 439.455 620.338 439.932 621.581 440.818C621.624 440.858 621.658 440.907 621.681 440.96C621.704 441.014 621.716 441.072 621.716 441.131C621.716 441.189 621.704 441.247 621.681 441.301C621.658 441.355 621.624 441.403 621.581 441.443C621.545 441.49 621.501 441.529 621.45 441.558C621.4 441.587 621.344 441.607 621.285 441.614C621.227 441.622 621.168 441.618 621.112 441.603C621.055 441.587 621.002 441.561 620.956 441.525C619.881 440.745 618.586 440.325 617.257 440.325C616.504 440.253 615.745 440.339 615.028 440.578C614.31 440.816 613.651 441.202 613.091 441.711C612.532 442.219 612.085 442.839 611.779 443.531C611.473 444.222 611.315 444.97 611.315 445.726C611.315 446.482 611.473 447.229 611.779 447.921C612.085 448.612 612.532 449.232 613.091 449.74C613.651 450.249 614.31 450.635 615.028 450.873C615.745 451.112 616.504 451.198 617.257 451.126C618.574 451.149 619.86 450.726 620.907 449.926C620.957 449.889 621.014 449.862 621.075 449.848C621.136 449.833 621.199 449.832 621.26 449.842C621.322 449.853 621.38 449.876 621.433 449.91C621.485 449.945 621.53 449.989 621.564 450.041C621.609 450.078 621.645 450.125 621.67 450.177C621.695 450.23 621.708 450.287 621.708 450.345C621.708 450.403 621.695 450.461 621.67 450.513C621.645 450.566 621.609 450.612 621.564 450.649C620.323 451.538 618.832 452.01 617.306 451.997C616.436 452.075 615.559 451.97 614.731 451.69C613.904 451.41 613.143 450.96 612.499 450.371C611.854 449.781 611.339 449.063 610.987 448.263C610.635 447.464 610.453 446.599 610.453 445.726C610.453 444.852 610.635 443.988 610.987 443.188C611.339 442.388 611.854 441.671 612.499 441.081C613.143 440.491 613.904 440.041 614.731 439.761C615.559 439.481 616.436 439.376 617.306 439.454H617.323Z" fill="white"/>
<path d="M625.689 440.062C625.698 439.946 625.75 439.837 625.835 439.758C625.921 439.678 626.033 439.634 626.15 439.635C626.208 439.632 626.266 439.642 626.321 439.662C626.376 439.682 626.426 439.713 626.469 439.753C626.511 439.793 626.546 439.84 626.57 439.893C626.594 439.946 626.608 440.004 626.61 440.062V451.57C626.608 451.628 626.594 451.686 626.57 451.739C626.546 451.792 626.511 451.839 626.469 451.879C626.426 451.919 626.376 451.95 626.321 451.97C626.266 451.99 626.208 452 626.15 451.997C626.033 451.998 625.921 451.954 625.835 451.874C625.75 451.795 625.698 451.686 625.689 451.57V440.062Z" fill="white"/>
<path d="M631.299 440.062C631.307 439.946 631.359 439.837 631.445 439.758C631.53 439.678 631.643 439.634 631.759 439.635H638.532C638.597 439.622 638.663 439.624 638.726 439.64C638.79 439.656 638.849 439.686 638.9 439.728C638.95 439.769 638.991 439.822 639.019 439.881C639.047 439.94 639.061 440.005 639.061 440.07C639.061 440.136 639.047 440.201 639.019 440.26C638.991 440.319 638.95 440.371 638.9 440.413C638.849 440.455 638.79 440.485 638.726 440.501C638.663 440.517 638.597 440.519 638.532 440.506H632.219V445.438H637.776C637.84 445.425 637.907 445.427 637.97 445.443C638.034 445.459 638.093 445.489 638.143 445.531C638.194 445.573 638.235 445.625 638.263 445.684C638.291 445.743 638.305 445.808 638.305 445.874C638.305 445.939 638.291 446.004 638.263 446.063C638.235 446.122 638.194 446.175 638.143 446.216C638.093 446.258 638.034 446.288 637.97 446.304C637.907 446.32 637.84 446.322 637.776 446.309H632.252V451.241H638.565C638.63 451.229 638.696 451.231 638.759 451.247C638.823 451.263 638.882 451.293 638.933 451.334C638.983 451.376 639.024 451.428 639.052 451.488C639.08 451.547 639.094 451.611 639.094 451.677C639.094 451.742 639.08 451.807 639.052 451.866C639.024 451.926 638.983 451.978 638.933 452.02C638.882 452.061 638.823 452.091 638.759 452.107C638.696 452.123 638.63 452.125 638.565 452.113H631.743C631.634 452.105 631.531 452.057 631.455 451.978C631.38 451.899 631.335 451.795 631.332 451.685L631.299 440.062Z" fill="white"/>
<path d="M643.411 441.46V451.57C643.391 451.675 643.335 451.77 643.253 451.839C643.17 451.907 643.066 451.944 642.959 451.944C642.852 451.944 642.749 451.907 642.666 451.839C642.584 451.77 642.527 451.675 642.507 451.57V440.243C642.481 440.157 642.482 440.064 642.512 439.978C642.541 439.892 642.597 439.818 642.672 439.766C642.771 439.699 642.893 439.672 643.012 439.69C643.13 439.708 643.238 439.771 643.313 439.865L651.303 450.239V440.177C651.305 440.121 651.318 440.066 651.341 440.015C651.365 439.964 651.398 439.918 651.439 439.88C651.481 439.842 651.529 439.812 651.582 439.793C651.634 439.773 651.69 439.764 651.747 439.766C651.805 439.762 651.863 439.769 651.919 439.787C651.975 439.806 652.026 439.835 652.07 439.873C652.115 439.911 652.151 439.958 652.177 440.01C652.203 440.062 652.219 440.119 652.223 440.177V451.57C652.215 451.689 652.16 451.801 652.071 451.88C651.982 451.96 651.866 452.002 651.747 451.998C651.68 451.998 651.615 451.983 651.555 451.955C651.496 451.926 651.443 451.885 651.401 451.833C651.374 451.84 651.346 451.84 651.319 451.833L643.411 441.46Z" fill="white"/>
<path d="M663.224 439.454C664.75 439.455 666.239 439.932 667.482 440.818C667.53 440.852 667.571 440.896 667.602 440.947C667.633 440.997 667.653 441.054 667.66 441.113C667.668 441.171 667.663 441.231 667.647 441.288C667.63 441.345 667.602 441.398 667.564 441.443C667.487 441.535 667.378 441.594 667.259 441.609C667.141 441.625 667.021 441.595 666.923 441.525C665.847 440.745 664.553 440.325 663.224 440.325C662.471 440.253 661.712 440.339 660.995 440.578C660.277 440.816 659.618 441.202 659.058 441.711C658.499 442.219 658.052 442.839 657.746 443.531C657.44 444.222 657.282 444.97 657.282 445.726C657.282 446.482 657.44 447.229 657.746 447.921C658.052 448.612 658.499 449.232 659.058 449.74C659.618 450.249 660.277 450.635 660.995 450.873C661.712 451.112 662.471 451.198 663.224 451.126C664.541 451.149 665.827 450.726 666.874 449.926C666.924 449.889 666.981 449.862 667.042 449.848C667.102 449.833 667.166 449.832 667.227 449.842C667.289 449.853 667.347 449.876 667.4 449.91C667.452 449.945 667.497 449.989 667.531 450.041C667.579 450.076 667.617 450.122 667.644 450.175C667.671 450.228 667.685 450.286 667.685 450.345C667.685 450.404 667.671 450.463 667.644 450.516C667.617 450.568 667.579 450.614 667.531 450.649C666.29 451.538 664.799 452.01 663.273 451.997C662.403 452.075 661.526 451.97 660.698 451.69C659.87 451.41 659.11 450.96 658.465 450.371C657.821 449.781 657.306 449.063 656.954 448.263C656.602 447.464 656.42 446.599 656.42 445.726C656.42 444.852 656.602 443.988 656.954 443.188C657.306 442.388 657.821 441.671 658.465 441.081C659.11 440.491 659.87 440.041 660.698 439.761C661.526 439.481 662.403 439.376 663.273 439.454H663.224Z" fill="white"/>
<path d="M671.459 440.062C671.467 439.946 671.519 439.837 671.605 439.758C671.69 439.678 671.803 439.634 671.919 439.635H678.693C678.757 439.622 678.823 439.624 678.887 439.64C678.95 439.656 679.009 439.686 679.06 439.728C679.11 439.769 679.151 439.822 679.179 439.881C679.207 439.94 679.222 440.005 679.222 440.07C679.222 440.136 679.207 440.201 679.179 440.26C679.151 440.319 679.11 440.371 679.06 440.413C679.009 440.455 678.95 440.485 678.887 440.501C678.823 440.517 678.757 440.519 678.693 440.506H672.38V445.438H677.903C677.968 445.425 678.034 445.427 678.098 445.443C678.161 445.459 678.22 445.489 678.271 445.531C678.321 445.573 678.362 445.625 678.39 445.684C678.418 445.743 678.432 445.808 678.432 445.874C678.432 445.939 678.418 446.004 678.39 446.063C678.362 446.122 678.321 446.175 678.271 446.216C678.22 446.258 678.161 446.288 678.098 446.304C678.034 446.32 677.968 446.322 677.903 446.309H672.38V451.241H678.693C678.757 451.229 678.823 451.231 678.887 451.247C678.95 451.263 679.009 451.293 679.06 451.334C679.11 451.376 679.151 451.428 679.179 451.488C679.207 451.547 679.222 451.611 679.222 451.677C679.222 451.742 679.207 451.807 679.179 451.866C679.151 451.926 679.11 451.978 679.06 452.02C679.009 452.061 678.95 452.091 678.887 452.107C678.823 452.123 678.757 452.125 678.693 452.113H671.87C671.761 452.105 671.659 452.057 671.583 451.978C671.507 451.899 671.463 451.795 671.459 451.685V440.062Z" fill="white"/>
<path d="M571.752 432.039H527.396V458.951H571.752V432.039Z" fill="#455A64"/>
<path d="M563.399 435.788H535.73V440.523H563.399V435.788Z" fill="#06E19F"/>
<path d="M563.399 443.12H535.73V447.854H563.399V443.12Z" fill="#06E19F"/>
<path d="M563.399 450.452H535.73V455.187H563.399V450.452Z" fill="#06E19F"/>
<path d="M592.696 458.935H501.635V483.299H592.696V458.935Z" fill="#A6A6A6"/>
<path d="M676.87 458.935H592.697V483.299H676.87V458.935Z" fill="#A6A6A6"/>
<path d="M592.696 461.466H501.635V480.767H592.696V461.466Z" fill="white"/>
<path d="M509.543 465.511C519.078 465.379 528.619 465.286 538.165 465.231L551.103 465.149L579.725 465.231C589.277 465.231 583.128 465.379 592.68 465.511C583.128 465.642 589.277 465.741 579.725 465.79L551.103 465.873L538.165 465.79C528.641 465.703 519.1 465.61 509.543 465.511Z" fill="#DBDBDB"/>
<path d="M509.543 469.227C519.078 469.095 528.619 469.002 538.165 468.947H551.103H579.725C589.277 468.947 583.128 469.095 592.68 469.227C583.128 469.358 589.277 469.457 579.725 469.506L551.103 469.605L538.165 469.506C528.641 469.462 519.1 469.369 509.543 469.227Z" fill="#DBDBDB"/>
<path d="M509.543 473.024C519.078 472.881 528.619 472.783 538.165 472.728L551.103 472.646L579.725 472.728C589.277 472.728 583.128 472.876 592.68 473.024C583.128 473.155 589.277 473.254 579.725 473.303L551.103 473.386L538.165 473.303C528.641 473.249 519.1 473.155 509.543 473.024Z" fill="#DBDBDB"/>
<path d="M509.543 476.805C519.078 476.674 528.619 476.581 538.165 476.526L551.103 476.443L579.725 476.526C589.277 476.526 583.128 476.674 592.68 476.805C583.128 476.937 589.277 477.035 579.725 477.085H551.103H538.165C528.641 477.041 519.1 476.948 509.543 476.805Z" fill="#DBDBDB"/>
<path d="M623.191 458.935H611.338V483.299H623.191V458.935Z" fill="#455A64"/>
<path d="M672.496 458.935H664.539V483.299H672.496V458.935Z" fill="#455A64"/>
<path d="M570.766 516.788H673.318V483.299H570.766V516.788Z" fill="#06E19F"/>
<path d="M492.888 516.788H570.748V483.299H492.888V516.788Z" fill="#06E19F"/>
<path d="M570.766 513.302H673.318V486.768H570.766V513.302Z" fill="white"/>
<path d="M666.675 507.844C658.664 507.986 650.668 508.085 642.689 508.14L618.72 508.222L594.734 508.14C586.744 508.14 578.749 508.041 570.748 507.844C578.76 507.712 586.755 507.619 594.734 507.564L618.72 507.482L642.689 507.564C650.679 507.619 658.675 507.712 666.675 507.844Z" fill="#DBDBDB"/>
<path d="M666.675 502.649C658.664 502.781 650.668 502.874 642.689 502.929L618.72 503.011L594.734 502.929C586.744 502.929 578.749 502.835 570.748 502.649C578.76 502.517 586.755 502.424 594.734 502.37L618.72 502.271L642.689 502.37C650.679 502.424 658.675 502.517 666.675 502.649Z" fill="#DBDBDB"/>
<path d="M666.675 497.438C658.664 497.569 650.668 497.663 642.689 497.717L618.72 497.816L594.734 497.717C586.744 497.717 578.749 497.624 570.748 497.438C578.76 497.306 586.755 497.213 594.734 497.158L618.72 497.076L642.689 497.158C650.679 497.202 658.675 497.295 666.675 497.438Z" fill="#DBDBDB"/>
<path d="M666.675 492.242C658.664 492.374 650.668 492.467 642.689 492.522L618.72 492.604L594.734 492.522C586.744 492.522 578.749 492.429 570.748 492.242C578.76 492.1 586.755 492.001 594.734 491.946L618.72 491.864L642.689 491.963C650.679 492.018 658.675 492.111 666.675 492.242Z" fill="#DBDBDB"/>
<path d="M519.867 483.299H505.285V516.787H519.867V483.299Z" fill="#455A64"/>
</g>
<defs>
<clipPath id="clip0_1323_3900">
<rect width="693" height="555" fill="white"/>
</clipPath>
</defs>
</svg>
