<svg width="634" height="604" viewBox="0 0 634 604" fill="none" xmlns="http://www.w3.org/2000/svg">
<path d="M432.511 4.05018C437.494 4.58598 459.069 1.62122 473.91 20.9815C487.948 39.3058 493.932 95.797 497.128 108.049C500.325 120.301 516.524 121.837 520.632 136.071C524.204 148.323 515.274 153.038 514.578 162.093C514.006 169.112 521.275 179.471 515.096 189.973C509.488 199.51 499.218 197.742 493.11 200.814C487.002 203.886 483.448 218.281 472.089 222.371C460.73 226.461 450.425 216.263 444.352 216.441C438.28 216.62 431.493 235.391 411.668 234.176C391.844 232.962 385.771 216.316 377.538 213.209C369.304 210.101 348.962 216.209 339.317 206.19C329.673 196.17 327.834 182.579 323.511 177.614C319.189 172.649 310.402 173.667 304.901 162.165C299.4 150.663 310.063 143.072 311.367 132.964C312.277 125.927 305.919 119.604 310.063 108.799C315.796 93.9217 333.888 96.69 340.425 81.4197C345.569 69.4356 355.642 17.5881 386.557 4.22877C407.918 -4.96913 432.511 4.05018 432.511 4.05018Z" fill="#263238"/>
<path d="M496.396 105.102C497.631 107.674 499.47 109.911 501.754 111.621L508.326 116.979C512.793 120.291 516.72 124.273 519.971 128.784C521.466 130.945 522.443 133.42 522.827 136.018C523.211 138.617 522.992 141.269 522.186 143.769C521.226 146.282 519.882 148.632 518.203 150.734C516.253 153.019 514.658 155.584 513.47 158.343C512.77 161.464 513.122 164.729 514.47 167.63C515.435 170.363 516.524 172.988 517.346 175.578C519.132 180.775 519.56 186.294 517.149 191.098C516.02 193.438 514.131 195.326 511.791 196.456C509.319 197.589 506.65 198.226 503.933 198.331C501.165 198.599 498.325 198.563 495.485 198.671C492.645 198.778 489.573 198.956 487.27 200.707C489.839 199.559 492.678 199.151 495.467 199.528C498.289 199.671 501.129 199.939 504.004 199.921C506.969 199.958 509.912 199.412 512.666 198.313C515.502 197.061 517.84 194.899 519.31 192.17C522.525 186.812 521.793 180.078 520.114 174.649C519.292 171.845 518.221 169.166 517.346 166.558C516.471 163.951 515.756 161.361 516.488 159.271C518.096 154.717 523.115 150.574 524.918 144.662C525.857 141.747 526.079 138.649 525.566 135.631C525.053 132.612 523.82 129.761 521.971 127.32C518.374 122.773 514.068 118.835 509.219 115.657L502.236 110.817C499.903 109.352 497.911 107.403 496.396 105.102Z" fill="#263238"/>
<path d="M358.32 33.9656C353.105 42.7706 349.962 52.54 345.908 61.7736C343.872 66.3994 342.014 71.0966 339.657 75.4901C338.555 77.6742 337.213 79.7289 335.656 81.6161C335.34 82.0519 334.954 82.4322 334.513 82.7413C334.116 83.1174 333.665 83.4305 333.173 83.67C332.12 84.2594 330.995 84.7773 329.869 85.2953C325.155 87.3018 320.552 89.5615 316.082 92.0642C311.347 94.635 307.533 98.6181 305.169 103.459C304.028 105.951 303.536 108.691 303.74 111.424C304.078 114.061 304.92 116.608 306.223 118.926C308.687 123.391 311.009 127.856 311.259 133.035C311.777 127.873 309.616 122.855 307.687 118.265C306.628 116.076 305.991 113.707 305.812 111.282C305.763 108.923 306.323 106.592 307.437 104.513C309.808 100.305 313.335 96.8656 317.6 94.6003C322.033 92.2428 326.588 90.1205 331.245 88.2422C332.423 87.6707 333.584 87.0991 334.817 86.4562C336.074 85.7374 337.183 84.7858 338.085 83.6521C339.734 81.5636 341.148 79.2996 342.3 76.9011C344.545 72.2882 346.502 67.5401 348.158 62.6845L353.105 48.2715C354.562 43.405 356.304 38.6282 358.32 33.9656Z" fill="#263238"/>
<path d="M318.564 174.31C320.797 177.185 321.154 180.971 322.047 184.436C322.94 187.901 323.726 191.58 324.744 195.152C325.727 198.742 327.08 202.219 328.78 205.529C330.499 209.038 333.05 212.073 336.21 214.37C343.229 218.656 351.427 217.942 358.499 216.513C362.071 215.763 365.643 214.834 369.215 214.191C372.72 213.263 376.398 213.202 379.931 214.012C376.5 212.59 372.753 212.103 369.073 212.602C365.393 212.959 361.804 213.62 358.232 214.048C351.23 214.941 343.747 215.209 338.139 211.655C335.398 209.669 333.159 207.07 331.602 204.064C329.898 200.951 328.441 197.708 327.244 194.366C325.976 191.009 324.869 187.544 323.672 184.097C323.065 182.311 322.422 180.65 321.708 178.953C321.097 177.151 320.011 175.546 318.564 174.31Z" fill="#263238"/>
<path d="M534.545 422.278C534.545 422.278 491.681 579.713 481.375 602.949H315.277C343.978 527.937 374.323 429.582 375.198 422.76C375.198 422.438 375.198 422.278 375.198 422.278H534.545Z" fill="#37474F"/>
<path d="M511.256 443.228C510.22 455.998 463.73 591.966 459.819 602.95H457.426C457.426 602.95 507.916 452.551 510.631 443.228C510.684 442.835 511.309 442.835 511.256 443.228Z" fill="#263238"/>
<path d="M398.166 422.26L419.598 563.604L420.366 568.408L422.259 581.178L422.402 582.089L422.92 585.5L425.545 602.896H481.34C491.663 579.678 534.509 422.206 534.509 422.206L398.166 422.26Z" fill="#263238"/>
<path d="M617.845 602.95H460.677C460.677 602.271 460.587 601.753 460.569 601.307C460.552 600.86 460.462 600.235 460.462 600.235C459.587 599.753 458.676 599.271 457.819 598.806C448.568 593.77 440.459 589.876 433.779 586.876C432.636 586.376 431.547 585.894 430.493 585.394C427.457 584.09 424.742 582.982 422.492 582.107C416.705 579.803 413.562 578.785 413.562 578.785C413.365 578.303 413.205 577.839 413.026 577.357C390.237 519.365 376.52 430.994 375.234 422.76C375.234 422.314 375.234 422.135 375.234 422.135H599.645C613.005 463.946 639.812 540.815 617.845 602.95Z" fill="#37474F"/>
<path d="M405.416 574.641C424.455 581.196 442.833 590.501 460.407 600.253C460.556 600.319 460.673 600.442 460.732 600.594C460.79 600.747 460.786 600.916 460.72 601.065C460.653 601.214 460.531 601.331 460.378 601.39C460.226 601.448 460.056 601.444 459.907 601.378C441.368 593.43 422.401 585.822 404.416 576.856C404.122 576.723 403.893 576.48 403.78 576.178C403.666 575.877 403.676 575.542 403.809 575.249C403.941 574.955 404.185 574.726 404.487 574.612C404.788 574.498 405.123 574.509 405.416 574.641Z" fill="#263238"/>
<path d="M399.525 447.496C399.525 446.853 400.704 446.71 400.704 447.407C400.697 468.08 401.734 488.741 403.812 509.31C404.669 518.865 412.349 571.605 428.816 567.765C431.584 567.104 433.013 564.39 433.441 560.211C433.959 555.192 432.066 549.03 431.244 544.029C429.458 532.992 427.923 521.919 426.976 510.756C425.049 489.993 425.277 469.087 427.655 448.371C427.655 448.229 427.711 448.093 427.812 447.992C427.912 447.892 428.048 447.835 428.19 447.835C428.333 447.835 428.469 447.892 428.569 447.992C428.67 448.093 428.726 448.229 428.726 448.371C428.726 477.197 429.458 505.952 433.763 534.51C435.835 548.226 442.693 568.873 428.405 570.998C414.117 573.123 404.347 538.546 402.561 529.081C397.632 502.719 397.436 474.215 399.525 447.496Z" fill="#263238"/>
<path d="M428.527 569.194C429.997 572.755 431.237 576.406 432.242 580.125C433.305 582.98 433.832 586.008 433.796 589.055C433.77 589.175 433.71 589.286 433.622 589.373C433.535 589.46 433.425 589.521 433.305 589.547C433.184 589.574 433.059 589.565 432.943 589.522C432.827 589.479 432.727 589.403 432.653 589.305C430.706 586.84 429.884 583.482 428.795 580.553C427.545 577.178 426.205 573.82 425.044 570.409C424.883 569.947 424.912 569.44 425.125 569C425.338 568.559 425.717 568.221 426.178 568.06C426.64 567.899 427.147 567.928 427.588 568.141C428.028 568.354 428.366 568.733 428.527 569.194Z" fill="#263238"/>
<path d="M503.345 464.749C503.307 462.449 503.541 460.153 504.042 457.908C504.065 457.837 504.111 457.775 504.172 457.731C504.233 457.686 504.306 457.663 504.381 457.663C504.456 457.663 504.53 457.686 504.591 457.731C504.652 457.775 504.697 457.837 504.721 457.908C505.192 459.845 505.45 461.827 505.489 463.82C505.721 466.088 506.024 468.356 506.256 470.625C506.751 475.265 507.563 479.865 508.685 484.395C510.794 492.982 515.188 500.839 521.402 507.131C527.558 513.176 534.839 517.957 542.834 521.204C551.764 524.973 561.087 526.366 570.267 529.063C570.337 529.095 570.395 529.15 570.432 529.219C570.468 529.287 570.481 529.366 570.469 529.442C570.457 529.519 570.42 529.59 570.365 529.644C570.309 529.698 570.237 529.732 570.16 529.741C559.975 529.729 549.889 527.746 540.458 523.901C532.105 520.762 524.509 515.893 518.169 509.613C511.789 503.155 507.293 495.078 505.167 486.252C504.117 481.714 503.519 477.084 503.381 472.429C503.211 469.872 503.199 467.307 503.345 464.749Z" fill="#263238"/>
<path d="M595.823 602.95C606.289 558.496 602.592 509.524 593.394 465.106C591.393 454.926 588.447 443.853 586.018 433.798C588.357 440.567 590.75 447.335 592.84 454.194C606.271 500.63 611.593 556.532 595.823 602.95Z" fill="#263238"/>
<path d="M440.065 214.834C411.917 265.485 358.123 358.035 320.403 367.769C284.236 377.128 210.921 317.761 150.304 280.97C138.249 273.647 216.761 197.563 229.227 205.958C261.804 228.104 300.382 263.699 308.99 261.52C316.027 259.734 367.428 215.566 400.29 190.08C452.656 149.645 459.889 179.203 440.065 214.834Z" fill="#AD6359"/>
<path d="M150.324 280.97C139.911 274.54 94.779 240.91 84.2416 228.747C73.7042 216.584 46.3249 179.364 54.7726 170.398C63.2204 161.433 72.2219 171.684 72.2219 171.684C72.2219 171.684 63.0597 154.146 72.4362 145.895C81.8127 137.643 95.2255 154.057 95.2255 154.057C95.2255 154.057 87.135 135.339 97.0115 127.784C106.888 120.23 117.765 138.983 117.765 138.983C117.765 138.983 109.567 122.212 120.39 119.444C133.392 116.104 145.001 148.734 157.575 161.29C160.432 164.147 219.513 215.031 219.513 215.031L150.324 280.97Z" fill="#AD6359"/>
<path d="M116.781 137.393C125.371 161.361 133.283 170.363 153.036 185.794C153.109 185.855 153.157 185.94 153.172 186.033C153.187 186.127 153.168 186.222 153.118 186.303C153.068 186.383 152.991 186.443 152.9 186.471C152.81 186.499 152.712 186.493 152.626 186.455C131.908 173.096 120.371 163.237 115.602 137.751C115.37 136.5 116.37 136.25 116.781 137.393Z" fill="#263238"/>
<path d="M94.5466 152.145C105.655 176.256 114.193 186.079 133.642 203.761C133.928 204.011 133.535 204.511 133.231 204.278C112.657 188.526 101.351 178.435 93.4214 152.895C93.082 151.734 94.0644 151.038 94.5466 152.145Z" fill="#263238"/>
<path d="M73.2394 172.56C85.7414 195.135 94.5286 206.315 115.657 221.049C115.739 221.126 115.792 221.228 115.806 221.339C115.821 221.45 115.797 221.562 115.738 221.657C115.679 221.752 115.589 221.824 115.483 221.859C115.377 221.895 115.261 221.893 115.157 221.853C92.1531 208.923 81.0085 195.063 72.5965 173.006C72.0249 171.506 72.4536 171.149 73.2394 172.56Z" fill="#263238"/>
<path d="M0.387695 71.7221L105.815 78.7232L189.847 38.056L262.573 159.093L177.487 190.348L178.738 193.617L160.967 197.921L159.431 195.081L65.5231 190.312L0.387695 71.7221Z" fill="#455A64"/>
<path d="M165.075 191.651C165.075 191.651 196.009 176.596 222.549 168.433C235.051 164.576 250.428 158.057 250.428 158.057L250.535 149.877C250.535 149.877 189.204 161.397 165.075 191.651Z" fill="#F1F1F1"/>
<path d="M104.226 75.6866C104.226 75.6866 115.299 60.2734 140.981 52.6829C152.662 49.2181 170.968 48.6644 185.506 37.4305L250.535 149.948C250.535 149.948 195.347 162.879 165.075 191.723L104.226 75.6866Z" fill="#FFFFFA"/>
<path d="M104.226 75.6866C113.906 63.8097 128.051 56.2013 142.625 52.0578C150.037 50.1289 157.61 49.0931 164.914 46.9856C172.407 45.0278 179.445 41.6241 185.632 36.9661C185.811 36.9661 250.803 149.484 250.982 149.573L251.268 150.091L250.696 150.234C242.963 152.163 235.319 154.539 227.764 157.164C205.314 165.183 183.114 175.542 165.361 191.812L165.039 192.116C164.789 192.116 104.53 75.7938 104.315 75.6152L104.226 75.6866ZM104.226 75.6866C104.012 75.6866 166.611 192.509 164.95 191.419C170.871 185.993 177.266 181.11 184.06 176.828C197.788 168.514 212.36 161.682 227.532 156.45C235.086 153.788 242.73 151.377 250.535 149.448L250.249 150.091C250.392 150.091 184.382 36.8054 185.757 37.5734C173.452 47.2178 157.538 48.9681 142.804 52.3257C128.23 56.3442 114.067 63.8276 104.315 75.5437L104.226 75.6866Z" fill="#F1F1F1"/>
<path d="M165.074 191.652L104.225 75.6867C104.225 75.6867 44.9656 57.8267 23.8551 61.5594L3.45898 69.4893L68.5051 186.508L165.074 191.652Z" fill="#FFFFFA"/>
<path d="M165.074 191.652C165.074 191.652 103.475 75.2226 104.136 75.9906C84.5272 70.0384 64.5133 65.5139 44.2512 62.4527C37.5313 61.4179 30.7058 61.2558 23.9444 61.9705C24.2837 61.7919 3.53039 69.9717 3.58397 69.9003L3.79829 69.2752L68.7015 186.383C67.5228 186.133 165.306 191.741 165.146 191.741L165.074 191.652ZM165.074 191.652L68.3086 186.776C67.9514 185.955 3.11961 69.9896 2.78027 69.2573L3.26249 69.0787L23.7658 61.1489C30.6238 60.4375 37.5448 60.6116 44.3583 61.6668C64.6523 64.7969 84.6952 69.3809 104.332 75.3833C104.761 75.3833 164.806 191.473 165.056 191.652H165.074Z" fill="#F1F1F1"/>
<path d="M23.873 61.5593L83.186 177.131C83.186 177.131 138.838 182.704 165.074 191.651L68.4694 186.508L3.45898 69.4891L23.873 61.5593Z" fill="#F1F1F1"/>
<path d="M104.226 75.6868C109.536 85.2121 114.775 94.791 119.942 104.424L135.302 133.339L150.358 162.415C155.347 172.107 160.252 181.853 165.075 191.652C159.776 182.126 154.543 172.548 149.376 162.915L134.016 134L118.96 104.941C113.983 95.2256 109.072 85.474 104.226 75.6868Z" fill="#DBDBDB"/>
<path d="M117.497 82.0449C121.974 78.1111 126.881 74.696 132.124 71.8647C137.345 68.9821 142.837 66.6192 148.52 64.81C154.217 63.024 159.986 61.6131 165.755 60.1486C168.63 59.4163 171.506 58.6841 174.363 57.8804C177.246 57.1695 180.075 56.2563 182.829 55.1478C177.328 57.418 171.654 59.2456 165.862 60.6129C160.129 62.1489 154.378 63.667 148.752 65.5066C143.074 67.2241 137.577 69.4911 132.339 72.2755C127.104 75.0721 122.136 78.3422 117.497 82.0449Z" fill="#263238"/>
<path d="M169.11 64.4527C174.361 62.5238 179.826 61.2558 185.024 59.5055C182.564 60.8369 179.957 61.874 177.255 62.5953C174.577 63.3679 171.858 63.9881 169.11 64.4527Z" fill="#263238"/>
<path d="M119.693 86.4029C122.655 83.7438 125.846 81.3531 129.231 79.2589C132.595 77.0985 136.097 75.1596 139.714 73.4544C147.056 70.3255 154.69 67.9325 162.504 66.3104C158.7 67.4713 154.878 68.6144 151.091 69.8824C143.545 72.3821 136.298 75.7063 129.481 79.7947C126.094 81.8082 122.827 84.0146 119.693 86.4029Z" fill="#263238"/>
<path d="M121.891 90.7607C126.367 86.8269 131.274 83.4118 136.518 80.5805C141.739 77.6978 147.23 75.3349 152.913 73.5258C158.611 71.7398 164.38 70.3289 170.148 68.8643C173.024 68.1321 175.899 67.3998 178.757 66.5961C181.639 65.8852 184.468 64.9721 187.223 63.8635C181.721 66.1338 176.048 67.9613 170.256 69.3287C164.522 70.8646 158.772 72.3828 153.146 74.2223C147.468 75.9398 141.97 78.2069 136.732 80.9913C131.497 83.7878 126.529 87.058 121.891 90.7607Z" fill="#263238"/>
<path d="M124.087 95.1185C128.563 91.1847 133.47 87.7697 138.714 84.9383C143.932 82.025 149.423 79.6321 155.11 77.7943C160.807 76.0083 166.576 74.5974 172.345 73.1329C175.22 72.4006 178.096 71.6684 180.953 70.8647C183.836 70.1538 186.665 69.2406 189.419 68.1321C183.923 70.3997 178.255 72.2272 172.47 73.5972C166.719 75.1332 160.968 76.6513 155.342 78.4909C149.664 80.2084 144.167 82.4754 138.929 85.2598C133.69 88.0848 128.722 91.3849 124.087 95.1185Z" fill="#263238"/>
<path d="M151.18 84.7776C154.49 83.5869 157.812 82.3962 161.146 81.2056C164.468 80.0089 167.914 79.2231 171.308 78.2587L181.542 75.6332C184.957 74.8013 188.32 73.7696 191.615 72.5435C188.411 74.0103 185.089 75.2052 181.685 76.1155C178.309 77.1156 174.88 77.9908 171.486 78.9016C168.093 79.8125 164.646 80.6876 161.306 81.6878C157.966 82.6879 154.573 83.8131 151.18 84.7776Z" fill="#263238"/>
<path d="M126.282 99.4763C129.283 96.6011 132.589 94.0619 136.141 91.9036C137.927 90.832 139.713 89.7783 141.588 88.8674C143.444 87.9448 145.346 87.1162 147.286 86.3849C139.949 90.1868 132.926 94.5643 126.282 99.4763Z" fill="#263238"/>
<path d="M128.479 103.852C132.951 99.9068 137.859 96.4853 143.107 93.6539C148.324 90.7405 153.816 88.3477 159.502 86.5099C165.2 84.7239 170.968 83.313 176.737 81.8485C179.613 81.1162 182.488 80.3839 185.346 79.5802C188.233 78.8667 191.068 77.9537 193.829 76.8477C188.326 79.1128 182.653 80.9401 176.862 82.3128C171.111 83.8488 165.36 85.3669 159.734 87.2065C154.056 88.924 148.559 91.191 143.321 93.9754C138.078 96.8001 133.11 100.107 128.479 103.852Z" fill="#263238"/>
<path d="M132.873 112.567C137.345 108.622 142.252 105.201 147.5 102.369C152.723 99.482 158.222 97.1246 163.914 95.3323C169.593 93.5463 175.362 92.1175 181.131 90.653C184.006 89.9208 186.882 89.1885 189.739 88.3848C192.627 87.6713 195.462 86.7582 198.223 85.6522C192.72 87.9173 187.046 89.7447 181.256 91.1174C175.505 92.6534 169.754 94.1714 164.128 96.011C158.455 97.7253 152.963 99.9925 147.733 102.78C142.485 105.572 137.51 108.849 132.873 112.567Z" fill="#263238"/>
<path d="M167.326 99.6727C170.327 98.5475 173.399 97.6723 176.453 96.7972C179.507 95.9221 182.632 95.1719 185.776 94.6183C182.775 95.7435 179.721 96.6007 176.649 97.4937C173.577 98.3867 170.487 99.1011 167.326 99.6727Z" fill="#263238"/>
<path d="M135.07 116.925C138.617 113.597 142.536 110.69 146.751 108.263C148.858 107.066 150.984 105.888 153.198 104.887C155.403 103.869 157.663 102.974 159.967 102.208C155.57 104.207 151.277 106.431 147.108 108.87C145.018 110.067 142.982 111.388 140.982 112.71C138.982 114.032 136.981 115.425 135.07 116.925Z" fill="#263238"/>
<path d="M137.267 121.283C141.738 117.338 146.646 113.917 151.894 111.085C157.117 108.198 162.615 105.841 168.307 104.048C173.987 102.262 179.756 100.833 185.524 99.369C188.4 98.6367 191.275 97.9044 194.133 97.1007C197.02 96.3872 199.855 95.4742 202.616 94.3682C197.113 96.6333 191.44 98.4606 185.649 99.8333C179.898 101.369 174.148 102.887 168.522 104.727C162.848 106.441 157.357 108.708 152.126 111.496C146.879 114.288 141.904 117.565 137.267 121.283Z" fill="#263238"/>
<path d="M141.659 129.999C146.131 126.054 151.038 122.632 156.287 119.801C161.509 116.914 167.008 114.556 172.7 112.764C178.379 110.978 184.166 109.549 189.917 108.085C192.792 107.352 195.668 106.62 198.525 105.816C201.432 105.094 204.285 104.169 207.062 103.048C201.559 105.313 195.886 107.141 190.095 108.513C184.345 110.067 178.594 111.567 172.968 113.407C167.291 115.119 161.799 117.393 156.572 120.194C151.301 122.981 146.308 126.265 141.659 129.999Z" fill="#263238"/>
<path d="M143.857 134.357C148.329 130.412 153.237 126.99 158.485 124.159C163.713 121.282 169.21 118.925 174.898 117.122C180.578 115.336 186.364 113.907 192.115 112.443C194.991 111.711 197.866 110.978 200.724 110.175C203.611 109.461 206.446 108.548 209.207 107.442C203.707 109.715 198.033 111.543 192.24 112.907C186.489 114.461 180.738 115.961 175.112 117.801C169.435 119.513 163.943 121.787 158.717 124.588C153.466 127.367 148.491 130.638 143.857 134.357Z" fill="#263238"/>
<path d="M191.258 122.783C194.937 121.498 198.705 120.515 202.438 119.461L208.046 117.926C209.832 117.372 211.761 116.836 213.601 116.14C210.09 117.854 206.408 119.195 202.617 120.14C198.866 121.14 195.08 122.069 191.258 122.783Z" fill="#263238"/>
<path d="M167.771 130.678C169.325 129.874 170.879 129.089 172.469 128.356C174.058 127.624 175.701 127.052 177.344 126.463C180.649 125.369 184.019 124.486 187.435 123.82C184.167 125.034 180.845 126.017 177.577 127.142C174.308 128.267 171.058 129.571 167.771 130.678Z" fill="#263238"/>
<path d="M148.251 143.072C150.21 141.077 152.364 139.282 154.681 137.714C155.859 136.964 157.02 136.196 158.253 135.518C159.464 134.829 160.71 134.203 161.985 133.642C157.377 136.804 152.787 139.822 148.251 143.072Z" fill="#263238"/>
<path d="M196.348 126.391C199.562 125.248 202.849 124.373 206.099 123.426L210.975 122.051C212.6 121.569 214.226 121.105 215.833 120.515C212.783 122.04 209.58 123.238 206.278 124.087C202.974 124.998 199.67 125.82 196.348 126.391Z" fill="#263238"/>
<path d="M150.446 147.43C153.268 144.846 156.317 142.521 159.555 140.483C162.771 138.4 166.111 136.515 169.556 134.839C176.533 131.707 183.818 129.313 191.292 127.695C187.72 128.838 184.005 129.945 180.398 131.142C176.796 132.356 173.276 133.799 169.86 135.464C166.412 137.052 163.061 138.841 159.823 140.822C156.58 142.854 153.45 145.06 150.446 147.43Z" fill="#263238"/>
<path d="M152.645 151.788C157.116 147.843 162.024 144.421 167.272 141.59C172.5 138.713 177.997 136.356 183.685 134.553C189.365 132.767 195.151 131.338 200.902 129.874C203.778 129.141 206.653 128.409 209.511 127.605C212.398 126.892 215.233 125.979 217.994 124.873C212.494 127.146 206.82 128.974 201.027 130.338C195.276 131.892 189.543 133.392 183.9 135.232C178.226 136.952 172.734 139.225 167.504 142.018C162.259 144.808 157.285 148.079 152.645 151.788Z" fill="#263238"/>
<path d="M179.738 141.429C186.301 138.788 193.046 136.621 199.92 134.946L210.154 132.321C213.574 131.486 216.944 130.455 220.245 129.231C213.833 132.249 206.868 133.75 200.099 135.643L189.901 138.358C186.454 139.304 183.06 140.269 179.738 141.429Z" fill="#263238"/>
<path d="M154.842 156.146C157.737 153.374 160.916 150.914 164.325 148.806C166.111 147.788 167.755 146.752 169.558 145.859C171.343 144.955 173.173 144.144 175.041 143.43C168.011 147.177 161.26 151.426 154.842 156.146Z" fill="#263238"/>
<path d="M157.056 160.504C161.527 156.559 166.435 153.137 171.683 150.306C176.911 147.429 182.408 145.072 188.096 143.269C193.776 141.483 199.562 140.054 205.313 138.59C208.189 137.857 211.064 137.125 213.94 136.321C216.821 135.605 219.649 134.692 222.405 133.589C216.905 135.862 211.231 137.69 205.438 139.054C199.705 140.608 193.954 142.108 188.311 143.948C182.637 145.668 177.145 147.941 171.915 150.734C166.671 153.524 161.696 156.795 157.056 160.504Z" fill="#263238"/>
<path d="M159.236 164.862C161.932 162.397 164.83 160.163 167.898 158.182C170.959 156.181 174.132 154.357 177.4 152.717C180.685 151.114 184.103 149.799 187.616 148.788C191.081 147.68 194.581 146.662 198.1 145.698C194.671 146.889 191.23 148.079 187.777 149.27C184.307 150.354 180.937 151.734 177.704 153.396C174.425 154.953 171.241 156.7 168.166 158.628C165.082 160.547 162.101 162.628 159.236 164.862Z" fill="#263238"/>
<path d="M40.7705 72.5791C50.7721 73.2578 60.7023 74.7402 70.5967 76.3118C75.5261 77.2048 80.4376 78.1931 85.3312 79.2766C90.2427 80.2946 95.0828 81.5805 99.905 82.9379C95.0113 81.8484 90.1355 80.7411 85.224 79.741C80.3125 78.7408 75.4011 77.8299 70.4717 77.0262C65.5423 76.2225 60.613 75.2403 55.6479 74.5973C50.6828 73.9543 45.7356 73.1863 40.7705 72.5791Z" fill="#263238"/>
<path d="M76.2041 81.1516C78.383 81.4195 80.5619 81.7053 82.7051 82.1696L89.1526 83.5448C93.4211 84.545 97.7076 85.5273 101.923 86.7775C97.5647 86.1167 93.2783 85.1701 88.9919 84.2414C84.7055 83.3127 80.4726 82.1696 76.2041 81.1516Z" fill="#263238"/>
<path d="M42.751 76.4011C47.3946 76.5619 52.0025 77.0976 56.5925 77.6692C61.1825 78.2407 65.7547 79.0623 70.2732 80.116C65.6475 79.6516 61.0753 78.973 56.4853 78.33C51.8953 77.687 47.3589 77.1512 42.751 76.4011Z" fill="#263238"/>
<path d="M44.8066 80.2408C52.3614 80.6695 59.8448 81.7411 67.3103 82.777C74.7757 83.8128 82.2055 85.3488 89.5459 87.2063C82.0805 85.9561 74.6864 84.5273 67.2031 83.4914C59.7198 82.4555 52.29 81.2767 44.8066 80.2408Z" fill="#263238"/>
<path d="M46.8242 84.0808C56.8258 84.7595 66.7381 86.2419 76.6326 87.8135C81.5857 88.7065 86.5032 89.6948 91.3849 90.7783C96.2786 91.8142 101.136 93.0822 105.941 94.4575C101.065 93.3501 96.1893 92.2428 91.2778 91.2427C86.3663 90.2425 81.4548 89.3316 76.5075 88.5279C71.5603 87.7242 66.6488 86.7419 61.7016 86.099C56.7544 85.456 51.7893 84.7059 46.8242 84.0808Z" fill="#263238"/>
<path d="M91.2773 94.4038C94.1171 94.761 96.9032 95.3861 99.7073 95.9933C102.511 96.6006 105.262 97.3507 107.959 98.2973C105.101 97.9401 102.333 97.2971 99.5287 96.6899C96.7246 96.0826 93.9921 95.3504 91.2773 94.4038Z" fill="#263238"/>
<path d="M48.8428 87.9207C55.0402 88.2243 61.2019 88.9923 67.3279 89.8495C73.4538 90.7068 79.5798 91.832 85.6165 93.2787C73.3467 91.4569 61.1126 89.6352 48.8428 87.9207Z" fill="#263238"/>
<path d="M95.6533 102.155C98.4395 102.494 101.172 103.102 103.905 103.709C106.637 104.316 109.263 105.03 111.995 105.959C109.191 105.62 106.476 104.995 103.744 104.405C101.011 103.816 98.3145 103.048 95.6533 102.155Z" fill="#263238"/>
<path d="M79.3652 99.1189C81.5762 99.2732 83.7765 99.5535 85.9556 99.9583C88.1406 100.335 90.2999 100.848 92.4209 101.494C90.2098 101.341 88.0094 101.061 85.8305 100.655C83.6459 100.276 81.4867 99.7632 79.3652 99.1189Z" fill="#263238"/>
<path d="M52.8613 95.5829C56.094 95.69 59.2909 96.0651 62.4879 96.4223C65.6848 96.7795 68.8639 97.2796 72.0073 97.9761C68.7746 97.869 65.5776 97.4939 62.3986 97.1367C59.2195 96.7795 56.0404 96.2794 52.8613 95.5829Z" fill="#263238"/>
<path d="M54.8789 99.4763C64.8805 100.155 74.8107 101.637 84.7051 103.227C89.6345 104.108 94.546 105.09 99.4396 106.174C104.351 107.21 109.191 108.478 114.013 109.853C109.12 108.764 104.244 107.638 99.3503 106.638C94.4567 105.638 89.5095 104.727 84.5801 103.923C79.6507 103.12 74.7214 102.137 69.7742 101.495C64.8269 100.852 59.8618 100.048 54.8789 99.4763Z" fill="#263238"/>
<path d="M56.8965 103.263C66.8981 103.941 76.8282 105.424 86.7227 106.995C91.652 107.888 96.5635 108.877 101.457 109.96C106.369 110.978 111.209 112.264 116.031 113.639C111.137 112.532 106.262 111.425 101.35 110.425C96.4385 109.424 91.527 108.514 86.5977 107.71C81.6683 106.906 76.7389 105.924 71.7739 105.281C66.8088 104.638 61.8794 103.888 56.8965 103.263Z" fill="#263238"/>
<path d="M58.9141 107.102C65.7902 107.459 72.6127 108.334 79.4173 109.317C86.222 110.299 92.9731 111.603 99.6527 113.246C92.8659 112.192 86.097 111.014 79.3102 110.031C72.5234 109.049 65.7187 108.049 58.9141 107.102Z" fill="#263238"/>
<path d="M67.0049 116.175L89.5442 161.272C107.456 163.318 125.229 166.437 142.767 170.612L118.531 125.73C118.531 125.73 80.4892 116.318 67.0049 116.175Z" fill="#455A64"/>
<path d="M236.639 218.192C236.639 218.192 228.495 187.329 222.029 174.488C215.564 161.647 173.593 123.051 164.735 131.624C153.304 142.697 173.093 169.773 184.506 181.775C184.506 181.775 158.019 207.35 168.021 229.854C178.022 252.358 236.639 218.192 236.639 218.192Z" fill="#AD6359"/>
<path d="M162.592 135.768C159.448 153.395 175.451 168.166 185.667 180.632C185.824 180.809 185.936 181.022 185.995 181.252C186.053 181.482 186.055 181.723 186 181.954C185.946 182.185 185.837 182.4 185.683 182.58C185.528 182.76 185.333 182.9 185.113 182.989C174.718 194.455 163.413 213.655 167.074 229.55C167.105 229.645 167.097 229.748 167.052 229.837C167.007 229.926 166.928 229.993 166.833 230.024C166.739 230.054 166.635 230.046 166.547 230.001C166.458 229.956 166.391 229.877 166.36 229.783C160.109 213.262 169.7 193.491 181.88 181.668C171.164 169.041 155.787 153.52 162.431 135.732L162.592 135.768Z" fill="#263238"/>
<path d="M240.998 208.423L177.523 313.993C177.523 313.993 291.006 381.843 324.94 371.699C358.874 361.554 420.723 257.698 440.583 217.102C460.444 176.507 449.513 154.592 409.078 182.883C368.643 211.173 313.724 256.073 307.08 256.645C300.436 257.216 240.998 208.423 240.998 208.423Z" fill="#17AC91"/>
<path d="M403.186 282.988C402.953 283.345 402.703 283.72 402.471 284.113H401.185C399.652 284.108 398.183 283.497 397.099 282.413C396.014 281.328 395.403 279.859 395.399 278.326C395.394 277.091 394.901 275.908 394.028 275.035C393.155 274.162 391.972 273.669 390.737 273.665H387.165V272.539H390.737C392.272 272.539 393.744 273.149 394.829 274.234C395.914 275.319 396.524 276.791 396.524 278.326C396.528 279.561 397.021 280.744 397.894 281.617C398.767 282.49 399.95 282.983 401.185 282.988H403.186ZM409.633 226.818L407.222 224.496C406.348 223.622 405.858 222.437 405.858 221.201C405.858 219.965 406.348 218.78 407.222 217.906C408.306 216.821 408.915 215.35 408.915 213.816C408.915 212.282 408.306 210.811 407.222 209.726L404.668 207.172L403.864 207.958L406.418 210.512C407.292 211.386 407.783 212.571 407.783 213.807C407.783 215.043 407.292 216.228 406.418 217.102C405.879 217.64 405.451 218.278 405.159 218.982C404.867 219.685 404.716 220.439 404.716 221.201C404.716 221.962 404.867 222.717 405.159 223.42C405.451 224.123 405.879 224.762 406.418 225.3L408.829 227.711L409.633 226.818ZM431.601 183.686C432.475 182.812 433.66 182.322 434.896 182.322C436.132 182.322 437.317 182.812 438.191 183.686C438.726 184.226 439.364 184.654 440.066 184.945C440.768 185.236 441.521 185.385 442.281 185.383C443.041 185.385 443.794 185.236 444.496 184.945C445.199 184.654 445.836 184.226 446.371 183.686L448.925 181.132L448.121 180.328L445.567 182.882C445.138 183.317 444.626 183.663 444.062 183.899C443.498 184.135 442.893 184.257 442.281 184.257C441.67 184.257 441.064 184.135 440.5 183.899C439.936 183.663 439.424 183.317 438.995 182.882C437.904 181.801 436.431 181.195 434.896 181.195C433.361 181.195 431.887 181.801 430.797 182.882L428.386 185.311L429.19 186.097L431.601 183.686ZM365.805 310.724H362.447C361.835 310.724 361.229 310.604 360.663 310.369C360.097 310.135 359.584 309.792 359.151 309.359C358.718 308.926 358.375 308.412 358.14 307.846C357.906 307.281 357.785 306.675 357.785 306.063C357.781 304.529 357.17 303.06 356.085 301.976C355.001 300.892 353.532 300.281 351.999 300.276H348.427V301.401H351.999C353.232 301.406 354.413 301.899 355.283 302.773C356.154 303.646 356.642 304.829 356.642 306.063C356.647 307.599 357.261 309.071 358.349 310.156C359.437 311.24 360.911 311.849 362.447 311.849H365.858L365.805 310.724ZM248.143 305.152H244.732C243.498 305.152 242.315 304.663 241.442 303.793C240.568 302.922 240.075 301.741 240.07 300.508C240.07 298.972 239.461 297.498 238.376 296.41C237.292 295.322 235.82 294.708 234.284 294.704H230.712V295.936H234.284C235.517 295.941 236.698 296.434 237.568 297.308C238.438 298.181 238.927 299.364 238.927 300.597C238.932 302.134 239.545 303.606 240.633 304.69C241.722 305.775 243.195 306.384 244.732 306.384H248.143V305.152ZM361.447 251.107L359.018 248.696C358.153 247.818 357.668 246.634 357.668 245.401C357.668 244.168 358.153 242.985 359.018 242.106C360.103 241.018 360.712 239.544 360.712 238.007C360.712 236.47 360.103 234.996 359.018 233.908L356.482 231.372L355.678 232.158L358.232 234.712C359.097 235.591 359.582 236.774 359.582 238.007C359.582 239.24 359.097 240.424 358.232 241.302C357.693 241.838 357.265 242.476 356.973 243.178C356.682 243.879 356.531 244.632 356.531 245.392C356.531 246.152 356.682 246.905 356.973 247.607C357.265 248.309 357.693 248.946 358.232 249.482L360.643 251.911L361.447 251.107ZM324.494 355.856L322.083 353.427C321.21 352.553 320.719 351.368 320.719 350.132C320.719 348.896 321.21 347.711 322.083 346.837C323.167 345.752 323.776 344.281 323.776 342.747C323.776 341.213 323.167 339.742 322.083 338.657L319.583 336.103L318.779 336.907L321.333 339.461C322.207 340.335 322.697 341.52 322.697 342.756C322.697 343.992 322.207 345.177 321.333 346.051C320.253 347.139 319.647 348.609 319.647 350.141C319.647 351.674 320.253 353.144 321.333 354.231L323.744 356.642L324.494 355.856ZM228.05 338.657L225.479 336.103L224.693 336.907L227.247 339.443C227.85 340.066 228.281 340.835 228.497 341.675L229.711 342.283C229.594 340.911 228.992 339.626 228.015 338.657H228.05ZM271.968 266.324L269.575 263.913C268.701 263.039 268.211 261.854 268.211 260.618C268.211 259.382 268.701 258.197 269.575 257.323C270.659 256.238 271.268 254.767 271.268 253.233C271.268 251.699 270.659 250.228 269.575 249.143L267.021 246.589L266.217 247.393L268.771 249.947C269.203 250.378 269.546 250.89 269.78 251.454C270.014 252.018 270.134 252.622 270.134 253.233C270.134 253.843 270.014 254.448 269.78 255.012C269.546 255.575 269.203 256.088 268.771 256.519C267.69 257.609 267.084 259.083 267.084 260.618C267.084 262.153 267.69 263.626 268.771 264.717L271.182 267.128L271.968 266.324ZM283.649 308.652C284.536 307.804 285.716 307.331 286.944 307.331C288.171 307.331 289.352 307.804 290.239 308.652C291.327 309.738 292.801 310.347 294.338 310.347C295.874 310.347 297.349 309.738 298.437 308.652L300.973 306.098L300.187 305.295L297.633 307.849C296.759 308.722 295.574 309.213 294.338 309.213C293.102 309.213 291.917 308.722 291.043 307.849C289.958 306.765 288.486 306.156 286.953 306.156C285.419 306.156 283.948 306.765 282.863 307.849L280.398 310.224L281.202 311.01L283.649 308.652ZM200.76 315.278L198.135 317.832C197.704 318.264 197.191 318.607 196.627 318.841C196.064 319.075 195.459 319.195 194.849 319.195C194.238 319.195 193.634 319.075 193.07 318.841C192.506 318.607 191.994 318.264 191.562 317.832C191.023 317.294 190.382 316.866 189.677 316.575C188.972 316.284 188.217 316.135 187.455 316.136C186.06 316.144 184.713 316.644 183.65 317.547L184.722 318.154C185.63 317.526 186.726 317.231 187.826 317.319C188.926 317.407 189.962 317.872 190.759 318.636C191.844 319.72 193.315 320.329 194.849 320.329C196.382 320.329 197.853 319.72 198.939 318.636L201.493 316.082L200.76 315.278ZM314.904 280.219C314.904 278.983 315.395 277.797 316.269 276.923C317.143 276.049 318.329 275.558 319.565 275.558C321.098 275.553 322.567 274.942 323.652 273.858C324.736 272.774 325.347 271.304 325.352 269.771V266.36H324.209V269.771C324.218 270.386 324.106 270.997 323.878 271.569C323.65 272.14 323.311 272.661 322.881 273.101C322.451 273.541 321.938 273.891 321.372 274.132C320.806 274.373 320.198 274.499 319.583 274.504C318.047 274.504 316.573 275.113 315.485 276.198C314.397 277.282 313.783 278.754 313.778 280.291V283.863H314.921L314.904 280.219ZM277.683 351.016V354.428C277.683 355.664 277.192 356.849 276.318 357.724C275.444 358.598 274.258 359.089 273.022 359.089C271.724 359.092 270.466 359.533 269.45 360.339L270.718 360.857C271.42 360.441 272.223 360.225 273.04 360.232C274.576 360.227 276.048 359.614 277.133 358.526C278.217 357.438 278.826 355.964 278.826 354.428V351.016H277.683ZM235.284 222.71V226.139C235.284 226.751 235.163 227.357 234.929 227.923C234.695 228.489 234.351 229.002 233.918 229.435C233.485 229.868 232.972 230.212 232.406 230.446C231.84 230.68 231.234 230.801 230.622 230.801C229.856 230.81 229.099 230.973 228.396 231.279C227.694 231.586 227.06 232.031 226.532 232.587L225.103 234.962C224.932 235.505 224.842 236.071 224.836 236.641V240.213H225.961V236.641C225.965 235.406 226.458 234.223 227.331 233.35C228.204 232.477 229.387 231.984 230.622 231.979C232.159 231.979 233.632 231.37 234.72 230.286C235.808 229.201 236.422 227.729 236.427 226.193V222.71H235.284Z" fill="#FFFFFA"/>
<path d="M208.51 322.476C228.781 280.702 256.429 239.802 260.751 232.337C260.947 231.997 261.501 232.337 261.269 232.694C256.661 239.838 230.139 289.846 209.1 322.869C208.85 323.262 208.332 322.887 208.51 322.476Z" fill="#263238"/>
<path opacity="0.1" d="M440.673 217.102C420.794 257.698 359.052 361.536 324.993 371.68C314.563 374.806 296.685 370.591 276.896 363.233C317.832 313.082 393.879 225.407 438.369 170.095C453.532 170.059 454.336 189.187 440.673 217.102Z" fill="black"/>
<path d="M375.037 422.135L378.288 359.124C378.288 359.124 358.642 344.068 359.982 309.688C361 284.684 414.365 182.382 418.777 177.917C436.512 160.057 470.571 160.932 482.358 171.809C542.118 227.282 571.283 310.474 599.645 422.135H375.037Z" fill="#17AC91"/>
<path d="M540.368 342.533H536.957C535.422 342.533 533.95 341.923 532.865 340.838C531.78 339.753 531.17 338.281 531.17 336.746C531.17 335.51 530.679 334.324 529.805 333.45C528.93 332.576 527.745 332.085 526.508 332.085H522.936V330.96H526.508C528.043 330.96 529.515 331.569 530.6 332.655C531.685 333.74 532.295 335.212 532.295 336.746C532.295 337.983 532.786 339.168 533.66 340.043C534.535 340.917 535.72 341.408 536.957 341.408H540.368V342.533ZM404.632 282.97H401.221C399.987 282.97 398.804 282.481 397.931 281.611C397.057 280.741 396.564 279.56 396.559 278.326C396.559 276.79 395.95 275.316 394.865 274.228C393.781 273.14 392.309 272.527 390.772 272.522H387.2V273.665H390.772C391.385 273.665 391.991 273.785 392.556 274.02C393.122 274.254 393.636 274.597 394.069 275.03C394.501 275.463 394.845 275.977 395.079 276.542C395.313 277.108 395.434 277.714 395.434 278.326C395.439 279.86 396.05 281.329 397.134 282.413C398.218 283.497 399.687 284.108 401.221 284.113H404.632V282.97ZM490.896 267.36H487.467C486.23 267.36 485.045 266.869 484.17 265.995C483.296 265.121 482.805 263.935 482.805 262.699C482.8 261.166 482.189 259.696 481.105 258.612C480.021 257.528 478.552 256.917 477.018 256.912H473.446V258.037H477.018C478.252 258.042 479.433 258.535 480.303 259.409C481.173 260.283 481.662 261.466 481.662 262.699C481.681 264.226 482.301 265.684 483.387 266.757C484.474 267.83 485.939 268.432 487.467 268.432H490.878L490.896 267.36ZM447.389 358.446H443.977C442.741 358.446 441.555 357.955 440.681 357.081C439.807 356.207 439.316 355.021 439.316 353.785C439.311 352.252 438.7 350.782 437.616 349.698C436.532 348.614 435.063 348.003 433.529 347.998H429.957V349.141H433.529C434.762 349.141 435.945 349.63 436.819 350.5C437.693 351.37 438.186 352.552 438.191 353.785C438.191 355.321 438.8 356.795 439.885 357.883C440.969 358.971 442.441 359.585 443.977 359.589H447.389V358.446ZM497.093 375.556L494.682 373.127C494.25 372.696 493.907 372.184 493.673 371.62C493.44 371.056 493.319 370.451 493.319 369.841C493.319 369.23 493.44 368.626 493.673 368.062C493.907 367.498 494.25 366.986 494.682 366.555C495.767 365.467 496.377 363.993 496.377 362.456C496.377 360.919 495.767 359.445 494.682 358.357L492.128 355.803L491.324 356.607L493.878 359.161C494.752 360.035 495.243 361.22 495.243 362.456C495.243 363.692 494.752 364.877 493.878 365.751C492.799 366.838 492.193 368.309 492.193 369.841C492.193 371.373 492.799 372.844 493.878 373.931L496.397 376.306L497.093 375.556ZM562.8 415.045L560.264 412.491L559.46 413.294L562.014 415.83C562.834 416.66 563.315 417.766 563.364 418.931C563.414 420.096 563.028 421.238 562.282 422.135H563.675C564.356 421.034 564.647 419.737 564.501 418.451C564.355 417.165 563.781 415.965 562.871 415.045H562.8ZM530.652 293.007L528.384 290.578C527.51 289.704 527.019 288.519 527.019 287.283C527.019 286.047 527.51 284.862 528.384 283.988C529.464 282.901 530.069 281.43 530.069 279.898C530.069 278.366 529.464 276.895 528.384 275.808L525.83 273.254L525.026 274.058L527.58 276.612C528.012 277.043 528.355 277.555 528.589 278.119C528.823 278.683 528.943 279.287 528.943 279.898C528.943 280.508 528.823 281.113 528.589 281.677C528.355 282.241 528.012 282.753 527.58 283.184C526.499 284.275 525.893 285.748 525.893 287.283C525.893 288.818 526.499 290.292 527.58 291.382L530.009 293.793L530.652 293.007ZM409.633 226.818L407.222 224.496C406.348 223.622 405.857 222.437 405.857 221.201C405.857 219.965 406.348 218.78 407.222 217.906C408.306 216.821 408.915 215.35 408.915 213.816C408.915 212.282 408.306 210.811 407.222 209.726L404.668 207.172L403.864 207.958L406.418 210.512C407.291 211.386 407.782 212.571 407.782 213.807C407.782 215.043 407.291 216.228 406.418 217.102C405.878 217.64 405.45 218.279 405.158 218.982C404.866 219.685 404.716 220.439 404.716 221.201C404.716 221.963 404.866 222.717 405.158 223.42C405.45 224.124 405.878 224.762 406.418 225.3L408.829 227.711L409.633 226.818ZM483.198 215.656L480.787 213.227C480.355 212.795 480.012 212.283 479.778 211.719C479.544 211.155 479.424 210.551 479.424 209.94C479.424 209.33 479.544 208.725 479.778 208.162C480.012 207.598 480.355 207.085 480.787 206.654C481.872 205.566 482.481 204.092 482.481 202.555C482.481 201.018 481.872 199.544 480.787 198.456L478.233 195.92L477.429 196.724L479.983 199.278C480.857 200.152 481.348 201.337 481.348 202.573C481.348 203.809 480.857 204.994 479.983 205.868C478.903 206.956 478.298 208.426 478.298 209.958C478.298 211.491 478.903 212.961 479.983 214.048L482.412 216.477L483.198 215.656ZM402.828 339.14L400.417 336.711C399.985 336.279 399.642 335.767 399.408 335.203C399.174 334.639 399.054 334.035 399.054 333.424C399.054 332.814 399.174 332.209 399.408 331.646C399.642 331.082 399.985 330.569 400.417 330.138C401.502 329.05 402.111 327.576 402.111 326.039C402.111 324.503 401.502 323.029 400.417 321.94L397.863 319.386L397.059 320.19L399.613 322.744C400.487 323.618 400.978 324.803 400.978 326.039C400.978 327.275 400.487 328.46 399.613 329.334C398.533 330.422 397.928 331.892 397.928 333.424C397.928 334.957 398.533 336.427 399.613 337.514L402.024 339.943L402.828 339.14ZM517.829 395.131C518.702 394.263 519.883 393.775 521.115 393.775C522.346 393.775 523.528 394.263 524.401 395.131C525.489 396.216 526.963 396.825 528.5 396.825C530.037 396.825 531.511 396.216 532.599 395.131L535.153 392.577L534.349 391.791L531.795 394.345C530.916 395.21 529.733 395.695 528.5 395.695C527.267 395.695 526.083 395.21 525.205 394.345C524.669 393.806 524.031 393.378 523.329 393.086C522.628 392.795 521.875 392.644 521.115 392.644C520.355 392.644 519.602 392.795 518.9 393.086C518.198 393.378 517.561 393.806 517.025 394.345L514.596 396.756L515.4 397.56L517.829 395.131ZM596.002 407.901L593.591 410.33L594.376 411.115L596.359 409.133L596.002 407.901ZM397.934 384.29C398.808 383.416 399.994 382.925 401.229 382.925C402.465 382.925 403.651 383.416 404.525 384.29C405.61 385.374 407.081 385.983 408.615 385.983C410.148 385.983 411.62 385.374 412.705 384.29L415.259 381.736L414.455 380.932L411.901 383.45C411.027 384.318 409.846 384.806 408.615 384.806C407.383 384.806 406.202 384.318 405.328 383.45C404.791 382.911 404.152 382.483 403.449 382.191C402.745 381.899 401.991 381.748 401.229 381.748C400.468 381.748 399.714 381.899 399.01 382.191C398.307 382.483 397.668 382.911 397.131 383.45L394.72 385.861L395.523 386.665L397.934 384.29ZM433.494 301.294C434.368 300.421 435.553 299.93 436.789 299.93C438.025 299.93 439.21 300.421 440.084 301.294C441.174 302.375 442.648 302.981 444.183 302.981C445.718 302.981 447.191 302.375 448.282 301.294L450.836 298.74L450.032 297.937L447.478 300.491C446.602 301.36 445.417 301.848 444.183 301.848C442.948 301.848 441.764 301.36 440.888 300.491C440.352 299.952 439.714 299.524 439.012 299.232C438.31 298.94 437.558 298.79 436.798 298.79C436.038 298.79 435.285 298.94 434.583 299.232C433.881 299.524 433.244 299.952 432.708 300.491L430.315 302.884L431.118 303.687L433.494 301.294ZM565.283 306.992C564.178 306.396 562.912 306.171 561.67 306.351C560.428 306.531 559.278 307.107 558.389 307.992L556.013 310.403L556.799 311.189L559.21 308.813C559.636 308.373 560.147 308.022 560.712 307.783C561.276 307.543 561.883 307.42 562.496 307.42C563.11 307.42 563.717 307.543 564.281 307.783C564.846 308.022 565.356 308.373 565.783 308.813L566.015 309.01C565.747 308.313 565.515 307.635 565.283 306.974V306.992ZM431.6 183.758C432.475 182.884 433.66 182.393 434.896 182.393C436.131 182.393 437.317 182.884 438.191 183.758C438.726 184.297 439.363 184.725 440.065 185.017C440.767 185.308 441.521 185.457 442.281 185.454C443.041 185.457 443.794 185.308 444.496 185.017C445.198 184.725 445.835 184.297 446.371 183.758L448.925 181.204L448.121 180.4L445.567 182.954C445.137 183.389 444.626 183.734 444.062 183.971C443.497 184.207 442.892 184.328 442.281 184.329C441.669 184.328 441.064 184.207 440.5 183.971C439.936 183.734 439.424 183.389 438.994 182.954C437.904 181.873 436.431 181.267 434.896 181.267C433.36 181.267 431.887 181.873 430.797 182.954L428.386 185.383L429.189 186.169L431.6 183.758ZM560.567 374.735C560.572 373.504 561.063 372.326 561.933 371.456C562.803 370.586 563.981 370.096 565.211 370.091C566.749 370.086 568.223 369.473 569.31 368.386C570.398 367.298 571.011 365.824 571.016 364.286V360.875H569.873V364.286C569.873 364.899 569.752 365.505 569.518 366.07C569.283 366.636 568.94 367.15 568.507 367.583C568.074 368.015 567.561 368.359 566.995 368.593C566.429 368.827 565.823 368.948 565.211 368.948C563.678 368.953 562.209 369.564 561.125 370.648C560.04 371.732 559.429 373.201 559.424 374.735V378.307H560.567V374.735ZM450.621 404.739C450.621 403.503 451.112 402.317 451.987 401.443C452.861 400.569 454.047 400.078 455.283 400.078C456.818 400.078 458.289 399.468 459.375 398.383C460.46 397.298 461.069 395.826 461.069 394.291V390.862H459.944V394.166C459.944 395.403 459.453 396.588 458.579 397.462C457.705 398.337 456.519 398.828 455.283 398.828C453.748 398.828 452.276 399.437 451.191 400.523C450.106 401.608 449.496 403.08 449.496 404.614V408.186H450.621V404.739ZM477.501 322.244C477.505 321.011 477.999 319.83 478.872 318.959C479.746 318.089 480.929 317.6 482.162 317.6C483.698 317.596 485.17 316.982 486.255 315.894C487.34 314.806 487.949 313.332 487.949 311.796V308.385H486.824V311.796C486.824 313.032 486.332 314.218 485.458 315.092C484.584 315.966 483.398 316.457 482.162 316.457C480.629 316.462 479.16 317.073 478.076 318.157C476.991 319.242 476.38 320.711 476.375 322.244V325.816H477.501V322.244ZM371.055 347.141V350.552C371.065 350.737 371.065 350.921 371.055 351.106C371.359 351.552 371.662 351.963 371.948 352.338C372.134 351.761 372.23 351.159 372.234 350.552V347.141H371.055ZM435.887 251.465C435.896 250.233 436.391 249.055 437.264 248.185C438.136 247.316 439.317 246.826 440.548 246.821C442.085 246.817 443.556 246.203 444.641 245.115C445.726 244.027 446.335 242.553 446.335 241.017V237.534H445.21V240.945C445.21 242.182 444.719 243.367 443.844 244.241C442.97 245.116 441.785 245.607 440.548 245.607C439.015 245.611 437.546 246.223 436.462 247.307C435.378 248.391 434.766 249.86 434.762 251.393V254.965H435.887V251.465ZM362.447 310.724C361.589 310.729 360.748 310.494 360.018 310.046C360.018 310.456 360.018 310.885 360.018 311.296C360.79 311.655 361.63 311.844 362.482 311.85H365.893V310.724H362.447ZM524.973 223.21V225.496C524.973 226.733 524.481 227.918 523.607 228.793C522.733 229.667 521.547 230.158 520.311 230.158C518.775 230.163 517.303 230.776 516.218 231.864C515.133 232.952 514.524 234.426 514.524 235.962V239.534H515.65V235.962C515.65 235.35 515.77 234.744 516.004 234.179C516.239 233.613 516.582 233.099 517.015 232.666C517.448 232.233 517.962 231.89 518.527 231.656C519.093 231.421 519.699 231.301 520.311 231.301C521.849 231.296 523.323 230.683 524.41 229.596C525.498 228.508 526.111 227.034 526.116 225.496V224.978C525.615 224.318 525.258 223.728 524.865 223.139L524.973 223.21Z" fill="#FFFFFA"/>
<path d="M444.922 347.194C434.727 346.988 424.53 347.544 414.418 348.855C409.399 349.587 404.452 350.534 399.504 351.588C397.022 352.124 394.557 352.552 392.075 352.981C389.479 353.51 386.828 353.72 384.181 353.606C384.133 353.606 384.088 353.625 384.054 353.658C384.021 353.692 384.002 353.737 384.002 353.785C384.002 353.832 384.021 353.877 384.054 353.911C384.088 353.944 384.133 353.963 384.181 353.963C386.646 354.35 389.134 354.577 391.628 354.642C394.049 354.612 396.466 354.421 398.861 354.07C403.952 353.392 409.024 352.463 414.114 351.731C424.366 350.248 434.635 348.766 444.976 348.034C445.44 347.998 445.405 347.194 444.922 347.194Z" fill="#263238"/>
<path d="M468.91 358.839C460.686 357.057 452.368 355.745 443.995 354.91C439.816 354.517 435.637 354.357 431.493 354.303C429.475 354.303 427.475 354.303 425.456 354.303C423.438 354.303 421.045 354.678 418.83 354.678C418.598 354.678 418.562 355.035 418.83 355.053C420.92 355.053 423.01 355.5 425.081 355.678L431.35 356.196C435.529 356.535 439.709 356.928 443.852 357.25C452.229 357.875 460.569 358.572 468.856 359.482C469.303 359.572 469.338 358.929 468.91 358.839Z" fill="#263238"/>
<path d="M465.069 177.167C464.801 181.811 450.781 211.834 430.17 214.441C423.473 215.281 415.114 181.579 415.114 181.579L414.043 179.007L399.094 142.894L438.279 106.87L444.012 102.012C444.012 102.012 447.459 112.157 451.602 124.838L452.209 126.624C452.459 127.338 452.709 127.999 452.906 128.677C453.549 130.571 454.21 132.499 454.817 134.428C455.281 135.893 455.746 137.322 456.192 138.893L457.567 143.519C461.961 158.986 465.158 175.203 465.069 177.167Z" fill="#AD6359"/>
<path d="M451.603 124.838C449.659 136.048 445.296 146.701 438.819 156.055C432.343 165.41 423.906 173.242 414.097 179.007L399.148 142.894L438.333 106.87L444.066 102.012C444.066 102.012 447.46 112.157 451.603 124.838Z" fill="#263238"/>
<path d="M334.995 87.6349C335.585 156.217 376.734 163.611 391.522 163.469C404.953 163.343 450.657 161.2 457.158 92.9037C463.659 24.607 431.582 3.21072 400.863 1.81764C370.144 0.424564 334.406 19.1061 334.995 87.6349Z" fill="#AD6359"/>
<path d="M347.514 80.4371C349.104 80.1157 350.532 79.562 352.068 79.0976C353.733 78.8439 355.269 78.0538 356.444 76.8473C356.736 76.3962 356.872 75.8614 356.83 75.3256C356.788 74.7897 356.571 74.2826 356.212 73.8825C355.375 73.1988 354.372 72.7507 353.304 72.5843C352.237 72.4179 351.144 72.5393 350.139 72.9359C347.971 73.4188 346.061 74.6923 344.781 76.5079C344.514 76.9404 344.378 77.4418 344.392 77.9503C344.405 78.4588 344.567 78.9523 344.857 79.3699C345.148 79.7875 345.554 80.1111 346.026 80.3007C346.498 80.4904 347.015 80.5378 347.514 80.4371Z" fill="#263238"/>
<path d="M396.684 84.1168C395.108 84.0047 393.54 83.8019 391.987 83.5096C390.3 83.5292 388.655 82.989 387.308 81.9736C386.947 81.5701 386.731 81.0586 386.692 80.5189C386.653 79.9792 386.794 79.4419 387.093 78.991C387.808 78.1866 388.725 77.5884 389.749 77.2586C390.773 76.9288 391.866 76.8794 392.916 77.1157C395.121 77.2738 397.192 78.2331 398.738 79.8126C399.067 80.196 399.277 80.6667 399.344 81.1674C399.41 81.6682 399.33 82.1774 399.112 82.6333C398.895 83.0892 398.549 83.4721 398.118 83.7355C397.687 83.9988 397.189 84.1313 396.684 84.1168Z" fill="#263238"/>
<path d="M387.289 94.7965C387.289 94.6179 387.664 94.993 387.682 95.1895C387.789 99.8688 388.7 105.191 393.04 106.513C393.165 106.513 393.165 106.781 393.04 106.781C387.789 106.334 386.646 99.2437 387.289 94.7965Z" fill="#263238"/>
<path d="M391.182 89.707C398.665 88.7068 400.112 103.727 393.146 104.638C386.181 105.549 384.931 90.5464 391.182 89.707Z" fill="#263238"/>
<path d="M394.22 90.2071C395.595 90.9393 397.024 92.3146 398.631 92.3324C400.239 92.3503 401.703 90.6357 402.757 89.0105C402.864 88.8319 403.007 89.0105 403.025 89.1533C403.346 92.0288 402.507 95.0829 399.453 95.7973C396.399 96.5117 394.416 94.1006 393.434 91.2787C393.256 90.7607 393.648 89.9213 394.22 90.2071Z" fill="#263238"/>
<path d="M359.41 98.0655C359.41 97.8869 359.089 98.3334 359.124 98.5298C359.982 103.12 360.178 108.531 356.249 110.692C356.124 110.692 356.249 110.996 356.249 110.943C361.303 109.442 360.964 102.28 359.41 98.0655Z" fill="#263238"/>
<path d="M354.551 93.8682C347.05 94.4397 348.747 109.424 355.712 108.888C362.678 108.353 360.856 93.386 354.551 93.8682Z" fill="#263238"/>
<path d="M351.729 94.9931C350.515 95.9933 349.39 97.6364 347.836 97.9758C346.282 98.3151 344.478 96.9399 343.121 95.5646C342.978 95.4218 342.853 95.5646 342.871 95.779C343.157 98.6544 344.657 101.476 347.729 101.548C350.569 101.548 352.301 98.8509 352.694 95.8861C352.747 95.3325 352.194 94.6002 351.729 94.9931Z" fill="#263238"/>
<path d="M392.915 130.839C392.111 132.178 391.397 133.911 389.79 134.411C388.105 134.827 386.349 134.87 384.646 134.536C384.609 134.522 384.568 134.522 384.531 134.537C384.494 134.552 384.464 134.579 384.447 134.615C384.429 134.65 384.425 134.691 384.435 134.729C384.446 134.767 384.47 134.8 384.503 134.821C385.38 135.543 386.435 136.014 387.558 136.183C388.681 136.353 389.828 136.216 390.879 135.786C391.741 135.312 392.441 134.591 392.89 133.716C393.339 132.84 393.515 131.851 393.397 130.874C393.397 130.642 393.04 130.642 392.915 130.839Z" fill="#263238"/>
<path d="M369.268 117.104C369.268 117.104 369.697 124.141 370.34 127.356C370.34 127.659 371.197 127.659 372.305 127.498C372.305 127.498 372.394 127.498 372.448 127.498C375.317 127.448 378.117 126.609 380.542 125.075C382.967 123.542 384.924 121.371 386.2 118.801C386.36 118.443 385.878 118.193 385.628 118.443C382.076 122.083 377.438 124.471 372.412 125.248C372.019 124.409 372.108 113.193 371.59 113.246C369.127 113.97 366.772 115.021 364.589 116.372C363.303 101.744 364.357 87.0456 362.803 72.5075C362.803 72.3891 362.756 72.2756 362.672 72.1918C362.589 72.1081 362.475 72.061 362.357 72.061C362.238 72.061 362.125 72.1081 362.041 72.1918C361.957 72.2756 361.91 72.3891 361.91 72.5075C359.713 87.8314 360.839 104.656 361.785 119.819C361.928 121.658 368.09 117.908 369.268 117.104Z" fill="#263238"/>
<path d="M373.393 125.873C375.635 127.996 378.383 129.508 381.376 130.267C383.014 130.625 384.723 130.47 386.27 129.82C389.645 128.338 389.217 125.105 388.145 122.444C387.562 121.032 386.813 119.695 385.912 118.461C382.637 122.205 378.25 124.802 373.393 125.873Z" fill="#263238"/>
<path d="M381.376 130.267C383.015 130.625 384.724 130.47 386.27 129.82C389.646 128.338 389.217 125.105 388.145 122.444C384.448 123.427 381.109 126.57 381.376 130.267Z" fill="#FF98B9"/>
<path d="M460.532 90.4031C449.352 93.8323 441.386 70.5786 441.386 70.5786C441.386 70.5786 418.293 75.8294 403.201 44.3065C403.201 44.3065 407.166 59.6661 419.597 69.4891C419.597 69.4891 377.876 74.3291 353.068 44.0743C353.068 44.0743 363.784 59.9161 371.625 64.649C371.625 64.649 353.443 63.7203 341.995 51.7184C341.995 51.7184 339.281 73.0075 335.012 79.6693C335.012 79.6693 320.724 7.97925 388.449 0.728087C388.449 0.728087 430.42 -5.80866 452.62 23.5889C474.82 52.9864 460.532 90.4031 460.532 90.4031Z" fill="#263238"/>
<path d="M446.388 98.2792C446.388 98.2792 459.265 75.5435 469.445 79.9192C479.625 84.2949 471.356 116.282 460.408 121.604C459.05 122.385 457.548 122.881 455.993 123.065C454.438 123.249 452.862 123.116 451.359 122.673C449.857 122.231 448.46 121.489 447.253 120.492C446.045 119.494 445.052 118.263 444.334 116.872L446.388 98.2792Z" fill="#AD6359"/>
<path d="M466.765 89.0281C466.944 89.0281 466.997 89.2424 466.765 89.3317C459.103 93.3145 455.62 101.101 453.406 108.978C455.495 105.799 458.567 103.888 462.782 106.317C462.825 106.35 462.856 106.396 462.871 106.449C462.885 106.501 462.882 106.557 462.862 106.607C462.841 106.658 462.805 106.7 462.759 106.728C462.712 106.756 462.658 106.769 462.604 106.763C461.162 106.455 459.661 106.6 458.305 107.179C456.949 107.757 455.806 108.741 455.031 109.996C453.741 112.1 452.687 114.34 451.888 116.675C451.584 117.425 450.262 117.158 450.459 116.318C450.452 116.253 450.452 116.187 450.459 116.122C449.423 106.049 455.96 91.0998 466.765 89.0281Z" fill="#263238"/>
<path d="M458.766 122.408C458.928 123.132 458.872 123.888 458.605 124.579C458.337 125.271 457.871 125.868 457.265 126.295C456.658 126.722 455.939 126.959 455.197 126.977C454.456 126.995 453.726 126.793 453.099 126.396C452.472 125.999 451.978 125.426 451.677 124.748C451.377 124.07 451.284 123.318 451.411 122.587C451.537 121.856 451.878 121.179 452.389 120.642C452.901 120.105 453.56 119.731 454.283 119.569C454.764 119.46 455.261 119.448 455.747 119.532C456.233 119.617 456.697 119.796 457.113 120.059C457.529 120.323 457.89 120.666 458.173 121.069C458.457 121.472 458.658 121.927 458.766 122.408Z" fill="#FFFFFA"/>
<path d="M463.231 216.727C436.816 262.699 395.952 344.819 385.522 352.463C347.748 380.093 286.97 433.762 275.861 446.907C261.573 463.802 345.123 531.813 355.767 520.954C363.393 513.185 448.407 439.441 470.589 394.72C484.966 365.733 498.843 285.953 506.434 234.105C514.15 181.239 483.27 181.864 463.231 216.727Z" fill="#AD6359"/>
<path d="M167.952 549.28C176.882 559.139 199.314 534.992 199.314 534.992C197.914 540.553 198.502 546.429 200.975 551.602C205.762 560.532 221.836 556.96 221.836 556.96C221.576 563.031 223.158 569.039 226.372 574.195C231.819 582.25 248.536 580.928 248.536 580.928C251.389 586.631 256.202 591.114 262.092 593.555C278.077 599.467 298.669 583.554 311.868 573.57C325.066 563.586 353.125 522.901 359.268 515.686L295.901 430.458C295.901 430.458 223.997 458.409 210.173 472.34C198.493 484.074 154.289 534.224 167.952 549.28Z" fill="#AD6359"/>
<path d="M199.26 534.581C208.654 519.132 221.745 506.005 234.515 493.36C234.801 493.075 235.23 493.539 234.944 493.807C222.103 506.166 212.262 522.276 199.938 535.117C199.86 535.177 199.763 535.209 199.664 535.208C199.565 535.207 199.469 535.173 199.392 535.112C199.314 535.051 199.259 534.965 199.235 534.869C199.211 534.773 199.22 534.672 199.26 534.581Z" fill="#263238"/>
<path d="M221.352 555.62C223.831 552.317 226.731 549.35 229.978 546.798C233.247 543.886 236.569 541.047 239.926 538.243C246.642 532.635 253.5 527.199 260.501 521.936C260.805 521.704 261.251 522.115 260.93 522.383C254.232 527.973 247.642 533.67 241.177 539.546C237.962 542.493 234.747 545.458 231.568 548.476C228.749 551.494 225.604 554.189 222.191 556.513C222.068 556.572 221.93 556.591 221.795 556.566C221.661 556.541 221.538 556.473 221.445 556.374C221.352 556.274 221.292 556.148 221.275 556.012C221.259 555.877 221.285 555.74 221.352 555.62Z" fill="#263238"/>
<path d="M248.821 580.66C250.607 577.588 254.269 575.302 257.001 573.123C260.127 570.641 263.217 568.122 266.306 565.604C272.486 560.55 278.665 555.495 284.649 550.244C284.952 549.977 285.381 550.423 285.095 550.691C279.023 556.049 273.04 561.514 266.914 566.854C263.913 569.462 260.901 572.057 257.876 574.641C255.305 576.838 252.322 579.874 249.054 580.982C249.012 580.991 248.969 580.989 248.929 580.974C248.889 580.959 248.855 580.933 248.83 580.899C248.805 580.864 248.791 580.823 248.789 580.781C248.788 580.738 248.799 580.696 248.821 580.66Z" fill="#263238"/>
<path d="M278.504 435.655L377.931 515.328C377.931 515.328 452.532 431.815 474.375 396.006C483.501 381.057 502.111 273.29 508.719 237.48C516.988 192.83 489.895 162.468 462.926 211.851C443.959 246.553 387.736 343.819 384.467 346.391C381.199 348.963 278.504 435.655 278.504 435.655Z" fill="#17AC91"/>
<path d="M490.896 268.432H487.467C485.931 268.432 484.457 267.823 483.369 266.738C482.281 265.653 481.667 264.181 481.663 262.645C481.663 261.412 481.174 260.229 480.304 259.355C479.433 258.482 478.252 257.988 477.019 257.984H473.447V256.858H477.019C478.552 256.863 480.021 257.474 481.106 258.559C482.19 259.643 482.801 261.112 482.806 262.645C482.799 263.262 482.914 263.874 483.145 264.445C483.376 265.017 483.718 265.537 484.152 265.976C484.585 266.415 485.102 266.763 485.671 267C486.24 267.238 486.85 267.36 487.467 267.36H490.878L490.896 268.432ZM447.389 358.321H443.978C442.742 358.321 441.556 357.83 440.682 356.956C439.808 356.082 439.317 354.896 439.317 353.66C439.312 352.126 438.701 350.657 437.616 349.573C436.532 348.489 435.063 347.878 433.53 347.873H429.958V349.016H433.53C434.763 349.016 435.946 349.505 436.82 350.375C437.693 351.245 438.187 352.427 438.191 353.66C438.191 355.196 438.8 356.67 439.885 357.758C440.97 358.846 442.442 359.459 443.978 359.464H447.389V358.321ZM383.879 429.6H380.45C379.214 429.6 378.028 429.109 377.154 428.235C376.28 427.361 375.789 426.175 375.789 424.939C375.784 423.406 375.173 421.937 374.088 420.852C373.004 419.768 371.535 419.157 370.002 419.152H366.43V420.277H370.002C371.238 420.277 372.424 420.769 373.298 421.643C374.172 422.517 374.663 423.703 374.663 424.939C374.663 426.474 375.273 427.946 376.358 429.031C377.443 430.116 378.915 430.726 380.45 430.726H383.879V429.6ZM364.376 498.379H360.965C359.728 498.379 358.543 497.888 357.669 497.014C356.794 496.14 356.303 494.954 356.303 493.718C356.299 492.185 355.687 490.715 354.603 489.631C353.519 488.547 352.05 487.936 350.517 487.931H346.945V489.056H350.517C351.752 489.061 352.934 489.554 353.808 490.427C354.681 491.3 355.173 492.483 355.178 493.718C355.178 495.253 355.788 496.724 356.873 497.81C357.958 498.895 359.43 499.504 360.965 499.504H364.376V498.379ZM483.199 215.655L480.787 213.227C480.355 212.795 480.013 212.283 479.779 211.719C479.545 211.155 479.425 210.551 479.425 209.94C479.425 209.33 479.545 208.725 479.779 208.161C480.013 207.598 480.355 207.085 480.787 206.654C481.873 205.566 482.482 204.092 482.482 202.555C482.482 201.018 481.873 199.544 480.787 198.456L478.233 195.92L477.43 196.724L479.984 199.278C480.857 200.152 481.348 201.337 481.348 202.573C481.348 203.809 480.857 204.994 479.984 205.868C478.904 206.956 478.298 208.426 478.298 209.958C478.298 211.491 478.904 212.961 479.984 214.048L482.413 216.477L483.199 215.655ZM400.489 336.728C399.615 335.854 399.125 334.669 399.125 333.433C399.125 332.197 399.615 331.012 400.489 330.138C401.574 329.05 402.183 327.576 402.183 326.039C402.183 324.502 401.574 323.028 400.489 321.94L400.06 321.512C399.882 321.851 399.667 322.19 399.471 322.53L399.685 322.744C400.55 323.623 401.035 324.806 401.035 326.039C401.035 327.272 400.55 328.456 399.685 329.334C399.146 329.87 398.719 330.508 398.427 331.21C398.135 331.912 397.985 332.664 397.985 333.424C397.985 334.184 398.135 334.937 398.427 335.639C398.719 336.341 399.146 336.978 399.685 337.514L402.096 339.925L402.9 339.14L400.489 336.728ZM397.935 384.29C398.809 383.416 399.994 382.925 401.23 382.925C402.466 382.925 403.651 383.416 404.525 384.29C405.61 385.374 407.081 385.983 408.615 385.983C410.149 385.983 411.62 385.374 412.705 384.29L415.259 381.736L414.455 380.932L411.901 383.45C411.028 384.318 409.847 384.806 408.615 384.806C407.384 384.806 406.202 384.318 405.329 383.45C404.791 382.911 404.153 382.483 403.449 382.191C402.746 381.899 401.992 381.748 401.23 381.748C400.468 381.748 399.714 381.899 399.011 382.191C398.308 382.483 397.669 382.911 397.131 383.45L394.72 385.861L395.524 386.665L397.935 384.29ZM433.494 301.294C434.368 300.421 435.554 299.93 436.789 299.93C438.025 299.93 439.21 300.421 440.085 301.294C441.175 302.375 442.648 302.981 444.183 302.981C445.719 302.981 447.192 302.375 448.282 301.294L450.836 298.74L450.033 297.936L447.479 300.49C446.602 301.36 445.418 301.847 444.183 301.847C442.949 301.847 441.765 301.36 440.888 300.49C440.352 299.952 439.715 299.524 439.013 299.232C438.311 298.94 437.558 298.79 436.798 298.79C436.038 298.79 435.286 298.94 434.584 299.232C433.882 299.524 433.244 299.952 432.708 300.49L430.315 302.884L431.119 303.687L433.494 301.294ZM422.671 435.601C423.56 434.757 424.74 434.287 425.966 434.287C427.192 434.287 428.372 434.757 429.261 435.601C430.349 436.687 431.823 437.296 433.36 437.296C434.897 437.296 436.371 436.687 437.459 435.601L439.995 433.065L439.209 432.262L436.655 434.816C435.777 435.681 434.593 436.165 433.36 436.165C432.127 436.165 430.944 435.681 430.065 434.816C428.98 433.731 427.509 433.122 425.975 433.122C424.441 433.122 422.97 433.731 421.885 434.816L419.456 437.227L420.26 438.03L422.671 435.601ZM450.622 404.686C450.622 403.449 451.113 402.264 451.987 401.39C452.861 400.515 454.047 400.024 455.283 400.024C456.818 400.024 458.29 399.415 459.375 398.329C460.46 397.244 461.07 395.772 461.07 394.238V390.808H459.945V394.166C459.945 395.402 459.454 396.588 458.58 397.462C457.705 398.337 456.52 398.828 455.283 398.828C453.749 398.828 452.277 399.437 451.192 400.522C450.106 401.608 449.497 403.08 449.497 404.614V408.186H450.622V404.686ZM387.594 476.322C387.594 475.086 388.085 473.9 388.959 473.026C389.834 472.152 391.019 471.661 392.255 471.661C393.79 471.661 395.262 471.051 396.347 469.966C397.432 468.881 398.042 467.409 398.042 465.874V462.445H396.917V465.874C396.917 466.486 396.796 467.092 396.562 467.658C396.328 468.224 395.984 468.737 395.552 469.17C395.119 469.603 394.605 469.946 394.039 470.181C393.474 470.415 392.868 470.536 392.255 470.536C390.721 470.536 389.249 471.145 388.164 472.23C387.079 473.316 386.469 474.787 386.469 476.322V479.894H387.594V476.322ZM477.501 322.155C477.506 320.921 477.999 319.74 478.873 318.87C479.747 318 480.929 317.511 482.163 317.511C483.699 317.506 485.171 316.893 486.256 315.805C487.34 314.717 487.949 313.243 487.949 311.707V308.295H486.824V311.707C486.824 312.943 486.333 314.128 485.459 315.003C484.585 315.877 483.399 316.368 482.163 316.368C480.629 316.373 479.16 316.984 478.076 318.068C476.992 319.152 476.381 320.621 476.376 322.155V325.727H477.501V322.155ZM444.103 245.517C445.306 244.581 446.089 243.207 446.282 241.695L444.103 245.517ZM326.227 404.186C324.994 404.186 323.811 403.697 322.937 402.827C322.064 401.956 321.57 400.775 321.566 399.542C321.575 399.477 321.575 399.411 321.566 399.346C321.208 399.631 320.851 399.917 320.512 400.239C320.682 401.639 321.36 402.928 322.416 403.863C323.472 404.797 324.834 405.312 326.245 405.311H329.656V404.186H326.227ZM325.888 456.158C326.762 455.285 327.947 454.794 329.183 454.794C330.419 454.794 331.604 455.285 332.478 456.158C333.568 457.234 335.037 457.837 336.568 457.837C338.099 457.837 339.568 457.234 340.658 456.158L343.212 453.604L342.408 452.801L339.854 455.355C338.976 456.22 337.792 456.704 336.559 456.704C335.326 456.704 334.143 456.22 333.264 455.355C332.728 454.816 332.091 454.388 331.389 454.096C330.687 453.804 329.934 453.654 329.174 453.654C328.414 453.654 327.661 453.804 326.959 454.096C326.257 454.388 325.62 454.816 325.084 455.355L322.673 457.766L323.459 458.569L325.888 456.158ZM295.311 424.278V427.689C295.311 428.302 295.191 428.908 294.957 429.473C294.722 430.039 294.379 430.553 293.946 430.986C293.513 431.418 292.999 431.762 292.434 431.996C291.868 432.23 291.262 432.351 290.65 432.351C289.117 432.356 287.648 432.967 286.563 434.051C285.479 435.135 284.868 436.604 284.863 438.137V440.727L285.988 441.62V438.137C285.993 436.903 286.486 435.72 287.359 434.847C288.232 433.973 289.415 433.481 290.65 433.476C292.185 433.476 293.657 432.866 294.742 431.781C295.827 430.696 296.437 429.224 296.437 427.689V424.278H295.311Z" fill="#FFFFFA"/>
<path d="M432.887 451.014C445.925 433.512 459.677 416.402 471.429 398.042C477.805 386.808 480.234 373.681 483.538 361.232C490.771 331.656 499.094 288.738 505.416 258.519C501.13 293.351 494.989 327.93 487.02 362.107C483.966 373.806 481.252 385.879 475.822 396.809C463.57 416.455 447.961 433.672 432.958 451.05L432.887 451.014Z" fill="#263238"/>
<path d="M500.146 288.328C502.736 281.291 506.29 274.629 508.076 267.324C507.505 274.861 503.826 281.862 500.146 288.328Z" fill="#263238"/>
<path d="M313.188 419.885C351.105 446.675 386.967 480.609 393.558 486.074C393.879 486.324 393.415 486.806 393.111 486.52C386.86 480.823 341.728 446.496 312.634 420.438C312.438 420.081 312.813 419.617 313.188 419.885Z" fill="#263238"/>
<path d="M375.607 353.839C379.769 350.106 384.948 347.195 386.752 341.604C389.288 336.568 391.866 331.555 394.485 326.566C410.399 296.758 427.044 267.325 445.529 239.052C428.117 274.443 408.775 308.851 387.591 342.122C387.252 342.605 385.002 346.105 384.662 346.552C381.823 349.177 378.626 351.481 375.607 353.874V353.839Z" fill="#263238"/>
<path d="M439.637 242.91C437.601 249.375 434.708 255.573 433.708 262.288C433.458 255.448 436.494 248.839 439.637 242.91Z" fill="#263238"/>
<path d="M633.668 580.268H441.959V602.95H633.668V580.268Z" fill="#C7C7C7"/>
<path d="M487.375 580.268H479.553V602.95H487.375V580.268Z" fill="#DBDBDB"/>
<path d="M611.11 580.268H592.375V602.95H611.11V580.268Z" fill="#DBDBDB"/>
<path d="M523.56 586.286L518.988 592.251C518.943 592.319 518.882 592.374 518.81 592.411C518.738 592.449 518.658 592.467 518.577 592.466C518.493 592.477 518.407 592.462 518.33 592.424C518.254 592.386 518.191 592.326 518.149 592.251L513.559 586.304V597.324C513.554 597.448 513.501 597.567 513.411 597.653C513.321 597.74 513.201 597.788 513.077 597.788C512.947 597.793 512.82 597.747 512.724 597.661C512.627 597.574 512.568 597.453 512.559 597.324V584.911C512.561 584.836 512.582 584.762 512.62 584.697C512.657 584.632 512.71 584.576 512.773 584.536C512.885 584.472 513.017 584.45 513.144 584.473C513.271 584.495 513.386 584.562 513.469 584.661L518.56 591.269L523.632 584.661C523.713 584.559 523.828 584.49 523.956 584.467C524.085 584.444 524.217 584.469 524.328 584.536L524.471 584.697C524.489 584.779 524.489 584.864 524.471 584.947V597.359C524.449 597.474 524.388 597.577 524.299 597.651C524.209 597.725 524.096 597.765 523.98 597.765C523.864 597.765 523.751 597.725 523.661 597.651C523.572 597.577 523.511 597.474 523.489 597.359L523.56 586.286Z" fill="#FFFFFA"/>
<path d="M536.276 594.324H529.757L528.489 597.485C528.451 597.576 528.386 597.653 528.303 597.707C528.22 597.761 528.124 597.789 528.025 597.788H527.829C527.769 597.769 527.714 597.737 527.667 597.695C527.621 597.653 527.583 597.603 527.556 597.546C527.529 597.489 527.514 597.428 527.512 597.365C527.51 597.302 527.52 597.24 527.543 597.181L532.508 584.679C532.558 584.592 532.631 584.519 532.719 584.469C532.807 584.419 532.907 584.393 533.008 584.393C533.108 584.382 533.21 584.404 533.297 584.455C533.384 584.507 533.452 584.586 533.49 584.679L538.473 597.181C538.515 597.298 538.51 597.425 538.46 597.538C538.41 597.651 538.319 597.741 538.205 597.788H538.009C537.91 597.787 537.815 597.758 537.732 597.704C537.65 597.65 537.585 597.574 537.544 597.485L536.276 594.324ZM530.115 593.377H535.901L533.026 586.233L530.115 593.377Z" fill="#FFFFFA"/>
<path d="M543.314 585.268H538.992C538.864 585.268 538.741 585.218 538.651 585.127C538.561 585.037 538.51 584.914 538.51 584.786C538.512 584.725 538.526 584.665 538.552 584.61C538.577 584.554 538.614 584.504 538.658 584.463C538.703 584.421 538.756 584.389 538.813 584.368C538.87 584.347 538.931 584.337 538.992 584.34H548.601C548.726 584.335 548.848 584.378 548.941 584.462C549.034 584.545 549.092 584.661 549.101 584.786C549.096 584.916 549.041 585.038 548.948 585.128C548.855 585.218 548.73 585.268 548.601 585.268H544.296V597.288C544.287 597.414 544.231 597.533 544.138 597.619C544.045 597.705 543.923 597.753 543.796 597.752C543.672 597.753 543.551 597.704 543.462 597.618C543.372 597.531 543.319 597.413 543.314 597.288V585.268Z" fill="#FFFFFA"/>
<path d="M561.21 591.537H553.852V597.324C553.843 597.453 553.783 597.574 553.687 597.661C553.59 597.747 553.464 597.793 553.334 597.788C553.209 597.788 553.089 597.74 552.999 597.653C552.909 597.567 552.856 597.449 552.852 597.324V584.822C552.861 584.7 552.915 584.587 553.005 584.504C553.094 584.421 553.212 584.375 553.334 584.375C553.397 584.37 553.461 584.378 553.521 584.398C553.582 584.418 553.637 584.449 553.686 584.491C553.734 584.532 553.773 584.583 553.802 584.64C553.83 584.697 553.847 584.758 553.852 584.822V590.626H561.21V584.822C561.219 584.697 561.277 584.581 561.37 584.497C561.463 584.414 561.585 584.37 561.71 584.375C561.773 584.37 561.835 584.378 561.895 584.398C561.954 584.418 562.009 584.45 562.055 584.492C562.102 584.534 562.14 584.584 562.167 584.641C562.193 584.698 562.208 584.759 562.21 584.822V597.324C562.208 597.387 562.193 597.449 562.167 597.507C562.14 597.565 562.103 597.617 562.056 597.66C562.01 597.703 561.955 597.736 561.896 597.758C561.837 597.78 561.773 597.791 561.71 597.788C561.583 597.789 561.461 597.741 561.369 597.655C561.276 597.568 561.219 597.45 561.21 597.324V591.537Z" fill="#FFFFFA"/>
<path d="M628.846 488.181H437.137V517.418H628.846V488.181Z" fill="#17AC91"/>
<path d="M529.883 507.345C529.923 507.302 529.971 507.268 530.025 507.245C530.079 507.222 530.137 507.21 530.196 507.21C530.254 507.21 530.312 507.222 530.366 507.245C530.42 507.268 530.468 507.302 530.508 507.345C531.854 508.42 533.503 509.044 535.223 509.131C536.335 509.158 537.429 508.854 538.366 508.256C538.723 508.052 539.023 507.763 539.238 507.413C539.454 507.064 539.578 506.665 539.599 506.255C539.58 505.882 539.462 505.52 539.258 505.206C539.054 504.893 538.771 504.639 538.438 504.469C537.404 503.912 536.279 503.543 535.116 503.38C533.929 503.224 532.784 502.842 531.74 502.255C531.31 502.029 530.946 501.694 530.686 501.284C530.425 500.873 530.278 500.401 530.258 499.915C530.282 499.404 530.431 498.907 530.693 498.468C530.954 498.029 531.32 497.661 531.758 497.397C532.785 496.736 533.984 496.394 535.205 496.415C536.8 496.497 538.338 497.036 539.635 497.968C539.684 497.999 539.726 498.04 539.759 498.087C539.792 498.135 539.815 498.188 539.827 498.245C539.839 498.302 539.839 498.361 539.827 498.417C539.816 498.474 539.793 498.528 539.76 498.576C539.688 498.669 539.584 498.733 539.468 498.753C539.352 498.772 539.233 498.747 539.134 498.683C537.99 497.839 536.625 497.349 535.205 497.272C534.178 497.255 533.167 497.534 532.294 498.076C531.978 498.262 531.711 498.521 531.515 498.832C531.319 499.143 531.201 499.496 531.169 499.862C531.186 500.201 531.292 500.531 531.477 500.816C531.662 501.101 531.919 501.333 532.223 501.487C533.174 502.015 534.216 502.361 535.295 502.505C536.552 502.686 537.764 503.104 538.867 503.737C539.328 503.98 539.717 504.341 539.993 504.784C540.269 505.226 540.423 505.734 540.438 506.255C540.413 506.803 540.254 507.335 539.973 507.806C539.693 508.276 539.3 508.67 538.831 508.952C537.734 509.656 536.455 510.022 535.152 510.006C533.205 509.94 531.329 509.258 529.794 508.059C529.739 508.013 529.696 507.954 529.67 507.888C529.644 507.821 529.635 507.749 529.644 507.678C529.653 507.607 529.679 507.539 529.721 507.481C529.763 507.423 529.819 507.376 529.883 507.345Z" fill="#FFFFFA"/>
<path d="M550.977 496.236C552.635 496.238 554.252 496.756 555.602 497.719C555.649 497.762 555.686 497.815 555.711 497.873C555.737 497.931 555.75 497.994 555.75 498.058C555.75 498.122 555.737 498.185 555.711 498.243C555.686 498.301 555.649 498.354 555.602 498.397C555.564 498.448 555.516 498.49 555.461 498.522C555.406 498.554 555.345 498.575 555.282 498.583C555.219 498.592 555.155 498.587 555.093 498.571C555.032 498.554 554.974 498.526 554.924 498.487C553.755 497.639 552.349 497.183 550.905 497.183C550.088 497.105 549.263 497.198 548.483 497.457C547.704 497.717 546.988 498.136 546.38 498.688C545.772 499.241 545.286 499.914 544.954 500.665C544.622 501.416 544.45 502.229 544.45 503.05C544.45 503.871 544.622 504.683 544.954 505.435C545.286 506.186 545.772 506.859 546.38 507.411C546.988 507.964 547.704 508.383 548.483 508.642C549.263 508.902 550.088 508.995 550.905 508.917C552.336 508.942 553.734 508.483 554.87 507.613C554.925 507.573 554.987 507.544 555.053 507.528C555.119 507.513 555.187 507.511 555.254 507.522C555.321 507.534 555.385 507.559 555.442 507.596C555.498 507.633 555.547 507.682 555.585 507.738C555.633 507.778 555.672 507.829 555.699 507.886C555.726 507.943 555.74 508.005 555.74 508.069C555.74 508.132 555.726 508.194 555.699 508.251C555.672 508.308 555.633 508.359 555.585 508.399C554.236 509.364 552.617 509.877 550.959 509.863C550.013 509.947 549.061 509.834 548.161 509.529C547.262 509.225 546.436 508.737 545.736 508.096C545.036 507.455 544.476 506.676 544.094 505.807C543.711 504.938 543.514 503.999 543.514 503.05C543.514 502.101 543.711 501.162 544.094 500.293C544.476 499.424 545.036 498.645 545.736 498.004C546.436 497.363 547.262 496.875 548.161 496.57C549.061 496.266 550.013 496.152 550.959 496.236H550.977Z" fill="#FFFFFA"/>
<path d="M560.068 496.897C560.077 496.771 560.134 496.652 560.227 496.566C560.32 496.48 560.442 496.432 560.568 496.433C560.632 496.43 560.695 496.44 560.754 496.462C560.814 496.484 560.868 496.518 560.915 496.561C560.961 496.604 560.999 496.656 561.025 496.714C561.051 496.771 561.066 496.834 561.069 496.897V509.399C561.066 509.462 561.051 509.525 561.025 509.582C560.999 509.64 560.961 509.692 560.915 509.735C560.868 509.778 560.814 509.811 560.754 509.834C560.695 509.856 560.632 509.866 560.568 509.863C560.442 509.864 560.32 509.816 560.227 509.73C560.134 509.643 560.077 509.525 560.068 509.399V496.897Z" fill="#FFFFFA"/>
<path d="M566.156 496.897C566.165 496.771 566.222 496.653 566.315 496.567C566.408 496.48 566.53 496.433 566.656 496.433H574.015C574.084 496.419 574.156 496.421 574.225 496.439C574.294 496.456 574.359 496.489 574.414 496.534C574.469 496.579 574.513 496.636 574.543 496.701C574.573 496.765 574.589 496.835 574.589 496.906C574.589 496.977 574.573 497.048 574.543 497.112C574.513 497.176 574.469 497.233 574.414 497.278C574.359 497.324 574.294 497.356 574.225 497.374C574.156 497.391 574.084 497.393 574.015 497.38H567.156V502.738H573.193C573.263 502.724 573.335 502.726 573.404 502.743C573.473 502.761 573.537 502.793 573.592 502.839C573.647 502.884 573.691 502.941 573.722 503.005C573.752 503.069 573.768 503.14 573.768 503.211C573.768 503.282 573.752 503.352 573.722 503.417C573.691 503.481 573.647 503.538 573.592 503.583C573.537 503.628 573.473 503.661 573.404 503.678C573.335 503.696 573.263 503.698 573.193 503.684H567.192V509.042H574.05C574.12 509.029 574.192 509.031 574.261 509.048C574.33 509.065 574.394 509.098 574.449 509.143C574.504 509.188 574.549 509.245 574.579 509.31C574.609 509.374 574.625 509.444 574.625 509.515C574.625 509.587 574.609 509.657 574.579 509.721C574.549 509.786 574.504 509.842 574.449 509.888C574.394 509.933 574.33 509.965 574.261 509.983C574.192 510 574.12 510.002 574.05 509.989H566.638C566.52 509.98 566.409 509.928 566.326 509.842C566.244 509.756 566.196 509.643 566.192 509.524L566.156 496.897Z" fill="#FFFFFA"/>
<path d="M579.319 498.415V509.399C579.297 509.513 579.236 509.616 579.147 509.691C579.057 509.765 578.944 509.805 578.828 509.805C578.712 509.805 578.599 509.765 578.51 509.691C578.42 509.616 578.359 509.513 578.337 509.399V497.094C578.308 497 578.31 496.899 578.342 496.806C578.374 496.712 578.435 496.632 578.516 496.576C578.624 496.502 578.756 496.473 578.885 496.493C579.014 496.512 579.131 496.58 579.212 496.683L587.892 507.953V497.022C587.894 496.961 587.909 496.901 587.934 496.846C587.96 496.79 587.996 496.74 588.041 496.699C588.085 496.658 588.138 496.625 588.195 496.604C588.252 496.583 588.313 496.573 588.374 496.576C588.438 496.571 588.501 496.579 588.562 496.598C588.622 496.618 588.678 496.65 588.726 496.691C588.774 496.733 588.814 496.783 588.842 496.84C588.871 496.897 588.888 496.959 588.892 497.022V509.399C588.883 509.529 588.824 509.65 588.727 509.736C588.631 509.823 588.504 509.869 588.374 509.864C588.302 509.864 588.231 509.848 588.167 509.817C588.102 509.786 588.045 509.741 587.999 509.685C587.97 509.693 587.939 509.693 587.91 509.685L579.319 498.415Z" fill="#FFFFFA"/>
<path d="M600.841 496.236C602.499 496.238 604.116 496.756 605.467 497.719C605.519 497.756 605.564 497.803 605.597 497.858C605.63 497.913 605.652 497.975 605.66 498.038C605.669 498.102 605.664 498.167 605.646 498.229C605.628 498.291 605.597 498.348 605.556 498.397C605.472 498.497 605.354 498.561 605.225 498.578C605.096 498.595 604.965 498.562 604.859 498.487C603.691 497.639 602.284 497.183 600.841 497.183C600.023 497.105 599.198 497.198 598.419 497.457C597.64 497.717 596.923 498.136 596.315 498.688C595.708 499.241 595.222 499.914 594.89 500.665C594.557 501.416 594.386 502.229 594.386 503.05C594.386 503.871 594.557 504.683 594.89 505.435C595.222 506.186 595.708 506.859 596.315 507.411C596.923 507.964 597.64 508.383 598.419 508.642C599.198 508.902 600.023 508.995 600.841 508.917C602.272 508.942 603.669 508.483 604.806 507.613C604.86 507.573 604.922 507.544 604.988 507.528C605.054 507.513 605.123 507.511 605.19 507.522C605.257 507.534 605.32 507.559 605.377 507.596C605.434 507.633 605.483 507.682 605.52 507.738C605.572 507.776 605.614 507.826 605.643 507.883C605.672 507.941 605.687 508.004 605.687 508.069C605.687 508.133 605.672 508.196 605.643 508.254C605.614 508.311 605.572 508.361 605.52 508.399C604.172 509.364 602.552 509.877 600.894 509.863C599.949 509.947 598.996 509.834 598.097 509.529C597.198 509.225 596.372 508.737 595.671 508.096C594.971 507.455 594.412 506.676 594.029 505.807C593.647 504.938 593.449 503.999 593.449 503.05C593.449 502.101 593.647 501.162 594.029 500.293C594.412 499.424 594.971 498.645 595.671 498.004C596.372 497.363 597.198 496.875 598.097 496.57C598.996 496.266 599.949 496.152 600.894 496.236H600.841Z" fill="#FFFFFA"/>
<path d="M609.789 496.897C609.798 496.771 609.855 496.653 609.948 496.567C610.04 496.48 610.162 496.433 610.289 496.433H617.648C617.717 496.419 617.789 496.421 617.858 496.439C617.927 496.456 617.991 496.489 618.046 496.534C618.101 496.579 618.146 496.636 618.176 496.701C618.206 496.765 618.222 496.835 618.222 496.906C618.222 496.977 618.206 497.048 618.176 497.112C618.146 497.176 618.101 497.233 618.046 497.278C617.991 497.324 617.927 497.356 617.858 497.374C617.789 497.391 617.717 497.393 617.648 497.38H610.789V502.738H616.79C616.86 502.724 616.932 502.726 617.001 502.743C617.07 502.761 617.134 502.793 617.189 502.839C617.244 502.884 617.288 502.941 617.319 503.005C617.349 503.069 617.365 503.14 617.365 503.211C617.365 503.282 617.349 503.352 617.319 503.417C617.288 503.481 617.244 503.538 617.189 503.583C617.134 503.628 617.07 503.661 617.001 503.678C616.932 503.696 616.86 503.698 616.79 503.684H610.789V509.042H617.648C617.717 509.029 617.789 509.031 617.858 509.048C617.927 509.065 617.991 509.098 618.046 509.143C618.101 509.188 618.146 509.245 618.176 509.31C618.206 509.374 618.222 509.444 618.222 509.515C618.222 509.587 618.206 509.657 618.176 509.721C618.146 509.786 618.101 509.842 618.046 509.888C617.991 509.933 617.927 509.965 617.858 509.983C617.789 510 617.717 510.002 617.648 509.989H610.236C610.117 509.98 610.006 509.928 609.923 509.842C609.841 509.756 609.793 509.643 609.789 509.524V496.897Z" fill="#FFFFFA"/>
<path d="M501.47 488.181H453.283V517.418H501.47V488.181Z" fill="#455A64"/>
<path d="M492.394 492.253H462.336V497.397H492.394V492.253Z" fill="#17AC91"/>
<path d="M492.394 500.219H462.336V505.363H492.394V500.219Z" fill="#17AC91"/>
<path d="M492.394 508.184H462.336V513.328H492.394V508.184Z" fill="#17AC91"/>
<path d="M524.223 517.4H425.297V543.868H524.223V517.4Z" fill="#A6A6A6"/>
<path d="M615.666 517.4H524.223V543.868H615.666V517.4Z" fill="#A6A6A6"/>
<path d="M524.223 520.151H425.297V541.118H524.223V520.151Z" fill="#FFFFFA"/>
<path d="M433.885 524.544C444.244 524.401 454.608 524.3 464.979 524.24L479.035 524.151L510.129 524.24C520.506 524.24 513.826 524.401 524.203 524.544C513.826 524.687 520.506 524.794 510.129 524.848L479.035 524.937L464.979 524.848C454.632 524.752 444.267 524.651 433.885 524.544Z" fill="#DBDBDB"/>
<path d="M433.885 528.581C444.244 528.438 454.608 528.337 464.979 528.277H479.035H510.129C520.506 528.277 513.826 528.438 524.203 528.581C513.826 528.724 520.506 528.831 510.129 528.885L479.035 528.992L464.979 528.885C454.632 528.837 444.267 528.736 433.885 528.581Z" fill="#DBDBDB"/>
<path d="M433.885 532.706C444.244 532.552 454.608 532.444 464.979 532.385L479.035 532.296L510.129 532.385C520.506 532.385 513.826 532.546 524.203 532.706C513.826 532.849 520.506 532.956 510.129 533.01L479.035 533.099L464.979 533.01C454.632 532.95 444.267 532.849 433.885 532.706Z" fill="#DBDBDB"/>
<path d="M433.885 536.814C444.244 536.671 454.608 536.57 464.979 536.511L479.035 536.421L510.129 536.511C520.506 536.511 513.826 536.671 524.203 536.814C513.826 536.957 520.506 537.064 510.129 537.118H479.035H464.979C454.632 537.07 444.267 536.969 433.885 536.814Z" fill="#DBDBDB"/>
<path d="M557.352 517.4H544.475V543.868H557.352V517.4Z" fill="#455A64"/>
<path d="M610.914 517.4H602.27V543.868H610.914V517.4Z" fill="#455A64"/>
<path d="M500.396 580.25H611.807V543.869H500.396V580.25Z" fill="#17AC91"/>
<path d="M415.796 580.25H500.381V543.869H415.796V580.25Z" fill="#17AC91"/>
<path d="M500.396 576.463H611.807V547.637H500.396V576.463Z" fill="#FFFFFA"/>
<path d="M604.594 570.534C595.89 570.688 587.204 570.795 578.536 570.855L552.496 570.944L526.439 570.855C517.759 570.855 509.073 570.748 500.381 570.534C509.085 570.391 517.771 570.289 526.439 570.23L552.496 570.141L578.536 570.23C587.216 570.289 595.902 570.391 604.594 570.534Z" fill="#DBDBDB"/>
<path d="M604.594 564.89C595.89 565.033 587.204 565.134 578.536 565.194L552.496 565.283L526.439 565.194C517.759 565.194 509.073 565.092 500.381 564.89C509.085 564.747 517.771 564.646 526.439 564.586L552.496 564.479L578.536 564.586C587.216 564.646 595.902 564.747 604.594 564.89Z" fill="#DBDBDB"/>
<path d="M604.594 559.228C595.89 559.371 587.204 559.473 578.536 559.532L552.496 559.639L526.439 559.532C517.759 559.532 509.073 559.431 500.381 559.228C509.085 559.086 517.771 558.984 526.439 558.925L552.496 558.836L578.536 558.925C587.216 558.972 595.902 559.074 604.594 559.228Z" fill="#DBDBDB"/>
<path d="M604.594 553.585C595.89 553.727 587.204 553.829 578.536 553.888L552.496 553.977L526.439 553.888C517.759 553.888 509.073 553.787 500.381 553.585C509.085 553.43 517.771 553.323 526.439 553.263L552.496 553.174L578.536 553.281C587.216 553.34 595.902 553.442 604.594 553.585Z" fill="#DBDBDB"/>
<path d="M445.102 543.869H429.26V580.25H445.102V543.869Z" fill="#455A64"/>
</svg>
