<svg width="175" height="175" viewBox="0 0 175 175" fill="none" xmlns="http://www.w3.org/2000/svg">
<circle cx="87.813" cy="87.7002" r="87" fill="#F1F1F1"/>
<path d="M141.895 57.5595C139.404 54.6744 136.27 51.621 134.297 50.1561C130.538 47.3646 126.022 45.3166 120.021 43.6837C117.476 42.9908 118.338 42.8101 122.505 43.1635C129.106 43.7235 135.469 46.2314 138.223 49.3582C140.167 51.5659 142.375 55.1007 143.54 57.8695C144.282 59.6327 144.273 59.591 143.918 59.591C143.77 59.591 142.86 58.6768 141.895 57.5595Z" fill="#FFFFFA"/>
<path d="M60.9421 141.008C60.2705 140.976 58.2837 140.819 56.527 140.659C47.8606 139.869 41.7275 138.087 36.994 134.985C35.4042 133.943 31.6839 130.403 30.9022 129.187C28.6025 125.612 27.7629 120.085 28.9493 116.332C30.0798 112.757 32.4625 109.532 35.8052 107.052C38.9082 104.751 40.9964 102.636 43.6752 99.085C47.8872 93.5007 51.6465 85.2804 54.0091 76.4884C56.3039 67.9488 59.1689 62.0344 63.3619 57.1805C67.4084 52.4962 72.6355 49.3357 79.5419 47.3976C81.7909 46.7663 82.0096 46.7397 84.7084 46.7679C96.8532 46.8946 106.631 50.6809 114.743 58.3992C119.242 62.6799 123.244 68.9272 124.25 73.2418C126.144 81.3612 126.172 90.615 124.329 99.4828C122.543 108.079 118.839 116.085 113.72 122.407C111.937 124.61 107.959 128.506 105.928 130.037C100.337 134.252 94.244 137.078 86.8009 138.907C84.3327 139.514 77.1976 140.623 73.7177 140.941C71.776 141.118 64.0749 141.158 60.9421 141.008Z" fill="#FFFFFA"/>
<path d="M103 48.8665C102.938 48.7664 102.972 48.3691 103.077 47.9837C103.181 47.5983 103.448 46.363 103.668 45.2386C104.814 39.4162 107.172 33.6452 110.315 28.9772C111.801 26.7698 115.319 23.1407 117.01 22.0704C119.74 20.3428 122.432 20.8931 126.227 23.955C130.346 27.2787 131.063 28.2266 130.488 29.5868C130.324 29.9755 129.828 30.5292 129.298 30.9154C128.135 31.7636 124.687 33.4296 122.747 34.0811C116.746 36.0963 111.021 40.352 105.299 47.0506C103.675 48.9517 103.259 49.28 103 48.8665Z" fill="#FFFFFA"/>
<path d="M145.349 69.1766C145.326 68.3282 144.779 65.9376 144.462 65.3043C143.829 64.038 141.427 62.0627 139.61 61.3137C138.198 60.7317 136.006 60.3648 131.75 59.999C129.853 59.836 127.547 59.5783 126.625 59.4265C119.361 58.2307 114.453 54.4844 110.94 47.4543L110.07 45.7149L111.265 44.4245C112.591 42.9916 114.099 41.7947 116.448 40.3099C118.59 38.9565 122.124 37.18 123.855 36.5869C125.5 36.0231 126.061 36.0431 129.804 36.8003C138.898 38.6398 145.184 43.6481 147.462 50.8681C148.24 53.3355 148.414 54.5209 148.413 57.3356C148.411 61.1195 147.669 64.6144 146.118 68.1424C145.574 69.3801 145.364 69.6634 145.349 69.1766ZM144.238 59.9959C144.238 59.9421 143.951 59.1701 143.599 58.2803C142.446 55.3637 140.263 51.6403 138.339 49.3147C136.248 46.7866 131.571 44.3991 126.659 43.3522C123.935 42.7716 118.89 42.3846 118.89 42.7561C118.89 42.8455 119.54 43.107 120.334 43.3372C126.27 45.0573 130.737 47.2148 134.455 50.1551C136.407 51.6982 139.507 54.9146 141.971 57.9538C142.926 59.1307 143.826 60.0937 143.973 60.0937C144.119 60.0937 144.238 60.0497 144.238 59.9959Z" fill="#FFFFFA"/>
</svg>
