<svg width="48" height="49" viewBox="0 0 48 49" fill="none" xmlns="http://www.w3.org/2000/svg">
<path d="M24 41.3786C18 41.3786 12.696 38.3066 9.6 33.6986C9.672 28.8986 19.2 26.2586 24 26.2586C28.8 26.2586 38.328 28.8986 38.4 33.6986C35.304 38.3066 30 41.3786 24 41.3786ZM24 7.29863C25.9096 7.29863 27.7409 8.0572 29.0912 9.40746C30.4414 10.7577 31.2 12.5891 31.2 14.4986C31.2 16.4082 30.4414 18.2395 29.0912 19.5898C27.7409 20.9401 25.9096 21.6986 24 21.6986C22.0904 21.6986 20.2591 20.9401 18.9088 19.5898C17.5586 18.2395 16.8 16.4082 16.8 14.4986C16.8 12.5891 17.5586 10.7577 18.9088 9.40746C20.2591 8.0572 22.0904 7.29863 24 7.29863ZM24 0.0986328C20.8483 0.0986328 17.7274 0.719411 14.8156 1.92552C11.9038 3.13164 9.25804 4.89946 7.02944 7.12807C2.52856 11.6289 0 17.7334 0 24.0986C0 30.4638 2.52856 36.5683 7.02944 41.0692C9.25804 43.2978 11.9038 45.0656 14.8156 46.2717C17.7274 47.4779 20.8483 48.0986 24 48.0986C30.3652 48.0986 36.4697 45.5701 40.9706 41.0692C45.4714 36.5683 48 30.4638 48 24.0986C48 10.8266 37.2 0.0986328 24 0.0986328Z" fill="#17AC91"/>
</svg>
